<?xml version="1.0" encoding="utf-8"?>
<!-- Generator: Adobe Illustrator 28.0.0, SVG Export Plug-In . SVG Version: 6.00 Build 0)  -->
<svg version="1.1" id="Layer_1" xmlns="http://www.w3.org/2000/svg" xmlns:xlink="http://www.w3.org/1999/xlink" x="0px" y="0px"
	 viewBox="0 0 82.2 83.7" style="enable-background:new 0 0 82.2 83.7;" xml:space="preserve">
<style type="text/css">
	.st0{fill:#FFFFFF;}
</style>
<g>
	<path class="st0" d="M40.6,61.2c-0.7,0-1.4-0.7-1.4-1.4v-3.2c0-2.8-2.2-5-5-5H21.7c-2.8,0-5,2.2-5,5v3.2c0,0.7-0.6,1.4-1.4,1.4
		c-0.8,0-1.4-0.7-1.4-1.4v-3.2c0-4.3,3.4-7.7,7.7-7.7h12.5c4.3,0,7.7,3.4,7.7,7.7v3.2C42,60.5,41.4,61.2,40.6,61.2z"/>
	<path class="st0" d="M28,45.3c-4.3,0-7.7-3.4-7.7-7.7s3.4-7.7,7.7-7.7s7.7,3.4,7.7,7.7S32.2,45.3,28,45.3z M28,32.8
		c-2.8,0-5,2.2-5,5s2.2,5,5,5s5-2.2,5-5S30.7,32.8,28,32.8z"/>
	<path class="st0" d="M50.1,61.2c-0.7,0-1.4-0.7-1.4-1.4v-3.2c0-2.2-1.5-4.1-3.7-4.8c-0.7-0.1-1.2-1-1-1.7c0.1-0.7,1-1.2,1.7-1
		c3.4,0.8,5.8,4,5.8,7.4v3.2C51.5,60.5,50.8,61.2,50.1,61.2L50.1,61.2z"/>
	<path class="st0" d="M39.1,45.2c-0.7,0-1.2-0.4-1.4-1.1c-0.1-0.7,0.3-1.5,1-1.7c1.8-0.4,3-1.8,3.6-3.6c0.7-2.6-1-5.4-3.6-6.1
		c-0.7-0.1-1.2-1-1-1.7c0.3-0.7,1-1.2,1.7-1c4.1,1.1,6.6,5.2,5.5,9.4c-0.7,2.8-2.8,4.8-5.5,5.5C39.3,45.2,39.2,45.2,39.1,45.2
		L39.1,45.2z"/>
</g>
<g>
	<path class="st0" d="M61.6,33.2v8.8h-1.5v-8.8h-8.3v-1.3h8.3v-8.2h1.5v8.2h8.3v1.3H61.6z"/>
</g>
</svg>
