<?xml version="1.0" encoding="UTF-8"?><svg id="Layer_1" xmlns="http://www.w3.org/2000/svg" viewBox="0 0 289.79 289.79"><path d="M144.9,280.08c-74.54,0-135.18-60.64-135.18-135.18S70.36,9.72,144.9,9.72s135.18,60.64,135.18,135.18-60.64,135.18-135.18,135.18Zm0-261.55c-69.18,0-125.45,56.69-125.45,126.36s56.28,126.36,125.45,126.36,125.45-56.69,125.45-126.36S214.07,18.53,144.9,18.53Z" style="fill:#f5f5f5;"/><path d="M220.87,157.24h-64.39c-3.14,0-5.69,2.55-5.69,5.69v62.43c0,3.14-2.55,5.69-5.69,5.69h-.79c-3.14,0-5.69-2.55-5.69-5.69v-62.43c0-3.14-2.55-5.69-5.69-5.69h-64c-3.14,0-5.69-2.55-5.69-5.69h0c0-3.14,2.55-5.69,5.69-5.69h64c3.14,0,5.69-2.55,5.69-5.69v-62.82c0-3.14,2.55-5.69,5.69-5.69h.79c3.14,0,5.69,2.55,5.69,5.69v62.82c0,3.14,2.55,5.69,5.69,5.69h64.39c3.14,0,5.69,2.55,5.69,5.69h0c0,3.14-2.55,5.69-5.69,5.69Z" style="fill:#f5f5f5;"/></svg>