<?xml version="1.0" encoding="UTF-8"?><svg id="Layer_1" xmlns="http://www.w3.org/2000/svg" viewBox="0 0 99.09 99.09"><circle cx="49.54" cy="49.54" r="49.54" style="fill:#66a9a9;"/><g><path d="M72.11,53.61c0,1.82,.01,3.54-.03,5.26,0,.14-.38,.38-.59,.38-1.41,.03-2.82,.04-4.22,0-.54-.01-.71,.19-.89,.69-.55,1.5-1.16,2.97-1.82,4.42-.2,.44-.19,.66,.15,.98,1.17,1.12,2.32,2.28,3.46,3.4-1.37,1.34-2.68,2.63-4.07,4-.9-.91-1.88-1.91-2.87-2.9-.93-.93-.9-.86-2.05-.32-1.25,.58-2.55,1.06-3.85,1.49-.51,.17-.69,.36-.68,.89,.03,1.6,.01,3.2,.01,4.86h-5.63v-5.52c-.34-.09-.65-.14-.93-.26-1.36-.56-2.75-1.08-4.07-1.72-.51-.25-.79-.25-1.16,.17-1.05,1.18-2.14,2.32-3.2,3.46-1.47-1.51-2.77-2.84-4.11-4.23,1.2-1.18,2.5-2.45,3.79-3.71-.46-.92-.94-1.76-1.32-2.65-.33-.78-.59-1.6-.78-2.42-.11-.48-.32-.63-.79-.62-1.36,.02-2.72,0-4.08,0-.26,0-.52-.02-.83-.04v-5.62c1.62,0,3.19-.03,4.76,.01,.6,.02,.79-.18,.98-.75,.56-1.67,1.24-3.29,1.91-5.04-1.15-1.13-2.44-2.4-3.69-3.63,1.39-1.38,2.71-2.69,4.08-4.05,1.06,1.07,2.21,2.22,3.33,3.39,.31,.33,.52,.38,.98,.17,1.49-.69,3.01-1.31,4.55-1.88,.43-.16,.57-.31,.56-.74-.02-1.62,0-3.25,0-4.93h5.64c0,1.57,.04,3.11-.02,4.66-.02,.66,.2,.88,.82,1.08,1.65,.55,3.25,1.23,5,1.9,1.12-1.15,2.38-2.46,3.65-3.76,1.4,1.42,2.7,2.74,4.1,4.17-1.06,1.03-2.15,2.13-3.29,3.18-.47,.44-.49,.74-.2,1.34,.66,1.37,1.21,2.79,1.71,4.23,.18,.52,.37,.67,.89,.66,1.57-.03,3.15-.01,4.84-.01Zm-20.28,9.07c3.42,0,6.19-2.75,6.21-6.18,.03-3.45-2.77-6.3-6.19-6.3-3.47,0-6.28,2.76-6.3,6.2-.02,3.49,2.77,6.28,6.27,6.29Z" style="fill:#fff;"/><path d="M75.25,37.53c-.45-4.36-.89-8.6-1.34-13.03-1.45,1.54-2.75,2.93-4.08,4.33-7.56-4.63-15.64-6.19-24.27-4.27-8.64,1.92-15.38,6.7-20.13,14.14-6.35,9.95-6.04,21.29-2.38,29.78,1.58-1.06,3.14-2.16,4.7-3.25-4.29-11.21-.14-23.52,8.32-30.13,9.53-7.44,21.74-7.06,29.69-1.92-.96,1.04-1.92,2.07-2.99,3.22,4.25,.39,8.32,.75,12.47,1.13Z" style="fill:#fff;"/></g></svg>