<?xml version="1.0" encoding="UTF-8"?>
<svg id="Layer_1" data-name="Layer 1" xmlns="http://www.w3.org/2000/svg" viewBox="0 0 384 378.34">
  <defs>
    <style>
      .cls-1 {
        fill: #2bb673;
        stroke-width: 0px;
      }
    </style>
  </defs>
  <g id="nqqLq9">
    <g>
      <path class="cls-1" d="m30.71,193.13c-.12-92.27,75.48-168.37,167.35-168.48,94.94-.11,170.56,74.47,170.72,168.38.16,94.31-75.13,169.72-169.43,169.68-93.69-.04-168.52-75.28-168.64-169.59Zm323.26,1.06c.02-84.89-69.12-154.66-153.33-154.72-85.23-.05-155.11,68.82-155.12,152.88,0,86.09,68.71,155.43,154.13,155.55,84.56.11,154.29-69.34,154.31-153.71Z"/>
      <path class="cls-1" d="m100.05,201.33v-14.73h91.88v-92.37h15.05v91.8h92.31v15.03h-92.04v92.21h-14.47v-91.95h-92.74Z"/>
    </g>
  </g>
</svg>