<?xml version="1.0" encoding="UTF-8"?><svg id="Layer_1" xmlns="http://www.w3.org/2000/svg" viewBox="0 0 50.86 50.86"><g id="QnxSiS.tif"><circle cx="25.43" cy="25.43" r="25.43" style="fill:#fff;"/><g><path d="M26.88,2.29c.85,.12,1.7,.2,2.54,.35,5.37,.96,9.86,3.5,13.45,7.59,3.22,3.67,5.12,7.97,5.57,12.83,.65,6.89-1.36,12.95-6.04,18.06-3.56,3.9-8,6.31-13.22,7.13-6.68,1.05-12.76-.48-18.08-4.67-4.88-3.84-7.72-8.91-8.62-15.05-.08-.55-.14-1.1-.2-1.65,0-.96,0-1.93,0-2.89,.07-.55,.12-1.1,.2-1.65,.66-4.71,2.55-8.85,5.75-12.37,3.57-3.95,7.99-6.41,13.25-7.32,.83-.14,1.66-.23,2.5-.35,.96,0,1.93,0,2.89,0ZM4.62,25.39c-.03,11.5,9.26,20.83,20.79,20.86,11.49,.04,20.83-9.28,20.85-20.8,.02-11.51-9.29-20.83-20.81-20.84-11.49,0-20.8,9.28-20.83,20.78Z" style="fill:#3a80b9;"/><path d="M26.6,24.26c.22,0,.38,0,.54,0,2.08,0,4.16,0,6.24,0,.84,0,1.35,.52,1.29,1.28-.05,.64-.55,1.05-1.29,1.05-2.08,0-4.16,0-6.24,0-.16,0-.32,0-.54,0,0,.2,0,.36,0,.52,0,2.08,0,4.16,0,6.24,0,.74-.38,1.23-.98,1.31-.77,.1-1.34-.42-1.34-1.27,0-2.06,0-4.13,0-6.19,0-.18,0-.36,0-.61-.18,0-.34,0-.5,0-2.09,0-4.19,0-6.28,0-.77,0-1.26-.43-1.3-1.1-.03-.73,.48-1.22,1.3-1.23,2.06,0,4.13,0,6.19,0,.18,0,.35,0,.59,0,0-.2,0-.36,0-.52,0-2.08,0-4.16,0-6.24,0-.74,.38-1.23,.98-1.31,.77-.1,1.34,.42,1.34,1.27,0,2.02,0,4.04,0,6.06,0,.22,0,.45,0,.74Z" style="fill:#3a80b9;"/></g></g></svg>