<?xml version="1.0" encoding="UTF-8"?>
<svg id="Layer_1" data-name="Layer 1" xmlns="http://www.w3.org/2000/svg" viewBox="0 0 384 378.34">
  <defs>
    <style>
      .cls-1 {
        fill: #27aae1;
      }

      .cls-1, .cls-2 {
        stroke-width: 0px;
      }

      .cls-2 {
        fill: #fff;
      }
    </style>
  </defs>
  <circle class="cls-1" cx="192" cy="189.17" r="158.77"/>
  <g>
    <path class="cls-2" d="m220.46,156.07c0,1.01,0,2.03,0,3.04,0,43.79,0,87.58-.02,131.36,0,7.72-4.28,13.13-10.91,14.02-6.38.86-12.37-2.84-14.17-9.01-.56-1.91-.58-4.02-.58-6.03-.04-18.09-.02-36.17-.02-54.26,0-1.74,0-3.49,0-5.49h-5.12c-.07,1.52-.2,3.08-.2,4.65-.02,18.63.05,37.26-.04,55.89-.04,9.12-5.33,14.58-13.52,14.3-6.16-.21-11.37-4.99-12.03-11.16-.22-2.02-.2-4.07-.2-6.11-.01-42.29,0-84.58-.01-126.88,0-1.49,0-2.98,0-4.47-.26-.11-.53-.22-.79-.33-.57,1.22-1.21,2.41-1.69,3.67-5.42,14.3-6.69,29.28-7.18,44.38-.1,2.99.08,6-.22,8.97-.5,4.81-4.64,8.61-8.9,8.46-4.45-.15-8.59-3.93-8.53-8.81.24-21.37,1-42.75,10.09-62.63,2.32-5.08,5.93-9.72,9.63-13.97,4.18-4.79,9.96-6.9,16.4-6.9,13.05,0,26.11-.08,39.16.03,10.1.09,17.03,5.68,22.21,13.73,6.59,10.25,9.77,21.82,11.28,33.69,1.49,11.7,1.95,23.54,2.55,35.34.24,4.8-2.58,8.06-6.71,8.96-4.09.9-8.28-.94-9.77-4.75-.76-1.95-.89-4.23-.93-6.37-.25-14.83-1.02-29.6-5.21-43.94-.95-3.26-2.31-6.41-3.47-9.61-.36.08-.73.16-1.09.24Z"/>
    <path class="cls-2" d="m166.15,99.58c.03-14.47,11.73-26.02,26.22-25.86,14.26.15,25.72,11.75,25.72,26.03,0,14.31-12.07,26.43-26.11,26.23-14.38-.2-25.86-11.94-25.83-26.4Z"/>
  </g>
</svg>