<?xml version="1.0" encoding="utf-8"?>
<!-- Generator: Adobe Illustrator 22.0.1, SVG Export Plug-In . SVG Version: 6.00 Build 0)  -->
<svg version="1.1" id="Layer_1" xmlns="http://www.w3.org/2000/svg" xmlns:xlink="http://www.w3.org/1999/xlink" x="0px" y="0px"
	 viewBox="0 0 49.4 29.5" style="enable-background:new 0 0 49.4 29.5;" xml:space="preserve">
<style type="text/css">
	.st0{fill:#6485A6;}
</style>
<g>
	<path class="st0" d="M33.2,5.4L33.2,5.4c-0.8,0.8-0.8,2,0,2.8l1.2,1.2c1.2,1.2,0.4,3.4-1.4,3.4h-9.5c-1.1,0-2,0.9-2,2v0
		c0,1.1,0.9,2,2,2H33c1.8,0,2.7,2.1,1.4,3.4l-1.2,1.2c-0.8,0.8-0.8,2,0,2.8l0,0c0.8,0.8,2,0.8,2.8,0l8-8c0.8-0.8,0.8-2,0-2.8l-8-8
		C35.2,4.6,33.9,4.6,33.2,5.4z"/>
	<path class="st0" d="M13.8,16.8h2.3c1.1,0,2-0.9,2-2l0,0c0-1.1-0.9-2-2-2h-2.3c-1.1,0-2,0.9-2,2l0,0C11.8,15.9,12.7,16.8,13.8,16.8
		z"/>
	<path class="st0" d="M6.3,16.8h0.3c0.8,0,1.5-0.7,1.5-1.5v-1c0-0.8-0.7-1.5-1.5-1.5H6.3c-0.8,0-1.5,0.7-1.5,1.5v1
		C4.8,16.1,5.5,16.8,6.3,16.8z"/>
</g>
</svg>
