<?xml version="1.0" encoding="utf-8"?>
<!-- Generator: Adobe Illustrator 22.0.1, SVG Export Plug-In . SVG Version: 6.00 Build 0)  -->
<svg version="1.1" id="Layer_1" xmlns="http://www.w3.org/2000/svg" xmlns:xlink="http://www.w3.org/1999/xlink" x="0px" y="0px"
	 viewBox="0 0 49.4 29.5" style="enable-background:new 0 0 49.4 29.5;" xml:space="preserve">
<style type="text/css">
	.st0{fill:#6485A6;}
</style>
<g>
	<path class="st0" d="M16.2,24.2L16.2,24.2c0.8-0.8,0.8-2,0-2.8L15,20.1c-1.2-1.2-0.4-3.4,1.4-3.4H26c1.1,0,2-0.9,2-2v0
		c0-1.1-0.9-2-2-2h-9.5c-1.8,0-2.7-2.1-1.4-3.4l1.2-1.2c0.8-0.8,0.8-2,0-2.8l0,0c-0.8-0.8-2-0.8-2.8,0l-8,8c-0.8,0.8-0.8,2,0,2.8
		l8,8C14.2,24.9,15.4,24.9,16.2,24.2z"/>
	<path class="st0" d="M35.6,12.8h-2.3c-1.1,0-2,0.9-2,2l0,0c0,1.1,0.9,2,2,2h2.3c1.1,0,2-0.9,2-2l0,0C37.6,13.7,36.7,12.8,35.6,12.8
		z"/>
	<path class="st0" d="M43,12.8h-0.3c-0.8,0-1.5,0.7-1.5,1.5v1c0,0.8,0.7,1.5,1.5,1.5H43c0.8,0,1.5-0.7,1.5-1.5v-1
		C44.5,13.5,43.9,12.8,43,12.8z"/>
</g>
</svg>
