<?xml version="1.0" encoding="utf-8"?>
<!-- Generator: Adobe Illustrator 27.0.1, SVG Export Plug-In . SVG Version: 6.00 Build 0)  -->
<svg version="1.1" id="Layer_1" xmlns="http://www.w3.org/2000/svg" xmlns:xlink="http://www.w3.org/1999/xlink" x="0px" y="0px"
	 viewBox="0 0 300 300" style="enable-background:new 0 0 300 300;" xml:space="preserve">
<style type="text/css">
	.st0{fill:#556474;}
	.st1{fill:#E8F4FC;}
</style>
<rect x="-13.4" y="-13.4" class="st0" width="325.4" height="325.4"/>
<g>
	<path class="st1" d="M184.7,235.7c-6.9-1.1-7.1-20.1-7.1-20.1s20.3-20.1,24.7-47.2c12,0,19.3-28.7,7.4-38.8
		c0.5-10.7,15.3-83.7-59.8-83.7s-60.2,73-59.8,83.7c-12,10.1-4.6,38.8,7.4,38.8c4.5,27.1,24.7,47.2,24.7,47.2s-0.1,19.1-7.1,20.1
		C92.8,239.3,9.6,275.9,9.6,316.3h140.2H290C290.2,275.9,207,239.3,184.7,235.7z"/>
</g>
</svg>
