<?xml version="1.0" encoding="utf-8"?>
<!-- Generator: Adobe Illustrator 27.0.1, SVG Export Plug-In . SVG Version: 6.00 Build 0)  -->
<svg version="1.1" id="Layer_1" xmlns="http://www.w3.org/2000/svg" xmlns:xlink="http://www.w3.org/1999/xlink" x="0px" y="0px"
	 viewBox="0 0 172.7 172.7" style="enable-background:new 0 0 172.7 172.7;" xml:space="preserve">
<style type="text/css">
	.st0{fill:#4B647D;}
	.st1{fill:#FFFFFF;}
</style>
<g>
	<circle class="st0" cx="86.4" cy="86.4" r="79.1"/>
	<g>
		<g>
			<path class="st1" d="M85.8,112.6c-15.2-0.8-27.7-8-37.1-21.1c-2.4-3.3-2.2-6.3,0.1-9.7C67.4,54,106.7,54.1,125,81.9
				c2.3,3.4,2.4,6.4-0.1,9.7C115.6,104.7,103.2,112.1,85.8,112.6z M105.3,71.8c2.8,13.3,0.7,20.6-7.1,25.9
				c-6.5,4.5-15.7,4.7-22.2,0.2c-9.2-6.4-10.8-15.2-7.2-26.3c-6.7,3.7-11.4,8.1-15,13.7c-0.5,0.8-0.1,2.6,0.5,3.5
				c16.7,23.6,48.7,23.5,65.3,0c0.6-0.9,0.9-2.7,0.4-3.5C116.5,79.7,111.6,75.4,105.3,71.8z M73.6,80.6c0.3,0.4,1,1.3,1.7,2.2
				c0.8-0.9,2-1.7,2.2-2.7c0.9-4.8,3.8-7.4,8.5-8.5c1-0.2,1.7-1.5,2.5-2.3c-1.1-0.5-2.2-1.4-3.3-1.4C79.5,67.8,73.7,73.8,73.6,80.6z
				"/>
		</g>
	</g>
</g>
</svg>
