<?xml version="1.0" encoding="utf-8"?>
<!-- Generator: Adobe Illustrator 26.4.1, SVG Export Plug-In . SVG Version: 6.00 Build 0)  -->
<svg version="1.1" id="Layer_1" xmlns="http://www.w3.org/2000/svg" xmlns:xlink="http://www.w3.org/1999/xlink" x="0px" y="0px"
	 viewBox="0 0 30 30" style="enable-background:new 0 0 30 30;" xml:space="preserve">
<style type="text/css">
	.st0{fill:#003557;}
</style>
<g>
	<path class="st0" d="M3.3,15.5L3.3,15.5c0-0.5,0.4-0.9,0.9-0.9H26c0.5,0,0.9,0.4,0.9,0.9l0,0c0,0.5-0.4,0.9-0.9,0.9H4.2
		C3.7,16.4,3.3,16,3.3,15.5z"/>
	<path class="st0" d="M3.1,23.2L3.1,23.2c0-0.5,0.4-0.9,0.9-0.9h14.4c0.5,0,0.9,0.4,0.9,0.9l0,0c0,0.4-0.4,0.8-0.9,0.8H3.9
		C3.4,24,3.1,23.6,3.1,23.2z"/>
	<path class="st0" d="M23.3,7.9L23.3,7.9c0,0.5-0.4,0.9-0.9,0.9H3.9C3.4,8.8,3,8.4,3,7.9l0,0C3,7.4,3.4,7,3.9,7h18.6
		C22.9,7,23.3,7.4,23.3,7.9z"/>
</g>
</svg>
