<?xml version="1.0" encoding="utf-8"?>
<!-- Generator: Adobe Illustrator 28.0.0, SVG Export Plug-In . SVG Version: 6.00 Build 0)  -->
<svg version="1.1" id="Layer_1" xmlns="http://www.w3.org/2000/svg" xmlns:xlink="http://www.w3.org/1999/xlink" x="0px" y="0px"
	 viewBox="0 0 365.9 280.1" style="enable-background:new 0 0 365.9 280.1;" xml:space="preserve">
<style type="text/css">
	.st0{fill:#A0A0A0;}
</style>
<g id="CMR8Bo_00000170984274866296672280000007554154174939814805_">
	<g>
		<path class="st0" d="M183,268.6c-42,0-84.1,0-126.1,0c-24.4,0-41.7-17.1-41.7-41.5c0-47.4,0-94.8,0-142.2
			c0-24.4,17.2-41.4,41.7-41.4c16.4,0,32.7-0.1,49.1,0.1c3.1,0,4.8-0.8,5.9-3.7c1-2.7,2.5-5.2,3.8-7.8c6.4-14,17.8-20.1,32.6-20.3
			c23.2-0.3,46.5-0.3,69.7,0c14.8,0.2,26.8,6.1,32.3,20.4c3.6,9.3,8.6,12.4,18.6,11.7c13.7-1,27.5-0.3,41.3-0.3
			c23.5,0.1,40.8,17.4,40.8,40.9c0.1,47.5,0.1,95.1,0,142.6c0,24.4-17.3,41.5-41.7,41.5C267,268.6,225,268.6,183,268.6z M183,247.6
			c41.3,0,82.6-0.4,123.8,0.2c15.2,0.2,23.3-9.5,23.2-23c-0.5-46-0.2-92-0.2-138c0-15-7.2-22.3-22.1-22.3c-18.8,0-37.6-0.1-56.4,0.1
			c-5.9,0-9.9-2.3-12.3-7.7c-2.4-5.3-5.1-10.4-7.5-15.7c-2.5-5.8-7.1-8.3-13-8.4c-23.7-0.1-47.4-0.1-71.1,0c-5.7,0-10.3,2.4-12.8,8
			c-2.3,5.1-5.1,10.1-7.3,15.3c-2.6,6.2-7,8.6-13.6,8.5c-18.6-0.2-37.3-0.1-55.9-0.1c-14.1,0-21.6,7.4-21.6,21.4
			c0,46.8,0,93.6,0,140.3c0,13.8,7.5,21.3,21.2,21.3C99.2,247.6,141.1,247.6,183,247.6z"/>
		<path class="st0" d="M182.7,226.6c-40.6-0.1-73.3-33-73.2-73.7c0.1-40.2,33.1-73.2,73.4-73.2c40.5,0,73.5,33.1,73.4,73.6
			C256.3,193.9,223.4,226.7,182.7,226.6z M182.8,205.6c28.9,0.1,52.4-23.3,52.5-52c0.1-29.1-23.3-52.8-52.2-52.8
			c-29,0-52.5,23.5-52.5,52.6C130.6,182.1,154,205.5,182.8,205.6z"/>
	</g>
</g>
</svg>
