<svg id="ejrNuWwmf8b1" xmlns="http://www.w3.org/2000/svg" xmlns:xlink="http://www.w3.org/1999/xlink" viewBox="0 0 450 466" shape-rendering="geometricPrecision" text-rendering="geometricPrecision">
<style><![CDATA[
#ejrNuWwmf8b3 {animation-name: ejrNuWwmf8b3_s_do, ejrNuWwmf8b3_s_da;animation-duration: 10000ms;animation-fill-mode: forwards;animation-timing-function: linear;animation-direction: normal;animation-iteration-count: infinite;}@keyframes ejrNuWwmf8b3_s_do { 0% {stroke-dashoffset: 2012.56} 40% {stroke-dashoffset: 0} 58% {stroke-dashoffset: 0} 86% {stroke-dashoffset: 0} 100% {stroke-dashoffset: 2012.56}}@keyframes ejrNuWwmf8b3_s_da { 0% {stroke-dasharray: 2012.56} 40% {stroke-dasharray: 0} 58% {stroke-dasharray: 0} 86% {stroke-dasharray: 0} 100% {stroke-dasharray: 2012.56}} #ejrNuWwmf8b4 {animation: ejrNuWwmf8b4_c_o 10000ms linear infinite normal forwards}@keyframes ejrNuWwmf8b4_c_o { 0% {opacity: 0} 40% {opacity: 0} 50% {opacity: 1} 58% {opacity: 0.36} 70% {opacity: 1} 86% {opacity: 0} 100% {opacity: 0}} #ejrNuWwmf8b9 {animation-name: ejrNuWwmf8b9_s_do, ejrNuWwmf8b9_s_da;animation-duration: 10000ms;animation-fill-mode: forwards;animation-timing-function: linear;animation-direction: normal;animation-iteration-count: infinite;}@keyframes ejrNuWwmf8b9_s_do { 0% {stroke-dashoffset: 2012.56} 40% {stroke-dashoffset: 0} 58% {stroke-dashoffset: 0} 86% {stroke-dashoffset: 0} 100% {stroke-dashoffset: 2012.56}}@keyframes ejrNuWwmf8b9_s_da { 0% {stroke-dasharray: 2012.56} 40% {stroke-dasharray: 0} 58% {stroke-dasharray: 0} 86% {stroke-dasharray: 0} 100% {stroke-dasharray: 2012.56}} #ejrNuWwmf8b10 {animation-name: ejrNuWwmf8b10_s_do, ejrNuWwmf8b10_s_da;animation-duration: 10000ms;animation-fill-mode: forwards;animation-timing-function: linear;animation-direction: normal;animation-iteration-count: infinite;}@keyframes ejrNuWwmf8b10_s_do { 0% {stroke-dashoffset: 2012.56} 40% {stroke-dashoffset: 0} 58% {stroke-dashoffset: 0} 86% {stroke-dashoffset: 0} 100% {stroke-dashoffset: 2012.56}}@keyframes ejrNuWwmf8b10_s_da { 0% {stroke-dasharray: 2012.56} 40% {stroke-dasharray: 0} 58% {stroke-dasharray: 0} 86% {stroke-dasharray: 0} 100% {stroke-dasharray: 2012.56}} #ejrNuWwmf8b11 {animation-name: ejrNuWwmf8b11_s_do, ejrNuWwmf8b11_s_da;animation-duration: 10000ms;animation-fill-mode: forwards;animation-timing-function: linear;animation-direction: normal;animation-iteration-count: infinite;}@keyframes ejrNuWwmf8b11_s_do { 0% {stroke-dashoffset: 2012.56} 40% {stroke-dashoffset: 0} 58% {stroke-dashoffset: 0} 86% {stroke-dashoffset: 0} 100% {stroke-dashoffset: 2012.56}}@keyframes ejrNuWwmf8b11_s_da { 0% {stroke-dasharray: 2012.56} 40% {stroke-dasharray: 0} 58% {stroke-dasharray: 0} 86% {stroke-dasharray: 0} 100% {stroke-dasharray: 2012.56}}
]]></style>
<g opacity="0.7"><circle id="ejrNuWwmf8b3" r="31" transform="translate(53.2 171.1)" fill="rgba(206,215,219,0)" stroke="#ced7db" stroke-miterlimit="1" stroke-dashoffset="2012.56" stroke-dasharray="2012.56"/><g id="ejrNuWwmf8b4" opacity="0"><circle r="31" transform="translate(53.2 171.1)" opacity="0.56" fill="rgba(206,215,219,0.84)" stroke="#ced7db" stroke-miterlimit="1" stroke-dashoffset="2012.56" stroke-dasharray="2012.56"/><path d="M342.1,123.7c0-17.1-13.9-31-31-31s-31,13.9-31,31v19.2c0,6.5-5.3,11.8-11.8,11.8s-11.8-5.3-11.8-11.8v-104.9c0-17.1-13.9-31-31-31s-31,13.9-31,31v390c0,17.1,13.9,31,31,31s31-13.9,31-31v-223c0-6.5,5.3-11.8,11.8-11.8s11.8,5.3,11.8,11.8v148.7c0,17.1,13.9,31,31,31s31-13.9,31-31v-116c0-6.5,5.3-11.8,11.8-11.8s11.8,5.3,11.8,11.8v77.6c0,17.1,13.9,31,31,31s31-13.9,31-31v-129.5c0-17.1-13.9-31-31-31s-31,13.9-31,31v4.5c0,6.5-5.3,11.8-11.8,11.8s-11.8-5.3-11.8-11.8v-66.6Z" opacity="0.56" fill="rgba(206,215,219,0.84)" stroke="#ced7db" stroke-miterlimit="1" stroke-dashoffset="2012.56" stroke-dasharray="2012.56"/><path d="M107.9,100c0-17.1,13.9-31,31-31s31,13.9,31,31v277.2c0,17.1-13.9,31-31,31s-31-13.9-31-31v-277.2Z" opacity="0.56" fill="rgba(206,215,219,0.84)" stroke="#ced7db" stroke-miterlimit="1" stroke-dashoffset="2012.56" stroke-dasharray="2012.56"/><path d="M22.2,315.3c0,17.1,13.9,31,31,31s31-13.9,31-31v-67.5c0-17.1-13.9-31-31-31s-31,13.9-31,31v67.5Z" opacity="0.56" fill="rgba(206,215,219,0.84)" stroke="#ced7db" stroke-miterlimit="1" stroke-dashoffset="2012.56" stroke-dasharray="2012.56"/></g><path id="ejrNuWwmf8b9" d="M107.9,100c0-17.1,13.9-31,31-31s31,13.9,31,31v277.2c0,17.1-13.9,31-31,31s-31-13.9-31-31v-277.2Z" fill="none" stroke="#ced7db" stroke-miterlimit="1" stroke-dashoffset="2012.56" stroke-dasharray="2012.56"/><path id="ejrNuWwmf8b10" d="M22.2,315.3c0,17.1,13.9,31,31,31s31-13.9,31-31v-67.5c0-17.1-13.9-31-31-31s-31,13.9-31,31v67.5Z" fill="none" stroke="#ced7db" stroke-miterlimit="1" stroke-dashoffset="2012.56" stroke-dasharray="2012.56"/><path id="ejrNuWwmf8b11" d="M342.1,123.7c0-17.1-13.9-31-31-31s-31,13.9-31,31v19.2c0,6.5-5.3,11.8-11.8,11.8s-11.8-5.3-11.8-11.8v-104.9c0-17.1-13.9-31-31-31s-31,13.9-31,31v390c0,17.1,13.9,31,31,31s31-13.9,31-31v-223c0-6.5,5.3-11.8,11.8-11.8s11.8,5.3,11.8,11.8v148.7c0,17.1,13.9,31,31,31s31-13.9,31-31v-116c0-6.5,5.3-11.8,11.8-11.8s11.8,5.3,11.8,11.8v77.6c0,17.1,13.9,31,31,31s31-13.9,31-31v-129.5c0-17.1-13.9-31-31-31s-31,13.9-31,31v4.5c0,6.5-5.3,11.8-11.8,11.8s-11.8-5.3-11.8-11.8v-66.6Z" fill="none" stroke="#ced7db" stroke-miterlimit="1" stroke-dashoffset="2012.56" stroke-dasharray="2012.56"/></g></svg>
