<?xml version="1.0" encoding="UTF-8"?><svg id="Layer_1" xmlns="http://www.w3.org/2000/svg" viewBox="0 0 48.98 45.48"><g id="BlP0mZ"><g><path d="M22.47,43.08h-.18c-.3-.05-.6-.11-.9-.13-7.94-.65-13.4-4.72-16.38-12.06-.62-1.52-.82-3.22-1.22-4.83,0-1.1,0-2.2,0-3.3,.05-.17,.13-.34,.15-.52,.44-3.9,1.95-7.33,4.57-10.25,3.45-3.85,7.8-5.89,13.01-6.22,.03,.23,.06,.41,.06,.58,.24,5.63,.47,11.27,.74,16.9,.03,.67,.23,1.38,.55,1.97,1.01,1.88,2.11,3.7,3.17,5.55,1.86,3.23,3.72,6.47,5.67,9.86-1.35,.54-2.57,1.19-3.88,1.52-1.76,.44-3.58,.64-5.37,.94Z" style="fill:#434d68;"/><path d="M45.18,24.22c-2.83-.06-5.67-.1-8.5-.19-4.17-.12-8.35-.27-12.69-.42V2.43c1.64-.13,3.33,.18,4.99,.63,8.62,2.34,14.82,9.43,15.99,18.26,.07,.54,.14,1.08,.21,1.62v1.28Zm-18.99-2.77c5.62,.17,11.08,.34,16.55,.51-.99-9.9-9.48-16.62-16.55-17.04V21.45Z" style="fill:#434d68;"/><path d="M41.94,25.57c-.23,6.22-2.75,10.96-7.68,14.55-2.86-4.89-5.67-9.71-8.5-14.55h16.18Z" style="fill:#434d68;"/></g></g></svg>