<?xml version="1.0" encoding="utf-8"?>
<!-- Generator: Adobe Illustrator 28.0.0, SVG Export Plug-In . SVG Version: 6.00 Build 0)  -->
<svg version="1.1" id="Layer_1" xmlns="http://www.w3.org/2000/svg" xmlns:xlink="http://www.w3.org/1999/xlink" x="0px" y="0px"
	 viewBox="0 0 281.5 289.5" style="enable-background:new 0 0 281.5 289.5;" xml:space="preserve">
<style type="text/css">
	.st0{fill:#3369A3;}
</style>
<g id="WKulsZ">
	<g>
		<path class="st0" d="M29.2,166.4c0-59.5,48.2-108.6,108.6-108.4c60.7,0.2,108.7,48.9,108.2,109.7C245.6,227.9,196,275.6,136.4,275
			C77.5,274.5,29,225.7,29.2,166.4L29.2,166.4z M228.8,166.5c0-50.1-40.8-91.2-90.6-91.2c-50.6,0-91.6,40.6-91.6,90.9
			c0,50.6,40.6,91.4,91,91.5C187.9,257.7,228.8,216.8,228.8,166.5L228.8,166.5z"/>
		<path class="st0" d="M150.6,49.9c-8.7-0.9-17.2-0.9-25.7,0c-0.3-1.2-0.4-2.2-0.8-3.2c-1.3-3.6-4.8-6-8.6-6.1
			c-1.7,0-3.5,0.1-5.2-0.2c-4.2-0.6-7.2-4.1-7.2-8.4c0-3-0.1-6,0-9c0.1-4.6,3.8-8.5,8.4-8.5c17.5-0.1,35,0,52.4,0
			c4.4,0,8.1,3.3,8.4,7.7c0.2,3.5,0.2,7,0,10.5c-0.3,4.4-3.9,7.6-8.4,7.8c-1.1,0-2.2,0-3.4,0c-5.3,0-9.1,3.3-9.8,8.5
			C150.7,49.3,150.7,49.5,150.6,49.9L150.6,49.9z"/>
		<path class="st0" d="M229.1,93.3c-5.4-6.8-11.5-12.9-18.3-18.4c2.3-2.4,4.6-4.7,6.9-7c0.7-0.6,0.8-1.2,0.8-2
			c-0.1-1.5-0.1-3,0.1-4.5c0.5-3.3,2.3-5.6,5.4-6.8c3.2-1.2,6.3-0.9,8.8,1.5c5.8,5.6,11.5,11.3,17.1,17.1c2.4,2.5,2.8,5.7,1.5,8.9
			c-1.2,3.2-3.6,5.2-7.1,5.3c-2.6,0.1-5.3-0.1-7.9-0.4c-0.8-0.1-1.3,0-1.8,0.6C232.9,89.6,231,91.4,229.1,93.3L229.1,93.3z"/>
		<path class="st0" d="M152.2,166.5c-0.1,8.4-7.2,15-15.6,14.4c-8.4-0.6-14.6-8.2-13.1-16.5c1.9-10.4,4.1-20.7,6.1-31
			c1.4-7.1,2.9-14.2,4.3-21.3c0.4-2.1,1.7-3.2,3.6-3.2c1.8,0,3.1,1.1,3.5,3.2c3.4,16.6,6.9,33.2,10.3,49.8
			C151.7,163.3,151.9,164.9,152.2,166.5L152.2,166.5z"/>
		<path class="st0" d="M209.6,205.2c0,3.5-3.4,5.6-6.2,4.2c-2.8-1.4-5.5-3-8.1-4.7c-1.9-1.2-2.4-3.8-1.2-5.7s3.6-2.8,5.6-1.7
			c2.7,1.4,5.4,3,8,4.6C209,202.7,209.6,204,209.6,205.2L209.6,205.2z"/>
		<path class="st0" d="M133.4,92.6c0-1.4,0-2.9,0-4.3c0.1-2.3,1.8-4.1,4-4.2c2.3-0.1,4.4,1.4,4.5,3.7c0.2,3.3,0.2,6.6,0,9.9
			c-0.1,2.3-2.3,3.8-4.5,3.7c-2.3-0.2-3.9-1.9-4-4.3C133.3,95.6,133.4,94.1,133.4,92.6L133.4,92.6z"/>
		<path class="st0" d="M133.4,240.3c0-1.5,0-3,0-4.5c0.1-2.3,1.8-4,3.9-4.2c2.4-0.2,4.5,1.3,4.6,3.7c0.2,3.3,0.2,6.6,0,9.8
			c-0.1,2.3-2.2,3.9-4.4,3.8c-2.3-0.1-4.1-1.9-4.1-4.3C133.3,243.2,133.3,241.7,133.4,240.3L133.4,240.3z"/>
		<path class="st0" d="M77.5,136.2c-0.8-0.3-1.6-0.4-2.3-0.9c-2.4-1.3-4.7-2.7-7.1-4.1c-2.3-1.4-3.1-3.9-1.8-6.1
			c1.2-2.1,3.8-2.7,6.1-1.4c2.5,1.4,5,2.8,7.4,4.3c1.7,1.1,2.4,3,1.9,4.9C81.2,134.8,79.6,136,77.5,136.2L77.5,136.2z"/>
		<path class="st0" d="M107.3,105.9c0,2.3-1.2,3.9-3,4.5c-1.8,0.6-3.8,0-4.8-1.6c-1.7-2.7-3.3-5.4-4.8-8.3c-1.1-2-0.2-4.5,1.8-5.6
			c1.9-1.1,4.4-0.6,5.6,1.3c1.7,2.7,3.2,5.5,4.8,8.3C107.2,105,107.2,105.7,107.3,105.9z"/>
		<path class="st0" d="M63.8,170.8c-1.4,0-2.8,0-4.2,0c-2.5-0.1-4.4-2-4.4-4.4c0-2.4,1.9-4.3,4.4-4.3c2.8,0,5.7,0,8.6,0
			c2.5,0,4.3,1.8,4.4,4.2c0.1,2.4-1.8,4.4-4.3,4.4C66.8,170.9,65.3,170.8,63.8,170.8z"/>
		<path class="st0" d="M211.4,162.1c1.4,0,2.9,0,4.4,0c2.5,0.1,4.3,1.9,4.3,4.3s-1.7,4.3-4.2,4.4c-3,0.1-6,0.1-9,0
			c-2.4-0.1-4.2-2-4.2-4.4c0.1-2.4,1.9-4.2,4.3-4.2C208.5,162.1,209.9,162.1,211.4,162.1L211.4,162.1z"/>
		<path class="st0" d="M81.9,201.5c0,1.1-0.6,2.4-1.8,3.2c-2.7,1.7-5.4,3.3-8.3,4.8c-2,1.1-4.5,0.2-5.6-1.8c-1.1-2-0.6-4.5,1.3-5.7
			c2.7-1.6,5.3-3.3,8.1-4.7C78.6,195.8,81.9,198,81.9,201.5L81.9,201.5z"/>
		<path class="st0" d="M107.4,226.6c-0.3,0.8-0.4,1.6-0.8,2.3c-1.3,2.4-2.7,4.7-4.1,7.1c-1.4,2.4-3.9,3.1-6.1,1.8
			c-2.1-1.3-2.7-3.8-1.4-6.1c1.4-2.5,2.8-5,4.3-7.4c1.1-1.8,3.1-2.5,5-1.9C106.1,223,107.3,224.7,107.4,226.6L107.4,226.6z"/>
		<path class="st0" d="M181.2,98.9c-0.3,0.8-0.5,1.7-0.9,2.4c-1.3,2.3-2.6,4.6-3.9,6.8c-1.4,2.4-3.9,3.2-6.1,1.9
			c-2.2-1.2-2.8-3.9-1.4-6.3c1.4-2.4,2.8-4.9,4.2-7.3c1.1-1.8,3.1-2.4,5-1.8C179.8,95.2,181,96.9,181.2,98.9z"/>
		<path class="st0" d="M198.1,136c-2.3,0-3.9-1.2-4.5-3c-0.6-1.8,0-3.9,1.6-4.9c2.7-1.7,5.4-3.3,8.2-4.8c2-1,4.4-0.2,5.5,1.7
			c1.2,1.9,0.8,4.5-1.2,5.7c-2.7,1.7-5.5,3.2-8.2,4.8C199.1,135.9,198.4,136,198.1,136L198.1,136z"/>
		<path class="st0" d="M181,233.8c0,2.2-1.2,3.9-2.9,4.4c-1.8,0.6-3.9,0.1-4.9-1.5c-1.7-2.7-3.3-5.5-4.8-8.4c-1-2-0.1-4.4,1.8-5.5
			c1.9-1.1,4.5-0.6,5.7,1.3c1.7,2.6,3.2,5.4,4.7,8.1C180.9,232.8,180.9,233.5,181,233.8L181,233.8z"/>
	</g>
</g>
</svg>
