<?xml version="1.0" encoding="utf-8"?>
<!-- Generator: Adobe Illustrator 27.0.1, SVG Export Plug-In . SVG Version: 6.00 Build 0)  -->
<svg version="1.1" id="Layer_1" xmlns="http://www.w3.org/2000/svg" xmlns:xlink="http://www.w3.org/1999/xlink" x="0px" y="0px"
	 viewBox="0 0 118.2 118.2" style="enable-background:new 0 0 118.2 118.2;" xml:space="preserve">
<style type="text/css">
	.st0{fill:#F3F3F3;}
</style>
<g>
	<g>
		<path class="st0" d="M59.1,113.5c-13.9,0-27.9-5.3-38.5-15.9l0,0c-21.2-21.2-21.2-55.8,0-77c10.3-10.3,24-15.9,38.5-15.9
			c14.5,0,28.2,5.7,38.5,15.9c10.3,10.3,15.9,24,15.9,38.5c0,14.5-5.7,28.2-15.9,38.5C87,108.2,73,113.5,59.1,113.5z M23.6,94.5
			c19.5,19.5,51.3,19.5,70.9,0c9.5-9.5,14.7-22.1,14.7-35.4c0-13.4-5.2-26-14.7-35.4S72.5,9,59.1,9c-13.4,0-26,5.2-35.4,14.7
			C4.1,43.2,4.1,75,23.6,94.5L23.6,94.5z"/>
	</g>
	<g>
		
			<rect x="25.3" y="56.9" transform="matrix(0.7071 -0.7071 0.7071 0.7071 -24.4867 59.08)" class="st0" width="67.5" height="4.3"/>
	</g>
	<g>
		
			<rect x="56.9" y="25.3" transform="matrix(0.7071 -0.7071 0.7071 0.7071 -24.4867 59.0791)" class="st0" width="4.3" height="67.5"/>
	</g>
</g>
</svg>
