<svg id="eveqJWr5mEM1" xmlns="http://www.w3.org/2000/svg" xmlns:xlink="http://www.w3.org/1999/xlink" viewBox="0 0 85.9 85.9" shape-rendering="geometricPrecision" text-rendering="geometricPrecision">
<style><![CDATA[
#eveqJWr5mEM3_tr {animation: eveqJWr5mEM3_tr__tr 10000ms linear infinite normal forwards}@keyframes eveqJWr5mEM3_tr__tr { 0% {transform: translate(43.049999px,43.1px) rotate(0deg)} 100% {transform: translate(43.049999px,43.1px) rotate(360deg)}} #eveqJWr5mEM10 {animation: eveqJWr5mEM10_c_o 10000ms linear infinite normal forwards}@keyframes eveqJWr5mEM10_c_o { 0% {opacity: 0} 6% {opacity: 1} 89% {opacity: 1} 100% {opacity: 0}} #eveqJWr5mEM13_to {animation: eveqJWr5mEM13_to__to 10000ms linear infinite normal forwards}@keyframes eveqJWr5mEM13_to__to { 0% {transform: translate(25.1px,34.210062px)} 3% {transform: translate(38.70893px,43.239937px)} 6% {transform: translate(49.526699px,36.127736px)} 96% {transform: translate(49.526699px,36.127736px)} 98% {transform: translate(38.70893px,43.239937px)} 100% {transform: translate(25.1px,34.210062px)}} #eveqJWr5mEM13_ts {animation: eveqJWr5mEM13_ts__ts 10000ms linear infinite normal forwards}@keyframes eveqJWr5mEM13_ts__ts { 0% {transform: scale(2.286073,5.518602)} 3% {transform: scale(4.192107,7.144783)} 6% {transform: scale(8.966594,18.387034)} 96% {transform: scale(8.966594,18.387034)} 98% {transform: scale(4.192107,7.144783)} 100% {transform: scale(2.286073,5.518602)}}
]]></style>
<circle r="42.9" transform="translate(42.8 42.9)" fill="#518f64"/><g id="eveqJWr5mEM3_tr" transform="translate(43.049999,43.1) rotate(0)"><g transform="translate(-43.049999,-43.1)"><path d="M48.8,13.6c13.9,2.7,24.3,14.9,24.3,29.5c0,12.8-7.9,23.6-19.2,28" fill="none" stroke="#f5f5f5" stroke-width="2" stroke-linecap="round" stroke-linejoin="round" stroke-miterlimit="10"/><g><g><path d="M62.5,52.8C58.9,60.1,51.5,65,42.8,65c-9,0-16.7-5.4-20.1-13.1" fill="none" stroke="#f5f5f5" stroke-linecap="round" stroke-linejoin="round" stroke-miterlimit="10"/><path d="M21.2,43.1C21.2,31,31,21.2,43.1,21.2s21.9,9.8,21.9,21.9" fill="none" stroke="#f5f5f5" stroke-linecap="round" stroke-linejoin="round" stroke-miterlimit="10"/></g><path d="M37.2,72.6C23.4,69.9,13,57.7,13,43.1c0-14,9.6-25.8,22.6-29.1" fill="none" stroke="#f5f5f5" stroke-width="2" stroke-linecap="round" stroke-linejoin="round" stroke-miterlimit="10"/></g></g></g><g id="eveqJWr5mEM10" opacity="0" mask="url(#eveqJWr5mEM12)"><polyline points="35.8,39.5 44.1,47.1 65.9,23.1" fill="none" stroke="#f5f5f5" stroke-width="6" stroke-linecap="round" stroke-linejoin="round" stroke-miterlimit="10"/><mask id="eveqJWr5mEM12" mask-type="luminance" x="-150%" y="-150%" height="400%" width="400%"><g id="eveqJWr5mEM13_to" transform="translate(25.1,34.210062)"><g id="eveqJWr5mEM13_ts" transform="scale(2.286073,5.518602)"><ellipse rx="3.032486" ry="1.475" transform="translate(0,0)" fill="#d2dbed" stroke-width="0"/></g></g></mask></g></svg>
