<?xml version="1.0" encoding="utf-8"?>
<!-- Generator: Adobe Illustrator 28.0.0, SVG Export Plug-In . SVG Version: 6.00 Build 0)  -->
<svg version="1.1" id="Layer_1" xmlns="http://www.w3.org/2000/svg" xmlns:xlink="http://www.w3.org/1999/xlink" x="0px" y="0px"
	 viewBox="0 0 50.5 43.8" style="enable-background:new 0 0 50.5 43.8;" xml:space="preserve">
<style type="text/css">
	.st0{fill:#FFFFFF;}
</style>
<g id="Y7pnv7.tif">
	<g>
		<path class="st0" d="M13.3,25.7c0-0.1,0-0.2,0-0.4c0-1,0.8-2.2,2.1-2.5c0.3-0.1,0.5-0.1,0.8-0.1c1.7,0,3.5,0,5.2,0
			c0.5,0,0.9,0,1.3,0.2c0.9,0.4,1.4,1.1,1.6,2c0,0.2,0,0.4,0,0.6c0,1.7,0,3.5,0,5.2c0,0.4,0,0.8-0.2,1.2c-0.4,0.9-1.1,1.5-2.1,1.7
			c-0.2,0-0.5,0-0.8,0c-1.7,0-3.3,0-5,0c-0.3,0-0.7,0-1-0.1c-1.1-0.3-1.7-1-1.9-2.1c0-0.2,0-0.4-0.1-0.6c0,0,0-0.1,0-0.1
			C13.3,29.2,13.3,27.4,13.3,25.7L13.3,25.7z M22.5,28.3c0-0.8,0-1.6,0-2.5c0-0.1,0-0.3,0-0.4c0-0.4-0.4-0.8-0.8-0.8
			c-0.1,0-0.2,0-0.4,0c-1.7,0-3.3,0-5,0c-0.1,0-0.2,0-0.3,0c-0.4,0-0.8,0.4-0.8,0.9c0,0.2,0,0.3,0,0.5c0,1.5,0,3,0,4.5
			c0,0.2,0,0.3,0,0.5c0,0.1,0,0.2,0,0.2c0.1,0.4,0.4,0.6,0.8,0.6c0.2,0,0.4,0,0.5,0c1.5,0,3,0,4.6,0c0.2,0,0.4,0,0.6,0
			c0.4,0,0.7-0.4,0.8-0.8c0-0.1,0-0.3,0-0.4C22.5,29.9,22.5,29.1,22.5,28.3L22.5,28.3z"/>
		<path class="st0" d="M21.4,9.9c0.1,0,0.2,0,0.3,0c0.4,0,0.8,0.1,1.1,0.3c0.8,0.4,1.3,1.1,1.5,2c0,0.2,0,0.4,0,0.6
			c0,1.7,0,3.5,0,5.2c0,0.4,0,0.8-0.2,1.2c-0.4,0.9-1.1,1.4-2,1.6c-0.2,0-0.5,0-0.7,0c-1.7,0-3.5,0-5.2,0c-0.4,0-0.8,0-1.2-0.2
			c-0.9-0.4-1.5-1.1-1.7-2c0-0.2,0-0.4-0.1-0.6c0,0,0-0.1,0-0.1c0-1.7,0-3.4,0-5.2c0,0,0-0.1,0-0.1c0-0.2,0-0.4,0.1-0.6
			c0.2-0.9,0.7-1.5,1.5-1.9c0.4-0.2,0.8-0.3,1.2-0.3c0,0,0.1,0,0.1,0C18,9.9,19.7,9.9,21.4,9.9L21.4,9.9z M22.5,15.5
			c0-0.8,0-1.6,0-2.4c0-0.1,0-0.3,0-0.4c0-0.4-0.4-0.8-0.8-0.8c-0.2,0-0.4,0-0.6,0c-1.5,0-3.1,0-4.6,0c-0.2,0-0.4,0-0.6,0
			c-0.4,0-0.8,0.4-0.8,0.9c0,0.2,0,0.3,0,0.5c0,1.5,0,3,0,4.5c0,0.2,0,0.4,0,0.5c0,0.4,0.4,0.8,0.8,0.9c0.1,0,0.2,0,0.4,0
			c1.7,0,3.4,0,5,0c0.1,0,0.3,0,0.4,0c0.5-0.1,0.8-0.5,0.8-0.8c0-0.1,0-0.3,0-0.4C22.5,17.1,22.5,16.3,22.5,15.5L22.5,15.5z"/>
		<path class="st0" d="M34.3,9.9c0,0,0.1,0,0.1,0c0.5,0,1,0.1,1.4,0.4c0.8,0.4,1.2,1.1,1.3,1.9c0,0.1,0,0.3,0,0.4c0,1.3,0,2.6,0,3.9
			c0,0.6,0,1.1,0,1.7c0,1.2-0.8,2.3-1.9,2.6c-0.3,0.1-0.6,0.1-1,0.1c-1.8,0-3.5,0-5.2,0c-0.5,0-0.9-0.1-1.3-0.3
			c-0.8-0.4-1.4-1.1-1.5-2c0-0.2,0-0.5,0-0.7c0-1.7,0-3.5,0-5.2c0-0.5,0.1-0.9,0.3-1.3c0.4-0.8,1.1-1.4,2-1.5c0.2,0,0.4,0,0.6,0
			c0,0,0.1,0,0.1,0C30.8,9.9,32.5,9.9,34.3,9.9z M35.3,15.5c0-0.7,0-1.5,0-2.2c0-0.2,0-0.4,0-0.6c0-0.4-0.4-0.8-0.8-0.9
			c-0.2,0-0.4,0-0.5,0c-1.5,0-3.1,0-4.6,0c-0.2,0-0.4,0-0.6,0c-0.4,0-0.8,0.4-0.8,0.9c0,0.1,0,0.2,0,0.3c0,1.7,0,3.3,0,5
			c0,0.1,0,0.2,0,0.3c0,0.5,0.4,0.8,0.8,0.9c0.1,0,0.2,0,0.4,0c1.7,0,3.4,0,5,0c0.1,0,0.2,0,0.4,0c0.4,0,0.8-0.4,0.8-0.8
			c0-0.2,0-0.4,0-0.7C35.3,16.9,35.3,16.2,35.3,15.5L35.3,15.5z"/>
		<path class="st0" d="M26.2,28.3c0-0.9,0-1.8,0-2.8c0-0.7,0.2-1.3,0.7-1.9c0.5-0.6,1.1-0.9,1.9-0.9c0.2,0,0.3,0,0.5,0
			c1.6,0,3.3,0,4.9,0c0.3,0,0.6,0,0.9,0.1c1,0.3,1.9,1.2,2,2.2c0,0.2,0,0.4,0,0.6c0,1.8,0,3.6,0,5.4c0,1.2-0.9,2.4-2.1,2.7
			c-0.3,0.1-0.6,0.1-0.9,0.1c-1.7,0-3.3,0-5,0c-0.3,0-0.7,0-1-0.1c-1-0.3-1.7-1-1.9-2.1c0-0.2,0-0.5-0.1-0.7
			C26.2,30,26.2,29.2,26.2,28.3L26.2,28.3L26.2,28.3z M35.3,28.3c0-0.7,0-1.5,0-2.2c0-0.2,0-0.4,0-0.6c0-0.4-0.4-0.8-0.8-0.8
			c-0.1,0-0.2,0-0.4,0c-1.7,0-3.3,0-5,0c-0.1,0-0.2,0-0.4,0c-0.4,0-0.8,0.4-0.8,0.8c0,0.1,0,0.2,0,0.3c0,1.7,0,3.3,0,5
			c0,0.1,0,0.2,0,0.3c0,0.4,0.4,0.8,0.8,0.8c0.2,0,0.4,0,0.6,0c1.5,0,3,0,4.6,0c0.2,0,0.4,0,0.6,0c0.4,0,0.8-0.4,0.8-0.8
			c0-0.2,0-0.4,0-0.6C35.3,29.8,35.3,29.1,35.3,28.3z"/>
	</g>
</g>
</svg>
