<?xml version="1.0" encoding="UTF-8"?><svg id="Layer_1" xmlns="http://www.w3.org/2000/svg" viewBox="0 0 99.09 99.09"><circle cx="49.54" cy="49.54" r="49.54" style="fill:#cc4a49;"/><g><path d="M40.99,25.84c.18-.72,.29-1.39,.51-2.02,.78-2.23,2.99-3.88,5.35-3.95,2.19-.06,4.38-.07,6.57-.01,3.16,.09,5.53,2.33,5.94,5.53,.05,.4,.2,.46,.54,.46,2.08-.01,4.15,0,6.23,0,3.9,0,6.85,2.96,6.86,6.85,0,.82,0,1.64,0,2.46,0,1.38-.81,2.17-2.2,2.18-.28,0-.57,0-.91,0v.72c0,10.09,0,20.19,0,30.28,0,4.49-3.33,7.81-7.82,7.81-7.9,0-15.81,0-23.71,0-4.36,0-7.72-3.36-7.72-7.71,0-10.14,0-20.29,0-30.43,0-.21,0-.41,0-.67-.4,0-.75,0-1.09,0-1.18-.02-2.02-.85-2.01-2.01,0-1.25-.08-2.53,.1-3.76,.47-3.33,3.27-5.69,6.64-5.71,2.08,0,4.15,0,6.23,0,.18,0,.35,0,.51,0Zm-6.41,11.51v.58c0,10.09,0,20.19,0,30.28,0,2.43,1.53,3.96,3.94,3.97,7.84,0,15.68,0,23.52,0,2.31,0,3.88-1.56,3.88-3.89,0-10.14,0-20.29,0-30.43,0-.17-.02-.34-.03-.52h-31.31Zm15.69-4.02c5.86,0,11.71,0,17.57-.01,.39,0,.97,.37,1.16-.21,.13-.39-.05-.88-.1-1.33,0-.06-.04-.12-.06-.18-.47-1.18-1.47-1.82-2.91-1.82-4.83,0-9.65,.02-14.48,.02-5.63,0-11.26-.02-16.89-.02-2,0-3.17,1.22-3.11,3.18,0,.32,.12,.43,.43,.41,.5-.03,1-.04,1.49-.04,5.63,0,11.26,0,16.89,0Zm5.14-7.55c-.15-1.1-.95-1.94-1.94-1.96-2.14-.04-4.28-.03-6.42,0-.99,.01-1.99,1.04-1.92,1.96h10.28Z" style="fill:#fff;"/><path d="M44.21,55.08c0,2.96,0,5.92,0,8.88,0,1.25-.83,2.17-1.98,2.17-1.14,0-1.98-.91-1.98-2.16,0-5.92,0-11.85,0-17.77,0-1.27,.82-2.15,1.98-2.15,1.16,0,1.98,.88,1.98,2.15,0,2.96,0,5.92,0,8.88Z" style="fill:#fff;"/><path d="M56.3,55.09c0-2.96,0-5.92,0-8.88,0-1.28,.8-2.15,1.96-2.16,1.15,0,1.99,.88,1.99,2.14,0,5.94,0,11.88,0,17.82,0,1.14-.68,1.94-1.73,2.1-.93,.14-1.87-.47-2.14-1.42-.06-.23-.07-.48-.07-.72,0-2.96,0-5.92,0-8.88Z" style="fill:#fff;"/><path d="M52.24,55.12c0,2.93,0,5.86,0,8.79,0,1.09-.52,1.85-1.41,2.12-1.13,.34-2.3-.37-2.51-1.54-.04-.19-.05-.38-.05-.58,0-5.89,0-11.78,0-17.67,0-1.05,.48-1.79,1.33-2.09,1.33-.47,2.63,.46,2.65,1.93,.02,1.37,0,2.74,0,4.1,0,1.64,0,3.28,0,4.92Z" style="fill:#fff;"/></g></svg>