<?xml version="1.0" encoding="UTF-8"?>
<svg id="Layer_1" data-name="Layer 1" xmlns="http://www.w3.org/2000/svg" viewBox="0 0 384 378.34">
  <defs>
    <style>
      .cls-1 {
        fill: #f7941d;
        stroke-width: 0px;
      }
    </style>
  </defs>
  <g id="nqqLq9">
    <path class="cls-1" d="m22.97,193.13c-.12-92.27,75.48-168.37,167.35-168.48,94.94-.11,170.56,74.47,170.72,168.38.16,94.31-75.13,169.72-169.43,169.68-93.69-.04-168.52-75.28-168.64-169.59Zm323.26,1.06c.02-84.89-69.12-154.66-153.33-154.72-85.23-.05-155.11,68.82-155.12,152.88,0,86.09,68.71,155.43,154.13,155.55,84.56.11,154.29-69.34,154.31-153.71Z"/>
  </g>
  <path class="cls-1" d="m246.54,83.13c9.99,1.77,17.32,7.73,23.95,14.95,3.96,4.31,8.29,8.27,12.38,12.46,13.32,13.68,13.41,31.84-.08,45.39-35.32,35.47-70.8,70.77-106.08,106.27-3.35,3.37-7.42,3.22-11.37,4.25-9.55,2.48-19.06,5.14-28.58,7.71-11.27,3.05-22.54,6.11-33.82,9.12-8.54,2.28-13.53-2.58-11.28-11,5.92-22.15,11.83-44.31,17.95-66.41.7-2.54,2.37-5.1,4.25-6.99,35.12-35.27,70.38-70.41,105.51-105.66,5.32-5.33,11.76-8.19,18.81-10.1h8.37Zm-77.7,162.27c28.53-28.53,56.97-56.96,85.09-85.09-12.76-12.76-25.96-25.94-38.89-38.87-28.24,28.28-56.68,56.76-85.03,85.14,12.93,12.92,26.13,26.12,38.83,38.81Zm98.31-96.24c1.25-1.36,2.42-2.74,3.69-4.03,7.88-8.02,7.87-15.96-.08-23.96-5.59-5.62-11.08-11.36-16.89-16.75-2.16-2-4.93-3.76-7.72-4.57-7.31-2.13-14.21,1.54-19.05,9.26,13.23,13.23,26.4,26.4,40.06,40.05Zm-114.85,104.11c-10.31-10.29-20.39-20.35-30.57-30.51-3.64,13.45-7.35,27.18-11.3,41.8,14.61-3.94,28.32-7.64,41.87-11.29Z"/>
  <path class="cls-1" d="m214.24,151.06c3.45,3.43,6.99,6.95,10.15,10.1-16.63,16.61-33.23,33.18-49.91,49.83-2.85-3.07-6.39-6.89-9.73-10.49,16.08-16.06,32.68-32.65,49.49-49.44Z"/>
</svg>