<?xml version="1.0" encoding="UTF-8"?><svg id="Layer_1" xmlns="http://www.w3.org/2000/svg" viewBox="0 0 99.09 99.09"><circle cx="49.54" cy="49.54" r="49.54" style="fill:#f8ac2a;"/><g id="h1sU58.tif"><g><path d="M80.4,28.26c-.25,1.21-.55,2.42-1.35,3.4-.79,.97-1.64,1.9-2.48,2.82-7.81,8.56-15.62,17.11-23.44,25.65-.35,.39-.82,.72-1.3,.94-2.74,1.23-5.5,2.44-8.26,3.63-1.91,.83-3.79,.18-4.66-1.6-.43-.89-.4-1.81-.1-2.73,.96-2.89,1.91-5.78,2.9-8.66,.15-.45,.43-.88,.75-1.23,8.37-9.18,16.76-18.35,25.13-27.53,1.26-1.38,2.73-2.31,4.6-2.57,.05,0,.1-.05,.14-.08,.56,0,1.12,0,1.68,0,.08,.03,.17,.08,.25,.1,2.21,.36,3.94,1.49,5.05,3.41,.53,.91,.74,2,1.1,3.01v1.46Zm-27.3,24.58c.23-.24,.41-.43,.58-.62,5.97-6.53,11.94-13.07,17.9-19.6,1.07-1.17,2.15-2.34,3.21-3.53,.92-1.03,.86-2.37-.12-3.25-.96-.86-2.25-.79-3.21,.19-.13,.13-.26,.27-.38,.41-5.93,6.49-11.86,12.98-17.79,19.48-1.17,1.28-2.34,2.57-3.54,3.88,1.11,1.02,2.2,2.01,3.34,3.05Zm-6.75,.54c-.62,1.86-1.21,3.63-1.84,5.52,1.84-.81,3.54-1.56,5.33-2.34-1.19-1.08-2.29-2.09-3.48-3.18Z" style="fill:#fff;"/><path d="M49.33,77.79c-4.94,0-9.88,.05-14.82-.01-4.81-.06-8.29-2.32-10.39-6.65-.72-1.49-.99-3.09-.99-4.74,0-9.79-.01-19.58,0-29.36,0-5.5,3.51-9.9,8.86-11.14,.85-.2,1.74-.27,2.61-.27,7.04-.02,14.07-.01,21.11-.01,1.43,0,2.36,.64,2.7,1.83,.42,1.48-.62,2.98-2.15,3.1-.26,.02-.52,.02-.79,.02-6.94,0-13.89,0-20.83,0-2.96,0-5.35,1.62-6.22,4.26-.23,.7-.35,1.46-.35,2.2-.02,9.81-.02,19.61-.01,29.42,0,3.68,2.76,6.42,6.44,6.42,9.88,0,19.76,0,29.64,0,3.71,0,6.45-2.74,6.46-6.46,.01-6.87,0-13.74,0-20.6,0-1.3,.66-2.25,1.76-2.57,1.5-.44,2.99,.56,3.17,2.15,.02,.19,.02,.37,.02,.56,0,6.79,.04,13.59-.01,20.38-.04,4.85-2.28,8.38-6.66,10.5-1.52,.74-3.16,.99-4.85,.99-4.9,0-9.81,0-14.71,0Z" style="fill:#fff;"/></g></g></svg>