<?xml version="1.0" encoding="utf-8"?>
<!-- Generator: Adobe Illustrator 27.0.1, SVG Export Plug-In . SVG Version: 6.00 Build 0)  -->
<svg version="1.1" id="Layer_1" xmlns="http://www.w3.org/2000/svg" xmlns:xlink="http://www.w3.org/1999/xlink" x="0px" y="0px"
	 viewBox="0 0 151.7 151.8" style="enable-background:new 0 0 151.7 151.8;" xml:space="preserve">
<style type="text/css">
	.st0{fill:#8394A0;}
</style>
<g id="JRIyQh.tif">
	<g>
		<path class="st0" d="M0,80.3c0-3,0-5.9,0-8.9c0.3-2.5,0.5-5.1,1-7.6c2.6-15.8,9.5-29.7,20.8-41c17-17,37.7-24.6,61.7-22.4
			c16.1,1.5,30.3,7.8,42.4,18.5c16.1,14.3,24.7,32.3,25.7,53.7c0.7,15-2.8,29-10.6,41.9c-12,19.7-29.4,31.8-52.1,36
			c-2.8,0.5-5.7,0.8-8.6,1.2c-3,0-5.9,0-8.9,0c-1.1-0.1-2.1-0.2-3.2-0.4c-16.3-1.8-30.7-8.1-42.9-19.1c-13-11.7-21.1-26.2-24.1-43.4
			C0.6,86.1,0.4,83.2,0,80.3z M86.1,75.5c-0.7,0.8-1.1,1.2-1.5,1.5c-8.3,8.3-16.7,16.7-25,25c-0.5,0.5-1,1-1.4,1.5
			c-2.4,3.1-1.5,7.4,1.9,9.3c2.7,1.5,5.6,1,8.2-1.6c10.1-10.1,20.1-20.1,30.2-30.2c3.6-3.6,3.6-7,0-10.6c-10-10-20-20-30-30
			c-0.5-0.5-0.9-0.9-1.4-1.3c-3.5-2.8-8.6-1.1-9.9,3.2c-0.8,2.7,0.2,4.9,2.1,6.8c8.4,8.4,16.8,16.8,25.3,25.2
			C85,74.9,85.5,75.2,86.1,75.5z"/>
	</g>
</g>
</svg>
