<?xml version="1.0" encoding="UTF-8"?><svg id="Layer_1" xmlns="http://www.w3.org/2000/svg" viewBox="0 0 48.98 45.48"><g id="QD43am.tif"><g><path d="M42.89,15.52c-.24,.45-.61,.6-1.12,.57-.62-.03-1.24,0-1.86,0-.65,0-.95-.31-.95-.99,0-2.1,0-4.19,0-6.29,0-.15,0-.31,0-.53-.18,0-.32,0-.47,0-2.08,0-4.17,0-6.25,0-.85,0-1.09-.23-1.09-1.08,0-.58,.03-1.17,0-1.75-.03-.54,.17-.9,.65-1.11h11.1V15.52Z" style="fill:#434d68;"/><path d="M17.19,4.34c.48,.21,.68,.57,.65,1.11-.03,.62,0,1.24,0,1.86,0,.69-.27,.96-.97,.96-2.11,0-4.22,0-6.33,0-.15,0-.3,0-.51,0,0,.19,0,.34,0,.49,0,2.08,0,4.16,0,6.25,0,.8-.27,1.07-1.07,1.07-.66,0-1.32,0-1.98,0-.57,0-.87-.3-.87-.86,0-3.34,0-6.67-.02-10.01,0-.42,.26-.64,.54-.86h10.56Z" style="fill:#434d68;"/><path d="M42.89,40.51c-.21,.48-.57,.63-1.08,.63-3.21-.02-6.41-.01-9.62-.02-.75,0-1.04-.29-1.04-1.03,0-.61,0-1.22,0-1.82,0-.83,.24-1.07,1.06-1.07,2.08,0,4.16,0,6.25,0,.15,0,.3,0,.51,0,0-.19,0-.34,0-.49,0-2.08,0-4.16,0-6.25,0-.8,.27-1.07,1.07-1.07,.58,0,1.17,.03,1.75,0,.5-.03,.88,.12,1.12,.57v10.55Z" style="fill:#434d68;"/><path d="M10.02,37.2c.2,0,.35,0,.5,0,2.08,0,4.16,0,6.25,0,.82,0,1.06,.24,1.06,1.07,0,.65,0,1.29,0,1.94,0,.58-.33,.91-.92,.91-3.31,0-6.62,0-9.93,0-.56,0-.89-.33-.89-.9,0-3.31,0-6.62,0-9.93,0-.62,.29-.9,.91-.9,.67,0,1.35,0,2.02,0,.69,0,.99,.3,1,.99,0,2.09,0,4.19,0,6.28,0,.15,0,.31,0,.53Z" style="fill:#434d68;"/></g></g></svg>