<?xml version="1.0" encoding="utf-8"?>
<!-- Generator: Adobe Illustrator 27.0.1, SVG Export Plug-In . SVG Version: 6.00 Build 0)  -->
<svg version="1.1" id="Layer_1" xmlns="http://www.w3.org/2000/svg" xmlns:xlink="http://www.w3.org/1999/xlink" x="0px" y="0px"
	 viewBox="0 0 36.8 34.5" style="enable-background:new 0 0 36.8 34.5;" xml:space="preserve">
<style type="text/css">
	.st0{fill:#A5BDD1;}
</style>
<g>
	<path class="st0" d="M12.8,15.3c1,0.6,2,0.9,3.1,0.8c0.1,0,0.2,0,0.2-0.1c0.3-0.3,0.6-0.6,0.9-0.8c0.5-0.5,1.2-0.6,1.8-0.3
		c0.1,0,0.2,0,0.2,0c1.4-1.3,2-2.8,1.8-4.7c-0.1-0.9-0.5-1.8-1-2.6c-1.1-1.4-2.5-2.1-4.2-2.1c-1.7,0-3.3,0.8-4.3,2.2
		c-0.8,1.1-1.1,2.4-1,3.8C10.5,13.1,11.3,14.4,12.8,15.3z"/>
	<path class="st0" d="M30,20.9c0-0.3-0.2-0.5-0.4-0.5c-0.4,0-0.7-0.1-1.1-0.1c-0.1,0-0.2,0-0.2-0.2c-0.1-0.6-0.4-1.1-0.7-1.6
		c-0.1-0.1-0.1-0.2,0-0.3c0.2-0.3,0.4-0.5,0.7-0.8c0.2-0.2,0.2-0.5,0-0.7c-0.3-0.3-0.6-0.6-0.9-0.9c-0.2-0.2-0.5-0.2-0.7,0
		c-0.3,0.2-0.5,0.4-0.8,0.6c-0.1,0.1-0.1,0.1-0.3,0c-0.5-0.3-1-0.5-1.6-0.7c-0.1,0-0.2-0.1-0.2-0.2c0-0.3-0.1-0.7-0.1-1
		c0-0.3-0.2-0.5-0.5-0.5c-0.4,0-0.9,0-1.3,0c-0.3,0-0.5,0.2-0.5,0.5c0,0.3-0.1,0.7-0.1,1c0,0.1-0.1,0.1-0.1,0.2
		c-0.6,0.2-1.1,0.4-1.6,0.7c-0.1,0-0.2,0-0.2,0c-0.3-0.2-0.6-0.4-0.8-0.7c-0.2-0.2-0.5-0.2-0.7,0c-0.3,0.3-0.6,0.6-0.9,0.9
		c-0.2,0.2-0.2,0.5,0,0.7c0.2,0.3,0.4,0.5,0.6,0.8c0.1,0.1,0.1,0.2,0,0.3c-0.3,0.5-0.5,1-0.6,1.5c0,0.2-0.1,0.2-0.3,0.2
		c-0.3,0-0.7,0.1-1,0.1c-0.3,0-0.4,0.2-0.5,0.5c0,0.2,0,0.4,0,0.6c0,0,0,0,0,0c0,0.2,0,0.4,0,0.6c0,0.4,0.1,0.6,0.6,0.6
		c0.3,0,0.6,0.1,0.9,0.1c0.1,0,0.2,0.1,0.2,0.2c0.1,0.6,0.4,1.1,0.7,1.6c0.1,0.1,0,0.2,0,0.2c-0.2,0.3-0.4,0.5-0.7,0.8
		c-0.2,0.3-0.2,0.5,0,0.7c0.3,0.3,0.6,0.6,0.9,0.9c0.2,0.2,0.5,0.2,0.7,0c0.3-0.2,0.5-0.4,0.8-0.6c0.1-0.1,0.2-0.1,0.3,0
		c0.5,0.3,1,0.5,1.6,0.7c0.1,0,0.1,0.1,0.2,0.2c0,0.3,0.1,0.7,0.1,1c0,0.3,0.2,0.5,0.5,0.5c0.4,0,0.9,0,1.3,0c0.3,0,0.5-0.2,0.5-0.5
		c0-0.3,0.1-0.7,0.1-1c0-0.1,0.1-0.2,0.2-0.2c0.6-0.1,1.1-0.4,1.6-0.7c0.1-0.1,0.2,0,0.3,0c0.3,0.2,0.5,0.4,0.8,0.6
		c0.3,0.2,0.5,0.2,0.7,0c0.3-0.3,0.6-0.6,0.9-0.9c0.2-0.2,0.2-0.5,0-0.7c-0.2-0.3-0.4-0.5-0.6-0.8c-0.1-0.1-0.1-0.2,0-0.3
		c0.3-0.5,0.5-1,0.7-1.6c0-0.1,0.1-0.2,0.2-0.2c0.4,0,0.7-0.1,1.1-0.1c0.3,0,0.4-0.2,0.4-0.5C30,21.8,30,21.3,30,20.9z M22.5,25.8
		c-2.4,0-4.3-1.9-4.3-4.3c0-2.3,1.9-4.2,4.3-4.2c2.3,0,4.3,1.9,4.3,4.3C26.8,23.9,24.9,25.8,22.5,25.8z"/>
	<path class="st0" d="M16.1,24.2c-0.1-0.3-0.3-0.4-0.6-0.4c-0.8,0-1.4-0.7-1.4-1.5c0-0.5,0-1,0-1.5c0-0.7,0.6-1.3,1.3-1.4
		c0.1,0,0.3,0,0.4,0c0.1,0,0.2-0.1,0.2-0.2c0.1-0.2,0.1-0.3,0.2-0.5c0-0.1,0.1-0.2,0-0.2c0,0,0,0-0.1-0.1c-0.2-0.2-0.4-0.4-0.5-0.7
		c-0.1-0.2-0.1-0.5-0.1-0.6c0,0,0,0,0,0c0-0.1,0-0.1,0-0.3c-1.7,0-3.1,0.5-3.9,0.9c-1.1,0.5-2,1.3-2.9,2.2c-1.1,1.3-1.8,2.7-2.1,4.4
		c-0.1,0.4,0.1,0.6,0.5,0.6c2.9,0,5.7,0,8.6,0c0.3,0,0.4-0.2,0.3-0.5C16.2,24.4,16.1,24.3,16.1,24.2z"/>
	<path class="st0" d="M23,18.4c0,0.3,0,0.6,0,0.9c0,0,0.1,0.1,0.1,0.1c0.8,0.3,1.4,0.8,1.6,1.7c0,0,0.1,0.1,0.1,0.1
		c0.3,0,0.6,0,0.8,0C25.6,19.6,24.3,18.5,23,18.4z"/>
	<path class="st0" d="M19.4,21.1c0.3,0,0.5,0,0.8,0c0,0,0.1-0.1,0.1-0.1c0.3-0.8,0.8-1.4,1.6-1.6c0,0,0.1-0.1,0.1-0.1
		c0-0.3,0-0.6,0-0.8C20.4,18.6,19.4,20.1,19.4,21.1z"/>
	<path class="st0" d="M20.3,22.1c-0.3,0-0.6,0-0.9,0c0.2,1.5,1.6,2.6,2.7,2.7c0-0.3,0-0.6,0-0.9C21.1,23.6,20.5,23,20.3,22.1z"/>
	<path class="st0" d="M25,22.1c-0.1,0-0.2,0-0.2,0.1c-0.1,0.5-0.4,0.9-0.8,1.2c-0.3,0.2-0.6,0.3-0.9,0.5c0,0.3,0,0.6,0,0.9
		c1.2-0.1,2.5-1.3,2.7-2.7C25.5,22.1,25.2,22.1,25,22.1z"/>
</g>
</svg>
