<?xml version="1.0" encoding="UTF-8"?>
<svg id="Layer_1" data-name="Layer 1" xmlns="http://www.w3.org/2000/svg" viewBox="0 0 58 49">
  <defs>
    <style>
      .cls-1 {
        fill: #455e6b;
        stroke-width: 0px;
      }
    </style>
  </defs>
  <g id="NPNZuo">
    <g>
      <path class="cls-1" d="m49.54,34.65c-1.48,2.83-2.89,5.54-4.34,8.3-2.72-1.47-5.41-2.92-8.23-4.44,1.62-.5,3.12-.97,4.67-1.45-.7-2.11-1.38-4.18-2.08-6.29-2.84.44-5.53.03-8.01-1.41.65-.84,1.28-1.66,1.85-2.41,1.03.26,2.03.62,3.06.75,3.56.47,7.04-1.46,8.63-4.69,2.52-5.12-.56-11.23-6.18-12.24-5.4-.98-10.37,3.43-10.05,8.89.08,1.39.46,2.69,1.17,3.88.15.25.16.45.02.71-.45.86-.99,1.65-1.76,2.31-1.26-1.55-2.06-3.27-2.41-5.19-1.17-6.45,2.97-12.45,9.42-13.7,6.66-1.28,13.28,3.7,13.75,10.42.36,5.09-1.76,8.9-6.14,11.48-.13.08-.29.33-.26.44.65,2.02,1.32,4.04,2.01,6.11,1.6-.49,3.17-.97,4.87-1.48Z"/>
      <path class="cls-1" d="m26.75,13.07c-2.18-1.06-4.41-1.24-6.71-.47-4.93,1.66-7.25,7.44-4.82,12.05,2.57,4.87,8.9,6.13,13.13,2.61,3.07-2.56,3.94-7.09,1.99-10.6-.28-.51-.31-.9.02-1.35.49-.66.96-1.33,1.46-2.02,2.73,3.03,3.65,8.28,1.52,12.61-2.42,4.91-8.46,8.05-14.83,5.75-.46.82-.92,1.64-1.42,2.51.19.11.35.22.53.32.94.52,1.88,1.04,2.81,1.57.86.49,1.12,1.41.65,2.22-.45.78-1.35,1-2.21.52-1.09-.6-2.17-1.21-3.32-1.85-.42.75-.82,1.49-1.25,2.21-.49.83-1.47,1.08-2.24.6-.72-.46-.94-1.34-.51-2.14.39-.73.8-1.45,1.23-2.21-1.13-.63-2.22-1.25-3.32-1.86-.49-.27-.8-.66-.86-1.22-.07-.61.13-1.13.65-1.49.51-.35,1.06-.41,1.62-.11.81.43,1.6.89,2.41,1.33.33.18.66.37,1.06.59.45-.8.91-1.58,1.32-2.39.04-.09-.13-.35-.27-.46-1.93-1.62-3.24-3.63-3.88-6.06-1.78-6.7,2.6-13.5,9.43-14.58,2.61-.41,5.1-.02,7.44,1.24.1.06.2.13.29.19-.64.84-1.26,1.66-1.91,2.52Z"/>
    </g>
  </g>
</svg>