<?xml version="1.0" encoding="utf-8"?>
<!-- Generator: Adobe Illustrator 28.0.0, SVG Export Plug-In . SVG Version: 6.00 Build 0)  -->
<svg version="1.1" id="Layer_1" xmlns="http://www.w3.org/2000/svg" xmlns:xlink="http://www.w3.org/1999/xlink" x="0px" y="0px"
	 viewBox="0 0 262.2 227.8" style="enable-background:new 0 0 262.2 227.8;" xml:space="preserve">
<style type="text/css">
	.st0{fill:#5F89AF;}
	.st1{fill:#FFFFFF;}
	.st2{fill:#171546;}
	.st3{fill:#1A1840;}
</style>
<g>
	<g>
		<rect x="154.2" y="48.2" class="st0" width="13" height="84.3"/>
		<rect x="108.3" y="113.5" class="st0" width="55.4" height="19.6"/>
	</g>
	<rect x="92.7" y="23.9" class="st1" width="59.9" height="83.9"/>
	<ellipse class="st1" cx="128.8" cy="78.1" rx="28.8" ry="29.2"/>
	<g id="WtyKGj.tif_00000120555060980033900430000016572671127596876447_">
		<g>
			<path class="st2" d="M154.5,18.6c0.9,0.3,1.2,0.8,1.2,1.9c-0.1,6.4,0,12.9,0,19.3c0,2.8,0,2.8,2.9,2.8c3.4,0,6.8,0.1,10.2-0.1
				c1.9-0.1,2.5,0.4,2.5,2.4c-0.1,26.4,0,52.8,0,79.3c0,4,0,8,0,12c0,0.8-0.1,1.5-0.1,2.4c-22.8,0-45.5,0-68.3,0
				c0-6.5,0-12.8,0-19.1c0-5.6,0.4-4.5-4.6-4.6c-3.1-0.1-6.2-0.1-9.3,0c-1.6,0-2-0.5-2-2C87,88.3,87,63.7,87,39.1
				c0-6.8,0-13.7,0-20.5c1.7,0,3.4,0,5.1,0c0.7,0.1,1.4,0.2,2.1,0.2c17.8,0,35.6,0,53.5,0c0.6,0,1.3-0.1,1.9-0.2
				C151.3,18.6,152.9,18.6,154.5,18.6z M156.2,69.4C156.2,69.4,156.2,69.4,156.2,69.4c-5-12.1-13.5-19.3-26.5-19.7
				c-12.6-0.3-21.5,5.9-26.9,17.2V42.5c7.6,0,15,0,22.3,0c7.2,0,14.4,0,21.7,0c1.4,0,1.9-0.5,1.7-2.4c-0.4-3.5-0.5-7-0.1-10.5
				c0.3-2.8-0.1-3.8-2.4-3.8c-16.4,0.1-32.7,0-49.1,0c-2.5,0-2.7,0.2-2.7,2.7c0,5.4,0,10.8,0,16.2c0,19.7,0,39.4,0,59.2
				c0,3.9,0.1,3.9,4,3.9c0.8,0,1.6,0,2.4,0c1.5,0,2.2-0.6,2.1-2.3c-0.1-4.4-0.1-8.8-0.1-13.2c0-0.8,0.1-1.6,0.2-2.9
				c5.9,11.7,14.9,17.8,27.5,17.2c12.6-0.6,20.8-7.7,25.9-19v28h-45.9c0,4.9,0,9.6,0.1,14.4c0,0.4,0.7,1.1,1.3,1.2
				c0.6,0.2,1.4,0.1,2.1,0.1c10,0,20.1,0,30.1,0c6.5,0,13,0,19.7,0c0-1.4,0-2.7,0-3.9c0-23.9,0-47.7,0-71.6c0-5.8,0-5.8-5.8-5.5
				c-1.3,0.1-1.7,0.6-1.6,1.8c0.1,1.8,0,3.7,0,5.5C156.2,61.5,156.2,65.4,156.2,69.4z"/>
			<path class="st2" d="M152.7,167.9c0-3.7,0-7.4,0-11c0-1.1,0.3-1.5,1.5-1.5c4.3,0.1,8.5-0.1,12.8,0.2c9.8,0.6,15.2,11,10,19.3
				c-2.5,4-6.5,5.5-10.9,5.7c-3.9,0.2-7.9,0.1-11.8,0.2c-1.2,0-1.6-0.5-1.6-1.7C152.7,175.4,152.7,171.7,152.7,167.9
				C152.7,167.9,152.7,167.9,152.7,167.9z M158.9,168.2C158.9,168.2,159,168.2,158.9,168.2c0,2-0.1,4.1,0.1,6.1
				c0.1,0.6,0.9,1.7,1.3,1.7c2.5,0,5.2,0.1,7.5-0.6c3.5-1,5.4-5.2,4.5-8.8c-1.2-5.2-7.3-8.4-12.4-6.3c-0.5,0.2-1,1-1.1,1.6
				C158.9,164,158.9,166.1,158.9,168.2z"/>
			<path class="st2" d="M90.9,180.7c-2.2,0-4,0-5.9,0c0-8.4,0-16.6,0-25.1c1.9,0,3.8,0,5.8,0c0,2.5,0,4.8,0,7.2
				c0,2.3,0.4,2.6,2.6,2.7c2.5,0,5-0.1,7.5,0c1.3,0,1.7-0.5,1.7-1.8c0-2.6,0-5.2,0-8c2.1,0,4,0,6.1,0c0,8.3,0,16.5,0,25.2
				c-1.7,0-3.4,0.1-5.1-0.1c-0.4,0-0.9-1-0.9-1.5c-0.1-2.4-0.1-4.7,0-7.1c0-1.3-0.4-1.8-1.7-1.7c-2.6,0.1-5.3,0.1-7.9,0
				c-1.7-0.1-2.2,0.7-2.2,2.2C90.9,175.2,90.9,177.8,90.9,180.7z"/>
			<path class="st2" d="M214.1,180.8c-2,0-3.5,0.1-5.1-0.1c-0.6-0.1-1.1-0.7-1.5-1.1c-0.3-0.3-0.4-0.8-0.5-1.3
				c-0.5-2.1-1.8-2.9-4-2.7c-2.6,0.2-5.2,0.1-7.9,0c-1.3-0.1-2,0.5-2.3,1.6c-0.2,0.6-0.5,1.1-0.6,1.7c-0.3,1.5-1.2,2-2.7,1.9
				c-1.3-0.1-2.6,0-4.2,0c1.3-2.9,2.4-5.5,3.5-8c2.3-5.3,4.7-10.7,7.1-16c0.3-0.6,1.3-1.2,2-1.3c5.2-0.2,5.2-0.1,7.2,4.8
				c2.4,5.7,5,11.3,7.5,16.9C213.1,178.3,213.5,179.4,214.1,180.8z M195.5,170.7c0.2,0.2,0.4,0.4,0.5,0.6c2.1,0,4.1,0.1,6.2-0.1
				c0.4,0,1.2-1,1.1-1.3c-0.9-2.4-1.9-4.8-3-7.2c-0.1-0.2-1.5-0.2-1.6,0.1C197.6,165.4,196.6,168,195.5,170.7z"/>
			<path class="st2" d="M145.5,180.8c-0.8,0-1.3,0-1.7,0c-4.3,0.1-4.3,0.1-6-3.8c-0.4-1-1-1.4-2.1-1.3c-2.9,0.1-5.9,0.1-8.8,0
				c-1.3,0-2.3,0.4-2.5,1.7c-0.8,3.4-3.1,3.9-6,3.5c-0.4-0.1-0.9-0.1-1.5-0.1c0.1-0.4,0.1-0.8,0.2-1.1c3.4-7.5,6.8-15,10.1-22.6
				c0.5-1.1,1.1-1.4,2.3-1.6c3.8-0.6,5.6,1,7,4.6c2.4,6.3,5.4,12.3,8.2,18.5C144.9,179.1,145.1,179.8,145.5,180.8z M126.8,171
				c3.1,0.3,5.6,0.8,8.5-0.1c-1.1-2.8-2.1-5.3-3.3-7.8c-0.4-0.9-1.3-1.6-2-0.2C129,165.4,128,168,126.8,171z"/>
			<path class="st2" d="M50.2,180.8c-2.1,0-3.7,0.1-5.2-0.1c-0.6-0.1-1.4-0.8-1.6-1.4c-0.8-3.1-2.7-4.2-5.9-3.8
				c-2.1,0.3-4.3,0-6.5,0.1c-0.7,0-1.6,0.6-2,1.2c-0.8,1.2-1.1,3.2-2,3.6c-1.6,0.6-3.6,0.2-5.7,0.2c0.8-1.8,1.5-3.4,2.3-5.1
				c2.7-6.2,5.4-12.4,8.1-18.6c0.5-1.1,1-1.4,2.2-1.4c5.2,0,5.1,0,7.2,4.8c2.6,6,5.2,11.9,7.9,17.8
				C49.4,178.8,49.7,179.6,50.2,180.8z M35.9,161.9c-0.2,0-0.5-0.1-0.7-0.1c-1.3,3-2.5,5.9-4.1,9.6c2.8,0,5,0.1,7.1,0
				c1.2,0,1.6-0.7,1.1-1.9c-0.8-2-1.5-4-2.3-6C36.8,162.8,36.3,162.4,35.9,161.9z"/>
			<path class="st2" d="M239.2,167.1c0,1.6,0,2.8,0,4.5c-2.4,0-4.7-0.1-7.1,0c-5.4,0.2-4.4-0.8-4.6,4.6c0,1.4,0,2.9,0,4.2
				c-0.4,0.1-0.6,0.3-0.7,0.3c-5.6,0.3-5.5,0.3-5.5-5.2c0-6.1,0-12.2,0-18.3c0-0.5,0-1,0-1.6c6.6,0,13,0,19.5,0c0,1.4,0,2.7,0,4.3
				c-3,0-6.1,0-9.1,0c-4.2,0-4.2,0-4.1,4.1c0,3.1,0,3.1,3,3.1C233.4,167.1,236.2,167.1,239.2,167.1z"/>
			<path class="st2" d="M57.6,155.5c1.5,0,3,0.1,4.4,0c1.3-0.1,1.5,0.5,1.5,1.6c0,5.5,0,11,0,16.6c0,2.5,0.2,2.7,2.7,2.7
				c3.2,0,6.4,0,9.8,0c0.1,0.5,0.2,1,0.2,1.5c0.1,2.9,0.1,2.9-2.9,2.9c-5.2,0-10.4,0-15.8,0C57.6,172.4,57.6,164.1,57.6,155.5z"/>
			<path class="st2" d="M133.2,209.2c-1-0.5-1.8-0.7-2.2-1.2c-1.7-2.2-3.3-4.5-5.2-7c0,2.6,0,5,0,7.6c-0.7,0.1-1.3,0.2-2,0.3
				c0-4.1,0-8.1,0-12.6c0.9,0.5,1.7,0.8,2.2,1.3c1.6,2.2,3.1,4.5,5.1,6.7c0-2.5,0-5,0-7.6c1.1-0.1,2.1-0.6,2.1,1
				C133.2,201.3,133.2,205,133.2,209.2z"/>
			<path class="st2" d="M175.1,208.7c0-4.1,0-8.1,0-12.6c1,0.6,1.8,0.9,2.2,1.4c1.4,1.8,2.6,3.8,3.9,5.6c0.3,0.4,0.6,0.7,1.2,1.5
				c0-2.9,0-5.3,0-8c1-0.1,2-0.7,2,1c0,3.7,0,7.3,0,11.5c-0.9-0.5-1.8-0.6-2.1-1.1c-1.7-2.2-3.4-4.5-5.3-7.3c0,2.4,0,4.4,0,6.5
				C177,208.7,177,208.7,175.1,208.7z"/>
			<path class="st2" d="M83.2,202.5c0.1-3.7,2.5-6.3,5.9-6.2c3.4,0.1,5.7,2.8,5.6,6.7c-0.1,3.5-2.6,6.1-5.9,6
				C85.4,208.9,83.1,206.2,83.2,202.5z M85.2,202.5c-0.1,2.5,1.5,4.4,3.7,4.5c2.1,0.1,3.8-1.7,3.9-4.1c0.1-2.7-1.5-4.6-3.7-4.7
				C86.9,198.2,85.3,199.9,85.2,202.5z"/>
			<path class="st2" d="M96.2,202.5c0.1-3.7,2.5-6.4,5.9-6.2c3.4,0.1,5.7,2.8,5.6,6.7c-0.1,3.5-2.6,6.1-5.9,6
				C98.4,208.9,96.1,206.2,96.2,202.5z M98.2,202.5c-0.1,2.5,1.5,4.4,3.7,4.5c2.1,0.1,3.8-1.7,3.9-4.1c0.1-2.7-1.5-4.6-3.7-4.7
				C99.9,198.2,98.3,199.9,98.2,202.5z"/>
			<path class="st2" d="M158.9,205c0.7,1.2,1.4,2.3,2.1,3.4c-1.8,0.5-1.9,0.5-2.8-1.2c-0.9-1.7-2-2.3-4-1.7c0,0.9-0.1,2-0.2,3.1
				c-0.6,0-1.1,0.1-1.8,0.1c0-4.1,0-8.1,0-12.3c1.2,0,2.4,0,3.6,0c2.1-0.1,4,0.3,4.9,2.5C161.6,201,161,203.1,158.9,205z
				 M154.2,203.9c1.7-0.5,3.3-0.7,4.4-1.6c0.5-0.4,0.5-2.6-0.1-3c-1.1-0.8-2.7-0.9-4.3-1.4C154.2,200.2,154.2,201.7,154.2,203.9z"/>
			<path class="st2" d="M73.8,208.7c-0.8,0-1.3,0-1.9,0c0-4.1,0-8,0-12.1c0.6,0,1.1,0,1.8,0c0,1.6,0,3.3,0,5c1.9,0,3.6,0,5.6,0
				c0-1.7,0-3.3,0-5c0.7,0,1.2,0,1.8,0c0,4,0,8,0,12c-0.6,0-1.1,0-1.8,0c0-1.6,0-3.2,0-4.9c-1.9,0-3.6,0-5.5,0
				C73.8,205.4,73.8,207,73.8,208.7z"/>
			<path class="st2" d="M199.2,196.5c2.3,0,4.4,0,6.6,0c0.3,0,0.7,0.5,1,0.8c-0.3,0.3-0.6,0.9-1,0.9c-1.5,0.1-3,0-4.6,0
				c0,1.2,0,2.2,0,3.5c1.2,0,2.3,0,3.5,0c1.5,0,1.5,0.1,1.3,1.9c-1.5,0-3.1,0-4.8,0c0,1.1,0,2,0,3.2c1.4,0,2.9,0.1,4.3,0
				c1.3-0.1,1.9,0.3,1.4,1.8c-2.5,0-5,0-7.7,0C199.2,204.7,199.2,200.8,199.2,196.5z"/>
			<path class="st2" d="M145.6,198.3c-0.3,0.4-0.6,0.7-0.9,1c-1.1-0.4-2-0.9-3-1c-2.3-0.3-4,1.6-4,4.3c-0.1,2.6,1.6,4.5,3.9,4.5
				c1.6,0,2.4-0.7,2.2-2.4c-0.2-1.2-0.1-2.4,1.8-1.7c0,0.5,0.1,1,0.1,1.5c0,3.6-1.7,5.1-5.3,4.4c-2.4-0.5-4.2-2.5-4.5-5
				c-0.4-3.3,0.8-5.8,3.3-6.9C141.3,195.7,143.7,196.2,145.6,198.3z"/>
			<path class="st2" d="M196.4,202.9c0,1.3,0.1,2.5,0,3.8c-0.1,0.5-0.5,1.2-1,1.5c-2.5,1.6-6.1,0.9-7.8-1.5
				c-1.9-2.5-1.5-6.8,0.7-8.9c1.8-1.7,5.7-2.3,8.1,0.4c-0.3,0.4-0.6,0.8-0.9,1.2c-1.1-0.4-1.9-0.9-2.9-1.1c-2.3-0.3-4.1,1.6-4.2,4.3
				c-0.1,2.6,1.6,4.5,3.9,4.4c1.5,0,2.4-0.5,2.1-2.2C194.4,203.7,194.1,202.3,196.4,202.9z"/>
			<path class="st2" d="M162.1,208.6c1.4-3.7,2.8-7.4,4.3-11c0.2-0.5,0.8-1,1.3-1c0.4-0.1,1.2,0.4,1.3,0.8c1.5,3.7,3,7.5,4.4,11.3
				c-1.3,0.4-2.2,0.3-2.5-1.1c-0.2-1.2-0.9-1.6-2.1-1.5c-0.8,0.1-1.6,0.1-2.4,0c-1.1-0.1-1.8,0.2-2,1.3
				C164.4,208.6,163.6,209.1,162.1,208.6z M169.7,204.2c-0.7-1.9-1.2-3.5-2-5.6c-0.7,2.2-1.3,3.8-1.8,5.6
				C167.3,204.2,168.4,204.2,169.7,204.2z"/>
			<path class="st2" d="M68.4,198.8c-0.9-0.2-1.8-0.7-2.7-0.6c-0.9,0.1-1.7,0.7-2.5,1.1c0.5,0.8,1,1.7,1.7,2.3
				c0.6,0.5,1.6,0.5,2.4,0.8c1.5,0.5,2.2,1.5,2.1,3.1c-0.1,1.7-1,2.9-2.5,3.1c-1.5,0.2-3.1,0-4.6-0.3c-1.2-0.2-1.6-1.1-0.7-2.1
				c1.3,0.3,2.6,0.8,3.9,0.8c0.6,0,1.3-0.8,2-1.2c-0.5-0.6-0.9-1.3-1.5-1.7c-0.6-0.4-1.5-0.5-2.2-0.7c-2-0.7-2.7-1.8-2.5-3.9
				c0.2-1.8,1.3-2.9,3.1-3c1.1-0.1,2.3,0,3.5,0.2C69.1,197,69.2,197.8,68.4,198.8z"/>
			<path class="st2" d="M111.7,198.6c-1.3-0.3-2.4-0.5-3.5-0.8c-0.1,0,0-0.7,0-1.3c2.7,0,5.3-0.1,7.9,0.1c0.4,0,0.8,0.7,1.2,1.1
				c-0.1,0.2-0.2,0.3-0.3,0.5c-1,0.1-2,0.1-3.3,0.2c0,3.4,0,6.8,0,10.2c-0.8,0-1.3,0-2,0C111.7,205.2,111.7,201.9,111.7,198.6z"/>
			<path class="st2" d="M119.2,196.7c0.2-0.1,0.4-0.2,0.6-0.2c0.3,0,0.6,0,1.1,0.1c0,4,0,8,0,12.1c-0.5,0-1.1,0.1-1.7,0.1
				C119.2,204.7,119.2,200.7,119.2,196.7z"/>
			<path class="st3" d="M128.7,100.3c-12.4,0.1-22.1-10-22.1-22.2c0-13.5,10.8-22.3,22.4-22.3c12.5,0,22.4,10.1,22.2,22.5
				C151,90.8,141.2,100.3,128.7,100.3z M129,95.4c9.2,0,17.2-7.6,17.2-16.5c0-10.4-7.1-17.9-17-18c-9.9,0-17.5,7.4-17.6,17.3
				C111.5,87.7,119.3,95.4,129,95.4z"/>
			<path class="st3" d="M128.9,67.1c6.4,0.1,11.2,4.8,11.1,11c0,5.9-5.2,11.1-11.1,11.1c-6.4,0-11.1-5-11-11.6
				C118.1,71.6,122.8,67,128.9,67.1z M133.5,78.3c0-2.3-2.2-4.8-4.3-4.8c-2.6,0-5,2.1-5,4.5c0,2.4,2.4,4.7,4.9,4.6
				C131.1,82.6,133.5,80.2,133.5,78.3z"/>
		</g>
	</g>
	<rect x="94.2" y="25.7" class="st1" width="54.6" height="16.8"/>
	<rect x="94.2" y="26.8" class="st1" width="8.7" height="81"/>
</g>
</svg>
