<?xml version="1.0" encoding="utf-8"?>
<!-- Generator: Adobe Illustrator 26.4.1, SVG Export Plug-In . SVG Version: 6.00 Build 0)  -->
<svg version="1.1" id="Layer_1" xmlns="http://www.w3.org/2000/svg" xmlns:xlink="http://www.w3.org/1999/xlink" x="0px" y="0px"
	 viewBox="0 0 115.5 106.7" style="enable-background:new 0 0 115.5 106.7;" xml:space="preserve">
<style type="text/css">
	.st0{fill:none;stroke:#393939;stroke-width:4;stroke-miterlimit:10;}
</style>
<g id="PZbPMG_00000036220580168778541670000005822642525025548692_">
	<g>
		<path class="st0" d="M96.4,54.1c1.5-2,3-4,4.5-6c0.7-0.9,0.5-2.2-0.4-2.9c-3.9-3-7.4-5.9-11.2-8.5c-2.6-1.8-3.4-3.8-3.3-6.9
			c0.2-4.5,0.1-9.1,0.1-13.6c0-1.1-0.9-2.1-2.1-2.1h-7.3c-1.1,0-2,0.9-2.1,2c-0.1,1.6-0.1,3.2-0.2,4.9c-0.1,1.7-2,2.6-3.3,1.6
			c-4.3-3.3-8.2-6.2-12.1-9.1c-0.7-0.6-1.8-0.6-2.5,0L15,45.2c-0.9,0.7-1.1,2-0.4,2.9c1.6,2.1,3.1,4,4.5,5.9c0.6,0.7,1.6,1,2.4,0.7
			l0.8-0.3c1.3-0.5,2.8,0.5,2.8,1.9v35.4c0,1.1,0.9,2.1,2.1,2.1h61.3c1.1,0,2.1-0.9,2.1-2.1V56.5c0-1.6,1.7-2.6,3-1.8h0
			C94.6,55.1,95.7,54.9,96.4,54.1z"/>
	</g>
</g>
</svg>
