<?xml version="1.0" encoding="UTF-8"?><svg id="Layer_1" xmlns="http://www.w3.org/2000/svg" viewBox="0 0 56.61 55.26"><g id="TMNPgJ.tif"><path d="M12.43,45.08c.06-3.96,1.37-7.44,3.97-10.43,1.39-1.59,3.04-2.84,4.93-3.78,.23-.12,.47-.23,.76-.37-3.33-2.5-5.08-5.75-4.85-9.91,.17-3.14,1.54-5.73,3.9-7.81,4.33-3.81,11.31-3.37,15.26,.84,4.22,4.5,4.32,12.47-1.82,16.86,.14,.08,.26,.15,.38,.21,5.29,2.65,8.38,6.86,9.14,12.75,.01,.11,.06,.22,.09,.33v1.29h-3.18c-.05-3.54-1.28-6.6-3.82-9.07-2.77-2.69-6.13-3.88-9.99-3.55-3.59,.3-6.53,1.9-8.79,4.69-1.87,2.3-2.75,4.98-2.8,7.93h-3.18Zm15.86-15.88c4.42,0,7.95-3.51,7.95-7.92,0-4.4-3.54-7.95-7.94-7.95-4.39,0-7.95,3.56-7.94,7.95,0,4.38,3.54,7.91,7.92,7.91Z" style="fill:#c7dfef;"/></g></svg>