<?xml version="1.0" encoding="UTF-8"?><svg id="Layer_1" xmlns="http://www.w3.org/2000/svg" viewBox="0 0 56.61 55.26"><path d="M48.01,30.35c0,1.48,.01,2.88-.02,4.27,0,.11-.31,.31-.48,.31-1.14,.03-2.29,.03-3.43,0-.44-.01-.58,.16-.72,.56-.44,1.22-.94,2.41-1.48,3.59-.16,.36-.15,.54,.12,.8,.95,.91,1.88,1.85,2.81,2.76-1.11,1.09-2.17,2.13-3.31,3.25-.73-.74-1.53-1.55-2.33-2.36-.75-.76-.73-.7-1.67-.26-1.01,.47-2.07,.86-3.13,1.21-.42,.14-.56,.3-.55,.72,.02,1.3,0,2.6,0,3.94h-4.57v-4.48c-.28-.08-.53-.12-.76-.21-1.11-.45-2.23-.88-3.31-1.4-.42-.2-.64-.2-.95,.14-.85,.95-1.74,1.88-2.6,2.81-1.2-1.23-2.25-2.31-3.34-3.43,.97-.95,2.03-1.99,3.07-3.01-.38-.75-.77-1.43-1.07-2.15-.27-.63-.48-1.3-.63-1.96-.09-.39-.26-.51-.64-.51-1.1,.01-2.21,0-3.31,0-.21,0-.42-.02-.67-.03v-4.57c1.31,0,2.59-.02,3.87,.01,.48,.01,.64-.15,.8-.61,.46-1.35,1.01-2.67,1.55-4.09-.93-.92-1.99-1.95-3-2.95,1.13-1.12,2.2-2.18,3.31-3.29,.86,.87,1.79,1.8,2.71,2.75,.25,.26,.43,.31,.79,.14,1.21-.56,2.45-1.07,3.7-1.53,.35-.13,.46-.25,.46-.6-.02-1.32,0-2.64,0-4.01h4.58c0,1.27,.03,2.53-.01,3.78-.02,.54,.16,.71,.66,.88,1.34,.45,2.64,1,4.06,1.55,.91-.94,1.94-2,2.97-3.06,1.14,1.15,2.19,2.23,3.33,3.38-.86,.84-1.75,1.73-2.67,2.58-.39,.35-.4,.6-.17,1.09,.54,1.11,.99,2.27,1.39,3.44,.15,.42,.3,.55,.73,.54,1.28-.02,2.56,0,3.93,0Zm-16.47,7.36c2.77,0,5.03-2.23,5.05-5.02,.02-2.8-2.25-5.11-5.02-5.12-2.82,0-5.1,2.24-5.12,5.03-.02,2.83,2.25,5.1,5.09,5.11Z" style="fill:#c7dfef;"/><path d="M50.56,17.29c-.36-3.54-.72-6.99-1.09-10.58-1.18,1.25-2.24,2.38-3.31,3.52-6.14-3.76-12.7-5.03-19.71-3.47-7.02,1.56-12.49,5.44-16.35,11.48-5.16,8.08-4.9,17.29-1.94,24.19,1.29-.86,2.55-1.75,3.82-2.64-3.49-9.11-.12-19.1,6.75-24.47,7.74-6.05,17.66-5.74,24.11-1.56-.78,.84-1.56,1.68-2.43,2.62,3.45,.31,6.76,.61,10.13,.92Z" style="fill:#c7dfef;"/></svg>