<?xml version="1.0" encoding="utf-8"?>
<!-- Generator: Adobe Illustrator 27.0.1, SVG Export Plug-In . SVG Version: 6.00 Build 0)  -->
<svg version="1.1" id="Layer_1" xmlns="http://www.w3.org/2000/svg" xmlns:xlink="http://www.w3.org/1999/xlink" x="0px" y="0px"
	 viewBox="0 0 189.1 195.9" style="enable-background:new 0 0 189.1 195.9;" xml:space="preserve">
<style type="text/css">
	.st0{fill:#4B647D;}
</style>
<g>
	<g>
		<path class="st0" d="M67.7,87.8H23.9c-8.1,0-14.7-6.6-14.7-14.7V29.3c0-8.1,6.6-14.7,14.7-14.7h43.7c8.1,0,14.7,6.6,14.7,14.7
			v43.7C82.4,81.2,75.8,87.8,67.7,87.8z"/>
	</g>
	<g>
		<path class="st0" d="M165.2,90.4h-43.7c-9.6,0-17.3-7.8-17.3-17.3V29.3c0-9.6,7.8-17.3,17.3-17.3h43.7c9.6,0,17.3,7.8,17.3,17.3
			v43.7C182.5,82.7,174.7,90.4,165.2,90.4z M121.4,17.3c-6.6,0-12,5.4-12,12v43.7c0,6.6,5.4,12,12,12h43.7c6.6,0,12-5.4,12-12V29.3
			c0-6.6-5.4-12-12-12H121.4z"/>
	</g>
	<g>
		<path class="st0" d="M67.7,183.9H23.9c-9.6,0-17.3-7.8-17.3-17.3v-43.7c0-9.6,7.8-17.3,17.3-17.3h43.7c9.6,0,17.3,7.8,17.3,17.3
			v43.7C85,176.1,77.2,183.9,67.7,183.9z M23.9,110.7c-6.6,0-12,5.4-12,12v43.7c0,6.6,5.4,12,12,12h43.7c6.6,0,12-5.4,12-12v-43.7
			c0-6.6-5.4-12-12-12H23.9z"/>
	</g>
	<g>
		<path class="st0" d="M165.2,181.2h-43.7c-8.1,0-14.7-6.6-14.7-14.7v-43.7c0-8.1,6.6-14.7,14.7-14.7h43.7c8.1,0,14.7,6.6,14.7,14.7
			v43.7C179.9,174.6,173.3,181.2,165.2,181.2z"/>
	</g>
</g>
</svg>
