<svg id="eW0IcdfiCz91" xmlns="http://www.w3.org/2000/svg" xmlns:xlink="http://www.w3.org/1999/xlink" viewBox="0 0 85.89 85.89" shape-rendering="geometricPrecision" text-rendering="geometricPrecision">
<style><![CDATA[
#eW0IcdfiCz93_ts {animation: eW0IcdfiCz93_ts__ts 10000ms linear infinite normal forwards}@keyframes eW0IcdfiCz93_ts__ts { 0% {transform: translate(43.350335px,40.802649px) scale(1,1);animation-timing-function: cubic-bezier(0.42,0,1,1)} 50% {transform: translate(43.350335px,40.802649px) scale(1.237066,1.237065);animation-timing-function: cubic-bezier(0.42,0,1,1)} 100% {transform: translate(43.350335px,40.802649px) scale(1,1)}} #eW0IcdfiCz911_tr {animation: eW0IcdfiCz911_tr__tr 10000ms linear infinite normal forwards}@keyframes eW0IcdfiCz911_tr__tr { 0% {transform: translate(43.520906px,42.638325px) rotate(0deg)} 100% {transform: translate(43.520906px,42.638325px) rotate(360deg)}}
]]></style>
<circle r="42.94" transform="translate(42.94 42.94)" fill="#f38419"/><g id="eW0IcdfiCz93_ts" transform="translate(43.350335,40.802649) scale(1,1)"><g transform="translate(-43.350334,-40.802648)"><path d="M42.03,69.01c-1.14-.14-2.3-.23-3.43-.44-6.56-1.21-11.94-4.45-16.12-9.64-3.07-3.81-4.92-8.18-5.56-13.04-1.73-12.93,6.07-25.18,18.51-29.08c2.18-.68,4.42-1.07,6.7-1.16.34-.01.69-.04,1.06-.06c0-.66,0-1.26,0-1.86c0-.26,0-.52.06-.77.08-.33.3-.46.62-.29.19.1.38.23.55.37c1.49,1.22,2.99,2.44,4.47,3.66.82.67.83,1.33.03,2.01-1.47,1.25-2.94,2.49-4.41,3.74-.07.06-.13.14-.21.17-.24.09-.56.28-.73.2-.18-.09-.29-.44-.31-.69-.04-.71-.01-1.43-.01-2.26-1.04.09-2.05.11-3.03.27C32.8,21.33,27.23,25.22,23.6,31.8c-2.3,4.18-3.07,8.69-2.44,13.41.85,6.3,3.87,11.37,8.96,15.15c4.43,3.28,9.45,4.67,14.96,4.28c3.23-.23,6.26-1.15,9.1-2.71.86-.47,1.71-.56,2.53.03c1.28.92,1.17,2.88-.28,3.61-1.53.78-3.11,1.49-4.72,2.08-2.02.74-4.14,1.13-6.29,1.27-.14,0-.28.06-.42.09h-2.97Z" fill="#f5f5f5"/><path d="M64.6,35.08c0-1.31.69-2.16,1.73-2.38.94-.2,1.97.31,2.34,1.23.24.61.43,1.25.56,1.89.23,1.19-.47,2.23-1.61,2.5-1.11.26-2.17-.35-2.53-1.49-.21-.66-.37-1.34-.48-1.75Z" fill="#f5f5f5"/><path d="M58.76,59.65c.01-1.44,1.79-3.34,3.04-3.4.83-.04,1.5.32,1.93,1.04.45.74.47,1.53-.03,2.23-.44.6-.95,1.17-1.52,1.66-.65.56-1.44.61-2.22.23-.8-.39-1.18-1.06-1.21-1.76Z" fill="#f5f5f5"/><path d="M63.5,52.4c.2-.84.51-1.84,1.2-2.65.64-.75,1.76-.85,2.62-.34.83.49,1.25,1.49.93,2.42-.23.67-.51,1.34-.86,1.95-.48.83-1.49,1.16-2.39.88-.91-.28-1.51-1.11-1.5-2.26Z" fill="#f5f5f5"/><path d="M65.68,43.94c.04-.42.06-.84.13-1.25.18-1.09,1.16-1.84,2.24-1.76c1.09.08,1.95.97,1.97,2.07c0,.6-.02,1.21-.1,1.81-.15,1.17-1.12,1.98-2.24,1.9-1.18-.08-2-.99-2-2.2c0-.18,0-.37,0-.55Z" fill="#f5f5f5"/><path d="M60.1,22.61c0,1.62-1.78,2.65-3.19,1.83-.54-.31-1.05-.68-1.53-1.07-.87-.71-1.03-1.9-.42-2.82s1.83-1.24,2.81-.67c.55.32,1.08.7,1.58,1.09.52.41.75.98.75,1.64Z" fill="#f5f5f5"/><path d="M60.67,27.42c.06-.9.58-1.67,1.38-2s1.75-.17,2.32.49c.47.53.89,1.12,1.24,1.74.53.92.22,2.09-.62,2.69-.89.63-2.08.55-2.79-.26-.46-.52-.85-1.1-1.22-1.69-.17-.28-.21-.65-.32-.98Z" fill="#f5f5f5"/></g></g><g id="eW0IcdfiCz911_tr" transform="translate(43.520906,42.638325) rotate(0)"><path d="M31.58,50.05c.37-1.07.75-2.1,1.07-3.15.52-1.71,1.62-2.71,3.4-3.04c1.48-.27,2.94-.65,4.4-.97.86-.19,1.17-1.1.61-1.77-1.16-1.4-2.31-2.81-3.48-4.19-.72-.85-.87-1.79-.53-2.83.46-1.39.92-2.78,1.38-4.17.05-.14.09-.28.12-.4-.03-.05-.05-.1-.07-.11-.87-.37-.88-.4-.57-1.3.16-.47.32-.94.48-1.4.21-.6.37-.68.99-.48c2.34.79,4.69,1.59,7.03,2.38c3.42,1.16,6.83,2.33,10.25,3.49.78.26.84.38.58,1.16-.15.43-.29.87-.44,1.3-.3.89-.35.92-1.33.63-.07.17-.14.35-.21.53-.38,1.11-.76,2.22-1.12,3.33-.52,1.59-1.58,2.54-3.23,2.87-1.53.3-3.04.67-4.56,1.01-.77.17-1.1,1.11-.6,1.71c1.16,1.4,2.31,2.81,3.49,4.19.77.9.91,1.88.54,2.98-.39,1.16-.77,2.33-1.16,3.5-.05.15-.1.3-.16.48.18.08.33.14.48.2.34.13.44.38.34.71-.22.68-.45,1.35-.69,2.03-.17.46-.5.45-.9.31-2.1-.72-4.2-1.43-6.3-2.14-3.66-1.24-7.32-2.49-10.98-3.74-.82-.28-.87-.38-.6-1.19.14-.42.28-.83.42-1.25.32-.94.34-.95,1.36-.65ZM40.26,30c-.51,1.53-.99,2.99-1.49,4.44-.21.6-.1,1.08.32,1.56c1.28,1.49,2.52,3.02,3.79,4.51.39.45.51.89.28,1.46-.2.47-.35.96-.49,1.46-.16.6-.53.9-1.14,1.02-1.81.37-3.61.8-5.42,1.2-.62.14-1.19.41-1.43,1.01-.52,1.28-.95,2.6-1.44,3.97c4.55,1.55,9.03,3.07,13.53,4.6.44-1.3.83-2.54,1.27-3.77.25-.68.13-1.21-.35-1.76-1.3-1.5-2.54-3.04-3.82-4.55-.32-.38-.39-.76-.22-1.22.2-.55.41-1.1.56-1.67.15-.55.5-.8,1.04-.91c1.79-.38,3.57-.81,5.37-1.19.94-.2,1.53-.72,1.82-1.62.39-1.2.81-2.39,1.21-3.59.04-.11.04-.24.07-.38-4.48-1.52-8.94-3.04-13.45-4.57Z" transform="translate(-43.520906,-42.638325)" fill="#f5f5f5"/></g></svg>
