<?xml version="1.0" encoding="utf-8"?>
<!-- Generator: Adobe Illustrator 26.4.1, SVG Export Plug-In . SVG Version: 6.00 Build 0)  -->
<svg version="1.1" id="Layer_1" xmlns="http://www.w3.org/2000/svg" xmlns:xlink="http://www.w3.org/1999/xlink" x="0px" y="0px"
	 viewBox="0 0 300 300" style="enable-background:new 0 0 300 300;" xml:space="preserve">
<style type="text/css">
	.st0{fill:#133344;}
</style>
<g id="Layer_2_00000033332391849966276250000000596574334335578556_">
</g>
<g id="Layer_1_00000142143293957875306900000018369563360079290297_">
	<path class="st0" d="M7.5,150c0,5.7,2.4,11.1,6.3,15l87.6,87.6c4.2,4.2,9.6,6.3,15,6.3s10.8-2.1,15-6.3c8.1-8.1,8.1-21.6,0-29.7
		L79.5,171h142c11.7,0,21-9.3,21-21s-9.3-21-21-21h-142l51.9-52.2c8.1-8.1,8.1-21.6,0-29.7s-21.6-8.1-29.7,0L13.8,135
		C9.6,138.9,7.5,144.3,7.5,150z"/>
</g>
</svg>
