<?xml version="1.0" encoding="utf-8"?>
<!-- Generator: Adobe Illustrator 22.0.1, SVG Export Plug-In . SVG Version: 6.00 Build 0)  -->
<svg version="1.1" id="Layer_1" xmlns="http://www.w3.org/2000/svg" xmlns:xlink="http://www.w3.org/1999/xlink" x="0px" y="0px"
	 viewBox="0 0 300 300" style="enable-background:new 0 0 300 300;" xml:space="preserve">
<style type="text/css">
	.st0{fill:#616E86;}
</style>
<path class="st0" d="M56.5,150c0,2.8,1.2,5.5,3.3,7.3l72.1,63c1.8,1.6,4.1,2.4,6.4,2.4c2.7,0,5.4-1.1,7.3-3.3
	c3.5-4,3.1-10.2-0.9-13.7l-52.6-46h141.7c5.4,0,9.7-4.3,9.7-9.7c0-5.4-4.3-9.7-9.7-9.7H92.1l52.6-46c4-3.5,4.5-9.7,0.9-13.7
	s-9.7-4.4-13.7-0.9l-72.1,63C57.7,144.5,56.5,147.2,56.5,150z"/>
</svg>
