<?xml version="1.0" encoding="UTF-8"?><svg id="Layer_1" xmlns="http://www.w3.org/2000/svg" xmlns:xlink="http://www.w3.org/1999/xlink" viewBox="0 0 216.36 216.36"><defs><filter id="drop-shadow-2" filterUnits="userSpaceOnUse"><feOffset dx="2.58" dy="2.58"/><feGaussianBlur result="blur" stdDeviation="2.58"/><feFlood flood-color="#010101" flood-opacity=".2"/><feComposite in2="blur" operator="in"/><feComposite in="SourceGraphic"/></filter><filter id="drop-shadow-3" filterUnits="userSpaceOnUse"><feOffset dx="1.99" dy="1.99"/><feGaussianBlur result="blur-2" stdDeviation="1.99"/><feFlood flood-color="#010101" flood-opacity=".5"/><feComposite in2="blur-2" operator="in"/><feComposite in="SourceGraphic"/></filter></defs><g style="filter:url(#drop-shadow-2);"><g><circle cx="108.18" cy="108.18" r="91.52" style="fill:#f08235;"/><circle cx="108.18" cy="108.18" r="75.89" style="fill:#fff; filter:url(#drop-shadow-3);"/><circle cx="108.18" cy="108.18" r="99.16" style="fill:none; stroke:#f08235; stroke-miterlimit:10; stroke-width:.65px;"/></g></g><g><path d="M119.33,89.62h-22.73c-2.66,0-5.07,1.08-6.82,2.83-1.75,1.75-2.83,4.16-2.83,6.82v21.02c0,2.36,.86,4.53,2.28,6.22,.84,1,1.89,1.83,3.07,2.42v31.05c0,1.78,1.44,3.22,3.22,3.22h24.89c1.78,0,3.22-1.44,3.22-3.22v-31.05c1.18-.59,2.23-1.42,3.07-2.42,1.42-1.69,2.28-3.86,2.28-6.22v-21.02c0-2.66-1.08-5.07-2.83-6.82-1.75-1.75-4.16-2.83-6.82-2.83Z" style="fill:#f08235;"/><path d="M107.96,83.19c8.28,0,15.02-6.74,15.02-15.02s-6.74-15.02-15.02-15.02-15.02,6.74-15.02,15.02,6.74,15.02,15.02,15.02Z" style="fill:#f08235;"/></g></svg>