<?xml version="1.0" encoding="utf-8"?>
<!-- Generator: Adobe Illustrator 28.0.0, SVG Export Plug-In . SVG Version: 6.00 Build 0)  -->
<svg version="1.1" id="Layer_1" xmlns="http://www.w3.org/2000/svg" xmlns:xlink="http://www.w3.org/1999/xlink" x="0px" y="0px"
	 viewBox="0 0 690.2 659.2" style="enable-background:new 0 0 690.2 659.2;" xml:space="preserve">
<style type="text/css">
	.st0{fill:#FFFFFF;}
</style>
<g id="WtyKGj.tif_00000121973768119466786680000008576725737528282270_">
	<g>
		<path class="st0" d="M427.2,32.2c0,19.8,0,38.8,0,57.7c0,9.4-0.1,9.4,9.5,9.4c9.5,0,19,0.2,28.5-0.2c5-0.2,6.2,1.6,6.2,6.4
			c-0.1,80.2-0.1,160.5,0,240.7c0,7.1-0.1,14.2,0,21.2c0.1,3.4-1.1,4.4-4.6,4.4c-61.1-0.1-122.3,0-183.4,0c-1.8,0-3.7-0.3-6.2-0.5
			c0-2.2,0-4.2,0-6.1c0-18.1-0.1-36.1,0.2-54.2c0.1-5.3-1.6-7.2-7-7c-11,0.4-22,0-33,0.1c-3.4,0-5-0.7-5-4.6
			c0.1-88.4,0.1-176.9,0.2-265.3c0-0.5,0.2-1.1,0.4-2C297.5,32.2,362.1,32.2,427.2,32.2z M450,350.3c0-4.1,0-7.6,0-11.1
			c0-67.6,0-135.2-0.1-202.8c0-16.4,0-16.4-16.4-15.5c-0.2,0-0.4,0-0.6,0c-2.7-0.1-4,0.9-4,3.9c0.1,8.6,0,17.1,0,25.7
			c0,7,0,14,0,21.1c-0.6,0.1-1.1,0.1-1.7,0.2c-14.1-32.2-37.9-51.4-73.7-52.3c-35.8-0.9-60.9,16.8-76.3,48.7c0-23.2,0-46.3,0-69.1
			c21.6,0,42.5,0,63.4,0c20.3,0,40.6-0.1,61,0c3.9,0,5.6-1.2,5.5-5.5c-0.3-11.7-0.2-23.5,0-35.2c0.1-5.2-1.8-7.1-7.2-7
			c-21.4,0.3-42.9,0.1-64.3,0.1c-24.8,0-49.6,0-74.4,0c-7.7,0-8.1,0.4-8.2,8.3c-0.1,8.9,0,17.9,0,26.8c0,60.9,0,121.8,0,182.7
			c0,14.5,0,14.5,14.7,14.4c1.5,0,3-0.1,4.5-0.1c3.3-0.2,5-1.7,4.9-5.3c-0.2-12.1-0.2-24.2-0.2-36.3c0-3,0.3-5.9,0.5-10.4
			c16.7,33.3,42.3,50.4,78.1,48.8c35.7-1.6,59.1-21.7,73.4-53.9c0,26.2,0,52.4,0,79.2c-43.7,0-86.7,0-130.2,0
			c0,14-0.1,27.3,0.2,40.7c0,1.2,2.1,3,3.6,3.5c1.8,0.7,4,0.4,6.1,0.4c28.3,0,56.7,0,85,0C412.1,350.3,430.7,350.3,450,350.3z"/>
		<path class="st0" d="M406.2,509.7c0-9.9,0.2-19.7-0.1-29.6c-0.1-4,0.8-5.6,5.2-5.5c11.7,0.4,23.5-0.2,35.2,0.5
			c27.9,1.7,43.2,31.1,28.6,54.7c-7.1,11.4-18.7,15.6-31.4,16.3c-11,0.6-22,0.3-32.9,0.5c-3.4,0.1-4.6-1.4-4.5-4.7
			C406.4,531.2,406.3,520.4,406.2,509.7C406.3,509.7,406.3,509.7,406.2,509.7z M424,511.2C424,511.2,424,511.2,424,511.2
			c0.1,5.6-0.3,11.2,0.2,16.7c0.2,1.8,2.5,5,3.7,5c7.5-0.2,15.4,0.1,22.4-2.1c9.4-2.9,14.3-14.6,12-24.2c-3.5-14.9-20.4-23.7-35-18
			c-1.5,0.6-3.1,2.8-3.2,4.4C423.8,499,424,505.1,424,511.2z"/>
		<path class="st0" d="M281.5,546.6c-4.7,0-9.4,0.3-13.9-0.2c-1.3-0.1-3.1-2.8-3.2-4.3c-0.4-6.7-0.3-13.4-0.2-20.1
			c0.1-3.5-1-5.1-4.8-5c-7.6,0.2-15.3,0.3-22.9,0c-4.2-0.1-5.6,1.9-5.6,5.6c0,5.8-0.2,11.5-0.2,17.3c0,2,0,4,0,6.3
			c-5.8,0-11,0-16.6,0c0-23.6,0-47.1,0-71c5.4,0,10.7,0,16.6,0c0,6.6,0,12.8,0,19.1c0,8,0.7,8.7,8.5,8.7c6.5,0,13-0.2,19.5,0
			c4.1,0.1,5.7-1.4,5.6-5.5c-0.2-7.2-0.1-14.5-0.1-22.2c5.9,0,11.3,0,17.3,0C281.5,498.8,281.5,522.3,281.5,546.6z"/>
		<path class="st0" d="M580.4,546.2c-2.8,0.1-4.4,0.3-6.1,0.3c-10.7,0.3-10.8,0.4-14.8-9.1c-1.7-4-3.9-5.6-8.4-5.5
			c-8.2,0.3-16.4-0.2-24.6,0.1c-2,0.1-4.6,1.5-5.7,3.1c-2.2,3.3-2.6,9.2-5.4,10.4c-4.4,2-10.1,1-16.6,1.3c2.5-5.8,4.5-10.7,6.6-15.5
			c7.6-17.3,15.3-34.6,22.8-52c1.4-3.3,3.2-4.7,7.1-4.6c14.3,0.3,14.1,0.3,19.6,13.4c6.6,15.5,13.7,30.9,20.5,46.3
			C577.2,538,578.6,541.6,580.4,546.2z M527.8,517.8c0.5,0.6,1,1.2,1.5,1.8c5.9,0,11.8,0.2,17.6-0.2c1.2-0.1,3.6-2.9,3.3-3.6
			c-2.5-6.9-5.4-13.7-8.5-20.4c-0.3-0.6-4.2-0.5-4.6,0.2C533.8,502.9,530.9,510.4,527.8,517.8z"/>
		<path class="st0" d="M304.1,546.2c7.1-16.1,13.9-31.5,20.8-46.9c3.1-6.9,6.4-13.8,9.3-20.8c1.2-3,2.9-3.7,5.9-3.7
			c14.3,0.1,14.2,0.1,20,13.1c7.7,17.5,15.6,34.8,23.4,52.3c0.8,1.8,1.4,3.7,2.5,6.5c-5.6,0-10.4,0.2-15.1-0.1
			c-1.3-0.1-2.7-1.5-3.7-2.6c-0.8-0.9-0.8-2.4-1.3-3.6c-4.1-10.3-2.4-8.1-11.6-8.2c-6.9-0.1-13.8,0.2-20.7-0.1
			c-3.9-0.1-6.8,1.1-7.7,4.9c-2.2,9.1-8.2,11.2-16.5,9.7C307.8,546.3,306.3,546.4,304.1,546.2z M357.3,519.1
			c-3.6-8.7-6.5-16.2-9.9-23.4c-1.3-2.8-3.8-3.3-5.3,0.1c-3.2,7.3-6,14.8-9.5,23.4C341.4,519.1,348.6,519.1,357.3,519.1z"/>
		<path class="st0" d="M115.3,546.6c-6,0-10.6,0.4-15.2-0.2c-1.6-0.2-3.7-2.5-4.2-4.2c-2.2-8.4-7-11.6-15.8-10.4
			c-6.2,0.9-12.7-0.1-19,0.3c-2,0.1-4.5,1.6-5.6,3.2c-2.3,3.3-2.9,9-5.8,10.2c-4.4,1.9-10.1,0.9-16.1,1.2c0.8-2.3,1.3-3.9,1.9-5.3
			C44.7,520.7,54,500,63,479.2c1.3-3,2.8-4.2,6.1-4.2c14.8,0,14.7-0.1,20.6,13.5c7.4,17,15,34,22.5,51
			C113,541.3,113.8,543.2,115.3,546.6z M61.4,519.1c9.1,0,16.3,0,24.6,0c-3.7-9.6-5.7-18.5-10.8-26.1c-0.8-0.1-1.6-0.2-2.4-0.3
			C69.2,501,65.6,509.3,61.4,519.1z"/>
		<path class="st0" d="M618.7,546.3c-6.3,0-11.6,0-17.4,0c0-23.8,0-47.3,0-71c18.3,0,36.6,0,55.2,0c0,4,0,7.5,0,12.1
			c-3.8,0-7.6,0-11.4,0c-7.1,0-14.2,0.1-21.2,0c-3.3-0.1-4.7,1.2-5.1,4.4c-1.9,15.3-1.3,16.1,13.8,16.1c6.3,0,12.6,0,19.1,0
			c0,4.3,0,7.9,0,12.6c-7.6,0-14.9-0.3-22.1,0.1c-12.1,0.6-10.6-2-10.9,11.3C618.6,536.5,618.7,541.1,618.7,546.3z"/>
		<path class="st0" d="M136.4,474.8c4.3,0,8.4,0.2,12.4-0.1c3.6-0.2,4.4,1.4,4.3,4.6c-0.1,15.6,0,31.3,0.1,46.9
			c0,7.1,0.6,7.6,7.7,7.7c9.1,0.1,18.2,0,27.7,0c0.2,1.5,0.6,2.9,0.7,4.3c0.3,8.2,0.3,8.3-8.2,8.3c-14.7,0-29.4,0-44.8,0
			C136.4,522.7,136.4,499.2,136.4,474.8z"/>
		<path class="st0" d="M351,626.8c-2.7-1.3-5-1.7-6.1-3.1c-4.9-6.3-9.5-12.8-15.2-20.6c0,6.8-0.2,12.6,0.1,18.3
			c0.2,3.8-1.1,5.2-5.2,4.1c0-11.2,0-22.7,0-35.6c2.6,1.6,4.9,2.4,6.1,3.9c3.9,5.2,7.4,10.7,11.1,16c0.8,1.1,1.8,2.1,3.5,4.1
			c0-8.2,0-15.2,0-22.6c2.9-0.1,5.7-1.8,5.7,2.8C351,604.6,351,615,351,626.8z"/>
		<path class="st0" d="M475.3,603.3c0,8,0,14.8,0,22.1c-1.8,0.2-3.4,0.4-5.3,0.6c0-11.7,0-22.9,0-35.8c2.6,1.5,5,2.2,6.2,3.9
			c4.6,6.2,8.9,12.7,14.4,18.9c0-7,0-14.1,0-21.1c0.5-0.4,1-0.8,1.5-1.2c1.4,1.1,4.1,2.2,4.2,3.3c0.3,10.6,0.2,21.1,0.2,33.2
			c-2.8-1.5-5-2-6.2-3.4C485.4,617.3,480.8,610.8,475.3,603.3z"/>
		<path class="st0" d="M241.6,609.1c-0.1,10.1-7,17.4-16.4,17.3c-9.7-0.1-16.4-7.5-16.2-18c0.1-10.6,6.9-18.1,16.4-18
			C235,590.5,241.7,598.2,241.6,609.1z M214.6,608.5c-0.1,7.1,4.5,12.4,10.7,12.4c6,0,10.6-5.2,10.7-12c0.1-7.6-4.5-13.1-10.8-13
			C219,596,214.7,601.1,214.6,608.5z"/>
		<path class="st0" d="M278.5,609c-0.1,10.1-6.9,17.4-16.3,17.4c-9.7,0-16.4-7.4-16.3-17.9c0.1-10.7,6.8-18.1,16.3-18.1
			C271.8,590.4,278.6,598.1,278.5,609z M272.9,609.1c0.1-7.5-4.4-13.1-10.7-13.1c-6.2,0-10.5,5.1-10.7,12.4
			c-0.2,7.1,4.4,12.5,10.6,12.5C268.1,621,272.8,615.8,272.9,609.1z"/>
		<path class="st0" d="M424,615.5c2,3.2,4,6.4,6,9.6c-5.3,1.2-5.6,1.3-8.2-3.7c-2.4-4.7-5.6-6.7-11.2-4.7c-0.2,2.7-0.3,5.6-0.5,8.8
			c-1.7,0-3.2,0-5.1,0c0-11.2,0-22.4,0-33.9c5.6,0,11.4-0.9,16.9,0.2c8.2,1.6,11.1,13.4,5.5,20.1C426.5,613,425.4,614,424,615.5z
			 M410.7,612.1c4.8-1.6,9.3-2.1,12.4-4.5c1.4-1.1,1.2-6.5-0.2-8.6c-2.9-4.2-7.8-2.9-12.2-2.3C410.7,601.5,410.7,605.9,410.7,612.1z
			"/>
		<path class="st0" d="M176.9,590.6c9.6,2.6,2.3,10.7,6.6,15.1c3.9,0,8.6,0,14,0c0-4.6,0-9.2,0-13.9c3.5-0.9,5.9-1.5,5.9,3.1
			c-0.1,10,0,20.1,0,30.6c-1.7,0.2-3.3,0.4-5.5,0.7c0-5,0-9.5,0-14.4c-5.4,0-10.2,0-15.5,0c0,4.4,0,8.8,0,13.6
			c-2,0.3-3.5,0.5-5.5,0.8C176.9,614.4,176.9,603.2,176.9,590.6z"/>
		<path class="st0" d="M559.1,591.4c0.4,4.8,0.4,4.8-5.6,4.8c-3.1,0-6.3,0-9.7,0c0,3.5,0,6.3,0,8.7c4.3,3.5,12-2.9,15.2,6.3
			c-5.8,0-10.4,0-15.2,0c0,3.3,0,6,0,9.1c5.4,0,10.5,0,16.1,0c0.2,1.9,0.4,3.4,0.7,5.3c-7.6,0-14.8,0-22.3,0c0-11.3,0-22.6,0-34.2
			C545.1,591.4,551.9,591.4,559.1,591.4z"/>
		<path class="st0" d="M385.7,609.2c0.1,1.4,0.2,2.9,0.2,4.3c0.1,10.3-4.8,14.3-15.2,12.4c-6.9-1.3-12.1-6.9-12.9-14.2
			c-1.1-9.4,2.3-16.5,9.3-19.7c6.9-3.1,13.4-1.8,18.8,4c-0.9,1-1.8,2.1-2.5,2.9c-3.1-1.1-5.8-2.6-8.6-2.9
			c-6.5-0.7-11.2,4.5-11.5,12.1c-0.3,7.4,4.4,12.8,11,12.7c4.5,0,6.9-1.9,6.2-6.8C380.1,610.7,380.4,607.4,385.7,609.2z"/>
		<path class="st0" d="M530.6,595.7c-1.3,1.4-2.2,2.5-2.9,3.4c-2.9-1.1-5.4-2.6-8-3c-6.7-1-11.7,4.4-11.9,12.2
			c-0.2,7.3,4.5,12.7,11.1,12.6c4.7-0.1,6.8-2.1,6.1-6.9c-0.5-3.5,0.1-6.4,5.1-4.8c0.1,1.4,0.4,2.7,0.2,3.9c-0.7,3.6,2.2,8-2.3,10.7
			c-5.1,3-10.6,3.6-16.1,1.2c-6.9-3-9.7-8.8-9.7-16.1c-0.1-7.5,2.3-13.6,9.5-16.8C518.4,589,524.6,590.2,530.6,595.7z"/>
		<path class="st0" d="M465.4,625.4c-3.5,1.1-6.1,1-6.9-3c-0.7-3.6-2.9-4.8-6.4-4.3c-2,0.3-4.1,0.3-6.1,0c-3.3-0.4-5.3,0.8-6,4.1
			c-0.8,4-3.4,4.3-6.9,3.3c4.1-10.6,8.1-21.2,12.3-31.6c0.5-1.3,2.6-2.5,4-2.6c1.1-0.1,3,1.3,3.5,2.5
			C457.2,604.2,461.2,614.7,465.4,625.4z M443.8,612.7c3.8,0,6.9,0,10.7,0c-1.8-5.2-3.3-9.8-5.4-15.7
			C447.1,603,445.6,607.6,443.8,612.7z"/>
		<path class="st0" d="M147.4,618.9c4.6,0.8,8.6,1.9,12.5,1.9c1.5,0,3.7-2.3,4.2-4c0.3-0.9-2-3.2-3.5-4c-2.1-1.1-4.6-1.4-6.9-2.2
			c-5.8-2.1-7.8-5.2-7.1-11c0.6-5.2,3.8-8.1,8.8-8.6c3.2-0.3,6.7,0,9.9,0.7c3.7,0.8,4.2,3.1,1.7,5.9c-2.6-0.6-5.1-1.9-7.5-1.7
			c-2.4,0.3-4.7,2.1-7,3.2c1.6,2.2,2.8,4.9,4.8,6.5c1.8,1.4,4.5,1.5,6.8,2.3c4.2,1.4,6.3,4.3,6.1,8.9c-0.3,4.7-2.9,8.1-7.2,8.7
			c-4.3,0.6-8.8-0.1-13.1-0.9C146.3,624,145.2,621.6,147.4,618.9z"/>
		<path class="st0" d="M295.6,625.9c-2.3-0.1-3.7-0.2-5.6-0.4c0-9.7,0-19.1,0-29.4c-2.8,0-5.2,0.3-7.5-0.1c-1-0.2-2-1.6-2.4-2.7
			c-0.1-0.4,1.5-2.1,2.3-2.1c6.9-0.2,13.8-0.3,20.7,0c1.1,0,2.1,2.1,4.1,4.4c-5,0.4-8.1,0.7-11.6,1
			C295.6,606.4,295.6,615.8,295.6,625.9z"/>
		<path class="st0" d="M311,625.9c0-12,0-23.1,0-34.5c2.8-0.3,5.4-1.3,5.4,3.1c-0.1,10.2,0,20.4,0,31
			C314.5,625.6,313,625.7,311,625.9z"/>
		<path class="st0" d="M350.9,262.8c-34.8-0.2-63.3-28.2-63-62.7c0.4-38.1,30.4-63.4,63.7-63.4c35.4,0,63.4,28.5,63.1,63.7
			C414.3,235.7,386.4,262.9,350.9,262.8z M351.6,248.9c26.5-0.1,48.9-21.8,48.7-47.4c-0.2-29.2-20.4-50.2-48.4-50.3
			c-28.2-0.1-49.7,21.1-49.7,49.1C302.2,227.2,324.4,249,351.6,248.9z"/>
		<path class="st0" d="M431.4,221.1c0-12.3,0-22.9,0-33.6c0.5,0,1,0,1.6,0C432.1,198.2,435.3,209,431.4,221.1z"/>
		<path class="st0" d="M351.1,168.7c18.5,0.2,32.2,13.8,31.9,31.6c-0.3,16.9-15.2,31.5-31.7,31.1c-18-0.4-31.2-14.2-30.9-32.6
			C320.5,181.6,333.9,168.6,351.1,168.7z M352.1,187c-7.6,0.1-14,6.1-13.9,13c0.1,6.7,6.6,12.7,13.7,12.8
			c5.8,0.1,12.8-6.8,12.7-12.6C364.5,193.5,358.2,186.9,352.1,187z"/>
	</g>
</g>
</svg>
