<?xml version="1.0" encoding="UTF-8"?>
<svg id="Layer_1" data-name="Layer 1" xmlns="http://www.w3.org/2000/svg" viewBox="0 0 384 378.34">
  <defs>
    <style>
      .cls-1 {
        fill: #46bb8b;
        stroke-width: 0px;
      }
    </style>
  </defs>
  <g id="pL4JE7">
    <path class="cls-1" d="m192.15,348.02c-89.6-.37-158.69-72.69-158.92-157.87-.23-88.35,70.29-159.6,158.2-159.83,88.23-.23,159.09,70.49,159.34,158.98.24,85.12-68.5,158.12-158.62,158.72ZM89.31,119.24c-.1,2.18.35,4.29.63,6.42,2.91,22.11,10.92,42.24,24.42,59.95,21.32,27.95,46.06,52.6,73.14,75,21,17.37,44.66,28.22,71.83,31.04,10.07,1.04,17.86-3.09,23.16-11.58,3.8-6.09,7.23-12.41,10.77-18.66,2.66-4.69,1.66-8.91-2.81-11.86-14.56-9.62-29.16-19.16-43.69-28.82-2.02-1.34-3.62-1.28-5.59,0-4.85,3.16-9.78,6.18-14.71,9.21-7.48,4.62-16.24,4.04-22.91-1.57-17.97-15.12-34.56-31.62-49.73-49.55-7.25-8.56-7.69-16.32-1.65-25.87,2.84-4.49,5.59-9.05,8.47-13.52,1.04-1.62,1.1-2.96,0-4.61-9.89-14.94-19.69-29.93-29.59-44.86-2.4-3.63-6.87-4.69-10.64-2.58-6.67,3.74-13.37,7.46-19.85,11.5-7.44,4.64-11.09,11.59-11.26,20.35Z"/>
  </g>
</svg>