<?xml version="1.0" encoding="utf-8"?>
<!-- Generator: Adobe Illustrator 28.0.0, SVG Export Plug-In . SVG Version: 6.00 Build 0)  -->
<svg version="1.1" id="Layer_1" xmlns="http://www.w3.org/2000/svg" xmlns:xlink="http://www.w3.org/1999/xlink" x="0px" y="0px"
	 viewBox="0 0 190.1 190.9" style="enable-background:new 0 0 190.1 190.9;" xml:space="preserve">
<style type="text/css">
	.st0{fill:#FFFFFF;}
</style>
<g>
	<g>
		<g id="Gp3W2V.tif_00000135670597636449709340000014041471627530929303_">
			<g>
				<path class="st0" d="M119.5,19.9c0.3,0.8,0.8,1.7,0.8,2.6c1,26.5,21.1,46.6,47.5,47.5c1.2,0,2.5,0,2.5,1.6
					c0.1,1.6-1.2,1.6-2.4,1.7c-8.4,0.2-16.4,2.3-23.6,6.7c-15,9.2-22.9,22.6-24,40.2c-0.1,1.3,0.4,3-1.6,3c-2,0-1.6-1.8-1.6-3
					c-0.5-23.9-19.9-44.6-43.7-46.6c-1.4-0.1-2.8-0.2-4.2-0.3c-1.1,0-2.2-0.4-2-1.6c0.1-0.7,1.3-1.4,2.1-1.6
					c3.4-0.5,6.9-0.6,10.3-1.3c21.4-4.7,37-24,37.6-45.8c0-1,0.7-2,1.1-3C118.7,19.9,119.1,19.9,119.5,19.9z"/>
				<path class="st0" d="M80.4,109.1c-1.1,0.7-1.8,1.3-2.6,1.5c-2,0.4-4.1,0.4-6.1,0.9c-11.7,2.9-19.8,13-20.3,25
					c0,0.2,0.1,0.5,0,0.6c-0.5,0.7-1.1,1.3-1.6,1.9c-0.5-0.6-1.4-1.2-1.5-1.9c-0.4-1.9-0.4-3.8-0.8-5.7
					c-2.5-11.4-12.4-19.8-24.1-20.6c-0.6,0-1.3,0.1-1.8-0.2c-0.7-0.4-1.2-1-1.8-1.5c0.6-0.5,1.1-1.4,1.7-1.6
					c1.5-0.4,3.2-0.3,4.7-0.6c12.4-2.4,21.2-12.5,21.9-25.1c0-0.3-0.1-0.8,0.1-1c0.5-0.6,1-1.2,1.5-1.7c0.5,0.6,1.4,1,1.6,1.7
					c0.4,1.9,0.3,3.9,0.7,5.7c2.7,11.8,12.4,20,24.6,20.8c0.6,0,1.3,0,1.8,0.2C79,107.7,79.4,108.3,80.4,109.1z M49.7,90.4
					c-3.5,9.1-9.6,15.1-18.5,18.6c9,3.5,15,9.5,18.2,17.7c2.5-3.4,4.8-7.1,7.6-10.5c2.9-3.4,6.9-5.5,11.3-7.3
					C59.3,105.5,53.3,99.4,49.7,90.4z"/>
				<path class="st0" d="M106.8,154c-0.9,0.4-1.7,1-2.6,1c-3.2,0.2-6.1,1.4-8.5,3.5c-3.1,2.6-4.8,6-5,10.1c-0.1,1.2-0.2,2.4-1.7,2.5
					c-1.4,0-1.5-1.2-1.6-2.3c-0.9-8.1-5.7-12.7-13.8-13.7c-0.8-0.1-1.9-0.9-2-1.6c-0.3-1.3,0.9-1.6,2-1.6c7.3-0.2,13.7-6.3,14-14
					c0-0.7,1-1.3,1.5-2c0.6,0.7,1.6,1.3,1.7,2c1.1,8.5,5.4,12.8,14,14c0.8,0.1,1.5,0.8,2.3,1.2C106.8,153.4,106.8,153.7,106.8,154z"
					/>
			</g>
		</g>
	</g>
</g>
</svg>
