<?xml version="1.0" encoding="utf-8"?>
<!-- Generator: Adobe Illustrator 28.2.0, SVG Export Plug-In . SVG Version: 6.00 Build 0)  -->
<svg version="1.1" id="Layer_1" xmlns="http://www.w3.org/2000/svg" xmlns:xlink="http://www.w3.org/1999/xlink" x="0px" y="0px"
	 viewBox="0 0 94.8 115.9" style="enable-background:new 0 0 94.8 115.9;" xml:space="preserve">
<style type="text/css">
	.st0{fill:#92C8DD;}
</style>
<g>
	<g id="_4lpObe">
		<g>
			<path class="st0" d="M38.6,96.8c-2.4-0.8-3.3-2.5-3.3-5c0.1-8.3,0.1-16.5,0-24.8c0-2.7-0.3-5.3-0.6-8c-0.2-1.4,0-2.5,1.1-3.7
				c3.4-3.5,6.7-7.3,10.1-10.8c0.8-0.9,1.9-1.5,2.9-2.2c0.9-0.7,1.8-1.4,2.8-2.3c1,0.5,2.4,1.2,3.9,1.9c0.2-1.3,0.6-2.5,0.6-3.7
				c0.1-1.8,0.9-2.8,2.6-3.3c1-0.3,1.8-0.8,3.1-1.3c-0.2,1.6-0.4,2.9-0.6,4.2c-0.4,2.5-0.9,4.9-1.3,7.4c-0.5,3.1-1.9,3.8-4.7,2.3
				c-1.6-0.8-3.3-1.7-4.9-2.5c-0.1,0-0.2,0-0.5,0c0.6,4.4,1,8.8,1.8,13.1c0.4,2.1,1.2,4.2,2,6.2c0.8,1.9,1.7,3.8,2.8,5.6
				c2.1,3.3,2.3,6.8,1.8,10.6c-0.6,3.9-1,7.9-1.3,11.9c-0.2,2.2-0.9,3.7-3,4.6h-1.8c-2.7-1.3-3.1-2.2-2.8-5.2
				c0.4-4.7,1-9.4,1.4-14.2c0.1-0.9-0.1-1.9-0.5-2.7c-1.4-3-2.9-6-4.3-9c-0.4-0.9-0.7-1.5-1.9-1.3c-1.3,0.3-1,1.2-1,1.9
				c0,8.5,0,17,0,25.5c0,3-0.5,3.8-3.3,4.9H38.6L38.6,96.8z"/>
			<path class="st0" d="M82.8,16.6c0.3,0.7,0.6,1.4,0.9,2.2c-6.3,2.8-12.5,5.6-18.8,8.4c0.3,0.8,0.6,1.6,0.9,2.5
				c-1,0.5-2,0.8-2.9,1.4c-0.7,0.4-2.2,0.2-1.7,1.9c0,0.1-0.5,0.4-0.8,0.5c-3.1,1.4-6.3,2.8-9.4,4.2c-2.4-2.3-5.6-2-8.3,0.8
				c-2.5,2.6-4.9,5.3-7.4,8c-0.6,0.6-1.2,1.2-1.9,1.9c-0.7-1-1.3-2-2-3.1c3.4-2.4,6.8-4.8,10.3-7.1c1-0.7,1.7-1.5,1.7-2.7
				c0-1.3,0.8-1.7,1.8-2.1C57.1,28.1,69.1,22.8,81,17.5c0.5-0.2,1-0.6,1.5-0.9C82.6,16.6,82.7,16.6,82.8,16.6L82.8,16.6z M55,30.4
				l0.3,0.6c2.7-1.2,5.4-2.4,8.1-3.6c-0.1-0.2-0.2-0.4-0.3-0.6C60.4,28,57.7,29.2,55,30.4z"/>
			<path class="st0" d="M38.9,39.1c-3,2.1-5.7,4-8.5,5.9c1,1.5,2,3,3,4.6c3.2-3.5,6.2-7,9.5-10.2c1.2-1.2,2.9-1.9,4.5-2.6
				c1.2-0.5,2.3,0.2,2.8,1.3c0.5,1.1,0.3,2.5-0.8,3c-4.1,1.7-6.2,5.6-9.2,8.5c-2,1.9-3.6,4.1-5.6,6c-0.7,0.7-2,1.3-2.7,1.1
				c-0.8-0.3-1.7-1.5-1.9-2.4c-0.8-3-0.9-6,0-9C31.4,40.5,33.4,39,38.9,39.1L38.9,39.1z"/>
			<path class="st0" d="M41.2,29.3c1.8,0.1,3.5,0.2,5.1,0.2c0.2,1.8-0.5,3-2.2,3.6c-0.5,0.2-1.1,0.8-1.1,1.3
				c-0.2,1.2-0.8,1.7-1.9,1.9c-3.5,0.8-7-1.1-8.2-4.5c-1.2-3.5,0.4-7.1,3.8-8.6c0,1.2,0,2.5,0,3.8c0,0.4-0.1,0.9-0.4,1.3
				c-0.9,1.2-0.9,2.4,0,3.6c0.8,1.1,2,1.4,3.2,0.9c1.4-0.5,2-1.6,1.8-3.1C41.1,29.6,41.2,29.5,41.2,29.3L41.2,29.3z"/>
			<path class="st0" d="M83.2,21.1c-5.6,2.5-11.2,5-16.8,7.5c-0.1-0.1-0.2-0.3-0.3-0.4c0.3-0.3,0.5-0.7,0.8-0.9
				c5.1-2.3,10.2-4.5,15.2-6.8c0.3-0.1,0.7,0,1.1,0C83.1,20.7,83.1,20.9,83.2,21.1L83.2,21.1z"/>
			<path class="st0" d="M38.7,28.3c0.4,0.7,1.3,1.4,1.2,2c-0.1,0.6-1,1.1-1.6,1.7c-0.5-0.6-1.5-1.1-1.5-1.8
				c-0.1-0.6,0.8-1.3,1.2-1.9C38.2,28.2,38.5,28.3,38.7,28.3z"/>
		</g>
	</g>
	<path class="st0" d="M38.3,27.5v-4.7c0,0,4.1-0.3,5.4,3l6.7-1.4C50.5,24.5,51.1,29.3,38.3,27.5z"/>
</g>
<ellipse transform="matrix(0.9991 -4.292191e-02 4.292191e-02 0.9991 -1.2496 1.6728)" class="st0" cx="38.3" cy="29.9" rx="2.1" ry="2.3"/>
</svg>
