<?xml version="1.0" encoding="utf-8"?>
<!-- Generator: Adobe Illustrator 28.0.0, SVG Export Plug-In . SVG Version: 6.00 Build 0)  -->
<svg version="1.1" id="Layer_1" xmlns="http://www.w3.org/2000/svg" xmlns:xlink="http://www.w3.org/1999/xlink" x="0px" y="0px"
	 viewBox="0 0 69.2 53.8" style="enable-background:new 0 0 69.2 53.8;" xml:space="preserve">
<style type="text/css">
	.st0{fill:#D6DEED;}
</style>
<g id="_4lpObe">
	<g>
		<path class="st0" d="M26,50.7c-1.5-0.5-2-1.5-2-3.1c0.1-5.1,0-10.2,0-15.3c0-1.6-0.2-3.3-0.4-4.9c-0.1-0.9,0-1.6,0.7-2.3
			c2.1-2.2,4.1-4.5,6.2-6.7c0.5-0.5,1.2-0.9,1.8-1.4c0.6-0.4,1.1-0.9,1.8-1.4c0.6,0.3,1.5,0.7,2.4,1.2c0.2-0.8,0.4-1.6,0.4-2.3
			c0-1.1,0.6-1.7,1.6-2c0.6-0.2,1.1-0.5,1.9-0.8c-0.1,1-0.2,1.8-0.4,2.6c-0.2,1.5-0.5,3-0.8,4.5c-0.3,1.9-1.2,2.3-2.9,1.4
			c-1-0.5-2-1-3-1.5c-0.1,0-0.1,0-0.3,0c0.4,2.7,0.6,5.4,1.1,8.1c0.2,1.3,0.7,2.6,1.2,3.8c0.5,1.2,1,2.4,1.7,3.4
			c1.3,2,1.4,4.2,1.1,6.5c-0.4,2.4-0.6,4.9-0.8,7.3c-0.1,1.3-0.6,2.3-1.8,2.8h-1.1c-1.6-0.8-1.9-1.3-1.8-3.2
			c0.3-2.9,0.6-5.8,0.9-8.7c0-0.5-0.1-1.2-0.3-1.7c-0.8-1.9-1.8-3.7-2.7-5.5c-0.2-0.5-0.5-0.9-1.2-0.8c-0.8,0.2-0.6,0.7-0.6,1.2
			c0,5.2,0,10.5,0,15.7c0,1.9-0.3,2.3-2,3L26,50.7L26,50.7z"/>
		<path class="st0" d="M53.2,1.2c0.2,0.4,0.4,0.9,0.6,1.4C50,4.3,46.1,6,42.2,7.8c0.2,0.5,0.4,1,0.6,1.5c-0.6,0.3-1.2,0.5-1.8,0.9
			c-0.4,0.3-1.4,0.1-1.1,1.1c0,0.1-0.3,0.2-0.5,0.3c-1.9,0.9-3.9,1.7-5.8,2.6c-1.5-1.4-3.4-1.2-5.1,0.5c-1.5,1.6-3,3.3-4.5,4.9
			c-0.3,0.4-0.7,0.7-1.2,1.1c-0.4-0.6-0.8-1.2-1.2-1.9c2.1-1.5,4.2-3,6.3-4.4c0.6-0.4,1.1-0.9,1.1-1.6c0-0.8,0.5-1,1.1-1.3
			c7.4-3.2,14.7-6.5,22-9.8c0.3-0.1,0.6-0.4,0.9-0.5C53.1,1.2,53.2,1.2,53.2,1.2L53.2,1.2z M36.1,9.7l0.2,0.4c1.7-0.8,3.3-1.5,5-2.2
			c0-0.1-0.1-0.2-0.2-0.3C39.4,8.2,37.7,9,36.1,9.7z"/>
		<path class="st0" d="M26.1,15.1c-1.9,1.3-3.5,2.5-5.2,3.6c0.6,0.9,1.2,1.8,1.9,2.8c2-2.2,3.8-4.3,5.8-6.3c0.7-0.7,1.8-1.2,2.8-1.6
			c0.7-0.3,1.4,0.1,1.7,0.8c0.3,0.7,0.2,1.5-0.5,1.8c-2.5,1-3.8,3.4-5.7,5.2c-1.2,1.2-2.2,2.5-3.5,3.7c-0.4,0.4-1.2,0.8-1.7,0.7
			c-0.5-0.2-1-0.9-1.2-1.5c-0.5-1.8-0.6-3.7,0-5.5C21.5,15.9,22.8,15,26.1,15.1z"/>
		<path class="st0" d="M27.6,9c1.1,0.1,2.1,0.1,3.1,0.1c0.1,1.1-0.3,1.9-1.4,2.2c-0.3,0.1-0.6,0.5-0.7,0.8c-0.1,0.8-0.5,1-1.2,1.2
			c-2.1,0.5-4.4-0.7-5.1-2.8c-0.8-2.2,0.2-4.4,2.3-5.3c0,0.8,0,1.6,0,2.3c0,0.3-0.1,0.6-0.2,0.8c-0.5,0.8-0.6,1.5,0,2.2
			c0.5,0.7,1.2,0.8,2,0.6c0.9-0.3,1.2-1,1.1-1.9C27.5,9.2,27.6,9.1,27.6,9L27.6,9z"/>
		<path class="st0" d="M28.1,8.5c-0.2,0-0.4,0-0.5,0C25.8,8.4,25,6.8,26,5.3c0.2-0.3,1-0.5,1.3-0.3c1.5,0.8,3,0.4,4.5,0.4
			c0.4,0,0.9,0.2,1.3,0.4c0.3,0.2,0.4,0.6,0.2,0.9c-0.3,0.4-0.6,0.7-1,0.9c-1.3,0.5-1.4,0.5-2.7,0.8C29.4,8.3,28.1,8.5,28.1,8.5
			L28.1,8.5z"/>
		<path class="st0" d="M53.5,4C50,5.5,46.6,7,43.1,8.6C43,8.5,43,8.4,42.9,8.3c0.2-0.2,0.3-0.4,0.5-0.5c3.1-1.4,6.3-2.8,9.4-4.2
			c0.2-0.1,0.4,0,0.7,0C53.4,3.7,53.5,3.8,53.5,4L53.5,4z"/>
		<path class="st0" d="M26.1,8.4c0.3,0.4,0.8,0.9,0.7,1.2c0,0.4-0.6,0.7-1,1.1c-0.3-0.4-0.9-0.7-1-1.1c0-0.4,0.5-0.8,0.8-1.2
			C25.7,8.4,25.9,8.4,26.1,8.4L26.1,8.4z"/>
	</g>
</g>
<circle class="st0" cx="25.8" cy="9.5" r="1.1"/>
</svg>
