<?xml version="1.0" encoding="UTF-8"?>
<svg id="Layer_1" data-name="Layer 1" xmlns="http://www.w3.org/2000/svg" viewBox="0 0 281.48 289.51">
  <defs>
    <style>
      .cls-1 {
        fill: #5b6575;
        stroke-width: 0px;
      }
    </style>
  </defs>
  <g>
    <g id="_4lpObe" data-name="4lpObe">
      <g>
        <path class="cls-1" d="m97.68,264.06c-6.94-2.33-9.52-7.09-9.43-14.42.29-23.77.25-47.54.02-71.31-.07-7.65-.98-15.31-1.8-22.93-.44-4.09,0-7.27,3.18-10.54,9.89-10.17,19.22-20.88,28.97-31.19,2.38-2.52,5.59-4.25,8.37-6.41,2.59-2.02,5.12-4.12,8.19-6.61,2.88,1.42,6.81,3.35,11.29,5.55.69-3.87,1.67-7.3,1.82-10.76.22-5.16,2.68-7.98,7.51-9.41,2.74-.81,5.3-2.25,8.99-3.86-.64,4.51-1.08,8.27-1.71,11.99-1.19,7.07-2.53,14.11-3.72,21.18-1.51,8.99-5.37,10.92-13.61,6.7-4.71-2.41-9.42-4.81-14.15-7.19-.26-.13-.64-.02-1.43-.02,1.66,12.6,2.96,25.17,5.11,37.58,1.05,6.09,3.38,12.04,5.7,17.82,2.22,5.52,4.75,11.03,7.94,16.04,6.07,9.53,6.7,19.59,5.07,30.41-1.7,11.31-2.89,22.72-3.68,34.13-.44,6.3-2.7,10.73-8.5,13.25h-5.13c-7.63-3.89-9.02-6.2-8.2-15.08,1.27-13.61,2.86-27.18,4.05-40.8.22-2.56-.31-5.46-1.38-7.81-3.97-8.69-8.36-17.18-12.46-25.8-1.17-2.47-2.12-4.39-5.56-3.66-3.62.77-2.8,3.31-2.8,5.55-.03,24.45,0,48.91-.03,73.36,0,8.66-1.58,10.97-9.55,14.24h-3.08Z"/>
        <path class="cls-1" d="m224.96,33.15c.85,2.01,1.7,4.02,2.73,6.46-18.17,8.09-36.02,16.03-54.18,24.12.89,2.41,1.68,4.58,2.59,7.06-2.88,1.33-5.76,2.4-8.36,3.94-2.06,1.22-6.46.56-4.95,5.32.08.25-1.51,1.17-2.41,1.57-9.01,4.05-18.04,8.07-27,12.06-6.78-6.58-16.06-5.78-23.81,2.28-7.22,7.52-14.11,15.35-21.18,23.01-1.6,1.74-3.37,3.33-5.43,5.35-1.96-2.96-3.79-5.73-5.84-8.83,9.94-6.9,19.67-13.81,29.59-20.43,2.92-1.95,5.02-4.17,5-7.65-.02-3.64,2.22-4.85,5.03-6.09,34.31-15.18,68.59-30.44,102.87-45.7,1.51-.67,2.88-1.63,4.32-2.46.34,0,.68,0,1.03,0Zm-80.14,39.75l.89,1.65c7.8-3.48,15.59-6.96,23.39-10.44-.25-.55-.5-1.1-.75-1.65-7.85,3.48-15.69,6.96-23.54,10.45Z"/>
        <path class="cls-1" d="m98.51,97.92c-8.72,6.08-16.37,11.43-24.35,17,2.88,4.37,5.66,8.58,8.7,13.19,9.28-10.07,17.89-20.03,27.23-29.24,3.46-3.41,8.46-5.49,13.08-7.42,3.39-1.42,6.51.48,7.96,3.8,1.41,3.25,1.02,7.15-2.34,8.54-11.91,4.91-17.86,16.06-26.47,24.38-5.64,5.45-10.46,11.76-16.09,17.22-1.94,1.88-5.71,3.79-7.8,3.11-2.41-.78-4.85-4.16-5.58-6.87-2.3-8.49-2.66-17.26-.08-25.8,4.22-14,9.93-18.35,25.76-17.9Z"/>
        <path class="cls-1" d="m105.18,69.56c5.2.25,9.94.48,14.66.71.44,5.23-1.29,8.67-6.41,10.33-1.4.45-3.05,2.39-3.24,3.83-.48,3.54-2.4,4.82-5.57,5.58-10.05,2.41-20.28-3.08-23.72-12.92-3.53-10.11,1.14-20.56,10.78-24.72,0,3.56.09,7.26-.05,10.95-.04,1.25-.34,2.69-1.04,3.68-2.48,3.51-2.69,6.97-.08,10.38,2.35,3.07,5.69,3.89,9.18,2.62,3.99-1.46,5.7-4.64,5.27-8.92-.05-.47.13-.96.22-1.52Z"/>
        <path class="cls-1" d="m225.91,46.04c-16.08,7.15-32.17,14.3-48.25,21.44-.33-.39-.67-.78-1-1.17.75-.86,1.32-2.1,2.27-2.53,14.58-6.57,29.2-13.06,43.85-19.48.86-.38,2.02-.05,3.05-.05.03.59.06,1.19.09,1.78Z"/>
        <path class="cls-1" d="m98.1,66.7c1.24,1.9,3.65,3.96,3.41,5.65-.26,1.81-3,3.27-4.66,4.89-1.59-1.67-4.25-3.22-4.44-5.04-.18-1.7,2.25-3.68,3.53-5.54.72.02,1.44.03,2.16.05Z"/>
      </g>
    </g>
    <path class="cls-1" d="m96.97,64.64v-13.45s11.7-.79,15.62,8.67l19.31-4.05s1.91,13.9-34.93,8.83Z"/>
  </g>
  <ellipse class="cls-1" cx="96.9" cy="71.51" rx="6.09" ry="6.54" transform="translate(-2.98 4.22) rotate(-2.46)"/>
</svg>