<?xml version="1.0" encoding="UTF-8"?><svg id="Layer_1" xmlns="http://www.w3.org/2000/svg" viewBox="0 0 48.98 45.48"><path d="M41.44,27.81c-.53,0-.92,.39-.92,.92v2.65c0,.25-.19,.51-.51,.51h-4.01s0-5.44,0-5.44c0-.8-.65-1.45-1.45-1.45H14.42c-.8,0-1.45,.65-1.45,1.45v5.44h-4.01c-.25,0-.51-.19-.51-.51V15.16c0-.25,.19-.51,.51-.51h31.05c.25,0,.51,.19,.51,.51v11.23c0,.49,.39,.86,.9,.87,0,0,.01,0,.02,0,.53,0,.92-.39,.92-.92V15.16c0-1.3-1.06-2.35-2.35-2.35h-4.01V5.78c0-.53-.39-.92-.92-.92H13.89c-.53,0-.92,.39-.92,.92v7.03h-4.01c-1.3,0-2.35,1.06-2.35,2.35V31.43c0,1.3,1.06,2.35,2.35,2.35h4.01v5.38c0,.8,.65,1.45,1.45,1.45h20.13c.8,0,1.45-.65,1.45-1.45v-5.44h4.01c1.3,0,2.35-1.06,2.35-2.35v-2.65c0-.53-.39-.92-.92-.92ZM14.81,6.71h19.35v6.1H14.81V6.71Zm19.35,32.07H14.81v-11.93h19.35v11.93Z" style="fill:#434d68;"/><path d="M18.66,31.61h11.66c.53,0,.92-.39,.92-.92s-.39-.92-.92-.92h-11.66c-.53,0-.92,.39-.92,.92s.39,.92,.92,.92Z" style="fill:#434d68;"/><path d="M18.66,35.85h11.66c.53,0,.92-.39,.92-.92s-.39-.92-.92-.92h-11.66c-.53,0-.92,.39-.92,.92s.39,.92,.92,.92Z" style="fill:#434d68;"/><circle cx="32.71" cy="17.84" r="1.4" style="fill:#434d68;"/><circle cx="36.4" cy="17.84" r="1.4" style="fill:#434d68;"/></svg>