<svg id="enJvfPbsYwV1" xmlns="http://www.w3.org/2000/svg" xmlns:xlink="http://www.w3.org/1999/xlink" viewBox="0 0 85.89 85.89" shape-rendering="geometricPrecision" text-rendering="geometricPrecision">
<style><![CDATA[
#enJvfPbsYwV5_tr {animation: enJvfPbsYwV5_tr__tr 10000ms linear infinite normal forwards}@keyframes enJvfPbsYwV5_tr__tr { 0% {transform: translate(43.139842px,42.256567px) rotate(0deg)} 100% {transform: translate(43.139842px,42.256567px) rotate(360deg)}} #enJvfPbsYwV10_tr {animation: enJvfPbsYwV10_tr__tr 10000ms linear infinite normal forwards}@keyframes enJvfPbsYwV10_tr__tr { 0% {transform: translate(43.153675px,42.280638px) rotate(360deg)} 100% {transform: translate(43.153675px,42.280638px) rotate(0deg)}}
]]></style>
<circle r="42.94" transform="translate(42.94 42.94)" fill="#4d748d"/><g><g><g id="enJvfPbsYwV5_tr" transform="translate(43.139842,42.256567) rotate(0)"><g transform="translate(-43.139842,-42.256567)"><path d="M44.88,13.41c1.13.15,2.26.28,3.39.47c2.9.5,5.65,1.46,8.33,2.87-.29.54-.56,1.06-.79,1.5-12.23-5.26-23.14-3.7-32.64,5.85-7.93,9.37-8.99,19.63-4.02,30.79-.18.1-.44.25-.71.39-.25.14-.51.26-.87.45-.49-1.12-1-2.17-1.41-3.27C10.35,36.97,18.57,19.91,34.3,14.8c2.13-.69,4.3-1.13,6.54-1.29.19-.01.38-.07.56-.1c1.16,0,2.33,0,3.49,0Z" fill="#fff" stroke-miterlimit="10"/><path d="M67.14,29.61c.43-.23.94-.5,1.44-.77c4.71,8.06,5.54,22.14-4.05,32.76C54.89,72.27,40,73.41,29.7,67.73c.27-.51.54-1.01.79-1.48c11.65,5.13,22.26,3.84,31.73-4.88c8.75-9.46,10.05-20.06,4.93-31.76Z" fill="#fff" stroke-miterlimit="10"/><path d="M66.87,22.72c0,.87,0,1.74,0,2.62c0,.76-.35,1.1-1.11,1.1-1.75,0-3.49,0-5.24,0-.76,0-1.1-.34-1.1-1.11c0-1.74,0-3.49,0-5.23c0-.76.34-1.1,1.1-1.1c1.75,0,3.49,0,5.24,0c.76,0,1.09.34,1.1,1.1c0,.87,0,1.74,0,2.62Zm-5.54-1.84v3.67h3.64v-3.67h-3.64Z" fill="#fff" stroke-miterlimit="10"/><path d="M26.85,61.86c0,.85,0,1.71,0,2.56c0,.76-.35,1.1-1.1,1.1-1.75,0-3.49,0-5.24,0-.76,0-1.1-.34-1.1-1.1c0-1.74,0-3.49,0-5.23c0-.76.34-1.1,1.1-1.1c1.75,0,3.49,0,5.24,0c.76,0,1.1.34,1.1,1.1c0,.89,0,1.78,0,2.68Zm-5.56,1.77h3.66v-3.65h-3.66v3.65Z" fill="#fff" stroke-miterlimit="10"/></g></g><g id="enJvfPbsYwV10_tr" transform="translate(43.153675,42.280638) rotate(360)"><path d="M60.16,40.33v3.87c.37.13.75.24,1.13.39.86.33,1.26,1.08,1,1.96-.36,1.19-.74,2.36-1.15,3.53-.31.88-1.1,1.23-2.02.97-1.12-.32-1.11-.31-1.77.64-.41.59-.84,1.16-1.3,1.71-.24.28-.3.48-.04.79c1.17,1.36.99,2.31-.51,3.28-.78.5-1.5,1.1-2.26,1.63-.89.62-1.72.48-2.38-.39-.65-.86-.64-.85-1.67-.48-.71.25-1.43.48-2.16.66-.34.08-.52.19-.48.57.18,1.72-.45,2.51-2.42,2.38-.89-.06-1.78,0-2.68-.01-1.09,0-1.69-.6-1.72-1.68-.03-1.09-.04-1.08-1.11-1.41-.72-.22-1.43-.47-2.13-.75-.3-.12-.5-.13-.67.17-.83,1.49-1.84,1.81-3.4.5-.67-.56-1.41-1.03-2.11-1.55-.9-.67-1.04-1.51-.41-2.42.61-.89.6-.88-.05-1.74-.45-.6-.89-1.22-1.29-1.86-.18-.29-.34-.39-.69-.28-1.97.61-2.37.39-3-1.57-.27-.85-.56-1.69-.82-2.54-.33-1.05.04-1.79,1.07-2.16c1.06-.38,1.04-.38,1-1.54-.02-.73.01-1.47.06-2.21.02-.31-.04-.48-.37-.59-2-.69-2.18-1.07-1.53-3.06.28-.86.55-1.73.85-2.59.33-.96,1.09-1.33,2.07-1.05c1.1.32,1.08.31,1.73-.62.41-.59.83-1.17,1.3-1.71.3-.33.31-.58.01-.88-.08-.08-.14-.19-.21-.28-.79-1.09-.67-1.87.42-2.66.86-.63,1.72-1.26,2.59-1.88.91-.65,1.74-.51,2.42.39.63.84.63.82,1.62.48.75-.26,1.51-.49,2.28-.69.3-.08.43-.19.41-.51-.02-.31-.01-.62,0-.93.05-.85.64-1.46,1.49-1.48c1.26-.03,2.52-.03,3.78,0c.88.02,1.47.63,1.52,1.51.03.42-.09.96.12,1.23.22.27.77.26,1.17.39.68.23,1.34.5,2.03.7.16.05.38-.09.56-.14.01,0,.03-.03.04-.05.86-1.49,1.86-1.76,3.36-.51.68.57,1.44,1.05,2.16,1.58.88.65,1.02,1.49.41,2.37-.63.92-.61.91.05,1.79.45.6.88,1.23,1.29,1.86.17.27.32.36.65.27c2.07-.61,2.39-.43,3.06,1.63.26.81.53,1.62.79,2.43.35,1.1-.04,1.85-1.14,2.22-.31.11-.62.21-.93.31ZM52.28,27.06c-.2.27-.37.5-.54.73-.68.93-1.27,1.05-2.36.64-1.07-.4-2.15-.75-3.25-1.05-.97-.27-1.43-.76-1.45-1.75c0-.34,0-.68,0-1.01h-3.09c0,.36,0,.68,0,1.01-.02.97-.46,1.47-1.39,1.74-1.17.34-2.32.72-3.47,1.13-.91.33-1.54.18-2.13-.61-.2-.26-.39-.52-.61-.82-.85.62-1.67,1.21-2.5,1.81.26.36.47.63.66.92.49.72.43,1.39-.1,2.08-.76,1-1.5,2.02-2.21,3.05-.52.75-1.12,1-2,.74-.34-.1-.69-.2-1.05-.31-.3.93-.59,1.8-.87,2.66-.02.07-.02.15-.03.26.37.13.73.25,1.09.38.74.28,1.08.82,1.07,1.61-.01,1.33-.01,2.67,0,4c0,.79-.34,1.32-1.09,1.6-.36.13-.72.26-1.12.4.32.99.63,1.93.95,2.92.4-.12.73-.23,1.06-.33.85-.25,1.46,0,1.96.71.73,1.05,1.48,2.08,2.25,3.1.52.69.57,1.36.07,2.08-.2.3-.42.59-.65.91.85.62,1.66,1.21,2.5,1.81.23-.31.42-.57.62-.83.59-.78,1.22-.93,2.14-.6c1.14.41,2.3.78,3.47,1.12.92.27,1.35.77,1.38,1.75c0,.32,0,.65,0,.99h3.09c0-.41-.02-.77,0-1.14.04-.82.47-1.32,1.24-1.56c1.25-.39,2.5-.8,3.74-1.22.77-.26,1.41-.11,1.91.53.24.3.45.61.71.95.86-.62,1.67-1.21,2.5-1.82-.23-.33-.44-.61-.63-.89-.52-.75-.46-1.42.08-2.13.76-1,1.5-2.01,2.22-3.05.51-.74,1.11-.99,2-.73.33.1.66.2,1.04.31.32-.99.63-1.94.95-2.93-.34-.11-.63-.21-.92-.3-.98-.33-1.31-.85-1.28-1.87.03-1.22.03-2.44,0-3.66-.03-1,.29-1.51,1.24-1.84.31-.1.62-.21.96-.33-.32-.99-.63-1.94-.95-2.92-.42.13-.79.25-1.16.36-.75.21-1.37-.05-1.82-.68-.77-1.09-1.56-2.16-2.35-3.24-.44-.6-.49-1.27-.09-1.89.22-.34.46-.66.72-1.02-.84-.61-1.65-1.2-2.5-1.81Z" transform="translate(-43.153675,-42.280638)" fill="#fff" stroke-miterlimit="10"/></g><g transform="translate(.000001 0)"><path d="M43.09,30.17c6.8.03,12.16,5.43,12.14,12.23-.02,6.59-5.51,11.99-12.17,11.96-6.62-.02-12.06-5.5-12.02-12.11.03-6.67,5.45-12.1,12.06-12.08Z" fill="#fff" stroke-miterlimit="10"/><path d="M38.95,42.21c0-1.45,0-2.91,0-4.36c0-1.04.66-1.44,1.57-.94c2.68,1.48,5.35,2.96,8.02,4.45.86.48.86,1.32,0,1.8-2.67,1.49-5.34,2.98-8.02,4.45-.92.5-1.58.11-1.58-.93c0-1.49,0-2.98,0-4.48Z" fill="#4d748d"/></g></g></g></svg>
