<?xml version="1.0" encoding="UTF-8"?>
<svg id="Layer_1" data-name="Layer 1" xmlns="http://www.w3.org/2000/svg" viewBox="0 0 94.77 115.94">
  <defs>
    <style>
      .cls-1 {
        fill: #ffcc5b;
        stroke-width: 0px;
      }
    </style>
  </defs>
  <g>
    <g id="_4lpObe" data-name="4lpObe">
      <g>
        <path class="cls-1" d="M38.6,96.85c-2.41-.81-3.31-2.46-3.28-5.01.1-8.26.09-16.52,0-24.78-.03-2.66-.34-5.32-.63-7.97-.15-1.42,0-2.53,1.11-3.66,3.44-3.54,6.68-7.26,10.07-10.84.83-.88,1.94-1.48,2.91-2.23.9-.7,1.78-1.43,2.85-2.3,1,.49,2.37,1.16,3.92,1.93.24-1.35.58-2.54.63-3.74.08-1.79.93-2.77,2.61-3.27.95-.28,1.84-.78,3.12-1.34-.22,1.57-.38,2.87-.59,4.17-.41,2.46-.88,4.9-1.29,7.36-.53,3.12-1.87,3.79-4.73,2.33-1.64-.84-3.27-1.67-4.92-2.5-.09-.04-.22,0-.5,0,.58,4.38,1.03,8.75,1.77,13.06.37,2.12,1.17,4.18,1.98,6.19.77,1.92,1.65,3.83,2.76,5.57,2.11,3.31,2.33,6.81,1.76,10.57-.59,3.93-1,7.89-1.28,11.86-.15,2.19-.94,3.73-2.96,4.6h-1.78c-2.65-1.35-3.14-2.16-2.85-5.24.44-4.73.99-9.45,1.41-14.18.08-.89-.11-1.9-.48-2.71-1.38-3.02-2.91-5.97-4.33-8.97-.41-.86-.74-1.53-1.93-1.27-1.26.27-.97,1.15-.97,1.93-.01,8.5,0,16.99,0,25.49,0,3.01-.55,3.81-3.32,4.95h-1.07Z"/>
        <path class="cls-1" d="M82.82,16.61c.3.7.59,1.4.95,2.24-6.31,2.81-12.51,5.57-18.82,8.38.31.84.58,1.59.9,2.45-1,.46-2,.83-2.9,1.37-.71.42-2.24.19-1.72,1.85.03.09-.52.41-.84.55-3.13,1.41-6.27,2.8-9.38,4.19-2.36-2.29-5.58-2.01-8.27.79-2.51,2.61-4.9,5.33-7.36,7.99-.56.6-1.17,1.16-1.89,1.86-.68-1.03-1.32-1.99-2.03-3.07,3.45-2.4,6.83-4.8,10.28-7.1,1.02-.68,1.74-1.45,1.74-2.66,0-1.26.77-1.68,1.75-2.12,11.92-5.28,23.83-10.58,35.74-15.88.52-.23,1-.57,1.5-.85.12,0,.24,0,.36,0ZM54.98,30.42l.31.57c2.71-1.21,5.42-2.42,8.13-3.63-.09-.19-.17-.38-.26-.57-2.73,1.21-5.45,2.42-8.18,3.63Z"/>
        <path class="cls-1" d="M38.89,39.12c-3.03,2.11-5.69,3.97-8.46,5.91,1,1.52,1.97,2.98,3.02,4.58,3.22-3.5,6.22-6.96,9.46-10.16,1.2-1.19,2.94-1.91,4.54-2.58,1.18-.49,2.26.17,2.77,1.32.49,1.13.35,2.49-.81,2.97-4.14,1.71-6.21,5.58-9.2,8.47-1.96,1.9-3.63,4.09-5.59,5.98-.67.65-1.98,1.32-2.71,1.08-.84-.27-1.69-1.45-1.94-2.39-.8-2.95-.92-6-.03-8.97,1.47-4.87,3.45-6.38,8.95-6.22Z"/>
        <path class="cls-1" d="M41.2,29.26c1.81.09,3.45.17,5.09.25.15,1.82-.45,3.01-2.23,3.59-.49.16-1.06.83-1.13,1.33-.17,1.23-.83,1.67-1.94,1.94-3.49.84-7.05-1.07-8.24-4.49-1.23-3.51.4-7.14,3.75-8.59,0,1.24.03,2.52-.02,3.81-.02.43-.12.93-.36,1.28-.86,1.22-.93,2.42-.03,3.61.82,1.07,1.98,1.35,3.19.91,1.39-.51,1.98-1.61,1.83-3.1-.02-.16.05-.34.08-.53Z"/>
        <path class="cls-1" d="M83.15,21.09c-5.59,2.48-11.18,4.97-16.77,7.45-.12-.14-.23-.27-.35-.41.26-.3.46-.73.79-.88,5.07-2.28,10.15-4.54,15.24-6.77.3-.13.7-.02,1.06-.02,0,.21.02.41.03.62Z"/>
        <path class="cls-1" d="M38.74,28.27c.43.66,1.27,1.38,1.18,1.96-.09.63-1.04,1.14-1.62,1.7-.55-.58-1.48-1.12-1.54-1.75-.06-.59.78-1.28,1.23-1.93.25,0,.5.01.75.02Z"/>
      </g>
    </g>
    <path class="cls-1" d="M38.35,27.55v-4.67s4.06-.28,5.43,3.01l6.71-1.41s.66,4.83-12.14,3.07Z"/>
  </g>
  <ellipse class="cls-1" cx="38.33" cy="29.94" rx="2.12" ry="2.27" transform="translate(-1.25 1.67) rotate(-2.46)"/>
</svg>