<?xml version="1.0" encoding="utf-8"?>
<!-- Generator: Adobe Illustrator 28.0.0, SVG Export Plug-In . SVG Version: 6.00 Build 0)  -->
<svg version="1.1" id="Layer_1" xmlns="http://www.w3.org/2000/svg" xmlns:xlink="http://www.w3.org/1999/xlink" x="0px" y="0px"
	 viewBox="0 0 50.5 43.8" style="enable-background:new 0 0 50.5 43.8;" xml:space="preserve">
<style type="text/css">
	.st0{fill:#FFFFFF;}
</style>
<g id="aeNsdQ">
	<g>
		<path class="st0" d="M11.8,30.7c0-1,0-2.1,0-3.1c0-0.3-0.1-0.5-0.4-0.6c-1.3-0.4-1.9-1.3-1.9-2.7c0-1.7,0-3.4,0-5.1
			c0-1.9,1.1-2.9,3-2.8c0.4,0,0.8,0,1.2,0c1.2,0,2.5,0,3.7,0c0.8,0,1.5,0.2,2,0.7c0.6,0.5,0.9,1.1,0.9,1.8c0,1.9,0,3.7,0,5.5
			c0,1.1-0.7,2-1.8,2.4C18.1,27,18,27.1,18,27.6c0,2,0,4,0,6c0,1.8-1.3,2.6-2.9,1.8c-0.1-0.1-0.3,0-0.5,0c-1.4,0.8-2.8-0.1-2.8-1.7
			C11.8,32.7,11.8,31.7,11.8,30.7z M11.8,25.8c0-0.5,0-0.9,0-1.4c0-1,0-2,0-3c0-0.4,0.2-0.6,0.6-0.6c0.4,0,0.6,0.2,0.6,0.6
			c0,0.2,0,0.3,0,0.5c0,3.1,0,6.2,0,9.4c0,0.9,0,1.7,0,2.6c0,0.5,0.4,0.8,0.9,0.7c0.4-0.1,0.4-0.4,0.4-0.7c0-2,0-4.1,0-6.1
			c0-0.4,0.1-0.7,0.6-0.7s0.6,0.3,0.6,0.7c0,0.2,0,0.5,0,0.8c0,1.8,0,3.5,0,5.3c0,0.7,0.5,1.1,1,0.7c0.2-0.2,0.4-0.6,0.4-0.9
			c0-3.9,0-7.9,0-11.8c0-0.2-0.1-0.5,0-0.6c0.1-0.2,0.3-0.5,0.5-0.5c0.2,0,0.4,0.3,0.6,0.5c0.1,0.1,0,0.3,0,0.5c0,1.4,0,2.8,0,4.1
			c0.7-0.2,1.1-0.6,1.1-1.2c0-1.9,0-3.7,0-5.6c0-0.3-0.2-0.7-0.4-0.9c-0.4-0.2-0.9-0.4-1.3-0.5c-1.7-0.1-3.3,0-5,0
			c-1.1,0-1.7,0.4-1.7,1.5c-0.1,1.9,0,3.7,0,5.5C10.6,25.3,11.1,25.7,11.8,25.8z"/>
		<path class="st0" d="M38,28.2c0.3,0,0.5,0.1,0.7,0.1v1H22.4v-1.1c0.2,0,0.5,0,0.7,0c4.4,0,8.7,0,13.1,0c0.5,0,0.7-0.2,0.7-0.6
			c0.5-2.9,0.9-5.8,1.4-8.7c0-0.1,0-0.2,0-0.3h-16v-1.1h17.4C39.2,21.1,38.6,24.6,38,28.2L38,28.2z"/>
		<path class="st0" d="M11.8,12.8c0-1.8,1.5-3.1,3.2-3.1c1.7,0,3.1,1.5,3.1,3.2c0,1.7-1.5,3.1-3.2,3.1C13.1,16,11.7,14.6,11.8,12.8
			L11.8,12.8z M12.9,12.8c0,1.1,0.8,2,1.9,2c1.1,0,2-0.9,2-1.9c0-1.1-0.9-1.9-1.9-2C13.9,10.9,13,11.8,12.9,12.8z"/>
		<path class="st0" d="M22.5,20.6C22.4,20.5,22.4,20.5,22.5,20.6c-0.1-0.8,0.2-1.2,0.9-1.2c4.2,0,8.4,0,12.6,0h0.7v1.2H22.5z"/>
		<path class="st0" d="M29.4,13.6c-1.5,0-2.8-1.2-2.8-2.8c0-1.6,1.2-2.8,2.8-2.8c1.5,0,2.8,1.3,2.7,2.8
			C32.2,12.4,30.9,13.6,29.4,13.6L29.4,13.6z M27.8,10.8c0,0.9,0.7,1.6,1.6,1.6c0.9,0,1.6-0.7,1.6-1.6c0-0.9-0.7-1.6-1.6-1.6
			S27.9,9.9,27.8,10.8z"/>
		<path class="st0" d="M29.6,14.3c0.8,0,1.6-0.1,2.5,0c1.1,0.1,2,0.9,2.1,1.9c0.1,0.4,0,0.8-0.5,0.9c-0.5,0.1-0.7-0.2-0.7-0.6
			c-0.1-0.6-0.5-1-1.1-1c-1.6,0-3.1-0.1-4.7,0c-0.7,0-1.2,0.4-1.4,1.1c-0.1,0.4-0.3,0.5-0.7,0.5c-0.4,0-0.6-0.3-0.5-0.6
			c0.2-0.5,0.4-1,0.7-1.4c0.6-0.6,1.4-0.9,2.2-0.9C28.3,14.3,28.9,14.3,29.6,14.3C29.6,14.3,29.6,14.3,29.6,14.3L29.6,14.3z"/>
	</g>
</g>
</svg>
