<?xml version="1.0" encoding="utf-8"?>
<!-- Generator: Adobe Illustrator 28.0.0, SVG Export Plug-In . SVG Version: 6.00 Build 0)  -->
<svg version="1.1" id="Layer_1" xmlns="http://www.w3.org/2000/svg" xmlns:xlink="http://www.w3.org/1999/xlink" x="0px" y="0px"
	 viewBox="0 0 190.1 190.9" style="enable-background:new 0 0 190.1 190.9;" xml:space="preserve">
<style type="text/css">
	.st0{fill:#FFFFFF;}
</style>
<g>
	<g>
		<g>
			<g id="_x34_lpObe_00000009591571171559900940000011602987903616553097_">
				<g>
					<g>
						<path class="st0" d="M97.3,176.9c-3.5-1.2-4.8-3.6-4.7-7.3c0.1-12,0.1-23.9,0-35.9c0-3.9-0.5-7.7-0.9-11.6
							c-0.2-2.1,0-3.7,1.6-5.3c5-5.1,9.7-10.5,14.6-15.7c1.2-1.3,2.8-2.1,4.2-3.2c1.3-1,2.6-2.1,4.1-3.3c1.5,0.7,3.4,1.7,5.7,2.8
							c0.3-2,0.8-3.7,0.9-5.4c0.1-2.6,1.4-4,3.8-4.7c1.4-0.4,2.7-1.1,4.5-1.9c-0.3,2.3-0.5,4.2-0.9,6c-0.6,3.6-1.3,7.1-1.9,10.7
							c-0.8,4.5-2.7,5.5-6.9,3.4c-2.4-1.2-4.7-2.4-7.1-3.6c-0.1-0.1-0.3,0-0.7,0c0.8,6.3,1.5,12.7,2.6,18.9c0.5,3.1,1.7,6.1,2.9,9
							c1.1,2.8,2.4,5.6,4,8.1c3.1,4.8,3.4,9.9,2.6,15.3c-0.9,5.7-1.5,11.4-1.9,17.2c-0.2,3.2-1.4,5.4-4.3,6.7c-0.9,0-1.7,0-2.6,0
							c-3.8-2-4.5-3.1-4.1-7.6c0.6-6.9,1.4-13.7,2-20.6c0.1-1.3-0.2-2.8-0.7-3.9c-2-4.4-4.2-8.7-6.3-13c-0.6-1.2-1.1-2.2-2.8-1.8
							c-1.8,0.4-1.4,1.7-1.4,2.8c0,12.3,0,24.6,0,37c0,4.4-0.8,5.5-4.8,7.2C98.3,176.9,97.8,176.9,97.3,176.9z"/>
						<path class="st0" d="M161.4,60.5c0.4,1,0.9,2,1.4,3.3c-9.2,4.1-18.1,8.1-27.3,12.1c0.4,1.2,0.8,2.3,1.3,3.6
							c-1.4,0.7-2.9,1.2-4.2,2c-1,0.6-3.3,0.3-2.5,2.7c0,0.1-0.8,0.6-1.2,0.8c-4.5,2-9.1,4.1-13.6,6.1c-3.4-3.3-8.1-2.9-12,1.2
							c-3.6,3.8-7.1,7.7-10.7,11.6c-0.8,0.9-1.7,1.7-2.7,2.7c-1-1.5-1.9-2.9-2.9-4.4c5-3.5,9.9-7,14.9-10.3c1.5-1,2.5-2.1,2.5-3.9
							c0-1.8,1.1-2.4,2.5-3.1c17.3-7.6,34.6-15.3,51.8-23c0.8-0.3,1.5-0.8,2.2-1.2C161.1,60.5,161.2,60.5,161.4,60.5z M121,80.6
							c0.1,0.3,0.3,0.6,0.4,0.8c3.9-1.8,7.9-3.5,11.8-5.3c-0.1-0.3-0.3-0.6-0.4-0.8C128.9,77.1,125,78.8,121,80.6z"/>
						<path class="st0" d="M97.7,93.2c-4.4,3.1-8.2,5.8-12.3,8.6c1.5,2.2,2.9,4.3,4.4,6.6c4.7-5.1,9-10.1,13.7-14.7
							c1.7-1.7,4.3-2.8,6.6-3.7c1.7-0.7,3.3,0.2,4,1.9c0.7,1.6,0.5,3.6-1.2,4.3c-6,2.5-9,8.1-13.3,12.3c-2.8,2.7-5.3,5.9-8.1,8.7
							c-1,0.9-2.9,1.9-3.9,1.6c-1.2-0.4-2.4-2.1-2.8-3.5c-1.2-4.3-1.3-8.7,0-13C86.9,95.1,89.7,92.9,97.7,93.2z"/>
						<path class="st0" d="M101.1,78.9c2.6,0.1,5,0.2,7.4,0.4c0.2,2.6-0.6,4.4-3.2,5.2c-0.7,0.2-1.5,1.2-1.6,1.9
							c-0.2,1.8-1.2,2.4-2.8,2.8c-5.1,1.2-10.2-1.5-12-6.5c-1.8-5.1,0.6-10.4,5.4-12.5c0,1.8,0,3.7,0,5.5c0,0.6-0.2,1.4-0.5,1.9
							c-1.3,1.8-1.4,3.5,0,5.2c1.2,1.5,2.9,2,4.6,1.3c2-0.7,2.9-2.3,2.7-4.5C100.9,79.4,101,79.2,101.1,78.9z"/>
						<path class="st0" d="M161.9,67c-8.1,3.6-16.2,7.2-24.3,10.8c-0.2-0.2-0.3-0.4-0.5-0.6c0.4-0.4,0.7-1.1,1.1-1.3
							c7.3-3.3,14.7-6.6,22.1-9.8c0.4-0.2,1,0,1.5,0C161.9,66.4,161.9,66.7,161.9,67z"/>
						<path class="st0" d="M97.5,77.4c0.6,1,1.8,2,1.7,2.8c-0.1,0.9-1.5,1.6-2.3,2.5c-0.8-0.8-2.1-1.6-2.2-2.5
							c-0.1-0.9,1.1-1.9,1.8-2.8C96.8,77.4,97.1,77.4,97.5,77.4z"/>
					</g>
				</g>
			</g>
			<path class="st0" d="M96.9,76.4v-6.8c0,0,5.9-0.4,7.9,4.4l9.7-2C114.5,71.9,115.5,79,96.9,76.4z"/>
		</g>
		
			<ellipse transform="matrix(0.9991 -4.289880e-02 4.289880e-02 0.9991 -3.3367 4.2302)" class="st0" cx="96.9" cy="79.9" rx="3.1" ry="3.3"/>
	</g>
	<polygon class="st0" points="25.7,53.3 50.7,78.2 120.8,3.9 49.4,103.6 	"/>
</g>
</svg>
