<?xml version="1.0" encoding="UTF-8"?><svg id="Layer_1" xmlns="http://www.w3.org/2000/svg" viewBox="0 0 50.83 50.83"><circle cx="25.41" cy="25.41" r="25.41" style="fill:#fff;"/><g id="QnxSiS.tif"><path d="M27.08,2.45c.85,.12,1.7,.2,2.54,.35,5.37,.96,9.86,3.5,13.45,7.59,3.22,3.67,5.12,7.97,5.57,12.83,.65,6.89-1.36,12.95-6.04,18.06-3.56,3.9-8,6.31-13.22,7.13-6.68,1.05-12.76-.48-18.08-4.67-4.88-3.84-7.72-8.91-8.62-15.05-.08-.55-.14-1.1-.2-1.65,0-.96,0-1.93,0-2.89,.07-.55,.12-1.1,.2-1.65,.66-4.71,2.55-8.85,5.75-12.37,3.57-3.95,7.99-6.41,13.25-7.32,.83-.14,1.66-.23,2.5-.35,.96,0,1.93,0,2.89,0ZM4.81,25.55c-.03,11.5,9.26,20.83,20.79,20.86,11.49,.04,20.83-9.28,20.85-20.8,.02-11.51-9.29-20.83-20.81-20.84-11.49,0-20.8,9.28-20.83,20.78Z" style="fill:#b73d3d;"/></g><g id="xeA96r.tif"><g><path d="M22.43,11.68c2.14,0,4.27,0,6.41,0,.03,.01,.06,.04,.1,.04,1.15,.17,2.08,1.17,2.14,2.33,.02,.33,.03,.66,.05,1.02,.13,0,.23,0,.34,0,1.08,.01,2.15-.01,3.23,.04,1.12,.06,2.03,.97,2.2,2.09,.17,1.13-.48,2.26-1.53,2.65-.23,.08-.29,.2-.28,.43,0,5.14,0,10.28,0,15.43,0,.28-.02,.56-.05,.84-.18,1.65-1.56,2.95-3.19,2.95-4.14,.01-8.29,0-12.43,0-.69,0-1.32-.23-1.86-.65-.97-.76-1.36-1.79-1.36-3,0-5.21,0-10.41,0-15.62,0-.2-.05-.3-.25-.37-.41-.13-.74-.4-1.03-.73-.32-.37-.46-.81-.58-1.27,0-.22,0-.43,0-.65,.03-.09,.06-.17,.08-.26,.26-1.04,1.11-1.81,2.17-1.86,1.07-.05,2.15-.03,3.23-.04,.11,0,.21,0,.34,0,0-.27,0-.5,0-.73,.02-.88,.32-1.64,1.07-2.14,.36-.24,.8-.34,1.21-.51Zm-4.94,8.36v.24c0,5.21,0,10.41,0,15.62,0,.18,.01,.36,.04,.54,.16,1.04,.96,1.76,1.99,1.76,4.07,0,8.15,0,12.22,0,.51,0,.96-.17,1.33-.52,.54-.51,.7-1.16,.7-1.87,0-5.15,0-10.3,0-15.46v-.31H17.49Zm8.12-1.32c2.85,0,5.7,0,8.55,0,.14,0,.27,0,.41-.02,.55-.06,.97-.47,1.03-1.02,.06-.56-.26-1.08-.8-1.24-.19-.05-.39-.07-.59-.07-5.72,0-11.44,0-17.16,0-.14,0-.27,0-.41,.03-.55,.08-.95,.53-.99,1.1-.03,.52,.32,1.03,.84,1.16,.19,.05,.39,.06,.59,.06,2.84,0,5.68,0,8.52,0Zm4.18-3.67c0-.3,.02-.59,0-.87-.07-.73-.57-1.18-1.3-1.19-.51,0-1.01,0-1.52,0-1.39,0-2.79,0-4.18,0-.62,0-1.13,.33-1.25,.88-.09,.38-.07,.78-.1,1.18h8.36Z" style="fill:#b73d3d;"/><path d="M22.43,28.55c0,2,0,4,0,6,0,.18-.04,.38-.13,.54-.12,.23-.35,.31-.6,.27-.26-.04-.45-.19-.52-.45-.03-.11-.04-.23-.04-.35,0-3.99,0-7.98,0-11.97,0-.16,.02-.33,.09-.47,.12-.25,.34-.36,.62-.34,.28,.03,.47,.18,.55,.45,.04,.13,.04,.27,.04,.4,0,1.97,0,3.95,0,5.92Z" style="fill:#b73d3d;"/><path d="M26.28,28.57c0,1.97,0,3.95,0,5.92,0,.12,0,.24-.03,.35-.07,.32-.32,.53-.63,.53-.31,0-.58-.24-.63-.56-.01-.08-.01-.16-.01-.24,0-4,0-8,0-12,0-.52,.26-.81,.68-.79,.37,.02,.61,.29,.62,.72,0,.54,0,1.09,0,1.63,0,1.48,0,2.97,0,4.45Z" style="fill:#b73d3d;"/><path d="M28.82,28.55c0-1.97,0-3.95,0-5.92,0-.56,.22-.86,.63-.87,.43,0,.67,.3,.67,.87,0,3.95,0,7.91,0,11.86,0,.56-.25,.88-.67,.87-.42-.01-.63-.31-.63-.87,0-1.98,0-3.96,0-5.95Z" style="fill:#b73d3d;"/></g></g></svg>