<?xml version="1.0" encoding="UTF-8"?>
<svg id="Layer_1" data-name="Layer 1" xmlns="http://www.w3.org/2000/svg" viewBox="0 0 69.16 53.81">
  <defs>
    <style>
      .cls-1 {
        fill: #d6deed;
        stroke-width: 0px;
      }
    </style>
  </defs>
  <g id="rIa3dW">
    <g>
      <path class="cls-1" d="m44.99,46.9h-20.86c0-.45,0-.84,0-1.23,0-5.58.04-11.15-.01-16.73-.02-2.62,1.13-4.45,3.38-5.66,2.23-1.2,4.65-1.68,7.14-1.82,3.17-.18,5.65-2.42,5.9-5.38.26-3.08-1.75-5.86-4.68-6.48-2.98-.63-5.86,1-6.96,3.95-.58,1.57-1.71,2.22-2.99,1.74-1.27-.48-1.71-1.72-1.16-3.29,1.55-4.46,6.07-7.38,10.75-6.94,4.68.44,8.59,4.1,9.35,8.77.11.68.18,1.38.18,2.06.01,10.02.01,20.04.01,30.07,0,.29-.03.57-.05.95Zm-10.43-20.95c-4.44,0-8.06,3.64-8.07,8.07,0,4.42,3.63,8.07,8.06,8.1,4.46.03,8.16-3.68,8.13-8.14-.03-4.44-3.68-8.04-8.12-8.03Z"/>
      <path class="cls-1" d="m29.57,35.94v-3.26h10.02v3.26h-10.02Z"/>
    </g>
  </g>
</svg>