<?xml version="1.0" encoding="UTF-8"?><svg id="Layer_1" xmlns="http://www.w3.org/2000/svg" viewBox="0 0 121.29 125.57"><path d="M99.21,58.09c-10.05-10.21-20.18-20.35-30.43-30.36-3.15-3.07-7.15-2.92-9.76,.02-2.92,3.28-2.68,6.73,.29,9.81,4.63,4.8,9.42,9.43,14.11,14.16,1.22,1.23,2.34,2.55,4.05,4.42-2.25,.12-3.53,.25-4.81,.25-23.66,.01-25.99-.02-49.65,.03-5.08,.01-8.06,2.68-8.07,6.86-.02,4.22,2.9,6.8,8.04,6.89,5.33,.09,10.66,.03,15.99,.03,19.47,0,17.62,0,37.09,0,.31,.48,.62,.96,.92,1.44-5.93,5.75-11.95,11.42-17.77,17.29-3.29,3.32-3.32,7.48-.23,10.16,3.29,2.85,6.74,2.67,9.82-.38,10.17-10.09,20.33-20.21,30.39-30.4,3.22-3.26,3.2-6.99,.02-10.22Z" style="fill:#fff;"/></svg>