<?xml version="1.0" encoding="utf-8"?>
<!-- Generator: Adobe Illustrator 22.0.1, SVG Export Plug-In . SVG Version: 6.00 Build 0)  -->
<svg version="1.1" id="Layer_1" xmlns="http://www.w3.org/2000/svg" xmlns:xlink="http://www.w3.org/1999/xlink" x="0px" y="0px"
	 viewBox="0 0 300 300" style="enable-background:new 0 0 300 300;" xml:space="preserve">
<style type="text/css">
	.st0{fill:#616E86;}
</style>
<path class="st0" d="M240.2,142.7l-72.1-63c-4-3.5-10.2-3.1-13.7,0.9s-3.1,10.2,0.9,13.7l52.6,46H66.2c-5.4,0-9.7,4.3-9.7,9.7
	c0,5.4,4.3,9.7,9.7,9.7h141.7l-52.6,46c-4,3.5-4.5,9.7-0.9,13.7c1.9,2.2,4.6,3.3,7.3,3.3c2.3,0,4.5-0.8,6.4-2.4l72.1-63
	c2.1-1.8,3.3-4.5,3.3-7.3C243.5,147.2,242.3,144.5,240.2,142.7z"/>
</svg>
