<svg id="e0r5EOb7LnF1" xmlns="http://www.w3.org/2000/svg" xmlns:xlink="http://www.w3.org/1999/xlink" viewBox="0 0 85.9 85.9" shape-rendering="geometricPrecision" text-rendering="geometricPrecision">
<style><![CDATA[
#e0r5EOb7LnF3_to {animation: e0r5EOb7LnF3_to__to 10000ms linear infinite normal forwards}@keyframes e0r5EOb7LnF3_to__to { 0% {transform: translate(39.500006px,40px);animation-timing-function: cubic-bezier(0.42,0,1,1)} 100% {transform: translate(39.500006px,40px)}} #e0r5EOb7LnF3_ts {animation: e0r5EOb7LnF3_ts__ts 10000ms linear infinite normal forwards}@keyframes e0r5EOb7LnF3_ts__ts { 0% {transform: scale(-0.093665,-0.093665);animation-timing-function: cubic-bezier(0.42,0,1,1)} 5% {transform: scale(1,1);animation-timing-function: cubic-bezier(0.42,0,1,1)} 96% {transform: scale(1,1);animation-timing-function: cubic-bezier(0.42,0,1,1)} 100% {transform: scale(-0.093665,-0.093665)}} #e0r5EOb7LnF3 {animation: e0r5EOb7LnF3_c_o 10000ms linear infinite normal forwards}@keyframes e0r5EOb7LnF3_c_o { 0% {opacity: 0;animation-timing-function: cubic-bezier(0.42,0,1,1)} 5% {opacity: 1;animation-timing-function: cubic-bezier(0.42,0,1,1)} 96% {opacity: 1;animation-timing-function: cubic-bezier(0.42,0,1,1)} 100% {opacity: 0}} #e0r5EOb7LnF19_to {animation: e0r5EOb7LnF19_to__to 10000ms linear infinite normal forwards}@keyframes e0r5EOb7LnF19_to__to { 0% {transform: translate(74.750729px,54.374998px)} 5% {transform: translate(74.750729px,54.374998px);animation-timing-function: cubic-bezier(0.42,0,1,1)} 8% {transform: translate(54.750729px,54.374998px);animation-timing-function: cubic-bezier(0.42,0,1,1)} 96% {transform: translate(54.750729px,54.374998px);animation-timing-function: cubic-bezier(0.42,0,1,1)} 100% {transform: translate(74.750729px,54.374998px)}} #e0r5EOb7LnF19_ts {animation: e0r5EOb7LnF19_ts__ts 10000ms linear infinite normal forwards}@keyframes e0r5EOb7LnF19_ts__ts { 0% {transform: scale(0.129013,0.129013)} 5% {transform: scale(0.129013,0.129013);animation-timing-function: cubic-bezier(0.42,0,1,1)} 8% {transform: scale(1,1);animation-timing-function: cubic-bezier(0.314412,0,0.661428,0.407237)} 25% {transform: scale(1,1);animation-timing-function: cubic-bezier(0.334948,0.318857,0.668605,0.65314)} 30% {transform: scale(1.281878,1.281879);animation-timing-function: cubic-bezier(0.335995,0.322389,0.669666,0.65663)} 35% {transform: scale(1,1);animation-timing-function: cubic-bezier(0.541193,0.416541,1,1)} 50% {transform: scale(1,1);animation-timing-function: cubic-bezier(0.334948,0.318857,0.668605,0.65314)} 55% {transform: scale(1.281878,1.281879);animation-timing-function: cubic-bezier(0.335995,0.322389,0.669666,0.65663)} 60% {transform: scale(1,1);animation-timing-function: cubic-bezier(0.541193,0.416541,1,1)} 71% {transform: scale(1,1);animation-timing-function: cubic-bezier(0.334948,0.318857,0.668605,0.65314)} 76% {transform: scale(1.281878,1.281879);animation-timing-function: cubic-bezier(0.335995,0.322389,0.669666,0.65663)} 81% {transform: scale(1,1);animation-timing-function: cubic-bezier(0.541193,0.416541,1,1)} 96% {transform: scale(1,1);animation-timing-function: cubic-bezier(0.42,0,1,1)} 100% {transform: scale(0.129013,0.129013)}} #e0r5EOb7LnF19 {animation: e0r5EOb7LnF19_c_o 10000ms linear infinite normal forwards}@keyframes e0r5EOb7LnF19_c_o { 0% {opacity: 0} 5% {opacity: 0;animation-timing-function: cubic-bezier(0.42,0,1,1)} 8% {opacity: 1;animation-timing-function: cubic-bezier(0.42,0,1,1)} 96% {opacity: 1;animation-timing-function: cubic-bezier(0.42,0,1,1)} 100% {opacity: 0}}
]]></style>
<circle r="42.8" transform="translate(42.9 42.9)" fill="#cc4a44"/><g id="e0r5EOb7LnF3_to" transform="translate(39.500006,40)"><g id="e0r5EOb7LnF3_ts" transform="scale(-0.093665,-0.093665)"><g id="e0r5EOb7LnF3" transform="translate(-39.500006,-40)" opacity="0"><g><g><g><path d="M43.1,32.3c-1.8,0-3.6,0-5.3,0-.5,0-.9-.3-.9-.8s.4-.8.9-.9c.1,0,.3,0,.4,0c3,0,6.1,0,9.2,0c.4,0,.8,0,1.1,0c.6,0,.9.3.9.8s-.3.8-.9.8c-1.8.1-3.6.1-5.4.1v0Z" fill="#fff"/><path d="M43.1,41.5c-1.8,0-3.5,0-5.3,0-.7,0-1.1-.5-1-1c.1-.4.4-.7.8-.7c3.6,0,7.2,0,10.8,0c.5,0,.8.3.8.8s-.3.8-.9.8c-1.6.1-3.4.1-5.2.1v0Z" fill="#fff"/><path d="M30.8,44.2c.1-.1.2-.3.2-.5.8-1.6,1.6-3.2,2.4-4.8.1-.2.1-.3.2-.4.2-.4.7-.5,1.1-.3s.6.6.4,1c-.1.2-.2.4-.3.6-1,2-2,3.9-3,5.9-.4.8-1,.9-1.6.3-.5-.5-.9-.9-1.4-1.4-.4-.4-.4-.9-.1-1.3.4-.4.8-.3,1.3.1.3.3.5.5.8.8-.1,0-.1,0,0,0v0Z" fill="#fff"/><path d="M30.8,35.1c.5-1,.9-1.9,1.4-2.7.5-.9.9-1.9,1.4-2.8.3-.5.7-.7,1.2-.5s.6.7.3,1.2c-1.1,2.1-2.1,4.3-3.2,6.4-.4.7-1,.8-1.5.2-.5-.5-1-1-1.5-1.5-.4-.4-.4-.9-.1-1.3.4-.4.8-.4,1.3.1.2.3.4.5.7.9v0Z" fill="#fff"/><path d="M30.8,53.5c.1-.2.2-.4.3-.5.8-1.7,1.7-3.3,2.5-5c.3-.6.8-.8,1.2-.5.5.2.6.7.3,1.3-1,2.1-2.1,4.2-3.2,6.3-.4.8-1,.9-1.6.2-.5-.5-1-.9-1.4-1.4-.4-.4-.4-.9-.1-1.3s.8-.3,1.3.1c.2.2.4.5.7.8v0Z" fill="#fff"/><path d="M40.6,49c.9,0,1.9,0,2.8,0c.6,0,1,.3,1,.8s-.4.9-1,.9c-1.9,0-3.7,0-5.6,0-.6,0-1-.4-1-.9s.4-.8,1-.8c1,0,1.9,0,2.8,0Z" fill="#fff"/><path d="M40.2,35.6c-.8,0-1.6,0-2.4,0-.5,0-.9-.3-.9-.8s.4-.9.9-.9c1.6,0,3.2,0,4.8,0c.6,0,.9.3.9.9c0,.5-.3.8-.9.8-.8,0-1.6,0-2.4,0v0Z" fill="#fff"/><path d="M40.2,44.8c-.8,0-1.6,0-2.4,0-.6,0-1-.3-1-.8s.4-.8,1-.8c1.6,0,3.2,0,4.8,0c.6,0,.9.3.9.8s-.3.8-.9.8c-.8,0-1.6,0-2.4,0v0Z" fill="#fff"/><path d="M39.4,52.3c.5,0,1.1,0,1.6,0s.8.3.9.8c0,.5-.3.8-.9.9-1.1,0-2.2,0-3.3,0-.5,0-.9-.4-.9-.8c0-.5.4-.8.9-.8.6-.1,1.1-.1,1.7-.1v0Z" fill="#fff"/></g></g><path d="M57.2,52.3c0-1.4,0-2.8,0-4.2c0-.8-.4-1.2-1-1.2s-1,.4-1,1.2c0,2.8,0,5.6,0,8.3c0,.8.4,1.2,1,1.2s1-.4,1-1.2c0-1.3,0-2.7,0-4.1Z" fill="#cc4a44"/><path d="M56.2,60.4c-.5,0-1,.4-1,1c0,.5.5,1,1,1s.9-.4,1-1c0-.5-.4-1-1-1Z" fill="#cc4a44"/></g><path d="M56.9,23.7c-.5-1.7-1.3-2.7-2.7-3.2c0,0-.1,0-.1,0-.1,0-.2-.1-.3-.1-.2,0-.4-.1-.5-.1c0,0-.1,0-.1,0-.1,0-.2,0-.4,0-.1,0-.2,0-.3,0c0,0-.1,0-.1,0h-.9c-1.3,0-2.5,0-3.8,0-.1,0-.2,0-.2-.1-.5-.7-1.3-.8-2.1-.7-.3,0-.5-.1-.6-.4-.6-1.3-1.6-2.2-2.9-2.7-.3-.1-.6-.2-.9-.3h-1.5v0c0,0-.1,0-.1,0s-.1,0-.1,0v0h-1.5c-.3.1-.6.2-.9.3-1.3.5-2.3,1.4-2.9,2.7-.1.3-.3.5-.6.4-.8,0-1.5,0-2.1.7c0,.1-.1.1-.2.1-1.3,0-2.5,0-3.8,0h-.9c0,0-.1,0-.1,0-.1,0-.2,0-.3,0s-.2,0-.4,0c0,0-.1,0-.1,0-.2,0-.4.1-.5.1s-.2.1-.3.1c0,0-.1,0-.1,0-1.3.5-2.2,1.5-2.7,3.2c0,0,0,0-.1.1v36.4c.1.3.2.7.3,1c.8,1.7,2.2,2.6,4,2.6h12c0,0-.1.1-.1.1.1-.1.3-.1.5-.1h1.6c.2,0,.3,0,.5.1c0,0,0-.1-.1-.1h12c1.9,0,3.2-.8,4-2.6.2-.3.2-.7.3-1l.1-36.5c0,.1,0,.1,0,0Zm-24.5-3h2.2c.7,0,1.1-.3,1.3-.8.5-1.5,1.8-2.4,3.4-2.8c1.6.3,2.9,1.3,3.4,2.8.2.5.6.8,1.3.8h2.2v3.7h-13.8v-3.7Zm-1.1,4.8c.4.3.8.6,1.3.6h13.5c.5,0,.9-.2,1.3-.6.1-.1.4-.2.5-.2h3.6c.1,0,.3,0,.4,0v.5c0,5.1,0,10.1,0,15.2c0,.2-.1.4-.1.6.1-.1.1-.2.2-.3v17.4v0c-.2,0-.3,0-.4,0-3.4,0-6.8,0-10.2,0c0,0,0-.1.1-.1h-.1c-.1.1-.2.1-.3.1-.5,0-1,0-1.5,0s-1,0-1.5,0c-.1,0-.2,0-.3-.1h-.1c0,0,0,.1.1.1-3.4,0-6.8,0-10.2,0-.1,0-.2,0-.4,0v0-17.4c.1.1.1.2.2.3-.1-.2-.1-.4-.1-.6c0-5.1,0-10.1,0-15.2v-.5c.1,0,.3,0,.4,0c1.2,0,2.4,0,3.6,0-.3,0-.1.1,0,.2ZM55.2,59.3c0,1.8-1,2.8-2.8,2.8h-12.3c0,0,0-.1,0-.1v0c0,0,0,0,0,.1-.2,0-.3,0-.5,0h-.6c-.2,0-.3,0-.5,0c0,0,0,0,0-.1v0c0,0,0,.1,0,.1h-12.3c-1.8,0-2.8-1-2.8-2.8v-20.7c0,0,.1,0,.1,0-.1-.1-.1-.2-.1-.4v-13.6c0-1.1.4-1.9,1.1-2.3.4-.3,1-.4,1.6-.4h4.7v1.7h-3.8c-.2,0-.4,0-.5,0-1,.1-1.5.8-1.5,1.9v13.8c0,0-.1,0-.1-.1c0,0,.1,0,.1.1v19c0,1.5.6,2,2.1,2h11c0,0,0,0,0,0h.2c0,0,0,0,0,0v0h2v0c0,0,0,0,0,0h.2c0,0,0,0,0,0h11c1.5,0,2.1-.6,2.1-2v-19c0,0,.1,0,.1-.1c0,0-.1,0-.1.1v-13.8c0-1.1-.5-1.8-1.5-1.9-.2,0-.3,0-.5,0h-3.8v-1.7h4.7c.7,0,1.2.1,1.6.4.7.4,1.1,1.2,1.1,2.3v13.6c0,.2,0,.3-.1.4c0,0,.1,0,.1,0v20.7Z" fill="#fff"/></g></g></g><g id="e0r5EOb7LnF19_to" transform="translate(74.750729,54.374998)"><g id="e0r5EOb7LnF19_ts" transform="scale(0.129013,0.129013)"><g id="e0r5EOb7LnF19" transform="translate(-54.750729,-54.374998)" opacity="0"><path d="M69.2,62.7l-11.6-20c-1.3-2.2-4.5-2.2-5.8,0l-11.5,20c-1.3,2.2.3,5,2.9,5h23.2c2.5,0,4.1-2.7,2.8-5ZM57.4,64.5h-5.4v-4.2h5.4v4.2Zm.3-12.8l-1.6,7.7h-2.7l-1.6-7.7v-3.5h5.9v3.5Z" fill="#fff"/><rect width="5.4" height="4.2" rx="0" ry="0" transform="translate(52 60.3)" fill="#cc4a44"/><polygon points="57.7,48.2 57.7,51.7 56.1,59.4 53.4,59.4 51.8,51.7 51.8,48.2" fill="#cc4a44"/></g></g></g></svg>
