<?xml version="1.0" encoding="utf-8"?>
<!-- Generator: Adobe Illustrator 28.0.0, SVG Export Plug-In . SVG Version: 6.00 Build 0)  -->
<svg version="1.1" id="Layer_1" xmlns="http://www.w3.org/2000/svg" xmlns:xlink="http://www.w3.org/1999/xlink" x="0px" y="0px"
	 viewBox="0 0 69.2 53.8" style="enable-background:new 0 0 69.2 53.8;" xml:space="preserve">
<style type="text/css">
	.st0{fill:#D6DEED;}
</style>
<g id="ZX4B2X.tif">
	<g>
		<path class="st0" d="M61.7,30.2c-14.6,6-29.3,12-43.9,18c-0.4-0.1-0.6-0.3-0.8-0.7c-1.1-2.6-2.1-5.2-3.2-7.8
			c-0.2-0.6-0.1-0.9,0.5-1.2c1.6-0.8,2.3-2.5,1.6-4.1c-0.6-1.6-2.3-2.4-4-1.9c-0.6,0.2-0.9,0.1-1.2-0.6c-1.1-2.6-2.1-5.2-3.2-7.8
			c-0.2-0.6-0.2-0.9,0.4-1.2c3.3-2,6.6-3.9,9.8-5.9c3.2-1.9,6.3-3.8,9.5-5.7c3.7-2.2,7.4-4.4,11.1-6.6c2.3-1.4,4.5-2.7,6.8-4.1
			c0.8-0.4,1-0.4,1.5,0.4c0.4,0.7,0.8,1.3,1.2,2c0.5,0.9,1.1,1.8,1.6,2.7c0.1,0,0.1,0,0.2,0c0.5-0.2,1-0.4,1.4-0.6
			c0.7-0.3,1-0.2,1.3,0.5c1,2.6,2.1,5.1,3.2,7.7c0.3,0.7,0.2,1-0.5,1.3c-1.5,0.8-2.2,2.5-1.6,4.1s2.4,2.4,4,1.8
			c0.7-0.2,1-0.1,1.2,0.6c1,2.5,2.1,5.1,3.1,7.6C61.9,29.4,61.9,29.8,61.7,30.2L61.7,30.2z M11.9,31.1c0.1,0,0.1,0,0.2,0
			c2.3-0.3,4.3,0.8,5.2,2.8c0.8,2,0.2,4.2-1.6,5.6c-0.3,0.2-0.2,0.4-0.1,0.6c0.9,2,1.7,4.1,2.5,6.1c0,0.1,0.1,0.2,0.2,0.4
			c10.3-4.2,20.6-8.5,30.9-12.7c-0.2-0.6-0.5-1.2-0.7-1.7c-0.2-0.4,0-0.8,0.4-1s0.8,0,1,0.4c0.1,0.2,0.2,0.4,0.3,0.6
			c0.2,0.4,0.3,0.8,0.5,1.1c3.3-1.4,6.5-2.7,9.8-4c-1-2.3-1.9-4.6-2.8-6.9c-0.1,0-0.2,0-0.3,0c-2.2,0.3-4.1-0.8-5-2.8
			c-0.8-2-0.2-4.2,1.5-5.5c0.3-0.2,0.3-0.4,0.2-0.8c-0.8-2-1.7-4-2.5-6l-0.2-0.4c-3.3,1.4-6.5,2.7-9.8,4c0.2,0.5,0.4,0.9,0.5,1.3
			c0.1,0.1,0.1,0.3,0.2,0.4c0.2,0.4,0,0.8-0.4,1c-0.4,0.2-0.8,0-1-0.4c-0.2-0.6-0.5-1.1-0.7-1.7C29.6,15.7,19.4,20,9,24.2
			C10,26.5,10.9,28.8,11.9,31.1z M35.9,8.1c-6.2,3.7-12.4,7.4-18.6,11.1c0,0,0,0,0,0C27.5,15,37.8,10.8,48.1,6.6
			c-0.8-1.4-1.7-2.8-2.5-4.2c-2.8,1.7-5.6,3.3-8.4,5c0.3,0.5,0.6,1,0.9,1.5c0.3,0.5,0.3,0.9-0.1,1.1c-0.4,0.2-0.8,0.1-1.1-0.4
			C36.5,9.1,36.2,8.6,35.9,8.1L35.9,8.1z"/>
		<path class="st0" d="M44.3,18.2c0.3,0.7,0.5,1.3,0.8,2c0.2,0.6,0.1,0.9-0.3,1.1c-0.4,0.2-0.8,0-1.1-0.6c-0.5-1.3-1.1-2.6-1.6-4
			c-0.2-0.5-0.1-0.9,0.3-1.1c0.4-0.2,0.8,0,1,0.6C43.8,16.9,44,17.6,44.3,18.2L44.3,18.2z"/>
		<path class="st0" d="M46.1,26.5c-0.3-0.6-0.5-1.3-0.8-1.9c-0.2-0.6-0.1-1,0.3-1.2c0.4-0.2,0.8,0,1,0.6c0.5,1.3,1.1,2.7,1.6,4
			c0.2,0.5,0.1,1-0.3,1.1c-0.4,0.2-0.8,0-1-0.6C46.7,27.8,46.4,27.1,46.1,26.5z"/>
	</g>
</g>
<g>
	<path class="st0" d="M31.6,26.2c-0.8-0.6-2-1.1-2.9-1.1h-0.1c-0.9,0-1.3,0.4-1.3,0.9v0c0,0.6,0.4,0.9,2,1.4
		c2.6,0.9,3.9,1.9,3.9,3.9v0c0,2-1.4,3.3-3.6,3.7v1.8h-1.9V35c-1.5-0.2-3-0.7-4.1-1.7l1.5-2.3c1.2,0.9,2.4,1.4,3.6,1.4h0.1
		c1,0,1.4-0.4,1.4-0.9v0c0-0.6-0.4-0.9-2-1.3c-2.7-0.9-4-1.9-4-3.9v-0.1c0-2,1.3-3.3,3.6-3.6v-1.1h1.9v1.2c1.3,0.2,2.4,0.6,3.3,1.4
		L31.6,26.2z"/>
</g>
</svg>
