<?xml version="1.0" encoding="utf-8"?>
<!-- Generator: Adobe Illustrator 26.4.1, SVG Export Plug-In . SVG Version: 6.00 Build 0)  -->
<svg version="1.1" id="Layer_1" xmlns="http://www.w3.org/2000/svg" xmlns:xlink="http://www.w3.org/1999/xlink" x="0px" y="0px"
	 viewBox="0 0 440 440" style="enable-background:new 0 0 440 440;" xml:space="preserve">
<style type="text/css">
	.st0{fill-rule:evenodd;clip-rule:evenodd;fill:#003B70;}
</style>
<path class="st0" d="M316.7,286.2l107.6,107.6c8.4,8.4,8.4,21.9-0.1,30.4c-8.4,8.4-22.2,8.3-30.4,0.1L286.2,316.7
	c-67.6,52.6-165.3,47.8-227.4-14.3c-67.3-67.3-67.3-176.3,0-243.5c67.2-67.3,176.3-67.3,243.5,0C364.5,121,369.3,218.7,316.7,286.2
	L316.7,286.2z M272,272c50.4-50.4,50.4-132.2,0-182.7c-50.4-50.4-132.2-50.4-182.7,0c-50.4,50.4-50.4,132.2,0,182.7
	C139.8,322.4,221.5,322.4,272,272z"/>
</svg>
