<?xml version="1.0" encoding="utf-8"?>
<!-- Generator: Adobe Illustrator 22.0.1, SVG Export Plug-In . SVG Version: 6.00 Build 0)  -->
<svg version="1.1" id="Layer_1" xmlns="http://www.w3.org/2000/svg" xmlns:xlink="http://www.w3.org/1999/xlink" x="0px" y="0px"
	 viewBox="0 0 300 300" style="enable-background:new 0 0 300 300;" xml:space="preserve">
<style type="text/css">
	.st0{fill:#418B94;}
</style>
<path class="st0" d="M199.4,58.3C167.4,14.7,106.2,5.3,62.6,37.2S9.5,130.4,41.4,174c29.7,40.5,84.6,51.5,127.2,27.3l58.4,79.8
	c3.7,5.1,10.9,6.2,15.9,2.5c5.1-3.7,6.2-10.9,2.5-15.9L187,187.9C223,154.6,229,98.8,199.4,58.3z M165.6,177.9
	c-34.1,25-82,17.6-107-16.5s-17.6-82,16.5-107s82-17.6,107,16.5S199.7,152.9,165.6,177.9z"/>
</svg>
