<?xml version="1.0" encoding="UTF-8"?>
<svg id="Layer_1" data-name="Layer 1" xmlns="http://www.w3.org/2000/svg" viewBox="0 0 281.48 289.51">
  <defs>
    <style>
      .cls-1 {
        fill: #ff6c22;
        stroke-width: 0px;
      }
    </style>
  </defs>
  <g id="ECh3U5.tif">
    <g>
      <path class="cls-1" d="m130.13,265.07v-29.91c-44.74-8.23-71.22-34.57-79.61-79.69h-29.7v-20.61h29.9c4.93-31.95,21.3-55.46,50-70.34-3.59,8.42-6.85,17.01-10.91,25.2-1.71,3.45-5.19,5.99-7.69,9.09-28.47,35.35-18.01,89.15,21.65,111.51,27.01,15.22,61.09,11.54,84.35-8.86,15.03-13.18,24.05-29.63,25.86-49.39,2.01-21.89-4.4-41.35-19.58-57.69-2.4-2.58-4.35-5.75-5.86-8.95-3.22-6.84-6.01-13.88-9.13-21.2,18.76,7.64,45.86,31.58,51.09,70.32h30.14v21h-29.91c-8.42,45.06-34.89,71.39-79.6,79.62v29.9h-21Z"/>
      <path class="cls-1" d="m140.63,24.32c13.66,30.74,26.87,60.48,40.55,91.27-8.32-4.14-15.63-7.77-22.93-11.41-5.02-2.5-9.97-5.17-15.1-7.44-1.43-.63-3.66-.67-5.05,0-12.34,5.97-24.57,12.16-37.56,17.85,13.22-29.76,26.43-59.52,40.09-90.27Z"/>
    </g>
  </g>
</svg>