<?xml version="1.0" encoding="utf-8"?>
<!-- Generator: Adobe Illustrator 28.0.0, SVG Export Plug-In . SVG Version: 6.00 Build 0)  -->
<svg version="1.1" id="Layer_1" xmlns="http://www.w3.org/2000/svg" xmlns:xlink="http://www.w3.org/1999/xlink" x="0px" y="0px"
	 viewBox="0 0 281.5 289.5" style="enable-background:new 0 0 281.5 289.5;" xml:space="preserve">
<style type="text/css">
	.st0{fill:#65AA9E;}
</style>
<path class="st0" d="M259.6,144c-0.4-2.9-2.7-5.1-5.8-5.1c-5.6-0.1-11.1-0.1-16.7,0c-1.5,0-2-0.5-2.1-2c-0.1-2.2-0.4-4.4-0.7-6.6
	c-4.1-24.6-15.9-44.7-35.5-60.2c-11.6-9.1-24.6-15.1-39-18c-4.3-0.9-8.6-1.4-13.2-2.1v-2c0-5.2,0-10.3,0-15.5c0-4-2.4-6.6-5.9-6.6
	c-3.5,0-5.8,2.6-5.8,6.5c0,4.9,0,9.8,0,14.7c0,3.8,0.4,3-3.1,3.4c-0.2,0-0.4,0-0.6,0.1c-21.9,2.4-40.9,11.1-56.6,26.6
	c-16.7,16.3-26.1,36.2-28.1,59.6c-0.2,1.7-0.7,2.3-2.5,2.3c-5.3-0.1-10.6-0.1-15.9,0c-3.7,0-6.3,2.4-6.3,5.8c0,3.4,2.5,5.9,6.2,5.9
	c5.3,0,10.6,0,15.9,0h2.2c0.1,0.9,0.2,1.5,0.3,2.2c2.1,23.3,11.5,43.2,28.1,59.6c16.1,15.8,35.6,24.7,58.2,26.7
	c1.7,0.1,2.2,0.6,2.2,2.4c-0.1,5.2-0.1,10.5,0,15.7c0,4,2.4,6.6,5.9,6.6c3.5,0,5.8-2.6,5.8-6.5c0-5.2,0.1-10.5,0-15.7
	c0-1.8,0.6-2.3,2.3-2.4c13.4-1.1,26.1-4.8,37.8-11.5c28.8-16.8,45.1-41.8,48.4-75c0.1-1.4,0.6-1.9,2-1.9c5.3,0.1,10.6,0.1,15.9,0
	c0.9,0,1.9-0.1,2.7-0.3C258.4,149.4,260,146.8,259.6,144L259.6,144z M195.2,150.3c0.9,0.3,1.9,0.3,2.9,0.3c7.6,0,15.2,0,22.8,0h2.3
	c-1.1,37.4-34.1,74.5-76.6,76.7V225c0-7.9,0-15.8,0-23.8c0-4.1-3.1-6.7-7-6c-2.9,0.5-4.7,2.8-4.7,6.1c0,7.9,0,15.7,0,23.6v2.5
	c-17.5-1.3-32.9-7.3-46.2-18.3c-18.4-15.1-28.5-34.6-30.7-58.5c0.9,0,1.6-0.1,2.3-0.1c8,0,16,0,24,0c2.6,0,4.6-1.1,5.6-3.6
	c1-2.2,0.6-4.4-1-6.2c-1.3-1.5-3-2-4.9-2c-7.8,0-15.6,0-23.4,0H58c1.3-17.6,7.4-33.1,18.5-46.5c15-18.2,34.5-28.2,58.3-30.5v2.7
	c0,7.8,0,15.7,0,23.6c0,4.3,3.8,7.1,7.7,5.8c2.6-0.8,4-3,4-6.1c0-7.8,0-15.6,0-23.4V62c19.8,1.6,36.8,9,50.9,22.4
	c15.5,14.7,24.1,32.9,26,54.5c-1.1,0-1.8,0-2.6,0c-7.9,0-15.8,0-23.8,0c-3.1,0-5.5,2.1-5.9,5C190.8,146.7,192.4,149.4,195.2,150.3
	L195.2,150.3z"/>
<path class="st0" d="M140.8,118.5c-14.4-0.1-26.3,11.7-26.3,26.1c0,14.5,11.6,26.3,26.1,26.4c14.6,0.1,26.4-11.6,26.4-26.2
	C167,130.4,155.3,118.6,140.8,118.5z M140.8,159.2c-8,0-14.5-6.5-14.5-14.5s6.5-14.5,14.5-14.6c8,0,14.5,6.5,14.5,14.5
	C155.3,152.7,148.7,159.2,140.8,159.2L140.8,159.2z"/>
</svg>
