<?xml version="1.0" encoding="utf-8"?>
<!-- Generator: Adobe Illustrator 28.0.0, SVG Export Plug-In . SVG Version: 6.00 Build 0)  -->
<svg version="1.1" id="Layer_1" xmlns="http://www.w3.org/2000/svg" xmlns:xlink="http://www.w3.org/1999/xlink" x="0px" y="0px"
	 viewBox="0 0 50.5 43.8" style="enable-background:new 0 0 50.5 43.8;" xml:space="preserve">
<style type="text/css">
	.st0{fill:#FFFFFF;}
</style>
<g id="ih6ZvB.tif">
	<g>
		<path class="st0" d="M24.3,36.5c0,0,0-0.1,0-0.1c0-1.1,0-2.3,0-3.4v-0.2c-2.7-0.3-5-1.3-6.8-3.2c-1.9-1.9-2.9-4.2-3.2-6.8
			c-0.1,0-0.1,0-0.2,0c-1.1,0-2.2,0-3.4,0c-0.1,0-0.1,0-0.2,0V21c0.1,0,0.1,0,0.2,0c1.1,0,2.2,0,3.4,0h0.2c0.3-2.7,1.3-5,3.2-6.8
			c1.9-1.9,4.2-2.9,6.8-3.2V7.3c0.1,0,1.6,0,1.8,0v3.7c2.7,0.3,5,1.3,6.8,3.2c1.9,1.9,2.9,4.2,3.2,6.8h0.2c1.1,0,2.2,0,3.3,0
			c0.1,0,0.1,0,0.2,0v1.8c0,0-0.1,0-0.1,0c-1.1,0-2.3,0-3.4,0h-0.2c-0.3,2.7-1.3,5-3.2,6.8c-1.9,1.9-4.2,2.9-6.9,3.2
			c0,0.1,0,0.1,0,0.2c0,1.1,0,2.2,0,3.4c0,0.1,0,0.1,0,0.2L24.3,36.5L24.3,36.5z M26.2,31c1.4-0.2,2.8-0.6,4-1.4
			c1.5-1,2.6-2.2,3.4-3.8c0.5-0.9,0.7-1.9,0.8-3h-1.2c-0.4,0-0.8,0-1.2,0c-0.4,0-0.8,0-1.2,0c0-0.2,0-1.7,0-1.8h3.6
			c-0.1-1.4-0.8-3.7-2.5-5.5c-1.5-1.6-3.4-2.5-5.7-2.7v3.6c-0.2,0-1.7,0-1.8,0c0,0,0,0,0,0c0,0,0,0,0,0c0-1.1,0-2.3,0-3.4
			c0,0,0,0,0-0.1c0,0,0,0,0,0c0,0,0,0,0,0c0,0,0,0,0,0c0,0,0,0,0,0c-4.8,0.5-7.9,4.5-8.1,8.2c0.2,0,0.5,0,0.7,0h1.5
			c0.2,0,0.5,0,0.7,0s0.5,0,0.7,0v1.8h-2.4c-0.2,0-0.4,0-0.6,0s-0.4,0-0.6,0c0.4,4.4,4,7.8,8.2,8.2v-3.6h1.8L26.2,31L26.2,31z"/>
		<path class="st0" d="M25.3,23.7c-1,0-1.8-0.8-1.8-1.8s0.8-1.8,1.8-1.8c1,0,1.8,0.8,1.8,1.8S26.3,23.7,25.3,23.7z"/>
	</g>
</g>
</svg>
