<?xml version="1.0" encoding="UTF-8"?>
<svg id="Layer_1" data-name="Layer 1" xmlns="http://www.w3.org/2000/svg" viewBox="0 0 69.16 53.81">
  <defs>
    <style>
      .cls-1 {
        fill: none;
        stroke: #d6deed;
        stroke-linecap: round;
        stroke-linejoin: round;
        stroke-width: 2px;
      }

      .cls-2 {
        fill: #d6deed;
        stroke-width: 0px;
      }
    </style>
  </defs>
  <g id="icx1cY">
    <g>
      <path class="cls-2" d="m56.74,26.5c0,5.34,0,10.68,0,16.02,0,3.98-2.4,6.37-6.38,6.38-10.75,0-21.5,0-32.26,0-3.93,0-6.35-2.39-6.35-6.3-.01-10.79-.01-21.58,0-32.36,0-3.91,2.43-6.32,6.33-6.33,10.79,0,21.58,0,32.36,0,3.89,0,6.29,2.43,6.29,6.36,0,5.41,0,10.82,0,16.24Zm-22.55,20.99c5.37,0,10.75,0,16.12,0,3.22,0,5.02-1.81,5.02-5.04,0-10.64,0-21.28,0-31.92,0-3.45-1.74-5.2-5.18-5.21-10.6,0-21.21,0-31.81,0-3.43,0-5.18,1.76-5.18,5.21,0,10.6,0,21.21,0,31.81,0,3.38,1.76,5.15,5.12,5.15,5.3,0,10.6,0,15.91,0Z"/>
      <path class="cls-2" d="m39.61,38.63v-8.19c-.93.42-1.78.76-2.59,1.16-.83.41-1.52.36-2.25-.26-1.82-1.54-3.72-2.98-5.53-4.54-.5-.43-.78-1.13-1.16-1.7.08-.14.17-.28.25-.42-.87,0-1.75.03-2.62-.01-.37-.02-.97-.08-1.07-.3-.42-.99-1.23-.77-1.98-.77-1.81,0-3.62,0-5.48,0v-1.63c3.59,1.04,7.22.38,10.81.49,3.63.12,7.26,0,10.89.06.55.01,1.2.37,1.62.76.56.52,1.1.78,1.88.76,1.67-.06,3.35-.03,5.02-.01,1.46.01,2.29.62,2.32,2.07.08,4.15.03,8.31.03,12.53h-10.15Zm-7.08-13.56c.5.42.87.74,1.25,1.05q2.18,1.79,4.66.43c-.3-.45-.61-.91-.99-1.48h-4.92Z"/>
      <path class="cls-2" d="m47.95,19.25c-.04,2.16-1.82,3.92-3.97,3.91-2.25,0-4.03-1.87-3.97-4.13.06-2.15,1.87-3.88,4.03-3.85,2.22.04,3.95,1.83,3.91,4.07Z"/>
      <path class="cls-2" d="m38.82,20.05v1.15h-8.23v-1.15h8.23Z"/>
    </g>
  </g>
  <polyline class="cls-1" points="17.2 39.85 20.55 43.42 29.16 33.84"/>
</svg>