<?xml version="1.0" encoding="utf-8"?>
<!-- Generator: Adobe Illustrator 28.0.0, SVG Export Plug-In . SVG Version: 6.00 Build 0)  -->
<svg version="1.1" id="Layer_1" xmlns="http://www.w3.org/2000/svg" xmlns:xlink="http://www.w3.org/1999/xlink" x="0px" y="0px"
	 viewBox="0 0 69.2 53.8" style="enable-background:new 0 0 69.2 53.8;" xml:space="preserve">
<style type="text/css">
	.st0{fill:none;}
	.st1{fill:#D6DEED;}
	.st2{fill:none;stroke:#D6DEED;stroke-linecap:round;stroke-linejoin:round;stroke-miterlimit:10;}
</style>
<path class="st0" d="M17.3,19.2c3.8-1.6,7.6-3.1,11.4-4.7v-2.2C24.8,14.6,21,16.9,17.3,19.2C17.2,19.2,17.3,19.2,17.3,19.2z"/>
<path class="st0" d="M11.9,31.1c0.1,0,0.2,0,0.2,0c2.3-0.3,4.3,0.8,5.1,2.8c0.8,2,0.2,4.2-1.6,5.6c-0.3,0.2-0.2,0.4-0.1,0.6
	c0.9,2,1.7,4.1,2.5,6.1c0,0.1,0.1,0.2,0.2,0.4c7.8-3.2,15.5-6.4,23.3-9.6l0.5-3.3l-1.7-1.3c0,0.1-0.1,0.1-0.1,0.1
	c-0.1,0.2-0.4,0.2-0.6,0.3C34.4,35,29.2,37.1,24,39.3c-0.1,0-0.2,0.1-0.2,0.1c-0.5,0.2-0.9,0.1-1.1-0.3c-0.2-0.4,0-0.8,0.5-1
	c2.7-1.1,5.4-2.2,8.1-3.3l0,0c2.6-1.1,5.2-2.1,7.8-3.2l-2.9-2.1c-4.6,1.9-9.3,3.8-13.9,5.7c-0.1,0-0.2,0.1-0.2,0.1
	c-0.5,0.2-0.9,0-1.1-0.4c-0.2-0.4,0-0.8,0.5-1c0.3-0.1,0.6-0.2,0.8-0.3c2.4-1,4.8-2,7.3-3v0c1.8-0.7,3.5-1.4,5.3-2.2l-1.1-0.8
	l0.2-2.2c-1.9,0.8-3.7,1.5-5.6,2.3l0,0c-2.6,1.1-5.2,2.2-7.8,3.2C20.3,31,20.2,31,20,31.1c-0.4,0-0.6-0.1-0.8-0.5
	c-0.1-0.3,0-0.6,0.3-0.8c0.2-0.1,0.3-0.2,0.5-0.2c4.7-1.9,9.4-3.9,14.1-5.8l0.5-5.2l-4.5-3c-7,2.9-14.1,5.8-21.1,8.7
	C10,26.5,10.9,28.8,11.9,31.1z M18.1,25.4c2.6-1.1,5.2-2.2,7.8-3.2c0.6-0.2,1-0.1,1.1,0.3c0.2,0.4,0,0.8-0.6,1
	c-1.3,0.5-2.6,1.1-3.9,1.6h0c-1.3,0.5-2.6,1.1-3.9,1.6c-0.6,0.2-1,0.1-1.1-0.3C17.3,26,17.5,25.6,18.1,25.4z"/>
<path class="st1" d="M18.2,46.5c-0.1-0.1-0.1-0.2-0.2-0.4c-0.8-2-1.7-4.1-2.5-6.1c-0.1-0.2-0.1-0.4,0.1-0.6c1.8-1.4,2.5-3.6,1.6-5.6
	c-0.8-2-2.9-3.1-5.1-2.8c-0.1,0-0.1,0-0.2,0c-0.9-2.3-1.9-4.6-2.8-6.9c7-2.9,14.1-5.8,21.1-8.7l-1.5-1v0c-3.8,1.6-7.6,3.1-11.4,4.7
	c0,0,0,0,0,0c3.8-2.3,7.6-4.5,11.4-6.8v-1.7c-0.5,0.3-1,0.6-1.4,0.9c-3.2,1.9-6.3,3.8-9.5,5.7c-3.3,2-6.6,3.9-9.8,5.9
	c-0.6,0.3-0.6,0.6-0.4,1.2c1.1,2.6,2.1,5.2,3.2,7.8c0.3,0.6,0.5,0.8,1.2,0.6c1.7-0.5,3.4,0.2,4,1.9c0.7,1.6,0,3.3-1.6,4.1
	c-0.6,0.3-0.7,0.6-0.5,1.2c1.1,2.6,2.1,5.2,3.2,7.8c0.1,0.4,0.4,0.6,0.8,0.7c7.8-3.2,15.7-6.4,23.5-9.7l0.3-1.7
	C33.7,40.1,26,43.3,18.2,46.5z"/>
<path class="st1" d="M20,29.5c-0.2,0.1-0.3,0.2-0.5,0.2c-0.3,0.2-0.4,0.5-0.3,0.8c0.1,0.4,0.4,0.5,0.8,0.5c0.2,0,0.4-0.1,0.5-0.2
	c2.6-1.1,5.2-2.2,7.8-3.2l0,0c1.9-0.8,3.7-1.5,5.6-2.3l0.2-1.7C29.4,25.6,24.7,27.6,20,29.5z"/>
<path class="st1" d="M31.3,34.7L31.3,34.7c-2.7,1.1-5.4,2.2-8.1,3.3c-0.5,0.2-0.7,0.6-0.5,1c0.2,0.4,0.6,0.5,1.1,0.3
	c0.1,0,0.2-0.1,0.2-0.1c5.2-2.2,10.4-4.3,15.7-6.4c0.2-0.1,0.5-0.2,0.6-0.3c0,0,0.1-0.1,0.1-0.1l-1.2-0.9
	C36.5,32.5,33.9,33.6,31.3,34.7z"/>
<path class="st1" d="M29.5,30.5L29.5,30.5c-2.4,1-4.8,2-7.3,3c-0.3,0.1-0.6,0.2-0.8,0.3c-0.5,0.2-0.6,0.6-0.5,1
	c0.2,0.4,0.6,0.6,1.1,0.4c0.1,0,0.2-0.1,0.2-0.1c4.6-1.9,9.3-3.8,13.9-5.7l-1.4-1C33.1,29,31.3,29.8,29.5,30.5z"/>
<path class="st1" d="M18.6,26.7c1.3-0.5,2.6-1.1,3.9-1.6h0c1.3-0.5,2.6-1.1,3.9-1.6c0.5-0.2,0.8-0.6,0.6-1c-0.2-0.4-0.5-0.5-1.1-0.3
	c-2.6,1.1-5.2,2.1-7.8,3.2c-0.5,0.2-0.8,0.6-0.6,1C17.7,26.8,18.1,27,18.6,26.7z"/>
<g>
	<path class="st0" d="M39.6,21.3c0.6-0.1,1.1-0.1,1.7-0.2c0.1,0,0.2,0,0.3,0c0.5,0,0.9,0.2,0.9,0.6c0.1,0.5-0.3,0.8-0.8,0.8
		c-0.9,0.1-1.8,0.2-2.7,0.3l-0.8,2l0.8,1.1c0.9-0.1,1.8-0.2,2.7-0.3c0.2,0,0.3,0,0.5,0c0.4,0,0.7,0.2,0.7,0.6c0,0.4-0.2,0.7-0.6,0.8
		c-0.1,0-0.3,0-0.5,0.1c-0.6,0.1-1.3,0.1-1.9,0.2l2.2,2.9c0,0,0.1,0,0.1,0c0.2,0,0.5-0.1,0.7,0.1c0.2,0.1,0.4,0.4,0.4,0.6
		c0,0.2-0.1,0.4-0.3,0.5l1.3,1.7l-1.5,3c2.7-0.3,5.5-0.5,8.2-0.8c-0.1-0.6-0.1-1.3-0.2-1.9c0-0.5,0.2-0.8,0.6-0.8
		c0.4,0,0.7,0.2,0.8,0.7c0,0.2,0.1,0.4,0.1,0.7c0,0.4,0.1,0.8,0.1,1.2c3.6-0.3,7-0.7,10.5-1c-0.2-2.5-0.5-4.9-0.7-7.4
		c-0.1,0-0.2-0.1-0.3-0.1c-2.2-0.3-3.7-1.9-4-4.1c-0.2-2.1,1-4.1,3-4.8c0.4-0.1,0.4-0.3,0.4-0.7c-0.2-2.1-0.4-4.3-0.6-6.4l0-0.5
		c-3.6,0.3-7,0.7-10.5,1c0,0.5,0.1,0.9,0.1,1.4c0,0.2,0,0.3,0,0.5c0,0.5-0.2,0.8-0.6,0.8c-0.4,0-0.7-0.2-0.8-0.7
		c-0.1-0.6-0.1-1.2-0.2-1.9c-3.6,0.3-7.1,0.7-10.7,1l3.4,4.2L39.6,21.3z M50.8,24.3c0.4,0,0.8,0.3,0.8,0.8c0.1,1.4,0.3,2.9,0.4,4.3
		c0,0.6-0.2,0.9-0.7,1c-0.5,0-0.8-0.3-0.8-0.8c-0.1-0.7-0.1-1.5-0.2-2.2c-0.1-0.7-0.1-1.4-0.2-2.1C50.1,24.8,50.3,24.4,50.8,24.3z
		 M50,16.1c0.5-0.1,0.8,0.2,0.8,0.9c0.1,0.7,0.1,1.4,0.2,2.1l0,0c0.1,0.7,0.1,1.4,0.2,2.1c0,0.6-0.2,0.9-0.6,1
		c-0.5,0.1-0.8-0.2-0.8-0.9c-0.1-1.4-0.3-2.8-0.4-4.3C49.3,16.5,49.5,16.1,50,16.1z"/>
	<path class="st0" d="M58,9c-0.4-1.6-0.8-3.2-1.2-4.8c-3.2,0.8-6.3,1.6-9.5,2.3c0.1,0.6,0.3,1.1,0.4,1.7c0.1,0.6,0,1-0.5,1.1
		c-0.4,0.1-0.8-0.1-0.9-0.7C46.2,8,46,7.4,45.9,6.8l0,0c-2.7,0.7-5.5,1.4-8.2,2l-0.6,2.1C44,10.3,51,9.6,58,9z"/>
	<path class="st1" d="M64.1,35.5c0.3-0.3,0.4-0.6,0.4-1.1c-0.3-2.7-0.5-5.5-0.8-8.2c-0.1-0.7-0.3-0.9-1-0.9c-1.7,0-3.1-1.2-3.3-2.9
		c-0.2-1.7,1-3.2,2.7-3.5c0.7-0.1,0.9-0.3,0.8-1.1c-0.3-2.8-0.5-5.5-0.8-8.3c-0.1-0.8-0.3-1-1.1-0.9c-0.5,0-1,0.1-1.5,0.1
		c0,0-0.1,0-0.1,0c-0.2-1-0.5-2-0.8-3.1c-0.2-0.7-0.4-1.5-0.5-2.2c-0.2-0.9-0.4-1-1.3-0.8c-2.6,0.6-5.1,1.3-7.7,1.9
		c-3.6,0.9-7.3,1.8-10.9,2.7l-0.5,1.6c2.7-0.7,5.4-1.4,8.2-2l0,0C46,7.4,46.2,8,46.3,8.5c0.2,0.6,0.5,0.8,0.9,0.7
		c0.4-0.1,0.6-0.5,0.5-1.1c-0.1-0.5-0.3-1.1-0.4-1.7c3.2-0.8,6.3-1.6,9.5-2.3C57.2,5.8,57.6,7.4,58,9c-7,0.7-14,1.3-20.9,2l0,0
		l1.1,1.4c3.6-0.3,7.1-0.7,10.7-1c0.1,0.6,0.1,1.2,0.2,1.9c0.1,0.5,0.4,0.7,0.8,0.7c0.4-0.1,0.7-0.4,0.6-0.8c0-0.2,0-0.3,0-0.5
		c0-0.5-0.1-0.9-0.1-1.4c3.5-0.3,7-0.7,10.5-1l0,0.5c0.2,2.1,0.4,4.3,0.6,6.4c0,0.4,0,0.5-0.4,0.7c-2,0.8-3.3,2.7-3,4.8
		c0.2,2.2,1.7,3.8,4,4.1c0.1,0,0.2,0,0.3,0.1c0.2,2.5,0.5,4.9,0.7,7.4c-3.5,0.3-6.9,0.7-10.5,1c0-0.4-0.1-0.8-0.1-1.2
		c0-0.2,0-0.4-0.1-0.7c-0.1-0.4-0.4-0.7-0.8-0.7c-0.4,0-0.7,0.4-0.6,0.8c0,0.6,0.1,1.2,0.2,1.9c-2.7,0.3-5.5,0.5-8.2,0.8l-0.7,1.5
		C49.5,36.9,56.8,36.2,64.1,35.5L64.1,35.5z"/>
	<path class="st1" d="M42.5,21.8c0-0.4-0.4-0.7-0.9-0.6c-0.1,0-0.2,0-0.3,0c-0.6,0.1-1.1,0.1-1.7,0.2L39,22.8
		c0.9-0.1,1.8-0.2,2.7-0.3C42.2,22.5,42.5,22.2,42.5,21.8z"/>
	<path class="st1" d="M43.3,30.8c0-0.2-0.2-0.5-0.4-0.6c-0.2-0.1-0.5-0.1-0.7-0.1c0,0-0.1,0-0.1,0l0.9,1.2
		C43.2,31.2,43.3,31,43.3,30.8z"/>
	<path class="st1" d="M42.4,27c0.4-0.1,0.6-0.4,0.6-0.8c0-0.4-0.3-0.6-0.7-0.6c-0.2,0-0.3,0-0.5,0c-0.9,0.1-1.8,0.2-2.7,0.3l1,1.3
		c0.6-0.1,1.3-0.1,1.9-0.2C42,27.1,42.2,27.1,42.4,27z"/>
	<path class="st1" d="M49.7,21.3c0.1,0.6,0.4,0.9,0.8,0.9c0.5-0.1,0.7-0.4,0.6-1c-0.1-0.7-0.1-1.4-0.2-2.1l0,0
		c-0.1-0.7-0.1-1.4-0.2-2.1c-0.1-0.6-0.4-0.9-0.8-0.9c-0.4,0.1-0.7,0.4-0.6,1C49.5,18.5,49.6,19.9,49.7,21.3z"/>
	<path class="st1" d="M50.1,25.4c0.1,0.7,0.1,1.4,0.2,2.1c0.1,0.7,0.1,1.5,0.2,2.2c0.1,0.6,0.4,0.9,0.8,0.8c0.4,0,0.7-0.4,0.7-1
		c-0.1-1.4-0.3-2.9-0.4-4.3c-0.1-0.6-0.4-0.9-0.8-0.8C50.3,24.4,50.1,24.8,50.1,25.4z"/>
</g>
<polyline class="st2" points="38.2,7.7 37.2,11.5 39.7,19.2 39,25.9 44.3,33.1 43,37 "/>
<polyline class="st2" points="28.6,11.1 29.1,15.1 31.5,16.4 34.6,18.5 33.9,25.4 34.8,28.3 40.3,32.4 42,33.6 41.2,38.1 "/>
</svg>
