<?xml version="1.0" encoding="utf-8"?>
<!-- Generator: Adobe Illustrator 28.0.0, SVG Export Plug-In . SVG Version: 6.00 Build 0)  -->
<svg version="1.1" id="Layer_1" xmlns="http://www.w3.org/2000/svg" xmlns:xlink="http://www.w3.org/1999/xlink" x="0px" y="0px"
	 viewBox="0 0 69.2 53.8" style="enable-background:new 0 0 69.2 53.8;" xml:space="preserve">
<style type="text/css">
	.st0{fill:#16263F;}
</style>
<g id="ZX4B2X.tif">
	<g>
		<path class="st0" d="M61.7,32.9c-14.6,6-29.3,12-43.9,18c-0.4-0.1-0.6-0.3-0.8-0.7c-1.1-2.6-2.1-5.2-3.2-7.8
			c-0.2-0.6-0.1-0.9,0.5-1.2c1.6-0.8,2.3-2.5,1.6-4.1c-0.6-1.6-2.3-2.4-4-1.9c-0.6,0.2-0.9,0.1-1.2-0.6c-1.1-2.6-2.1-5.2-3.2-7.8
			c-0.2-0.6-0.2-0.9,0.4-1.2c3.3-2,6.6-3.9,9.8-5.9c3.2-1.9,6.3-3.8,9.5-5.7c3.7-2.2,7.4-4.4,11.1-6.6c2.3-1.4,4.5-2.7,6.8-4.1
			c0.8-0.5,1-0.4,1.5,0.4c0.4,0.7,0.8,1.3,1.2,2c0.5,0.9,1.1,1.8,1.6,2.7c0.1,0,0.1,0,0.2,0c0.5-0.2,1-0.4,1.4-0.6
			c0.7-0.3,1-0.2,1.3,0.5c1,2.6,2.1,5.1,3.2,7.7c0.3,0.7,0.2,1-0.5,1.3c-1.5,0.8-2.2,2.5-1.6,4.1s2.4,2.4,4,1.8
			c0.7-0.2,1-0.1,1.2,0.6c1,2.5,2.1,5.1,3.1,7.6C61.9,32.1,61.9,32.5,61.7,32.9L61.7,32.9z M11.9,33.8c0.1,0,0.1,0,0.2,0
			c2.3-0.3,4.3,0.8,5.2,2.8c0.8,2,0.2,4.2-1.6,5.6c-0.3,0.2-0.2,0.4-0.1,0.6c0.9,2,1.7,4.1,2.5,6.1c0,0.1,0.1,0.2,0.2,0.4
			c10.3-4.2,20.6-8.5,30.9-12.7c-0.2-0.6-0.5-1.2-0.7-1.7c-0.2-0.4,0-0.8,0.4-1s0.8,0,1,0.4c0.1,0.2,0.2,0.4,0.3,0.6
			c0.2,0.4,0.3,0.8,0.5,1.1c3.3-1.4,6.5-2.7,9.8-4c-1-2.3-1.9-4.6-2.8-6.9c-0.1,0-0.2,0-0.3,0c-2.2,0.3-4.1-0.8-5-2.8
			c-0.8-2-0.2-4.2,1.5-5.5c0.3-0.2,0.3-0.4,0.2-0.8c-0.8-2-1.7-4-2.5-6l-0.2-0.4c-3.3,1.4-6.5,2.7-9.8,4c0.2,0.5,0.4,0.9,0.5,1.3
			c0.1,0.1,0.1,0.3,0.2,0.4c0.2,0.4,0,0.8-0.4,1c-0.4,0.2-0.8,0-1-0.4c-0.2-0.6-0.5-1.1-0.7-1.7c-10.4,4.3-20.7,8.5-31,12.7
			C10,29.2,10.9,31.5,11.9,33.8z M35.9,10.7c-6.2,3.7-12.4,7.4-18.6,11.1c0,0,0,0,0,0c10.2-4.2,20.5-8.4,30.8-12.6
			c-0.8-1.4-1.7-2.8-2.5-4.2c-2.8,1.7-5.6,3.3-8.4,5c0.3,0.5,0.6,1,0.9,1.5c0.3,0.5,0.3,0.9-0.1,1.1c-0.4,0.2-0.8,0.1-1.1-0.4
			C36.5,11.7,36.2,11.2,35.9,10.7L35.9,10.7z"/>
		<path class="st0" d="M28.4,30.3c-2.6,1.1-5.2,2.2-7.8,3.2c-0.2,0.1-0.4,0.1-0.5,0.2c-0.4,0-0.6-0.1-0.8-0.5
			c-0.1-0.3,0-0.6,0.3-0.8c0.1-0.1,0.3-0.2,0.5-0.2c5.2-2.2,10.4-4.3,15.7-6.4c0.1,0,0.2-0.1,0.2-0.1c0.5-0.2,0.9-0.1,1.1,0.4
			c0.2,0.4,0,0.8-0.5,1C33.7,28.1,31,29.2,28.4,30.3L28.4,30.3z"/>
		<path class="st0" d="M31.3,37.3c2.6-1.1,5.2-2.2,7.9-3.2c0.2-0.1,0.5-0.2,0.7-0.1c0.2,0.1,0.5,0.3,0.6,0.5s0,0.5-0.2,0.7
			c-0.1,0.2-0.4,0.2-0.6,0.3c-5.2,2.2-10.4,4.3-15.7,6.4c-0.1,0-0.2,0.1-0.2,0.1c-0.5,0.2-0.9,0.1-1.1-0.3c-0.2-0.4,0-0.8,0.5-1
			C25.9,39.5,28.6,38.4,31.3,37.3L31.3,37.3z"/>
		<path class="st0" d="M29.5,33.1c2.6-1.1,5.2-2.1,7.8-3.2c0.1-0.1,0.3-0.1,0.4-0.2c0.4-0.1,0.7,0,0.9,0.4c0.2,0.4,0,0.7-0.3,0.9
			c-0.1,0.1-0.3,0.1-0.4,0.2c-5.2,2.1-10.5,4.3-15.7,6.5c-0.1,0-0.2,0.1-0.2,0.1c-0.5,0.2-0.9,0-1.1-0.4c-0.1-0.4,0-0.8,0.5-1
			c0.3-0.1,0.6-0.2,0.9-0.3C24.7,35.1,27.1,34.1,29.5,33.1L29.5,33.1z"/>
		<path class="st0" d="M22.5,27.8c-1.3,0.5-2.6,1.1-3.9,1.6c-0.6,0.2-1,0.1-1.1-0.3c-0.2-0.4,0-0.8,0.6-1c2.6-1.1,5.2-2.1,7.8-3.2
			c0.6-0.2,1-0.1,1.1,0.3c0.2,0.4,0,0.8-0.6,1C25.2,26.7,23.8,27.2,22.5,27.8L22.5,27.8z"/>
		<path class="st0" d="M44.3,20.9c0.3,0.7,0.5,1.3,0.8,2c0.2,0.6,0.1,0.9-0.3,1.1c-0.4,0.2-0.8,0-1.1-0.6c-0.5-1.3-1.1-2.6-1.6-4
			c-0.2-0.5-0.1-0.9,0.3-1.1c0.4-0.2,0.8,0,1,0.6C43.8,19.6,44,20.2,44.3,20.9L44.3,20.9z"/>
		<path class="st0" d="M46.1,29.1c-0.3-0.6-0.5-1.3-0.8-1.9c-0.2-0.6-0.1-1,0.3-1.2c0.4-0.2,0.8,0,1,0.6c0.5,1.3,1.1,2.7,1.6,4
			c0.2,0.5,0.1,1-0.3,1.1c-0.4,0.2-0.8,0-1-0.6C46.7,30.5,46.4,29.8,46.1,29.1z"/>
	</g>
</g>
</svg>
