<?xml version="1.0" encoding="UTF-8"?>
<svg id="Layer_1" data-name="Layer 1" xmlns="http://www.w3.org/2000/svg" viewBox="0 0 384 378.34">
  <defs>
    <style>
      .cls-1 {
        fill: #fff;
      }

      .cls-1, .cls-2 {
        stroke-width: 0px;
      }

      .cls-2 {
        fill: #0454a1;
      }
    </style>
  </defs>
  <circle class="cls-2" cx="192" cy="189.17" r="158.77"/>
  <g>
    <g id="ZX4B2X.tif">
      <g>
        <path class="cls-1" d="m308.18,214.61c-62.63,25.74-125.69,51.48-188.31,77.21-1.72-.43-2.57-1.29-3.43-3-4.72-11.15-9.01-22.31-13.73-33.46-.86-2.57-.43-3.86,2.14-5.15,6.86-3.43,9.87-10.72,6.86-17.59-2.57-6.86-9.87-10.3-17.16-8.15-2.57.86-3.86.43-5.15-2.57-4.72-11.15-9.01-22.31-13.73-33.46-.86-2.57-.86-3.86,1.72-5.15,14.16-8.58,28.31-16.73,42.04-25.31,13.73-8.15,27.02-16.3,40.75-24.45,15.87-9.44,31.74-18.87,47.61-28.31,9.87-6.01,19.3-11.58,29.17-17.59,3.43-1.72,4.29-1.72,6.43,1.72,1.72,3,3.43,5.58,5.15,8.58,2.14,3.86,4.72,7.72,6.86,11.58h.86c2.14-.86,4.29-1.72,6.01-2.57,3-1.29,4.29-.86,5.58,2.14,4.29,11.15,9.01,21.88,13.73,33.03,1.29,3,.86,4.29-2.14,5.58-6.43,3.43-9.44,10.72-6.86,17.59s10.3,10.3,17.16,7.72c3-.86,4.29-.43,5.15,2.57,4.29,10.72,9.01,21.88,13.3,32.6.86,3,.86,4.72,0,6.43h0Zm-213.62,3.86h.86c9.87-1.29,18.45,3.43,22.31,12.01,3.43,8.58.86,18.02-6.86,24.02-1.29.86-.86,1.72-.43,2.57,3.86,8.58,7.29,17.59,10.72,26.17,0,.43.43.86.86,1.72,44.18-18.02,88.37-36.46,132.55-54.48-.86-2.57-2.14-5.15-3-7.29-.86-1.72,0-3.43,1.72-4.29s3.43,0,4.29,1.72c.43.86.86,1.72,1.29,2.57.86,1.72,1.29,3.43,2.14,4.72,14.16-6.01,27.88-11.58,42.04-17.16-4.29-9.87-8.15-19.73-12.01-29.6h-1.29c-9.44,1.29-17.59-3.43-21.45-12.01-3.43-8.58-.86-18.02,6.43-23.59,1.29-.86,1.29-1.72.86-3.43-3.43-8.58-7.29-17.16-10.72-25.74l-.86-1.72c-14.16,6.01-27.88,11.58-42.04,17.16.86,2.14,1.72,3.86,2.14,5.58.43.43.43,1.29.86,1.72.86,1.72,0,3.43-1.72,4.29s-3.43,0-4.29-1.72c-.86-2.57-2.14-4.72-3-7.29-45.47,18.02-89.22,36.46-133.84,54.48,4.29,9.87,8.15,19.73,12.44,29.6Zm102.95-98.66c-26.6,15.87-53.19,31.74-79.79,47.61h0c43.75-18.02,87.94-36.03,132.12-54.05-3.43-6.01-7.29-12.01-10.72-18.02-12.01,7.29-24.02,14.16-36.03,21.45,1.29,2.14,2.57,4.29,3.86,6.43,1.29,2.14,1.29,3.86-.43,4.72-1.72.86-3.43.43-4.72-1.72-1.72-2.14-3-4.29-4.29-6.43h0Z"/>
        <path class="cls-1" d="m233.54,163.14c1.29,3,2.14,5.58,3.43,8.58.86,2.57.43,3.86-1.29,4.72-1.72.86-3.43,0-4.72-2.57-2.14-5.58-4.72-11.15-6.86-17.16-.86-2.14-.43-3.86,1.29-4.72,1.72-.86,3.43,0,4.29,2.57,1.72,3,2.57,6.01,3.86,8.58h0Z"/>
        <path class="cls-1" d="m241.27,198.74c-1.29-2.57-2.14-5.58-3.43-8.15-.86-2.57-.43-4.29,1.29-5.15,1.72-.86,3.43,0,4.29,2.57,2.14,5.58,4.72,11.58,6.86,17.16.86,2.14.43,4.29-1.29,4.72-1.72.86-3.43,0-4.29-2.57-.86-3-2.14-6.01-3.43-8.58Z"/>
      </g>
    </g>
    <path class="cls-1" d="m179.07,197.46c-3.43-2.57-8.58-4.72-12.44-4.72h-.43c-3.86,0-5.58,1.72-5.58,3.86h0c0,2.57,1.72,3.86,8.58,6.01,11.15,3.86,16.73,8.15,16.73,16.73h0c0,8.58-6.01,14.16-15.44,15.87v7.72h-8.15v-7.72c-6.43-.86-12.87-3-17.59-7.29l6.43-9.87c5.15,3.86,10.3,6.01,15.44,6.01h.43c4.29,0,6.01-1.72,6.01-3.86h0c0-2.57-1.72-3.86-8.58-5.58-11.58-3.86-17.16-8.15-17.16-16.73v-.43c0-8.58,5.58-14.16,15.44-15.44v-4.72h8.15v5.15c5.58.86,10.3,2.57,14.16,6.01l-6.01,9.01Z"/>
  </g>
</svg>