<?xml version="1.0" encoding="utf-8"?>
<!-- Generator: Adobe Illustrator 28.0.0, SVG Export Plug-In . SVG Version: 6.00 Build 0)  -->
<svg version="1.1" id="Layer_1" xmlns="http://www.w3.org/2000/svg" xmlns:xlink="http://www.w3.org/1999/xlink" x="0px" y="0px"
	 viewBox="0 0 69.2 53.8" style="enable-background:new 0 0 69.2 53.8;" xml:space="preserve">
<style type="text/css">
	.st0{fill:#D6DEED;}
</style>
<g id="ZX4B2X.tif">
	<g>
		<path class="st0" d="M63.4,34.9c-14.6,6-29.3,12-43.9,18c-0.4-0.1-0.6-0.3-0.8-0.7c-1.1-2.6-2.1-5.2-3.2-7.8
			c-0.2-0.6-0.1-0.9,0.5-1.2c1.6-0.8,2.3-2.5,1.6-4.1c-0.6-1.6-2.3-2.4-4-1.9c-0.6,0.2-0.9,0.1-1.2-0.6c-1.1-2.6-2.1-5.2-3.2-7.8
			c-0.2-0.6-0.2-0.9,0.4-1.2c3.3-2,6.6-3.9,9.8-5.9c3.2-1.9,6.3-3.8,9.5-5.7c3.7-2.2,7.4-4.4,11.1-6.6c2.3-1.4,4.5-2.7,6.8-4.1
			c0.8-0.5,1-0.4,1.5,0.4c0.4,0.7,0.8,1.3,1.2,2c0.5,0.9,1.1,1.8,1.6,2.7c0.1,0,0.1,0,0.2,0c0.5-0.2,1-0.4,1.4-0.6
			c0.7-0.3,1-0.2,1.3,0.5c1,2.6,2.1,5.1,3.2,7.7c0.3,0.7,0.2,1-0.5,1.3c-1.5,0.8-2.2,2.5-1.6,4.1s2.4,2.4,4,1.8
			c0.7-0.2,1-0.1,1.2,0.6c1,2.5,2.1,5.1,3.1,7.6C63.6,34.2,63.6,34.5,63.4,34.9L63.4,34.9z M13.6,35.8c0.1,0,0.1,0,0.2,0
			c2.3-0.3,4.3,0.8,5.2,2.8c0.8,2,0.2,4.2-1.6,5.6c-0.3,0.2-0.2,0.4-0.1,0.6c0.9,2,1.7,4.1,2.5,6.1c0,0.1,0.1,0.2,0.2,0.4
			c10.3-4.2,20.6-8.5,30.9-12.7c-0.2-0.6-0.5-1.2-0.7-1.7c-0.2-0.4,0-0.8,0.4-1s0.8,0,1,0.4c0.1,0.2,0.2,0.4,0.3,0.6
			c0.2,0.4,0.3,0.8,0.5,1.1c3.3-1.4,6.5-2.7,9.8-4c-1-2.3-1.9-4.6-2.8-6.9c-0.1,0-0.2,0-0.3,0c-2.2,0.3-4.1-0.8-5-2.8
			c-0.8-2-0.2-4.2,1.5-5.5c0.3-0.2,0.3-0.4,0.2-0.8c-0.8-2-1.7-4-2.5-6l-0.2-0.4c-3.3,1.4-6.5,2.7-9.8,4c0.2,0.5,0.4,0.9,0.5,1.3
			c0.1,0.1,0.1,0.3,0.2,0.4c0.2,0.4,0,0.8-0.4,1c-0.4,0.2-0.8,0-1-0.4c-0.2-0.6-0.5-1.1-0.7-1.7c-10.4,4.3-20.7,8.5-31,12.7
			C11.7,31.3,12.6,33.5,13.6,35.8z M37.6,12.8c-6.2,3.7-12.4,7.4-18.6,11.1c0,0,0,0,0,0c10.2-4.2,20.5-8.4,30.8-12.6
			c-0.8-1.4-1.7-2.8-2.5-4.2c-2.8,1.7-5.6,3.3-8.4,5c0.3,0.5,0.6,1,0.9,1.5c0.3,0.5,0.3,0.9-0.1,1.1c-0.4,0.2-0.8,0.1-1.1-0.4
			C38.2,13.8,37.9,13.3,37.6,12.8L37.6,12.8z"/>
		<path class="st0" d="M30.1,32.4c-2.6,1.1-5.2,2.2-7.8,3.2c-0.2,0.1-0.4,0.1-0.5,0.2c-0.4,0-0.6-0.1-0.8-0.5
			c-0.1-0.3,0-0.6,0.3-0.8c0.1-0.1,0.3-0.2,0.5-0.2c5.2-2.2,10.4-4.3,15.7-6.4c0.1,0,0.2-0.1,0.2-0.1c0.5-0.2,0.9-0.1,1.1,0.4
			c0.2,0.4,0,0.8-0.5,1C35.5,30.2,32.8,31.3,30.1,32.4L30.1,32.4z"/>
		<path class="st0" d="M33,39.4c2.6-1.1,5.2-2.2,7.9-3.2c0.2-0.1,0.5-0.2,0.7-0.1c0.2,0.1,0.5,0.3,0.6,0.5s0,0.5-0.2,0.7
			c-0.1,0.2-0.4,0.2-0.6,0.3c-5.2,2.2-10.4,4.3-15.7,6.4c-0.1,0-0.2,0.1-0.2,0.1c-0.5,0.2-0.9,0.1-1.1-0.3c-0.2-0.4,0-0.8,0.5-1
			C27.6,41.6,30.3,40.5,33,39.4L33,39.4z"/>
		<path class="st0" d="M31.3,35.2c2.6-1.1,5.2-2.1,7.8-3.2c0.1-0.1,0.3-0.1,0.4-0.2c0.4-0.1,0.7,0,0.9,0.4c0.2,0.4,0,0.7-0.3,0.9
			c-0.1,0.1-0.3,0.1-0.4,0.2c-5.2,2.1-10.5,4.3-15.7,6.5c-0.1,0-0.2,0.1-0.2,0.1c-0.5,0.2-0.9,0-1.1-0.4c-0.1-0.4,0-0.8,0.5-1
			c0.3-0.1,0.6-0.2,0.9-0.3C26.4,37.2,28.9,36.2,31.3,35.2L31.3,35.2z"/>
		<path class="st0" d="M24.3,29.8c-1.3,0.5-2.6,1.1-3.9,1.6c-0.6,0.2-1,0.1-1.1-0.3c-0.2-0.4,0-0.8,0.6-1c2.6-1.1,5.2-2.1,7.8-3.2
			c0.6-0.2,1-0.1,1.1,0.3c0.2,0.4,0,0.8-0.6,1C26.9,28.8,25.6,29.3,24.3,29.8L24.3,29.8z"/>
		<path class="st0" d="M46.1,23c0.3,0.7,0.5,1.3,0.8,2c0.2,0.6,0.1,0.9-0.3,1.1c-0.4,0.2-0.8,0-1.1-0.6c-0.5-1.3-1.1-2.6-1.6-4
			c-0.2-0.5-0.1-0.9,0.3-1.1c0.4-0.2,0.8,0,1,0.6C45.5,21.7,45.8,22.3,46.1,23L46.1,23z"/>
		<path class="st0" d="M47.9,31.2c-0.3-0.6-0.5-1.3-0.8-1.9c-0.2-0.6-0.1-1,0.3-1.2c0.4-0.2,0.8,0,1,0.6c0.5,1.3,1.1,2.7,1.6,4
			c0.2,0.5,0.1,1-0.3,1.1c-0.4,0.2-0.8,0-1-0.6C48.4,32.6,48.1,31.9,47.9,31.2z"/>
	</g>
</g>
<g>
	<g>
		<g id="Gp3W2V.tif_00000135670597636449709340000014041471627530929303_">
			<g>
				<path class="st0" d="M16.9,4.1C17,4.2,17,4.3,17,4.3c0.1,2.4,1.9,4.2,4.3,4.3c0.1,0,0.2,0,0.2,0.1c0,0.1-0.1,0.1-0.2,0.2
					c-0.8,0-1.5,0.2-2.1,0.6c-1.4,0.8-2.1,2.1-2.2,3.7c0,0.1,0,0.3-0.1,0.3c-0.2,0-0.1-0.2-0.1-0.3c0-2.2-1.8-4.1-4-4.2
					c-0.1,0-0.3,0-0.4,0c-0.1,0-0.2,0-0.2-0.1c0-0.1,0.1-0.1,0.2-0.1c0.3,0,0.6-0.1,0.9-0.1c1.9-0.4,3.4-2.2,3.4-4.2
					c0-0.1,0.1-0.2,0.1-0.3C16.9,4.1,16.9,4.1,16.9,4.1z"/>
				<path class="st0" d="M13.4,12.2c-0.1,0.1-0.2,0.1-0.2,0.1c-0.2,0-0.4,0-0.6,0.1c-1.1,0.3-1.8,1.2-1.8,2.3c0,0,0,0,0,0.1
					c0,0.1-0.1,0.1-0.1,0.2c0-0.1-0.1-0.1-0.1-0.2c0-0.2,0-0.3-0.1-0.5c-0.2-1-1.1-1.8-2.2-1.9c-0.1,0-0.1,0-0.2,0
					c-0.1,0-0.1-0.1-0.2-0.1c0.1,0,0.1-0.1,0.2-0.1c0.1,0,0.3,0,0.4-0.1c1.1-0.2,1.9-1.1,2-2.3c0,0,0-0.1,0-0.1
					c0-0.1,0.1-0.1,0.1-0.2c0,0.1,0.1,0.1,0.1,0.2c0,0.2,0,0.4,0.1,0.5c0.2,1.1,1.1,1.8,2.2,1.9c0.1,0,0.1,0,0.2,0
					C13.3,12.1,13.3,12.1,13.4,12.2z M10.6,10.5c-0.3,0.8-0.9,1.4-1.7,1.7c0.8,0.3,1.4,0.9,1.7,1.6c0.2-0.3,0.4-0.6,0.7-1
					c0.3-0.3,0.6-0.5,1-0.7C11.5,11.9,10.9,11.3,10.6,10.5z"/>
				<path class="st0" d="M15.8,16.3c-0.1,0-0.2,0.1-0.2,0.1c-0.3,0-0.6,0.1-0.8,0.3c-0.3,0.2-0.4,0.5-0.5,0.9c0,0.1,0,0.2-0.2,0.2
					c-0.1,0-0.1-0.1-0.1-0.2c-0.1-0.7-0.5-1.2-1.3-1.2c-0.1,0-0.2-0.1-0.2-0.1c0-0.1,0.1-0.1,0.2-0.1c0.7,0,1.2-0.6,1.3-1.3
					c0-0.1,0.1-0.1,0.1-0.2c0.1,0.1,0.1,0.1,0.2,0.2c0.1,0.8,0.5,1.2,1.3,1.3C15.7,16.1,15.7,16.2,15.8,16.3
					C15.8,16.2,15.8,16.3,15.8,16.3z"/>
			</g>
		</g>
	</g>
</g>
</svg>
