<?xml version="1.0" encoding="UTF-8"?>
<svg id="Layer_1" data-name="Layer 1" xmlns="http://www.w3.org/2000/svg" viewBox="0 0 69.16 53.81">
  <defs>
    <style>
      .cls-1 {
        fill: #d6deed;
        stroke-width: 0px;
      }
    </style>
  </defs>
  <g id="ZX4B2X.tif">
    <g>
      <path class="cls-1" d="m61.65,30.2c-14.63,6.01-29.27,12.03-43.9,18.04-.36-.12-.65-.3-.8-.69-1.05-2.6-2.13-5.19-3.19-7.78-.24-.6-.11-.93.46-1.21,1.6-.79,2.28-2.51,1.63-4.11-.65-1.61-2.34-2.39-4.02-1.86-.65.21-.93.08-1.19-.56-1.07-2.59-2.13-5.18-3.2-7.78-.24-.59-.15-.85.41-1.18,3.28-1.96,6.56-3.93,9.84-5.89,3.16-1.89,6.33-3.79,9.49-5.67,3.69-2.2,7.38-4.4,11.08-6.6,2.28-1.36,4.55-2.72,6.83-4.07.76-.45,1.02-.36,1.47.41.38.66.77,1.32,1.16,1.97.55.92,1.1,1.83,1.63,2.73.08,0,.12,0,.15-.02.47-.19.95-.38,1.42-.57.72-.29,1.02-.17,1.31.54,1.05,2.56,2.11,5.12,3.16,7.68.29.7.19.96-.49,1.3-1.53.76-2.2,2.54-1.56,4.11.64,1.57,2.36,2.36,3.99,1.83.67-.22.97-.08,1.24.57,1.05,2.54,2.09,5.09,3.14,7.63.17.41.18.78-.07,1.15Zm-49.79.91c.08-.01.15-.02.22-.03,2.29-.32,4.3.76,5.15,2.77.84,1.97.21,4.17-1.62,5.57-.26.2-.22.36-.12.6.85,2.04,1.68,4.08,2.52,6.13.05.12.12.23.18.36,10.32-4.24,20.61-8.47,30.94-12.71-.25-.6-.49-1.16-.71-1.73-.16-.43,0-.83.37-.99.37-.16.76,0,.97.4.1.2.18.41.26.61.16.38.32.77.47,1.14,3.3-1.36,6.52-2.68,9.75-4.01-.95-2.31-1.88-4.58-2.82-6.87-.11,0-.22,0-.31.02-2.24.32-4.14-.75-5.01-2.81-.83-1.96-.24-4.21,1.49-5.52.32-.24.34-.41.2-.75-.83-1.99-1.65-3.99-2.47-5.98l-.18-.44c-3.31,1.36-6.54,2.69-9.79,4.02.19.46.36.88.54,1.31.06.14.12.28.17.43.15.44,0,.81-.38.98-.39.17-.76.02-.95-.41-.25-.57-.48-1.15-.71-1.73-10.38,4.26-20.67,8.5-31,12.74.95,2.32,1.89,4.6,2.84,6.9Zm24-23.06c-6.24,3.72-12.43,7.42-18.62,11.12,0,.02.02.04.03.05,10.25-4.21,20.49-8.42,30.78-12.65-.85-1.42-1.68-2.81-2.53-4.25-2.81,1.67-5.59,3.32-8.4,4.99.31.53.59,1.01.87,1.49.3.53.26.92-.13,1.15-.4.23-.79.09-1.1-.4-.29-.48-.57-.96-.89-1.5Z"/>
      <path class="cls-1" d="m28.35,27.67c-2.61,1.07-5.22,2.15-7.83,3.22-.17.07-.35.15-.53.17-.36.04-.64-.11-.77-.46-.13-.34-.04-.64.27-.85.15-.1.33-.18.5-.25,5.22-2.15,10.44-4.29,15.66-6.44.08-.03.16-.07.24-.1.51-.18.91-.06,1.08.35.18.42-.03.82-.55,1.03-2.69,1.11-5.38,2.21-8.06,3.32Z"/>
      <path class="cls-1" d="m31.28,34.65c2.63-1.08,5.25-2.16,7.88-3.23.21-.09.48-.2.68-.14.23.07.5.28.57.49.07.21-.05.52-.19.73-.11.16-.36.24-.57.32-5.22,2.15-10.44,4.29-15.66,6.44-.08.03-.16.07-.24.1-.52.19-.91.06-1.08-.34-.18-.41.02-.82.54-1.04,2.69-1.11,5.38-2.21,8.06-3.32Z"/>
      <path class="cls-1" d="m29.55,30.49c2.61-1.07,5.22-2.14,7.83-3.22.14-.06.28-.12.43-.17.4-.11.72.03.88.4.16.38.04.7-.32.91-.13.08-.28.13-.42.18-5.23,2.15-10.47,4.3-15.7,6.45-.08.03-.16.07-.24.1-.5.19-.9.05-1.06-.36-.15-.39.03-.77.49-.97.28-.12.57-.23.85-.35,2.42-.99,4.84-1.99,7.26-2.98Z"/>
      <path class="cls-1" d="m22.54,25.11c-1.31.54-2.61,1.08-3.92,1.61-.56.23-.96.11-1.12-.31-.16-.42.05-.79.59-1.01,2.61-1.08,5.22-2.15,7.83-3.22.57-.23.95-.12,1.11.31.17.43-.03.78-.58,1.01-1.3.54-2.61,1.07-3.92,1.61Z"/>
      <path class="cls-1" d="m44.34,18.25c.27.66.55,1.32.81,1.98.22.56.11.94-.32,1.13-.44.19-.82,0-1.06-.58-.55-1.32-1.09-2.64-1.63-3.96-.22-.54-.09-.95.32-1.13.44-.19.81,0,1.05.58.28.66.54,1.32.81,1.98Z"/>
      <path class="cls-1" d="m46.12,26.48c-.26-.64-.53-1.29-.79-1.93-.22-.56-.1-1,.33-1.17.41-.17.8.04,1.03.57.55,1.33,1.1,2.67,1.64,4,.21.53.07.96-.35,1.12-.42.17-.81-.05-1.03-.57-.28-.67-.56-1.35-.83-2.02Z"/>
    </g>
  </g>
</svg>