<?xml version="1.0" encoding="utf-8"?>
<!-- Generator: Adobe Illustrator 28.0.0, SVG Export Plug-In . SVG Version: 6.00 Build 0)  -->
<svg version="1.1" id="Layer_1" xmlns="http://www.w3.org/2000/svg" xmlns:xlink="http://www.w3.org/1999/xlink" x="0px" y="0px"
	 viewBox="0 0 50.5 43.8" style="enable-background:new 0 0 50.5 43.8;" xml:space="preserve">
<style type="text/css">
	.st0{fill:#FFFFFF;}
</style>
<g id="ZX4B2X.tif">
	<g>
		<path class="st0" d="M42.2,25c-8.3,3.4-16.5,6.8-24.8,10.2c-0.2-0.1-0.4-0.2-0.5-0.4c-0.6-1.5-1.2-2.9-1.8-4.4
			c-0.1-0.3-0.1-0.5,0.3-0.7c0.9-0.5,1.3-1.4,0.9-2.3c-0.4-0.9-1.3-1.4-2.3-1c-0.4,0.1-0.5,0-0.7-0.3c-0.6-1.5-1.2-2.9-1.8-4.4
			c-0.1-0.3-0.1-0.5,0.2-0.7c1.9-1.1,3.7-2.2,5.6-3.3c1.8-1.1,3.6-2.1,5.4-3.2c2.1-1.2,4.2-2.5,6.3-3.7c1.3-0.8,2.6-1.5,3.9-2.3
			c0.4-0.2,0.6-0.2,0.8,0.2c0.2,0.4,0.4,0.8,0.7,1.1c0.3,0.5,0.6,1,0.9,1.5c0,0,0.1,0,0.1,0c0.3-0.1,0.5-0.2,0.8-0.3
			c0.4-0.2,0.6-0.1,0.7,0.3c0.6,1.4,1.2,2.9,1.8,4.4c0.2,0.4,0.1,0.5-0.3,0.7c-0.9,0.4-1.2,1.4-0.9,2.3c0.4,0.9,1.3,1.3,2.3,1
			c0.4-0.1,0.5,0,0.7,0.3c0.6,1.4,1.2,2.9,1.8,4.3C42.3,24.7,42.3,24.9,42.2,25L42.2,25z M14,25.6c0,0,0.1,0,0.1,0
			c1.3-0.2,2.4,0.4,2.9,1.6c0.5,1.1,0.1,2.4-0.9,3.1c-0.1,0.1-0.1,0.2-0.1,0.3c0.5,1.1,1,2.3,1.4,3.5c0,0.1,0.1,0.1,0.1,0.2
			c5.8-2.4,11.7-4.8,17.5-7.2c-0.1-0.3-0.3-0.7-0.4-1c-0.1-0.2,0-0.5,0.2-0.6s0.4,0,0.5,0.2c0.1,0.1,0.1,0.2,0.2,0.3
			c0.1,0.2,0.2,0.4,0.3,0.6l5.5-2.3c-0.5-1.3-1.1-2.6-1.6-3.9c-0.1,0-0.1,0-0.2,0c-1.3,0.2-2.3-0.4-2.8-1.6
			c-0.5-1.1-0.1-2.4,0.8-3.1c0.2-0.1,0.2-0.2,0.1-0.4c-0.5-1.1-0.9-2.3-1.4-3.4l-0.1-0.2l-5.5,2.3c0.1,0.3,0.2,0.5,0.3,0.7
			c0,0.1,0.1,0.2,0.1,0.2c0.1,0.2,0,0.5-0.2,0.6s-0.4,0-0.5-0.2c-0.1-0.3-0.3-0.6-0.4-1c-5.9,2.4-11.7,4.8-17.5,7.2L14,25.6L14,25.6
			z M27.6,12.5c-3.5,2.1-7,4.2-10.5,6.3c0,0,0,0,0,0c5.8-2.4,11.6-4.8,17.4-7.1c-0.5-0.8-1-1.6-1.4-2.4c-1.6,0.9-3.2,1.9-4.8,2.8
			c0.2,0.3,0.3,0.6,0.5,0.8c0.2,0.3,0.1,0.5-0.1,0.6c-0.2,0.1-0.5,0.1-0.6-0.2C27.9,13.1,27.8,12.8,27.6,12.5L27.6,12.5z"/>
		<path class="st0" d="M23.4,23.6c-1.5,0.6-3,1.2-4.4,1.8c-0.1,0-0.2,0.1-0.3,0.1c-0.2,0-0.4-0.1-0.4-0.3c-0.1-0.2,0-0.4,0.1-0.5
			c0.1-0.1,0.2-0.1,0.3-0.1c3-1.2,5.9-2.4,8.9-3.6c0,0,0.1,0,0.1,0c0.3-0.1,0.5,0,0.6,0.2c0.1,0.2,0,0.5-0.3,0.6
			C26.4,22.4,24.9,23,23.4,23.6L23.4,23.6z"/>
		<path class="st0" d="M25,27.6c1.5-0.6,3-1.2,4.5-1.8c0.1,0,0.3-0.1,0.4-0.1c0.1,0,0.3,0.2,0.3,0.3c0,0.1,0,0.3-0.1,0.4
			c-0.1,0.1-0.2,0.1-0.3,0.2c-3,1.2-5.9,2.4-8.9,3.6c0,0-0.1,0-0.1,0c-0.3,0.1-0.5,0-0.6-0.2c-0.1-0.2,0-0.5,0.3-0.6
			C22,28.8,23.5,28.2,25,27.6L25,27.6z"/>
		<path class="st0" d="M24,25.2c1.5-0.6,3-1.2,4.4-1.8c0.1,0,0.2-0.1,0.2-0.1c0.2-0.1,0.4,0,0.5,0.2s0,0.4-0.2,0.5
			c-0.1,0-0.2,0.1-0.2,0.1c-3,1.2-5.9,2.4-8.9,3.6c0,0-0.1,0-0.1,0c-0.3,0.1-0.5,0-0.6-0.2c-0.1-0.2,0-0.4,0.3-0.5
			c0.2-0.1,0.3-0.1,0.5-0.2C21.3,26.3,22.7,25.8,24,25.2L24,25.2z"/>
		<path class="st0" d="M20.1,22.2c-0.7,0.3-1.5,0.6-2.2,0.9c-0.3,0.1-0.5,0.1-0.6-0.2c-0.1-0.2,0-0.5,0.3-0.6c1.5-0.6,3-1.2,4.4-1.8
			c0.3-0.1,0.5-0.1,0.6,0.2c0.1,0.2,0,0.4-0.3,0.6C21.5,21.6,20.8,21.9,20.1,22.2L20.1,22.2z"/>
		<path class="st0" d="M32.4,18.3c0.2,0.4,0.3,0.7,0.5,1.1c0.1,0.3,0.1,0.5-0.2,0.6c-0.2,0.1-0.5,0-0.6-0.3
			c-0.3-0.8-0.6-1.5-0.9-2.2c-0.1-0.3,0-0.5,0.2-0.6c0.2-0.1,0.5,0,0.6,0.3C32.1,17.5,32.2,17.9,32.4,18.3z"/>
		<path class="st0" d="M33.4,23c-0.2-0.4-0.3-0.7-0.5-1.1c-0.1-0.3,0-0.6,0.2-0.7c0.2-0.1,0.5,0,0.6,0.3c0.3,0.8,0.6,1.5,0.9,2.3
			c0.1,0.3,0,0.5-0.2,0.6c-0.2,0.1-0.5,0-0.6-0.3C33.7,23.7,33.6,23.3,33.4,23L33.4,23z"/>
	</g>
</g>
</svg>
