<?xml version="1.0" encoding="utf-8"?>
<!-- Generator: Adobe Illustrator 27.0.1, SVG Export Plug-In . SVG Version: 6.00 Build 0)  -->
<svg version="1.1" id="Layer_1" xmlns="http://www.w3.org/2000/svg" xmlns:xlink="http://www.w3.org/1999/xlink" x="0px" y="0px"
	 viewBox="0 0 189.1 195.9" style="enable-background:new 0 0 189.1 195.9;" xml:space="preserve">
<style type="text/css">
	.st0{fill:#4B647D;}
</style>
<g id="_x39_H1f2t.tif_00000164509835744179928020000011173589908655469731_">
	<g>
		<g>
			<path class="st0" d="M7.7,169c0-47.4,0-94.8,0-142.2c0.1-0.2,0.1-0.5,0.2-0.7C9.3,15.6,17.9,7.9,28.6,7.9c44,0,88,0,132,0
				c1.5,0,3,0.1,4.5,0.5c9.8,2.2,16.4,10.5,16.4,20.5c0,19.7,0,39.4,0,59c0,26.3,0,52.6,0,79c0,9.3-5.7,17.1-14.5,20
				c-1.4,0.5-3,0.7-4.5,1c-45.3,0-90.6,0-135.9,0c-0.2-0.1-0.4-0.1-0.6-0.2c-8.5-1.3-14.2-6-17.2-14.1C8.2,172.2,8,170.6,7.7,169z
				 M18,98c0,8,0,15.9,0,23.9c0,14.9,0,29.8,0,44.6c0,3,0.8,5.7,2.9,7.9c2.3,2.4,5.1,3.3,8.4,3.2c12.4,0,24.9,0,37.3,0
				c31,0,62,0,93,0c1.8,0,3.6-0.1,5.3-1c4.2-2.1,6.1-5.5,6.1-10.1c0-26.2,0-52.5,0-78.7c0-19.4,0-38.8,0-58.2c0-1.8-0.1-3.5-0.9-5.1
				c-2.1-4.1-5.4-6.1-10-6.1c-24.5,0-48.9,0-73.4,0c-19.1,0-38.3,0-57.4,0c-2.1,0-4.2,0.3-6.1,1.4C19.7,22,18,25.2,18,29.4
				C18,52.2,18,75.1,18,98z"/>
			<path class="st0" d="M81.4,130.5c0,12.1-9.9,22.1-22.1,22.1c-12.2,0-22.1-9.9-22.1-22c0-12.2,9.9-22.1,22.1-22.1
				C71.5,108.5,81.4,118.3,81.4,130.5z M45.1,130.5c0,7.8,6.4,14.3,14.2,14.3c7.8,0,14.3-6.4,14.3-14.2c0-7.8-6.4-14.3-14.2-14.4
				C51.6,116.2,45.1,122.7,45.1,130.5z"/>
			<path class="st0" d="M57.5,82.5c-0.3,0-0.7,0-1,0c-0.2,0-0.3-0.1-0.5-0.2c-6.3-6.3-12.6-12.6-18.9-19c0,0,0-0.1,0,0
				c1.8-1.9,3.6-3.7,5.4-5.5c4.7,4.7,9.5,9.5,14.4,14.4c10.1-10.1,20.1-20.1,30-30c1.9,1.9,3.7,3.7,5.5,5.4
				C80.8,59.3,69.1,70.9,57.5,82.5z"/>
			<path class="st0" d="M97,62.4c0-2.5,0-5.1,0-7.7c18.9,0,37.8,0,56.8,0c0,2.5,0,5.1,0,7.7C134.9,62.4,116,62.4,97,62.4z"/>
			<path class="st0" d="M97.1,126.9c0-2.6,0-5.1,0-7.7c19,0,37.8,0,56.8,0c0,2.6,0,5.1,0,7.7C134.9,126.9,116,126.9,97.1,126.9z"/>
			<path class="st0" d="M146.1,70.3c0,2.7,0,5.2,0,7.8c-16.4,0-32.6,0-49.1,0c0-0.6,0-1.2,0-1.8c0-1.7,0-3.4,0-5.1
				c0-0.6,0.2-0.9,0.8-0.8c0.1,0,0.2,0,0.4,0c15.6,0,31.2,0,46.8,0C145.3,70.3,145.6,70.3,146.1,70.3z"/>
			<path class="st0" d="M97.1,142.4c0-2.6,0-5.1,0-7.7c13.7,0,27.3,0,40.9,0c0,2.5,0,5.1,0,7.7C124.4,142.4,110.8,142.4,97.1,142.4z
				"/>
		</g>
	</g>
</g>
</svg>
