<?xml version="1.0" encoding="UTF-8"?>
<svg id="Layer_1" data-name="Layer 1" xmlns="http://www.w3.org/2000/svg" viewBox="0 0 384 378.34">
  <defs>
    <style>
      .cls-1 {
        fill: #ef4136;
        stroke-width: 0px;
      }
    </style>
  </defs>
  <g>
    <path class="cls-1" d="m223.85,90.82c1.32.58,2.76.99,3.95,1.78,2.9,1.92,4.12,4.79,4.12,8.23-.01,5.18,0,10.37,0,15.55,0,.78,0,1.57,0,2.54,1.07,0,1.86,0,2.65,0,11.46,0,22.91-.05,34.37.02,6.79.04,11.29,6.27,9.16,12.47-1.35,3.92-4.8,6.27-9.29,6.27-34.08,0-68.15,0-102.23,0-14.67,0-29.34-.17-44,.09-5.76.1-9.9-1.6-12.13-7.09v-4.38c1.94-5.54,5.95-7.54,11.67-7.44,10.79.2,21.58.06,32.37.06h2.63c0-.99,0-1.77,0-2.56,0-5.18.01-10.36,0-15.54,0-3.44,1.2-6.31,4.12-8.21,1.19-.78,2.62-1.2,3.94-1.79,19.56,0,39.11,0,58.67,0Zm-47.87,28h37.04v-9.04h-37.04v9.04Z"/>
    <path class="cls-1" d="m119.72,209.06c0-17.3,0-34.6,0-51.9,0-5.28,2.86-8.94,7.7-9.99,5.32-1.15,10.76,3.02,11.04,8.47.04.8.02,1.61.02,2.41,0,33.65,0,67.3,0,100.95,0,11.14,7.71,18.86,18.83,18.86,24.81,0,49.61,0,74.42,0,11.13,0,18.85-7.71,18.85-18.84,0-34.16,0-68.32,0-102.48,0-4.33,2.59-7.92,6.5-9.12,3.99-1.23,8.38.17,10.51,3.76.96,1.62,1.66,3.67,1.66,5.53.1,34.74.21,69.49.01,104.23-.1,18.07-14.37,33.37-32.3,35.33-1.95.21-3.92.34-5.89.34-24.88.02-49.76.23-74.63-.06-15.37-.18-26.58-7.6-33.38-21.45-2.35-4.78-3.33-9.93-3.34-15.24-.02-16.93,0-33.87,0-50.8Z"/>
    <path class="cls-1" d="m166.51,207.65c0-10.65,0-21.31,0-31.96,0-5.82,3.87-9.95,9.29-9.96,5.44,0,9.45,4.11,9.45,9.87.03,21.45.02,42.91,0,64.36,0,5.11-3.32,9.13-7.95,9.8-4.81.7-9.23-2.18-10.49-6.9-.26-.97-.29-2.01-.29-3.02-.02-10.73-.01-21.45-.01-32.18Z"/>
    <path class="cls-1" d="m222.53,207.76c0,10.73,0,21.45,0,32.18,0,5.68-3.86,9.82-9.16,9.87-5.47.05-9.57-4.04-9.58-9.74-.03-21.53-.03-43.05,0-64.58,0-5.71,4.09-9.8,9.56-9.76,5.31.04,9.17,4.17,9.18,9.85.01,10.73,0,21.45,0,32.18Z"/>
  </g>
  <g id="nqqLq9">
    <path class="cls-1" d="m22.97,193.13c-.12-92.27,75.48-168.37,167.35-168.48,94.94-.11,170.56,74.47,170.72,168.38.16,94.31-75.13,169.72-169.43,169.68-93.69-.04-168.52-75.28-168.64-169.59Zm323.26,1.06c.02-84.89-69.12-154.66-153.33-154.72-85.23-.05-155.11,68.82-155.12,152.88,0,86.09,68.71,155.43,154.13,155.55,84.56.11,154.29-69.34,154.31-153.71Z"/>
  </g>
</svg>