<svg id="eL3AHslNmQw1" xmlns="http://www.w3.org/2000/svg" xmlns:xlink="http://www.w3.org/1999/xlink" viewBox="0 0 85.9 85.9" shape-rendering="geometricPrecision" text-rendering="geometricPrecision">
<style><![CDATA[
#eL3AHslNmQw3_tr {animation: eL3AHslNmQw3_tr__tr 10000ms linear infinite normal forwards}@keyframes eL3AHslNmQw3_tr__tr { 0% {transform: translate(42.949999px,42.549999px) rotate(0deg)} 100% {transform: translate(42.949999px,42.549999px) rotate(360deg)}} #eL3AHslNmQw6_tr {animation: eL3AHslNmQw6_tr__tr 10000ms linear infinite normal forwards}@keyframes eL3AHslNmQw6_tr__tr { 0% {transform: translate(43.419962px,42.95px) rotate(0.58645deg)} 100% {transform: translate(43.419962px,42.95px) rotate(360.58645deg)}}
]]></style>
<circle r="42.9" transform="translate(42.9 42.9)" fill="#5c749c"/><g id="eL3AHslNmQw3_tr" transform="translate(42.949999,42.549999) rotate(0)"><g transform="translate(-42.949999,-42.549999)"><path d="M44.1,42c0-.3,0-.6,0-.8c0-1.3,0-4.5,0-5.8s-1-2.2-2.3-2.3c-1.3,0-2.3.9-2.3,2.2c0,2.3,0,6.4,0,8.7c0,1.3.9,2.2,2.3,2.2c2.3,0,4.6,0,6.9,0c1,0,1.7-.5,2.1-1.4.6-1.5-.5-2.9-2.2-2.9-1.5.1-2.9.1-4.5.1v0Z" fill="#f5f5f5"/><path d="M43,60.6c-4.8,0-9.3-1.9-12.8-5.3-3.4-3.4-5.3-8-5.3-12.8c0-9.9,8.1-18,18-18c0,0,0,0,0,0c4.8,0,9.4,1.9,12.8,5.3s5.3,7.9,5.3,12.8v0c0,4.8-1.9,9.3-5.3,12.8s-7.8,5.2-12.7,5.2v0v0Zm0-34c-8.8,0-15.9,7.2-16,16c0,4.3,1.6,8.3,4.7,11.3c3,3,7,4.7,11.3,4.7v0c4.3,0,8.3-1.7,11.3-4.7s4.7-7,4.7-11.3v0c0-4.3-1.7-8.3-4.7-11.3s-7-4.7-11.3-4.7c0,0,0,0,0,0v0Z" fill="#f5f5f5"/></g></g><g id="eL3AHslNmQw6_tr" transform="translate(43.419962,42.95) rotate(0.58645)"><path d="M75.6,33.7c-1.5,2.3-2.9,4.5-4.4,6.8-.7,1.1-2,1.3-3.1.6-2-1.3-4.1-2.6-6.1-4-1.1-.7-1.3-2-.7-3.1.7-1,2-1.3,3.1-.6.4.2.7.4,1.2.8-.3-.7-.5-1.2-.7-1.7-4.1-8.9-13.2-14.4-23-14C30.5,19,20.8,27.6,19,38.9c-2.2,14.1,8.3,26,20.6,27.7c12.6,1.7,24-6.3,27-18.8.3-1.2,1-1.9,2-2c1.6-.2,2.9,1.2,2.5,2.8-1.7,7.6-5.7,13.7-12.2,18C43.2,77,22.3,70,15.9,52.3c-5-13.8,1.7-29.7,15.1-35.7c15.5-7,33.4.6,39.1,16.6.1.2.1.3.2.6.3-.5.6-.9.8-1.3.9-1.9,3.5-2.1,4.4.2l.1,1v0Z" transform="translate(-42.894509,-42.43102)" fill="#f5f5f5"/></g></svg>
