<?xml version="1.0" encoding="utf-8"?>
<!-- Generator: Adobe Illustrator 28.0.0, SVG Export Plug-In . SVG Version: 6.00 Build 0)  -->
<svg version="1.1" id="Layer_1" xmlns="http://www.w3.org/2000/svg" xmlns:xlink="http://www.w3.org/1999/xlink" x="0px" y="0px"
	 viewBox="0 0 50.5 43.8" style="enable-background:new 0 0 50.5 43.8;" xml:space="preserve">
<style type="text/css">
	.st0{fill:#FFFFFF;}
</style>
<g>
	<path class="st0" d="M30.3,33.2c-0.5,0-1-0.5-1-1v-2.3c0-2-1.6-3.6-3.6-3.6h-9.1c-2,0-3.6,1.6-3.6,3.6v2.3c0,0.5-0.4,1-1,1
		s-1-0.5-1-1v-2.3c0-3.1,2.5-5.6,5.6-5.6h9.1c3.1,0,5.6,2.5,5.6,5.6v2.3C31.3,32.7,30.9,33.2,30.3,33.2z"/>
	<path class="st0" d="M21.2,21.7c-3.1,0-5.6-2.5-5.6-5.6s2.5-5.6,5.6-5.6s5.6,2.5,5.6,5.6S24.2,21.7,21.2,21.7z M21.2,12.6
		c-2,0-3.6,1.6-3.6,3.6s1.6,3.6,3.6,3.6s3.6-1.6,3.6-3.6S23.1,12.6,21.2,12.6z"/>
	<path class="st0" d="M37.2,33.2c-0.5,0-1-0.5-1-1v-2.3c0-1.6-1.1-3-2.7-3.5c-0.5-0.1-0.9-0.7-0.7-1.2c0.1-0.5,0.7-0.9,1.2-0.7
		c2.5,0.6,4.2,2.9,4.2,5.4v2.3C38.2,32.7,37.7,33.2,37.2,33.2L37.2,33.2z"/>
	<path class="st0" d="M29.2,21.6c-0.5,0-0.9-0.3-1-0.8c-0.1-0.5,0.2-1.1,0.7-1.2c1.3-0.3,2.2-1.3,2.6-2.6c0.5-1.9-0.7-3.9-2.6-4.4
		c-0.5-0.1-0.9-0.7-0.7-1.2s0.7-0.9,1.2-0.7c3,0.8,4.8,3.8,4,6.8c-0.5,2-2,3.5-4,4C29.4,21.6,29.3,21.6,29.2,21.6L29.2,21.6z"/>
</g>
</svg>
