<?xml version="1.0" encoding="UTF-8"?><svg id="Layer_1" xmlns="http://www.w3.org/2000/svg" viewBox="0 0 99.09 99.09"><circle cx="49.54" cy="49.54" r="49.54" style="fill:#4b647d;"/><path d="M49.22,66c-9.52-.5-17.38-5.01-23.23-13.23-1.49-2.1-1.37-3.95,.07-6.1,11.63-17.41,36.2-17.37,47.71,.09,1.42,2.16,1.47,4-.04,6.09-5.89,8.17-13.66,12.83-24.5,13.14Zm12.19-25.58c1.77,8.36,.46,12.9-4.45,16.25-4.09,2.79-9.83,2.94-13.9,.14-5.79-3.98-6.76-9.54-4.54-16.45-4.17,2.29-7.17,5.05-9.41,8.6-.31,.49-.06,1.64,.34,2.21,10.45,14.75,30.5,14.69,40.89-.02,.39-.55,.58-1.71,.27-2.21-2.21-3.58-5.29-6.24-9.2-8.51Zm-19.88,5.54c.17,.23,.61,.81,1.05,1.4,.48-.56,1.28-1.06,1.4-1.69,.59-3.01,2.36-4.65,5.3-5.33,.61-.14,1.06-.96,1.58-1.47-.68-.32-1.36-.89-2.05-.9-3.56-.05-7.2,3.74-7.27,7.99Z" style="fill:#fff;"/></svg>