<?xml version="1.0" encoding="UTF-8"?>
<svg id="Layer_1" data-name="Layer 1" xmlns="http://www.w3.org/2000/svg" viewBox="0 0 116.79 118.41">
  <defs>
    <style>
      .cls-1 {
        fill: #37568e;
        stroke-width: 0px;
      }
    </style>
  </defs>
  <g id="PJ1c19">
    <g>
      <path class="cls-1" d="M53.38,103.06c-1.89-.5-3.79-.96-5.67-1.49-14.77-4.24-26.01-18.46-25.59-35.52.37-15.05,11.03-28.83,26.15-33.2.72-.21,2.19.08,1.96-1.27-.26-1.58,1.22-3.59-1.09-4.72-.84-.41-1.03-1.28-1.04-2.14-.02-1.93,0-3.85-.02-5.78-.01-1.14.56-1.92,1.44-2.54h16.95c.94.97,1.29,2.1,1.2,3.46-.11,1.6-.04,3.21-.02,4.81.01.82-.27,1.47-.84,2.06-.43.44-1.38.23-1.39,1.11-.02,1.35-.02,2.69.03,4.04.02.58.55.6.99.71,4,1.03,7.76,2.62,11.18,4.95.56.38.97.49,1.48-.08.59-.67,1.26-1.28,1.89-1.91.32-.32.64-.61.21-1.12-1.06-1.25-.41-2.2.57-3.13,1.16-1.1,2.27-2.26,3.41-3.39.89-.88,1.79-.91,2.68-.01,2.4,2.4,4.8,4.81,7.21,7.21.89.89.93,1.81.07,2.7-1.29,1.34-2.62,2.64-3.96,3.93-.67.64-1.47.79-2.29.31-1.92-1.1-2.02,1.12-3.01,1.69-1.12.64-.03,1.32.36,1.83,16.46,21.7,3.89,52.9-23.02,57.11-.36.06-.79-.07-.99.39h-8.86ZM24.41,67.13c-.45,18.34,15.02,33.59,33.2,33.74,17.87.15,33.64-14.33,33.86-33.2.21-18.5-14.9-33.79-33.12-33.95-19.22-.17-34.22,15.67-33.94,33.41ZM57.91,18.64c-.9,0-1.79,0-2.69,0-5.08,0-5.04,0-4.94,5.01.02,1.16.34,1.57,1.52,1.54,2.94-.07,5.89-.02,8.83-.02,5.1,0,5.07,0,4.77-5.21-.06-.99-.36-1.36-1.36-1.34-2.05.05-4.09.01-6.14.01ZM93.15,36.4c-.28-.33-.5-.64-.76-.91-1.08-1.1-2.17-2.18-3.26-3.27-2.8-2.8-2.77-2.78-5.41.17-.58.64-.53.97.05,1.53,1.62,1.55,3.16,3.19,4.78,4.74.45.43.88,1.53,1.6.96,1.11-.89,2.35-1.77,3-3.22ZM58.01,27.22c-1.41,0-2.81.03-4.22,0-1.68-.05-1.19,1.2-1.16,2.02.03.86-.63,2.22,1.18,2.2,2.75-.02,5.5-.03,8.24,0,1.97.03,1.16-1.43,1.25-2.33.09-.89.35-2.02-1.27-1.91-1.34.09-2.68.02-4.03.02ZM86.37,39.89c0-.48-2.8-3.22-3.2-3.04-1.13.5-1.85,1.5-2.61,2.43-.14.17,2.83,3.13,3.15,3.17.4.05,2.66-2.12,2.66-2.56Z"/>
      <path class="cls-1" d="M28.7,67.21c-.06-16.16,13.08-29.34,29.41-29.18,15.89.16,28.96,12.62,29.03,29.27.06,16.65-13.5,29.03-28.82,29.26-16.25.25-30.01-13.28-29.62-29.35ZM82.03,68.4c-.58,0-1.16-.01-1.73,0-.81.02-1.73,0-1.78-.99-.06-1.12.91-1.22,1.79-1.22,1.22,0,2.44-.02,3.66,0,.77.02,1.01-.33.93-1.06-.37-3.27-1.13-6.42-2.55-9.41-.37-.77-.73-.92-1.45-.44-.85.56-1.77,1.04-2.66,1.54-.62.35-1.26.46-1.66-.27-.37-.68-.08-1.24.55-1.62.82-.49,1.63-1.04,2.5-1.43,1.09-.49.98-1.01.36-1.84-1.59-2.12-3.35-4.05-5.45-5.67q-2.13-1.66-3.45.63c-.26.44-.52.88-.78,1.33-.4.68-.93,1.13-1.72.64-.7-.44-.54-1.07-.18-1.68.49-.83.93-1.68,1.45-2.49.47-.73.5-1.17-.43-1.6-2.88-1.33-5.9-2.1-9.03-2.5-1.11-.14-1.5.28-1.43,1.37.07,1.09.02,2.18.01,3.27,0,.8-.06,1.7-1.09,1.72-1.05.02-1.09-.85-1.07-1.67.02-1.22-.03-2.44.02-3.66.03-.86-.32-1.13-1.14-1.05-3.28.33-6.42,1.11-9.41,2.53-.74.35-.92.74-.45,1.47.59.92,1.11,1.88,1.61,2.84.3.58.25,1.14-.37,1.49-.61.34-1.12.13-1.47-.44-.53-.88-1.08-1.75-1.54-2.66-.47-.92-.96-.96-1.77-.37-2.04,1.48-3.88,3.16-5.45,5.12q-2,2.48.68,4.02c.33.19.67.38,1,.58.64.41,1.17.89.65,1.71-.45.71-1.1.53-1.69.2-.84-.46-1.7-.91-2.49-1.46-.89-.62-1.28-.34-1.69.58-1.22,2.78-2.04,5.64-2.37,8.67-.15,1.34.32,1.7,1.55,1.63,1.21-.06,2.44-.02,3.65.04.62.03,1.12.37,1.09,1.1-.03.71-.51,1.01-1.15,1.03-1.09.03-2.19.12-3.27,0-1.73-.21-2.02.5-1.82,2.07.38,2.89,1.19,5.62,2.32,8.29.47,1.11.95,1.08,1.81.48.73-.51,1.55-.9,2.33-1.33.68-.38,1.36-.54,1.81.29.4.75-.1,1.2-.68,1.55-.71.43-1.41.89-2.17,1.24-1.09.52-1.4,1.04-.55,2.14,1.66,2.14,3.53,4.04,5.61,5.78,1.38,1.15,2.32,1.37,3.04-.57.24-.65.68-1.23,1.06-1.82.33-.51.76-.93,1.43-.56.69.38.78.98.42,1.64-.52.95-1.04,1.92-1.64,2.83-.49.74-.25,1.08.48,1.41,2.94,1.34,5.99,2.22,9.23,2.47.98.07,1.42-.15,1.36-1.22-.07-1.21,0-2.44-.02-3.66,0-.7.13-1.34.96-1.39.96-.06,1.15.66,1.17,1.41.03,1.15.07,2.31,0,3.46-.06,1.09.33,1.46,1.45,1.37,3.17-.26,6.14-1.17,9.04-2.44.93-.4.9-.86.42-1.6-.56-.86-1.01-1.78-1.54-2.66-.41-.7-.21-1.25.43-1.62.68-.4,1.11.1,1.42.58.53.8,1.03,1.63,1.44,2.49.48,1.02,1,1.07,1.89.41,2.28-1.7,4.24-3.69,6.06-5.87,1.2-1.43.96-2.18-.67-2.84-.65-.26-1.22-.7-1.83-1.06-.65-.39-.89-.96-.49-1.62.37-.6.99-.54,1.54-.25.91.48,1.81.97,2.67,1.52.78.5,1.18.4,1.58-.48,1.07-2.35,1.85-4.77,2.22-7.32q.44-3.09-2.58-3.09Z"/>
      <path class="cls-1" d="M54.63,66.96c.72-1.06-.27-1.62-.92-2.28-2.62-2.64-5.26-5.26-7.88-7.9-.56-.57-1.47-1.2-.55-2.06.84-.78,1.5-.03,2.1.57,2.58,2.59,5.19,5.15,7.75,7.76.75.77,1.44,1.21,2.64,1.12,1.96-.16,3.33,1.27,3.34,3.15,0,1.8-1.55,3.32-3.34,3.26-1.79-.07-3.21-1.64-3.14-3.61Z"/>
    </g>
  </g>
</svg>