<?xml version="1.0" encoding="utf-8"?>
<!-- Generator: Adobe Illustrator 28.0.0, SVG Export Plug-In . SVG Version: 6.00 Build 0)  -->
<svg version="1.1" id="Layer_1" xmlns="http://www.w3.org/2000/svg" xmlns:xlink="http://www.w3.org/1999/xlink" x="0px" y="0px"
	 viewBox="0 0 315.7 179.8" style="enable-background:new 0 0 315.7 179.8;" xml:space="preserve">
<style type="text/css">
	.st0{fill:none;stroke:#8D99A3;stroke-miterlimit:10;stroke-dasharray:5;}
	.st1{opacity:0.76;}
	.st2{fill:#61717C;}
</style>
<path class="st0" d="M283.8,160.6H31.8c-10.8,0-19.5-8.7-19.5-19.5V38.7c0-10.8,8.7-19.5,19.5-19.5h252.1c10.8,0,19.5,8.7,19.5,19.5
	v102.3C303.3,151.8,294.6,160.6,283.8,160.6z"/>
<g class="st1">
	<g>
		<g>
			<path class="st2" d="M75.8,117.5v-5.3h1.6v5.3c0,1.7,0.9,2.6,2.3,2.6c1.4,0,2.3-0.9,2.3-2.6v-5.3h1.6v5.3c0,2.8-1.6,4.2-4,4.2
				C77.3,121.6,75.8,120.2,75.8,117.5z"/>
			<path class="st2" d="M85.8,114.5h1.6v1.2c0.5-0.7,1.2-1.3,2.4-1.3c1.6,0,3.2,1.3,3.2,3.6v0c0,2.3-1.6,3.6-3.2,3.6
				c-1.2,0-1.9-0.6-2.4-1.2v3.2h-1.6V114.5z M91.4,118L91.4,118c0-1.4-0.9-2.3-2-2.3c-1.1,0-2,0.9-2,2.2v0c0,1.3,1,2.2,2,2.2
				C90.5,120.2,91.4,119.4,91.4,118z"/>
			<path class="st2" d="M94.7,111.8h1.6v9.7h-1.6V111.8z"/>
			<path class="st2" d="M98.1,118L98.1,118c0-2,1.6-3.7,3.7-3.7c2.1,0,3.7,1.6,3.7,3.6v0c0,2-1.6,3.6-3.8,3.6
				C99.6,121.6,98.1,120,98.1,118z M103.9,118L103.9,118c0-1.3-0.9-2.3-2.1-2.3c-1.3,0-2.1,1-2.1,2.2v0c0,1.2,0.9,2.2,2.1,2.2
				C103.1,120.2,103.9,119.2,103.9,118z"/>
			<path class="st2" d="M106.7,119.5L106.7,119.5c0-1.5,1.2-2.3,2.9-2.3c0.8,0,1.3,0.1,1.9,0.3v-0.2c0-1-0.6-1.5-1.7-1.5
				c-0.8,0-1.4,0.2-2,0.4l-0.4-1.3c0.8-0.3,1.5-0.6,2.6-0.6c1,0,1.8,0.3,2.3,0.8c0.5,0.5,0.8,1.2,0.8,2.2v4.2h-1.6v-0.9
				c-0.5,0.6-1.2,1-2.3,1C107.9,121.6,106.7,120.9,106.7,119.5z M111.5,119v-0.5c-0.4-0.2-1-0.3-1.6-0.3c-1,0-1.6,0.4-1.6,1.2v0
				c0,0.7,0.6,1.1,1.4,1.1C110.7,120.5,111.5,119.9,111.5,119z"/>
			<path class="st2" d="M114.6,118L114.6,118c0-2.3,1.6-3.7,3.2-3.7c1.2,0,1.9,0.6,2.4,1.2v-3.8h1.6v9.7h-1.6v-1.2
				c-0.5,0.7-1.2,1.3-2.4,1.3C116.2,121.6,114.6,120.3,114.6,118z M120.2,118L120.2,118c0-1.4-1-2.3-2-2.3c-1.1,0-2,0.8-2,2.2v0
				c0,1.4,0.9,2.2,2,2.2C119.3,120.2,120.2,119.3,120.2,118z"/>
			<path class="st2" d="M127.2,114.5h1.6l1.4,4.8l1.6-4.8h1.4l1.6,4.8l1.4-4.8h1.6l-2.3,7.1h-1.4l-1.6-4.8l-1.6,4.8h-1.4
				L127.2,114.5z"/>
			<path class="st2" d="M139.3,111.9h1.7v1.5h-1.7V111.9z M139.3,114.5h1.6v7h-1.6V114.5z"/>
			<path class="st2" d="M142.4,114.5h1.7l1.9,5.1l1.9-5.1h1.7l-2.9,7.1h-1.4L142.4,114.5z"/>
			<path class="st2" d="M150.1,118L150.1,118c0-2,1.4-3.7,3.4-3.7c2.2,0,3.4,1.8,3.4,3.8c0,0.1,0,0.3,0,0.5h-5.1
				c0.2,1.1,1,1.8,2,1.8c0.8,0,1.3-0.3,1.9-0.8l0.9,0.8c-0.7,0.8-1.6,1.3-2.9,1.3C151.7,121.6,150.1,120.2,150.1,118z M155.3,117.5
				c-0.1-1-0.7-1.8-1.8-1.8c-1,0-1.7,0.8-1.8,1.8H155.3z"/>
			<path class="st2" d="M158.5,114.5h1.6v1.6c0.4-1,1.2-1.8,2.5-1.7v1.7h-0.1c-1.4,0-2.4,0.9-2.4,2.8v2.7h-1.6V114.5z"/>
			<path class="st2" d="M167.6,118L167.6,118c0-2.3,1.6-3.7,3.2-3.7c1.2,0,1.9,0.6,2.4,1.2v-3.8h1.6v9.7h-1.6v-1.2
				c-0.5,0.7-1.2,1.3-2.4,1.3C169.2,121.6,167.6,120.3,167.6,118z M173.3,118L173.3,118c0-1.4-1-2.3-2-2.3c-1.1,0-2,0.8-2,2.2v0
				c0,1.4,0.9,2.2,2,2.2C172.3,120.2,173.3,119.3,173.3,118z"/>
			<path class="st2" d="M176.5,118L176.5,118c0-2,1.6-3.7,3.7-3.7c2.1,0,3.7,1.6,3.7,3.6v0c0,2-1.6,3.6-3.8,3.6
				C178.1,121.6,176.5,120,176.5,118z M182.3,118L182.3,118c0-1.3-0.9-2.3-2.1-2.3c-1.3,0-2.1,1-2.1,2.2v0c0,1.2,0.9,2.2,2.1,2.2
				C181.5,120.2,182.3,119.2,182.3,118z"/>
			<path class="st2" d="M185.2,118L185.2,118c0-2,1.5-3.7,3.6-3.7c1.3,0,2.1,0.5,2.8,1.2l-1,1.1c-0.5-0.5-1-0.9-1.8-0.9
				c-1.2,0-2,1-2,2.2v0c0,1.2,0.9,2.2,2.1,2.2c0.8,0,1.3-0.3,1.8-0.9l1,1c-0.7,0.8-1.5,1.3-2.9,1.3C186.7,121.6,185.2,120,185.2,118
				z"/>
			<path class="st2" d="M193.1,118.9v-4.5h1.6v4c0,1.1,0.5,1.7,1.5,1.7c0.9,0,1.6-0.6,1.6-1.7v-4h1.6v7h-1.6v-1.1
				c-0.5,0.7-1.1,1.2-2.2,1.2C194,121.6,193.1,120.6,193.1,118.9z"/>
			<path class="st2" d="M201.4,114.5h1.6v1.1c0.5-0.6,1.1-1.2,2.1-1.2c1,0,1.7,0.5,2.1,1.2c0.6-0.7,1.3-1.2,2.4-1.2
				c1.5,0,2.5,1,2.5,2.7v4.5h-1.6v-4c0-1.1-0.5-1.7-1.4-1.7c-0.9,0-1.5,0.6-1.5,1.7v4h-1.6v-4c0-1.1-0.5-1.7-1.4-1.7
				s-1.5,0.7-1.5,1.7v4h-1.6V114.5z"/>
			<path class="st2" d="M213.6,118L213.6,118c0-2,1.4-3.7,3.4-3.7c2.2,0,3.4,1.8,3.4,3.8c0,0.1,0,0.3,0,0.5h-5.1
				c0.2,1.1,1,1.8,2,1.8c0.8,0,1.3-0.3,1.9-0.8l0.9,0.8c-0.7,0.8-1.6,1.3-2.9,1.3C215.1,121.6,213.6,120.2,213.6,118z M218.8,117.5
				c-0.1-1-0.7-1.8-1.8-1.8c-1,0-1.7,0.8-1.8,1.8H218.8z"/>
			<path class="st2" d="M222,114.5h1.6v1.1c0.5-0.7,1.1-1.2,2.2-1.2c1.6,0,2.5,1.1,2.5,2.7v4.5h-1.6v-4c0-1.1-0.5-1.7-1.5-1.7
				c-0.9,0-1.6,0.6-1.6,1.7v4H222V114.5z"/>
			<path class="st2" d="M230.5,119.6v-3.7h-0.9v-1.4h0.9v-1.9h1.6v1.9h1.9v1.4h-1.9v3.4c0,0.6,0.3,0.9,0.9,0.9c0.4,0,0.7-0.1,1-0.2
				v1.3c-0.4,0.2-0.8,0.4-1.4,0.4C231.4,121.6,230.5,121.1,230.5,119.6z"/>
		</g>
	</g>
	<g id="_x31_XNxGt_00000133525836700085368990000002089787076877391273_">
		<g>
			<path class="st2" d="M135,84.1c0.8,0,1.5,0,2.4,0c0,0.4,0,0.7,0,1.1c0,1.3,0,2.7,0,4c0,1.4,0.5,1.8,2,1.6c0-2.1,0-4.2,0-6.3
				c0.5,0,0.9,0,1.5,0c0,2.1,0,4.2,0,6.4c0.4,0,0.7,0,1,0c7.3,0,14.7,0,22,0c1.4,0,1.8-0.3,1.8-1.8c0-3.5,0-7.1,0-10.6
				c0-0.7,0.2-1.3,0.7-1.8c0.5-0.5,1-1.2,1.7-1.9c0,0.4,0.1,0.7,0.1,0.9c0,4.5,0,9,0,13.5c0,2.7-1.4,4.1-4.2,4.1
				c-8.4,0-16.8,0-25.1,0c-2.3,0-3.7-1.4-3.8-3.7c0-1,0-1.9,0-2.9C135,85.9,135,85.1,135,84.1z"/>
			<path class="st2" d="M173.9,66.6c0.3-0.1,0.7-0.2,1-0.1c0.8,0.1,1.1,1,0.5,1.7c-1.7,2-3.4,4-5.2,6c-0.4,0.5-1,0.5-1.5,0.1
				c-0.5-0.4-0.5-0.9-0.1-1.4c0.1-0.2,0.3-0.4,0.3-0.7c-0.3,0.2-0.6,0.4-0.9,0.7c-2.8,3.2-5.4,6.4-8.3,9.5c-0.9,1-2.1,1.7-3.3,2.5
				c-0.6,0.5-1.3,0.9-2,1.2c-0.3,0.2-0.9,0.2-1.1,0c-0.2-0.2-0.2-0.8-0.1-1.1c1.2-2.9,2.6-5.6,4.9-8c2.1-2.2,4-4.5,5.9-6.9
				c1.9-2.2,3.6-4.6,5.5-6.8c1.4-1.6,3.7-1.3,4.5,0.5C174.6,64.7,174.5,65.3,173.9,66.6z M172.3,70.5c0.6-0.7,1.2-1.4,1.8-2.1
				c-0.6,0-1.7-0.7-1.6-1.1c0-0.4,0.4-0.7,0.6-1.1c0,0,0,0,0-0.1c0.7-0.8,0.6-1.7-0.1-2.4c-0.7-0.7-1.7-0.6-2.5,0.1
				c-0.4,0.4-0.8,0.9-1.2,1.4c-1.1,1.3-2.2,2.5-3.3,3.8c0.9,0.8,1.7,1.5,2.6,2.2c0.9-1,1.7-1.9,2.5-2.9c0.4-0.5,0.8-0.4,1.2,0
				C172.9,69,172.6,69.7,172.3,70.5z M154.4,84.8c0,0.1,0.1,0.1,0.1,0.2c0.6-0.4,1.2-0.7,1.9-1.2c-0.4-0.3-0.7-0.6-1.1-0.9
				C155,83.5,154.7,84.1,154.4,84.8z"/>
			<path class="st2" d="M140.9,62.5c-0.6,0-1,0-1.5,0c0-2.1,0-4.2,0-6.3c-1.6-0.2-2,0.2-2,1.6c0,1.7,0,3.3,0,5c-0.8,0-1.5,0-2.3,0
				c0-0.2-0.1-0.3-0.1-0.5c0-1.7,0-3.3,0-5c0-2.3,1.5-3.7,3.8-3.7c8.5,0,17,0,25.5,0c2.3,0,3.8,1.5,3.8,3.8c0,1.8,0,3.5,0,5.3
				c0,0.4-0.2,0.8-0.4,1c-0.6,0.8-1.2,1.4-2,2.3c0-0.4-0.1-0.6-0.1-0.8c0-2.5,0-5,0-7.6c0-1.2-0.4-1.6-1.5-1.6c-7.4,0-14.8,0-22.3,0
				c-0.8,0-0.9,0.3-0.9,1C140.9,58.8,140.9,60.6,140.9,62.5z"/>
			<path class="st2" d="M163.2,69.4c-0.5,0.9-1.1,1.2-2.1,1.2c-5.5-0.1-10.9,0-16.4,0c-0.2,0-0.4,0.1-0.6,0
				c-0.3-0.2-0.5-0.4-0.7-0.7c0.3-0.2,0.5-0.5,0.8-0.5c6.3,0,12.5,0,18.8,0C163,69.3,163.1,69.4,163.2,69.4z"/>
			<path class="st2" d="M153.4,61.7c2.8,0,5.7,0,8.5,0c0.3,0,0.5-0.1,0.7,0c0.2,0.1,0.4,0.3,0.6,0.5c-0.2,0.2-0.4,0.5-0.6,0.6
				c-0.2,0.1-0.4,0-0.7,0c-5.8,0-11.6,0-17.4,0c-0.2,0-0.4,0.1-0.5,0c-0.3-0.2-0.5-0.4-0.7-0.6c0.2-0.2,0.5-0.5,0.7-0.5
				c0.7-0.1,1.4,0,2.1,0C148.6,61.7,151,61.7,153.4,61.7z"/>
			<path class="st2" d="M136.3,72.7c0.4,0,0.8,0,1.3,0c0.5,0,1,0,1.4-0.5c0.6-0.7,1.8-0.5,2.4,0.1c0.6,0.7,0.6,1.7,0,2.4
				c-0.6,0.6-1.7,0.8-2.4,0.1c-0.5-0.5-0.9-0.5-1.5-0.5c-0.9,0-1.8,0-2.8,0c-0.6,0-1.2-0.1-1.2-0.8c0-0.7,0.5-0.8,1.1-0.8
				C135.3,72.7,135.8,72.7,136.3,72.7z"/>
			<path class="st2" d="M136.3,64.3c0.4,0,0.9,0,1.3,0c0.5,0,0.9-0.1,1.3-0.5c0.7-0.7,1.7-0.6,2.4,0.1c0.7,0.7,0.7,1.7,0,2.4
				c-0.7,0.7-1.7,0.7-2.4,0.1c-0.3-0.2-0.7-0.4-1.1-0.4c-1-0.1-2,0-2.9,0c-0.3,0-0.6,0-0.8-0.1c-0.2-0.2-0.5-0.5-0.5-0.8
				c0.1-0.3,0.4-0.6,0.7-0.7C134.9,64.2,135.6,64.3,136.3,64.3C136.3,64.3,136.3,64.3,136.3,64.3z"/>
			<path class="st2" d="M136.4,81.1c0.4,0,0.8,0,1.3,0c0.5,0,1,0,1.4-0.5c0.6-0.7,1.7-0.5,2.3,0.1c0.7,0.7,0.6,1.8,0,2.4
				c-0.6,0.6-1.7,0.7-2.3,0.1c-0.5-0.5-1-0.6-1.6-0.5c-1,0-2,0-2.9,0c-0.5,0-0.9-0.2-0.9-0.7c0-0.5,0.3-0.8,0.8-0.8
				C135.1,81.1,135.7,81.2,136.4,81.1C136.4,81.1,136.4,81.1,136.4,81.1z"/>
			<path class="st2" d="M156.6,77c-0.5,0.9-1.1,1.2-2,1.2c-3.3-0.1-6.6,0-9.9,0c-0.3,0-0.5,0.1-0.7,0c-0.2-0.1-0.5-0.4-0.5-0.6
				c0-0.1,0.3-0.4,0.5-0.5c0.1-0.1,0.3,0,0.4,0c3.9,0,7.7,0,11.6,0C156.1,77,156.3,77,156.6,77z"/>
			<path class="st2" d="M152.1,85.2c0.1,0.4,0.1,0.6,0.2,1c-1.5,0-3,0-4.5,0c-0.1,0-0.2,0-0.2,0c-0.5-0.9-0.9-0.8-1.4,0
				c-0.2-0.2-0.6-0.3-0.7-0.5c-0.1-0.4,0-0.8,0-1.2c0-0.4-0.2-0.7-0.3-1c-0.1,0-0.2,0-0.3,0c-0.1,0.4-0.3,0.8-0.4,1.2
				c-0.1,0.3,0,0.6,0,0.9c-0.1,0.2-0.3,0.4-0.5,0.6c-0.2-0.2-0.5-0.4-0.5-0.5c0-0.7,0-1.5,0.2-2.2c0.1-0.6,0.6-1,1.3-1
				c0.7,0,1.1,0.4,1.3,1c0.1,0.3,0.2,0.6,0.4,0.7c0.6,0.3,1.2,0.7,1.8,1c0.2,0.1,0.4,0.1,0.7,0.1C150.1,85.2,151,85.2,152.1,85.2z"
				/>
			<path class="st2" d="M135,67.1c0.8,0,1.5,0,2.2,0c0,1.4,0,2.8,0,4.3c-0.7,0-1.4,0-2.2,0C135,70,135,68.6,135,67.1z"/>
			<path class="st2" d="M137.3,79.8c-0.8,0-1.5,0-2.3,0c0-1.4,0-2.8,0-4.2c0.8,0,1.5,0,2.3,0C137.3,77,137.3,78.4,137.3,79.8z"/>
			<path class="st2" d="M140.8,70.9c-0.5,0-0.9,0-1.4,0c0-1.1,0-2.2,0-3.4c0.4,0,0.9,0,1.4,0C140.8,68.6,140.8,69.8,140.8,70.9z"/>
			<path class="st2" d="M139.4,76.1c0.5,0,0.9,0,1.4,0c0,1.1,0,2.2,0,3.4c-0.4,0-0.9,0-1.4,0C139.4,78.4,139.4,77.3,139.4,76.1z"/>
		</g>
	</g>
</g>
</svg>
