<?xml version="1.0" encoding="UTF-8"?><svg id="Layer_1" xmlns="http://www.w3.org/2000/svg" viewBox="0 0 48.98 45.48"><path d="M14.63,19.49V5.17c0-.39,.32-.7,.7-.7h17.73c.19,0,.37,.08,.5,.21l7.36,7.36c.14,.14,.21,.32,.21,.5v27.77c0,.39-.32,.7-.7,.7H15.33c-.39,0-.7-.32-.7-.7v-6.28h-6.09c-.39,0-.7-.32-.7-.7v-13.13c0-.39,.32-.7,.7-.7h6.09ZM33.77,6.87v5.35h5.35l-5.35-5.35Zm5.96,6.76h-6.64c-.39,0-.7-.32-.7-.7l-.02-7.05H16.04v13.62h14.24c.39,0,.7,.32,.7,.7v13.13c0,.39-.32,.7-.7,.7h-14.24v5.58h23.69V13.63h0Zm-10.16,7.27H9.25v11.72H29.57v-11.72Z" style="fill:#434d68;"/><path d="M11.2,29.86l2.14-3.23-1.94-2.97h1.46l1.22,1.85,1.22-1.85h1.47l-1.95,2.97,2.14,3.23h-1.5l-1.37-2.1-1.38,2.1h-1.51Z" style="fill:#434d68;"/><path d="M17.65,29.86v-6.15h1.26v5.1h3.11v1.05h-4.37Z" style="fill:#434d68;"/><path d="M22.58,27.85l1.22-.12c.07,.41,.22,.71,.44,.9,.22,.19,.53,.29,.9,.29,.4,0,.71-.08,.91-.25,.2-.17,.31-.37,.31-.6,0-.15-.04-.27-.13-.38-.09-.1-.24-.19-.45-.27-.15-.05-.48-.14-1-.27-.67-.17-1.14-.37-1.41-.62-.38-.34-.57-.76-.57-1.25,0-.32,.09-.61,.27-.89,.18-.28,.44-.49,.77-.63,.34-.14,.74-.22,1.22-.22,.78,0,1.36,.17,1.75,.52,.39,.34,.6,.8,.62,1.38l-1.26,.04c-.05-.32-.17-.55-.34-.69-.18-.14-.44-.21-.79-.21s-.64,.07-.85,.22c-.13,.1-.2,.23-.2,.39,0,.15,.06,.27,.19,.38,.16,.13,.54,.27,1.15,.42,.61,.14,1.06,.29,1.35,.45,.29,.16,.52,.37,.68,.63,.17,.27,.25,.6,.25,.99,0,.35-.1,.69-.3,1-.2,.31-.48,.54-.84,.69-.36,.15-.81,.23-1.35,.23-.78,0-1.39-.18-1.81-.54-.42-.36-.67-.89-.75-1.58h0Z" style="fill:#434d68;"/></svg>