<?xml version="1.0" standalone="no"?>
<!DOCTYPE svg PUBLIC "-//W3C//DTD SVG 1.1//EN" "http://www.w3.org/Graphics/SVG/1.1/DTD/svg11.dtd" >
<svg xmlns="http://www.w3.org/2000/svg" xmlns:xlink="http://www.w3.org/1999/xlink" version="1.1">
<metadata>
Created by FontForge 20170731 at Wed Jun  2 10:44:17 2021
 By Aleksey,,,
Copyright 2017 The Barlow Project Authors (https://github.com/jpt/barlow)
</metadata>
<defs>
<font id="Barlow-ExtraLight" horiz-adv-x="0" >
  <font-face 
    font-family="Barlow ExtraLight"
    font-weight="275"
    font-stretch="normal"
    units-per-em="2048"
    panose-1="0 0 3 0 0 0 0 0 0 0"
    ascent="1638"
    descent="-410"
    x-height="1028"
    cap-height="1434"
    bbox="-1174 -430 2241 2009"
    underline-thickness="102"
    underline-position="-307"
    unicode-range="U+000D-25CA"
  />
<missing-glyph horiz-adv-x="804" 
d="M0 8q0 -8 8 -8h789q8 0 8 8v1417q0 9 -8 9h-789q-8 0 -8 -9v-1417zM381 461q-21 0 -21 20v97q0 50 25.5 90.5t61.5 69t72 59t61.5 76t25.5 104.5q0 86 -52.5 138t-137.5 52q-86 0 -139.5 -51.5t-53.5 -136.5v-49q0 -21 -20 -21h-17q-9 0 -14.5 7t-5.5 16v47
q0 107 69.5 173.5t180.5 66.5t179.5 -67t68.5 -177q0 -58 -18 -105t-45 -75.5t-59 -56.5t-59 -49t-45 -50.5t-18 -63.5v-94q0 -20 -21 -20h-18zM395 188q-29 0 -49 20t-20 48t20.5 48t48.5 20q27 0 48.5 -20.5t21.5 -47.5t-21.5 -47.5t-48.5 -20.5z" />
    <glyph glyph-name="I_J.liga" unicode="IJ" horiz-adv-x="1703" 
d="M244 0q-21 0 -21 20v1393q0 9 6 15t15 6h39q20 0 20 -21v-1393q0 -20 -20 -20h-39zM1038 -16q-200 0 -321 112.5t-121 298.5v105q0 20 20 20h39q21 0 21 -20v-107q0 -153 99 -245.5t263 -92.5t264.5 93t100.5 245v1020q0 21 20 21h37q9 0 15 -6t6 -15v-1018
q0 -186 -121.5 -298.5t-321.5 -112.5z" />
    <glyph glyph-name="f_f_i.liga" unicode="ffi" horiz-adv-x="1873" 
d="M238 1110q0 81 13.5 138.5t46.5 101t91 64.5t143 20h50q20 0 20 -21v-24q0 -21 -20 -21h-50q-66 0 -109.5 -17t-66.5 -53t-32 -81t-9 -111v-70q0 -8 9 -8h258q20 0 20 -20v-29q0 -21 -20 -21h-258q-9 0 -9 -8v-930q0 -20 -20 -20h-37q-20 0 -20 20v930q0 8 -9 8h-131
q-20 0 -20 21v29q0 20 20 20h131q9 0 9 8v74zM924 1110q0 165 65 245t232 79h47q20 0 20 -21v-24q0 -21 -20 -21h-47q-127 0 -173.5 -64t-46.5 -198v-70q0 -8 9 -8h252q20 0 20 -20v-29q0 -21 -20 -21h-252q-9 0 -9 -8v-930q0 -20 -20 -20h-37q-20 0 -20 20v930q0 8 -9 8
h-151q-9 0 -15 6t-6 15v29q0 20 21 20h151q9 0 9 8v74zM1630 1405q35 0 57.5 -21.5t22.5 -54.5q0 -34 -22.5 -56t-57.5 -22t-58.5 22t-23.5 56q0 32 23.5 54t58.5 22zM1612 0q-21 0 -21 20v988q0 20 21 20h39q20 0 20 -20v-988q0 -20 -20 -20h-39z" />
    <glyph glyph-name="f_f_l.liga" unicode="ffl" horiz-adv-x="1843" 
d="M315 1106v-70q0 -8 9 -8h272q20 0 20 -20v-29q0 -21 -20 -21h-272q-9 0 -9 -8v-930q0 -20 -20 -20h-37q-20 0 -20 20v930q0 8 -9 8h-131q-20 0 -20 21v29q0 20 20 20h131q9 0 9 8v74q0 81 13.5 138.5t46.5 101t91 64.5t143 20h50q20 0 20 -21v-24q0 -21 -20 -21h-50
q-66 0 -109.5 -17t-66.5 -53t-32 -81t-9 -111zM924 1110q0 165 65 245t232 79h47q20 0 20 -21v-24q0 -21 -20 -21h-47q-127 0 -173.5 -64t-46.5 -198v-70q0 -8 9 -8h252q20 0 20 -20v-29q0 -21 -20 -21h-252q-9 0 -9 -8v-930q0 -20 -20 -20h-37q-20 0 -20 20v930q0 8 -9 8
h-151q-9 0 -15 6t-6 15v29q0 20 21 20h151q9 0 9 8v74zM1575 1413q0 21 20 21h39q9 0 15 -6t6 -15v-1393q0 -20 -21 -20h-39q-20 0 -20 20v1393z" />
    <glyph glyph-name="f_i.liga" unicode="fi" horiz-adv-x="1189" 
d="M240 1102q0 173 63.5 252.5t231.5 79.5h49q20 0 20 -21v-31q0 -20 -20 -20h-45q-128 0 -174 -62.5t-46 -199.5v-64q0 -8 9 -8h247q21 0 21 -20v-33q0 -9 -6 -15t-15 -6h-247q-9 0 -9 -8v-926q0 -20 -20 -20h-39q-20 0 -20 20v926q0 8 -9 8h-133q-20 0 -20 21v33
q0 20 20 20h133q9 0 9 8v66zM946 1405q35 0 57.5 -21.5t22.5 -52.5q0 -34 -22.5 -56t-57.5 -22t-58.5 22t-23.5 56q0 31 23.5 52.5t58.5 21.5zM926 0q-21 0 -21 20v988q0 20 21 20h39q20 0 20 -20v-988q0 -20 -20 -20h-39z" />
    <glyph glyph-name="f_l.liga" unicode="fl" horiz-adv-x="1159" 
d="M240 1102q0 173 63.5 252.5t231.5 79.5h49q20 0 20 -21v-31q0 -20 -20 -20h-45q-128 0 -174 -62.5t-46 -199.5v-64q0 -8 9 -8h247q21 0 21 -20v-33q0 -9 -6 -15t-15 -6h-247q-9 0 -9 -8v-926q0 -20 -20 -20h-39q-20 0 -20 20v926q0 8 -9 8h-133q-20 0 -20 21v33
q0 20 20 20h133q9 0 9 8v66zM891 1413q0 21 20 21h39q9 0 15 -6t6 -15v-1393q0 -20 -21 -20h-39q-20 0 -20 20v1393z" />
    <glyph glyph-name="g_j.liga" unicode="gj" horiz-adv-x="1548" 
d="M1319 1405q37 0 59.5 -20.5t22.5 -55.5t-22 -55.5t-60 -20.5q-36 0 -58 20.5t-22 55.5t22.5 55.5t57.5 20.5zM817 895q3 -6 6.5 -5t3.5 7v111q0 20 21 20h39q20 0 20 -20v-996q0 -435 -506 -420q-20 0 -20 21l2 35q0 20 20 20q220 -6 322 80t102 266v123q0 4 -1.5 5.5
t-4 0.5t-4.5 -4q-90 -151 -289 -151q-135 0 -231.5 72.5t-128.5 197.5q-23 85 -23 254q0 166 23 264q33 120 128 194t230 74q98 0 172.5 -39.5t118.5 -109.5zM1278 -131v1139q0 20 20 20h39q21 0 21 -20v-1139q0 -140 -77.5 -217t-219.5 -82q-21 0 -21 20v31q0 9 6 15t15 6
q101 5 159 64.5t58 162.5zM819 289q8 52 8 225q0 170 -8 227q-16 100 -91 166t-189 66q-113 0 -190 -65.5t-105 -166.5q-17 -70 -17 -225q0 -163 17 -225q24 -102 103 -168t192 -66q117 0 190.5 66.5t89.5 165.5z" />
    <glyph glyph-name="i_j.liga" unicode="ij" horiz-adv-x="946" 
d="M246 1253q-35 0 -58.5 22t-23.5 56q0 31 23.5 52.5t58.5 21.5t57.5 -21.5t22.5 -52.5q0 -34 -22.5 -56t-57.5 -22zM717 1251q-35 0 -57.5 21.5t-22.5 56.5t22.5 55.5t57.5 20.5q37 0 59.5 -20.5t22.5 -55.5q0 -36 -22 -57t-60 -21zM225 0q-20 0 -20 20v988q0 20 20 20h39
q21 0 21 -20v-988q0 -20 -21 -20h-39zM457 -430q-21 0 -21 20v31q0 9 6 15t15 6q106 4 162.5 63.5t56.5 163.5v1139q0 20 20 20h39q21 0 21 -20v-1137q0 -143 -76 -220t-223 -81z" />
    <glyph glyph-name="hyphen_hyphen.liga" unicode="&#x2d;&#x2d;" horiz-adv-x="1429" 
d="M111 596q-21 0 -21 20v31q0 9 6 15t15 6h1208q20 0 20 -21v-31q0 -20 -20 -20h-1208z" />
    <glyph glyph-name=".notdef" horiz-adv-x="804" 
d="M0 8q0 -8 8 -8h789q8 0 8 8v1417q0 9 -8 9h-789q-8 0 -8 -9v-1417zM381 461q-21 0 -21 20v97q0 50 25.5 90.5t61.5 69t72 59t61.5 76t25.5 104.5q0 86 -52.5 138t-137.5 52q-86 0 -139.5 -51.5t-53.5 -136.5v-49q0 -21 -20 -21h-17q-9 0 -14.5 7t-5.5 16v47
q0 107 69.5 173.5t180.5 66.5t179.5 -67t68.5 -177q0 -58 -18 -105t-45 -75.5t-59 -56.5t-59 -49t-45 -50.5t-18 -63.5v-94q0 -20 -21 -20h-18zM395 188q-29 0 -49 20t-20 48t20.5 48t48.5 20q27 0 48.5 -20.5t21.5 -47.5t-21.5 -47.5t-48.5 -20.5z" />
    <glyph glyph-name=".null" 
 />
    <glyph glyph-name="nonmarkingreturn" horiz-adv-x="682" 
 />
    <glyph glyph-name="CR" unicode="&#xd;" horiz-adv-x="409" 
 />
    <glyph glyph-name="space" unicode=" " horiz-adv-x="409" 
 />
    <glyph glyph-name="exclam" unicode="!" horiz-adv-x="638" 
d="M303 457q-20 0 -20 20l-4 936q0 21 20 21h39q20 0 20 -21l-4 -936q0 -20 -20 -20h-31zM313 8q-41 0 -69.5 28.5t-28.5 69.5q0 40 29 68.5t69 28.5t70.5 -29t30.5 -68q0 -41 -30.5 -69.5t-70.5 -28.5z" />
    <glyph glyph-name="quotedbl" unicode="&#x22;" horiz-adv-x="448" 
d="M104 1016q-20 0 -20 20l-10 363q0 20 20 20h45q21 0 21 -20l-10 -363q0 -20 -21 -20h-25zM319 1016q-20 0 -20 20l-8 363q0 20 20 20h43q21 0 21 -20l-8 -363q0 -20 -21 -20h-27z" />
    <glyph glyph-name="numbersign" unicode="#" horiz-adv-x="1325" 
d="M1151 924q0 -21 -21 -21h-153q-10 0 -10 -8l-60 -383q0 -8 6 -8h146q20 0 20 -21l-2 -30q0 -21 -20 -21h-154q-10 0 -10 -8l-59 -381q-3 -18 -21 -18l-39 2q-9 0 -14.5 6.5t-3.5 15.5l57 375q0 8 -6 8h-381q-10 0 -10 -8l-60 -381q-3 -18 -20 -18l-39 2q-9 0 -14.5 6.5
t-3.5 15.5l57 375q0 8 -6 8h-137q-9 0 -15 6t-6 15l2 30q0 21 21 21h145q10 0 10 8l58 383q0 8 -7 8h-135q-20 0 -20 21l2 30q0 21 20 21h146q10 0 10 8l59 383q3 18 21 18l39 -2q9 0 14.5 -6.5t3.5 -15.5l-57 -377q0 -8 6 -8h381q10 0 10 8l60 383q3 18 20 18l39 -2
q9 0 14.5 -6.5t3.5 -15.5l-57 -377q0 -8 6 -8h146q20 0 20 -21zM817 504q10 0 10 8l58 383q0 8 -6 8h-379q-11 0 -11 -8l-59 -383q0 -8 6 -8h381z" />
    <glyph glyph-name="dollar" unicode="$" horiz-adv-x="1112" 
d="M985 344q0 -158 -103.5 -256t-295.5 -104q-8 0 -8 -9v-131q0 -20 -21 -20h-25q-20 0 -20 20l2 133q0 9 -8 9q-174 15 -272.5 109.5t-98.5 244.5v78q0 20 21 20h34q21 0 21 -20v-66q0 -134 96 -215.5t264 -81.5q160 0 247 76t87 207q0 51 -17 93.5t-45 76t-82.5 71
t-109.5 68t-147 76.5q-58 29 -91 46t-75.5 42t-65.5 45t-49 48t-38 57t-20.5 66t-8.5 81q0 153 87.5 240.5t250.5 99.5q8 0 8 8v143q0 21 20 21h23q20 0 20 -21v-141q0 -8 8 -8q192 -6 296 -102.5t104 -257.5v-56q0 -20 -21 -20h-39q-20 0 -20 20v43q0 137 -91 219t-257 82
q-149 0 -229 -68.5t-80 -197.5q0 -63 18.5 -108t72 -85t97 -63t146.5 -70q17 -8 26 -12q206 -96 297.5 -191.5t91.5 -238.5z" />
    <glyph glyph-name="percent" unicode="%" horiz-adv-x="1757" 
d="M504 899q-117 0 -199 81.5t-82 197.5q0 115 82 195.5t199 80.5q115 0 196.5 -81t81.5 -195q0 -116 -81.5 -197.5t-196.5 -81.5zM473 0q-12 0 -16 7t2 18l776 1394q11 15 25 15h22q12 0 16 -7t-2 -18l-774 -1395q-7 -14 -24 -14h-25zM504 958q90 0 153.5 64.5t63.5 155.5
t-63 154t-154 63q-92 0 -155.5 -63t-63.5 -154q0 -92 63.5 -156t155.5 -64zM1257 -20q-117 0 -197.5 81t-80.5 197t80.5 196.5t197.5 80.5t198 -81.5t81 -195.5q0 -116 -81 -197t-198 -81zM1257 39q91 0 155.5 64t64.5 155q0 90 -64.5 153.5t-155.5 63.5t-155 -63t-64 -154
q0 -92 64 -155.5t155 -63.5z" />
    <glyph glyph-name="ampersand" unicode="&#x26;" horiz-adv-x="1314" 
d="M1167 25q9 -11 4.5 -18t-16.5 -7h-47q-16 0 -25 12l-141 170q-4 8 -12 0q-101 -107 -195 -152.5t-219 -45.5q-176 0 -279.5 82.5t-103.5 234.5q0 62 19 119.5t46 101t73.5 90t85 77.5t96.5 73q7 3 0 10q-125 156 -166 231.5t-41 149.5q0 134 85 215.5t224 81.5
q143 0 232.5 -78.5t89.5 -206.5q0 -53 -17.5 -103t-43 -88t-69.5 -80t-80.5 -70t-93.5 -68q-7 -4 0 -11q106 -134 211 -256q17 -21 70.5 -85t75.5 -93q6 -9 12 0q48 60 139 181q13 17 29 6l29 -19q17 -11 6 -28q-97 -133 -156 -199q-4 -8 10 -25q50 -62 102.5 -123.5
t65.5 -78.5zM559 1374q-106 0 -169.5 -58.5t-63.5 -162.5q0 -59 35.5 -123t152.5 -213q5 -5 12 -2q65 47 104.5 79.5t82.5 78t63.5 93t20.5 99.5q0 94 -66.5 151.5t-171.5 57.5zM526 55q105 1 185.5 44.5t169.5 142.5q6 6 0 12q-42 52 -76 93.5t-47 57.5t-23 28.5t-20 23.5
q-22 26 -96.5 115t-106.5 128q-3 6 -10 2q-54 -40 -88.5 -68t-76.5 -69t-66 -77.5t-40.5 -83.5t-17.5 -97q0 -121 84 -187.5t229 -64.5z" />
    <glyph glyph-name="quotesingle" unicode="'" horiz-adv-x="235" 
d="M104 1028q-20 0 -20 21l-10 358q0 20 20 20h47q21 0 21 -20l-10 -358q0 -21 -21 -21h-27z" />
    <glyph glyph-name="parenleft" unicode="(" horiz-adv-x="452" 
d="M213 -225q-17 0 -25 14q-90 151 -145 386t-55 484q0 255 57 497t150 396q9 15 24 15h33q12 0 16 -7.5t-2 -17.5q-83 -155 -134.5 -392.5t-51.5 -485.5q0 -245 51.5 -479t134.5 -386q6 -11 2 -17.5t-16 -6.5h-39z" />
    <glyph glyph-name="parenright" unicode=")" horiz-adv-x="452" 
d="M264 -211q-8 -14 -24 -14h-39q-12 0 -16.5 6.5t1.5 17.5q84 152 135.5 386.5t51.5 478.5q0 247 -51.5 484.5t-135.5 393.5q-6 10 -1.5 17.5t16.5 7.5h32q16 0 25 -15q93 -154 150 -396t57 -497q0 -248 -55 -483t-146 -387z" />
    <glyph glyph-name="asterisk" unicode="*" horiz-adv-x="811" 
d="M395 805q-20 0 -20 20v279q0 4 -3.5 6t-6.5 0l-248 -143q-8 -4 -16 -2t-13 10l-8 16q-4 8 -2 16t10 13l246 141q3 1 3 6t-3 7l-246 141q-18 11 -8 28l8 17q5 8 13 10t16 -2l248 -143q3 -2 6.5 0t3.5 6v278q0 21 20 21h21q20 0 20 -21v-278q0 -4 3.5 -6t6.5 0l250 143
q8 4 16 2t13 -10l8 -17q10 -17 -8 -28l-248 -141q-3 -2 -3 -7t3 -6l248 -141q8 -5 10 -13t-2 -16l-8 -16q-5 -8 -13 -10t-16 2l-250 143q-3 2 -6.5 0t-3.5 -6v-279q0 -20 -20 -20h-21z" />
    <glyph glyph-name="plus" unicode="+" horiz-adv-x="1038" 
d="M928 688q20 0 20 -20v-29q0 -21 -20 -21h-367q-8 0 -8 -8v-356q0 -9 -6 -15t-15 -6h-28q-9 0 -15 6t-6 15v356q0 8 -8 8h-364q-9 0 -15 6t-6 15v29q0 20 21 20h364q8 0 8 8v375q0 9 6 15t15 6h28q9 0 15 -6t6 -15v-375q0 -8 8 -8h367z" />
    <glyph glyph-name="comma" unicode="," horiz-adv-x="540" 
d="M180 -145q-10 0 -14.5 6.5t-1.5 15.5l98 420q4 18 23 18h32q25 0 19 -22l-109 -420q-3 -18 -22 -18h-25z" />
    <glyph glyph-name="hyphen" unicode="-" horiz-adv-x="794" 
d="M111 614q-9 0 -15 6t-6 15v31q0 20 21 20h573q21 0 21 -20v-31q0 -9 -6 -15t-15 -6h-573z" />
    <glyph glyph-name="period" unicode="." horiz-adv-x="565" 
d="M276 10q-41 0 -69.5 29t-28.5 70q0 39 29.5 67.5t68.5 28.5q40 0 71.5 -28.5t31.5 -67.5q0 -41 -30.5 -70t-72.5 -29z" />
    <glyph glyph-name="slash" unicode="/" horiz-adv-x="649" 
d="M94 0q-11 0 -16 6.5t-2 16.5l420 1394q7 17 24 17h37q11 0 16 -6.5t2 -16.5l-419 -1395q-6 -16 -25 -16h-37z" />
    <glyph glyph-name="zero" unicode="0" horiz-adv-x="1150" 
d="M573 -18q-184 0 -294.5 106t-110.5 281v696q0 175 110.5 281t294.5 106q185 0 297.5 -106t112.5 -281v-696q0 -175 -112.5 -281t-297.5 -106zM573 53q149 0 239.5 85.5t90.5 226.5v704q0 140 -90.5 225.5t-239.5 85.5q-146 0 -235.5 -85.5t-89.5 -225.5v-704
q0 -141 89.5 -226.5t235.5 -85.5z" />
    <glyph glyph-name="one" unicode="1" horiz-adv-x="710" 
d="M391 1427q12 7 27 7h45q20 0 20 -21v-1393q0 -20 -20 -20h-39q-21 0 -21 20v1311q0 5 -2.5 7t-7.5 -1l-235 -116q-10 -6 -17.5 -1.5t-7.5 15.5v25q0 14 14 24z" />
    <glyph glyph-name="two" unicode="2" horiz-adv-x="1075" 
d="M156 0q-21 0 -21 20v35q0 14 8 25q64 83 224 291t245 321q197 261 197 412q0 123 -83.5 198.5t-219.5 75.5q-132 0 -213 -76t-80 -200v-68q0 -20 -20 -20h-39q-21 0 -21 20v76q1 152 104.5 246t268.5 94q173 0 278 -96t105 -250q0 -176 -201 -440q-113 -151 -446 -582
q-7 -10 4 -10h676q20 0 20 -21v-31q0 -20 -20 -20h-766z" />
    <glyph glyph-name="three" unicode="3" horiz-adv-x="1032" 
d="M838 674q41 -103 41 -248q0 -106 -29 -195q-75 -247 -352 -247q-138 0 -234 74t-129 198q-16 65 -16 145q0 21 20 21h39q21 0 21 -21q5 -86 10 -114q22 -105 98.5 -168.5t190.5 -63.5q212 0 274 193q25 77 25 180q0 131 -35 221q-71 170 -266 170q-32 0 -56 -6
q-17 -6 -26 6l-19 21q-11 10 0 28l373 484q3 3 1.5 6.5t-5.5 3.5h-621q-20 0 -20 20v31q0 21 20 21h709q20 0 20 -21v-37q0 -15 -8 -26l-352 -463q-3 -3 -1.5 -6.5t7.5 -3.5q238 -3 320 -203z" />
    <glyph glyph-name="four" unicode="4" horiz-adv-x="1077" 
d="M920 481q20 0 20 -20v-33q0 -20 -20 -20h-84q-3 0 -6 -3t-3 -6v-379q0 -20 -20 -20h-39q-20 0 -20 20v379q0 3 -3 6t-6 3h-604q-20 0 -20 20v33q0 9 6 24l440 934q6 15 25 15h39q10 0 14.5 -7t-0.5 -18l-434 -917q-2 -3 0 -7t6 -4h528q9 0 9 8v361q0 20 20 20h39
q20 0 20 -20v-361q0 -8 9 -8h84z" />
    <glyph glyph-name="five" unicode="5" horiz-adv-x="1030" 
d="M899 614q12 -84 12 -180q0 -99 -12 -162q-29 -133 -128.5 -210.5t-240.5 -77.5q-137 0 -233 74t-127 196q-11 37 -14 76q-3 20 18 20h41q21 0 21 -20q4 -30 8 -43q21 -105 96.5 -167.5t189.5 -62.5q117 0 195 66t98 182q8 43 8 129q0 69 -8 148q-13 112 -92.5 170.5
t-200.5 58.5q-106 0 -183.5 -46t-106.5 -128q-3 -16 -23 -16h-41q-20 0 -20 20v772q0 21 20 21h653q9 0 15 -6t6 -15v-31q0 -20 -21 -20h-585q-8 0 -8 -8l-3 -586q0 -5 3.5 -6.5t7.5 2.5q47 56 125 87.5t168 31.5q143 0 240.5 -69.5t121.5 -199.5z" />
    <glyph glyph-name="six" unicode="6" horiz-adv-x="1032" 
d="M891 629q24 -63 24 -197q0 -125 -20 -184q-39 -124 -127 -194t-227 -70q-143 0 -239.5 71.5t-129.5 196.5q-16 66 -16 184v651q0 166 103 264.5t267 98.5q160 0 258.5 -94.5t98.5 -249.5v-14q0 -9 -6 -15t-15 -6h-39q-9 0 -14.5 5.5t-5.5 13.5v16q0 121 -77 196.5
t-200 75.5q-127 0 -208.5 -79t-81.5 -212v-354q0 -6 3.5 -7.5t6.5 3.5q91 154 293 154q272 0 352 -254zM819 281q17 57 17 153q0 99 -17 156q-23 98 -98 159.5t-189 61.5t-188.5 -61.5t-95.5 -161.5q-12 -47 -12 -156q0 -107 12 -151q20 -98 95 -161t192 -63
q105 0 182.5 56.5t101.5 167.5z" />
    <glyph glyph-name="seven" unicode="7" horiz-adv-x="948" 
d="M340 0q-23 0 -16 23l483 1329q2 3 0 6.5t-6 3.5h-631q-8 0 -8 -8v-90q0 -9 -6 -15t-15 -6h-30q-9 0 -15 6t-6 15v149q0 9 6 15t15 6h763q9 0 15 -6t6 -15v-39q0 -8 -4 -24l-483 -1334q-5 -16 -25 -16h-43z" />
    <glyph glyph-name="eight" unicode="8" horiz-adv-x="1042" 
d="M862 590q35 -84 35 -197q0 -150 -63 -254q-46 -74 -128 -114.5t-188 -40.5q-225 0 -323 172q-58 103 -58 239q0 116 41 203q52 117 164 168q10 3 0 10q-83 42 -135 109q-70 93 -70 209q0 104 53 186q48 80 134 126t194 46q236 0 332 -178q45 -82 45 -180q0 -117 -66 -209
q-53 -69 -133 -107q-10 -7 0 -10q117 -55 166 -178zM268 922q41 -55 104 -87.5t140 -33.5h8q163 3 250 127q47 68 47 162q0 83 -39 147q-78 143 -264 143q-87 0 -154.5 -39t-105.5 -106q-37 -69 -37 -148q0 -91 51 -165zM762 176q55 86 55 221q0 89 -26 162q-31 83 -100 130
t-169 48h-6q-195 0 -266 -168q-33 -70 -33 -174q0 -128 51 -213q76 -127 250 -127q168 0 244 121z" />
    <glyph glyph-name="nine" unicode="9" horiz-adv-x="1058" 
d="M887 1182q16 -66 16 -185v-651q0 -166 -103.5 -264t-267.5 -98q-160 0 -258 94.5t-98 249.5v14q0 20 21 20h39q20 0 20 -16v-18q0 -122 76.5 -197.5t199.5 -75.5q127 0 209 79t82 212v354q0 6 -3.5 8t-6.5 -3q-91 -154 -293 -154q-272 0 -352 254q-25 66 -25 196
q0 123 21 185q39 124 127 194t227 70q143 0 239.5 -71.5t129.5 -196.5zM526 623q114 0 189 61.5t96 161.5q12 47 12 155t-12 152q-20 98 -95 160.5t-192 62.5q-106 0 -183 -56t-101 -167q-17 -57 -17 -154q0 -98 17 -155q23 -98 97.5 -159.5t188.5 -61.5z" />
    <glyph glyph-name="colon" unicode=":" horiz-adv-x="669" 
d="M334 735q-41 0 -69.5 28t-28.5 68q0 39 29.5 68t68.5 29q40 0 70 -29t30 -68q0 -40 -29.5 -68t-70.5 -28zM334 37q-41 0 -69.5 28.5t-28.5 69.5q0 38 29.5 66t68.5 28q40 0 70 -28t30 -66q0 -41 -29.5 -69.5t-70.5 -28.5z" />
    <glyph glyph-name="semicolon" unicode=";" horiz-adv-x="630" 
d="M322 741q-41 0 -70 28.5t-29 68.5q0 39 30 67.5t69 28.5q40 0 70 -28.5t30 -67.5q0 -40 -29.5 -68.5t-70.5 -28.5zM248 -133q-9 0 -14.5 6.5t-4.5 15.5l60 396q3 18 20 18h39q10 0 15.5 -6.5t3.5 -15.5l-74 -396q-3 -18 -23 -18h-22z" />
    <glyph glyph-name="less" unicode="&#x3c;" horiz-adv-x="1038" 
d="M948 129q0 -11 -7 -14.5t-17 0.5l-820 387q-14 8 -14 24v45q0 17 14 25l820 387q10 4 17 0.5t7 -14.5v-39q0 -15 -14 -23l-754 -352q-9 -6 0 -12l754 -353q14 -8 14 -22v-39z" />
    <glyph glyph-name="equal" unicode="=" horiz-adv-x="1038" 
d="M111 852q-21 0 -21 20v29q0 9 6 15t15 6h817q20 0 20 -21v-29q0 -20 -20 -20h-817zM111 410q-21 0 -21 20v29q0 20 21 20h817q20 0 20 -20v-29q0 -20 -20 -20h-817z" />
    <glyph glyph-name="greater" unicode="&#x3e;" horiz-adv-x="1038" 
d="M115 115q-11 -5 -18 -0.5t-7 14.5v39q0 14 14 22l754 353q9 6 0 12l-754 352q-14 8 -14 23v39q0 10 7 14.5t18 -0.5l819 -387q14 -8 14 -25v-45q0 -16 -14 -24z" />
    <glyph glyph-name="question" unicode="?" horiz-adv-x="886" 
d="M385 389q-20 0 -20 21v143q0 52 19 96t49.5 76t67 62t73 61.5t67 66.5t49.5 85.5t19 111.5q0 121 -74 193.5t-193 72.5q-121 0 -195.5 -72.5t-74.5 -191.5v-76q0 -20 -20 -20l-39 2q-21 0 -21 20v74q0 151 97.5 244.5t252.5 93.5q156 0 251 -93.5t95 -248.5
q0 -70 -18.5 -128t-48.5 -98t-66 -73.5t-72.5 -62t-66.5 -56.5t-48.5 -64t-18.5 -77v-141q0 -9 -6 -15t-15 -6h-43zM412 8q-40 0 -68.5 28t-28.5 68q0 38 29 65.5t68 27.5t68.5 -27.5t29.5 -65.5q0 -39 -29.5 -67.5t-68.5 -28.5z" />
    <glyph glyph-name="at" unicode="@" horiz-adv-x="1703" 
d="M934 1227q201 0 350 -91.5t217 -251t41 -354.5q-24 -180 -114.5 -282.5t-217.5 -102.5q-72 0 -124.5 32t-75.5 91q-4 12 -11 2q-72 -125 -229 -125q-104 0 -168.5 53.5t-73.5 139.5q-6 47 11 178q17 132 36 182q29 88 103.5 140.5t169.5 52.5q124 0 186 -88
q3 -4 6.5 -2.5t3.5 6.5l7 55q3 19 20 19h27q9 0 15 -7t5 -16l-57 -448q-10 -89 34 -146t124 -57q95 0 164 84t92 237q21 140 -12 260t-108 201.5t-186 127.5t-243 46q-98 0 -195.5 -25t-189.5 -80.5t-162 -134.5t-113.5 -196t-44.5 -256q-3 -172 57 -306.5t185.5 -214
t300.5 -79.5q103 0 201.5 24t148.5 60q19 13 29 -2l12 -16q14 -17 -4 -29q-63 -46 -173.5 -73.5t-219.5 -27.5q-194 0 -333.5 89.5t-206.5 241t-64 347.5q2 146 49.5 269.5t125 209t178 146t209 89t218.5 28.5zM774 207q76 0 131 44t76 111q17 56 27 156q14 113 14 158
q-2 66 -48 110.5t-122 44.5q-75 0 -133 -43.5t-86 -109.5q-14 -42 -29 -160t-10 -156q2 -69 51.5 -112t128.5 -43z" />
    <glyph glyph-name="A" unicode="A" horiz-adv-x="1183" 
d="M1044 0q-18 0 -24 16l-92 283q-2 6 -8 6h-660q-6 0 -8 -6l-90 -283q-6 -16 -25 -16h-39q-23 0 -16 23l457 1394q7 17 24 17h53q18 0 25 -17l461 -1394q3 -10 -1.5 -16.5t-15.5 -6.5h-41zM279 383q-2 -3 1 -6.5t7 -3.5h608q4 0 7 3.5t1 6.5l-307 938q-2 5 -6 5t-6 -5z" />
    <glyph glyph-name="B" unicode="B" horiz-adv-x="1290" 
d="M889 745q-6 -1 -6 -4t6 -4q111 -43 172 -134.5t61 -219.5q0 -176 -110 -279.5t-291 -103.5h-477q-21 0 -21 20v1393q0 9 6 15t15 6h463q183 0 291 -99t108 -268q0 -116 -56.5 -198t-160.5 -124zM311 1362q-8 0 -8 -8v-570q0 -8 8 -8h396q146 0 233.5 79t87.5 208
q0 135 -87.5 217t-233.5 82h-396zM721 74q144 0 232.5 86.5t88.5 226.5q0 145 -90.5 231.5t-242.5 86.5h-398q-8 0 -8 -9v-614q0 -8 8 -8h410z" />
    <glyph glyph-name="C" unicode="C" horiz-adv-x="1241" 
d="M631 -18q-207 0 -333 119.5t-126 314.5v604q0 194 126 312t333 118q205 0 330.5 -117.5t125.5 -310.5v-2q0 -21 -20 -21l-39 -2q-20 0 -20 13v12q0 160 -104 258t-273 98q-171 0 -275 -98t-104 -258v-610q0 -160 104 -259.5t275 -99.5q169 0 273 99.5t104 259.5v4
q0 18 20 18l39 -2q20 0 20 -8v-10q0 -193 -126 -312.5t-330 -119.5z" />
    <glyph glyph-name="D" unicode="D" horiz-adv-x="1265" 
d="M244 0q-21 0 -21 20v1393q0 9 6 15t15 6h469q189 0 299 -101t110 -278v-676q0 -177 -110 -278t-299 -101h-469zM303 80q0 -8 8 -8h406q151 0 238 83t87 228v666q0 146 -87 229.5t-238 83.5h-406q-8 0 -8 -8v-1274z" />
    <glyph glyph-name="E" unicode="E" horiz-adv-x="1259" 
d="M1122 1382q0 -20 -20 -20h-791q-8 0 -8 -8v-590q0 -8 8 -8h566q20 0 20 -21v-33q0 -20 -20 -20h-566q-8 0 -8 -8v-594q0 -8 8 -8h791q20 0 20 -21v-31q0 -20 -20 -20h-858q-21 0 -21 20v1393q0 9 6 15t15 6h858q20 0 20 -21v-31z" />
    <glyph glyph-name="F" unicode="F" horiz-adv-x="1171" 
d="M1120 1382q0 -20 -20 -20h-789q-8 0 -8 -8v-590q0 -8 8 -8h563q9 0 15 -6t6 -15v-33q0 -20 -21 -20h-563q-8 0 -8 -8v-654q0 -20 -20 -20h-39q-21 0 -21 20v1393q0 9 6 15t15 6h856q20 0 20 -21v-31z" />
    <glyph glyph-name="G" unicode="G" horiz-adv-x="1239" 
d="M631 -16q-207 0 -333 117.5t-126 308.5v614q0 192 126 309t333 117q203 0 328.5 -116.5t125.5 -303.5v-31q0 -20 -20 -20h-39q-20 0 -20 20v31q0 156 -103.5 252t-271.5 96q-170 0 -274.5 -97t-104.5 -255v-618q0 -158 104.5 -255.5t276.5 -97.5q168 0 270.5 95
t102.5 251v224q0 8 -9 8h-333q-21 0 -21 20v31q0 9 6 15t15 6h401q20 0 20 -21v-268q0 -198 -124.5 -315t-329.5 -117z" />
    <glyph glyph-name="H" unicode="H" horiz-adv-x="1363" 
d="M1063 1413q0 21 20 21h39q9 0 15 -6t6 -15v-1393q0 -20 -21 -20h-39q-20 0 -20 20v654q0 8 -8 8h-744q-8 0 -8 -8v-654q0 -20 -20 -20h-39q-21 0 -21 20v1393q0 9 6 15t15 6h39q20 0 20 -21v-649q0 -8 8 -8h744q8 0 8 8v649z" />
    <glyph glyph-name="I" unicode="I" horiz-adv-x="526" 
d="M244 0q-21 0 -21 20v1393q0 9 6 15t15 6h39q20 0 20 -21v-1393q0 -20 -20 -20h-39z" />
    <glyph glyph-name="J" unicode="J" horiz-adv-x="1177" 
d="M512 -16q-200 0 -321 112.5t-121 298.5v105q0 20 20 20h39q21 0 21 -20v-107q0 -153 99 -245.5t263 -92.5t264.5 93t100.5 245v1020q0 21 20 21h37q20 0 20 -21v-1018q0 -186 -121 -298.5t-321 -112.5z" />
    <glyph glyph-name="K" unicode="K" horiz-adv-x="1236" 
d="M244 0q-21 0 -21 20v1393q0 9 6 15t15 6h39q20 0 20 -21v-745q0 -4 3.5 -5.5t6.5 1.5l725 759q11 11 25 11h43q12 0 16.5 -7t-4.5 -18l-520 -559q-4 -4 0 -12l569 -813q8 -9 4 -17t-16 -8h-49q-18 0 -25 12l-538 766q-2 3 -6 4t-7 -2l-223 -225q-4 -4 -4 -10v-525
q0 -20 -20 -20h-39z" />
    <glyph glyph-name="L" unicode="L" horiz-adv-x="1161" 
d="M244 0q-21 0 -21 20v1393q0 9 6 15t15 6h39q20 0 20 -21v-1333q0 -8 8 -8h744q20 0 20 -21v-31q0 -20 -20 -20h-811z" />
    <glyph glyph-name="M" unicode="M" horiz-adv-x="1462" 
d="M244 0q-21 0 -21 20v1393q0 9 6 15t15 6h43q13 0 24 -15l412 -647q1 -3 6 -3t6 3l418 647q11 15 25 15h41q20 0 20 -21v-1393q0 -20 -20 -20h-39q-21 0 -21 20v1252q0 6 -3.5 7t-6.5 -5l-381 -596q-10 -14 -25 -14h-20q-15 0 -25 14l-385 596q-3 6 -6.5 5t-3.5 -7v-1252
q0 -20 -20 -20h-39z" />
    <glyph glyph-name="N" unicode="N" horiz-adv-x="1392" 
d="M244 0q-21 0 -21 20v1393q0 9 6 15t15 6h41q13 0 24 -15l772 -1249q3 -6 7 -5t4 7v1241q0 21 20 21h39q20 0 20 -21v-1393q0 -20 -20 -20h-43q-14 0 -25 14l-770 1252q-3 6 -6.5 5t-3.5 -7v-1244q0 -20 -20 -20h-39z" />
    <glyph glyph-name="O" unicode="O" horiz-adv-x="1273" 
d="M635 -16q-209 0 -336 126t-127 330v551q0 206 127 332.5t336 126.5q210 0 338.5 -126.5t128.5 -332.5v-551q0 -204 -128.5 -330t-338.5 -126zM635 55q174 0 280.5 105t106.5 276v557q0 173 -107 279t-280 106q-172 0 -277.5 -106t-105.5 -279v-557q0 -172 105.5 -276.5
t277.5 -104.5z" />
    <glyph glyph-name="P" unicode="P" horiz-adv-x="1206" 
d="M745 1438q169 0 273 -105.5t104 -277.5q0 -171 -104 -275t-275 -104h-448q-8 0 -8 -8v-648q0 -20 -21 -20h-39q-20 0 -20 20v1397q0 21 20 21h518zM741 745q135 0 218 85.5t83 222.5q0 141 -83 226t-218 85h-446q-8 0 -8 -8v-602q0 -9 8 -9h446z" />
    <glyph glyph-name="Q" unicode="Q" horiz-adv-x="1163" 
d="M582 1450q201 0 323.5 -121t122.5 -319v-588q0 -184 -107.5 -302.5t-289.5 -133.5q-8 0 -8 -9v-208q0 -9 -6 -15t-15 -6h-39q-20 0 -20 21v208q0 9 -8 9q-182 15 -291 133t-109 303v588q0 198 123 319t324 121zM948 420v594q0 163 -100.5 263.5t-265.5 100.5
q-164 0 -265.5 -100.5t-101.5 -263.5v-594q0 -163 101.5 -264t265.5 -101q165 0 265.5 101t100.5 264z" />
    <glyph glyph-name="R" unicode="R" horiz-adv-x="1251" 
d="M1083 0q-18 0 -24 14l-324 668q-3 6 -8 6h-416q-8 0 -8 -8v-660q0 -20 -20 -20h-39q-21 0 -21 20v1397q0 9 6 15t15 6h501q168 0 271.5 -105t103.5 -274q0 -146 -81 -244.5t-218 -120.5q-9 -3 -6 -10l320 -659q4 -10 0 -17.5t-15 -7.5h-37zM311 1364q-8 0 -8 -8v-590
q0 -8 8 -8h432q133 0 215 83.5t82 217.5q0 137 -82 221t-215 84h-432z" />
    <glyph glyph-name="S" unicode="S" horiz-adv-x="1193" 
d="M608 -16q-219 0 -347 98.5t-128 263.5v72q0 20 21 20h34q21 0 21 -20v-66q0 -134 109 -215.5t296 -81.5q180 0 276.5 76t96.5 207q0 49 -15 90t-44 75.5t-81 69t-115 66.5t-157 72q-50 21 -75.5 32.5t-67 30.5t-62.5 30.5t-53 30.5t-47.5 34t-37.5 36t-32 42t-21 46
t-15 53.5t-4 61.5q0 165 111.5 253.5t314.5 88.5q221 0 344 -99.5t123 -267.5v-49q0 -20 -21 -20h-39q-20 0 -20 20v43q0 137 -102.5 219t-288.5 82q-166 0 -255 -68t-89 -198q0 -26 3.5 -49t12.5 -43.5t18 -37.5t27.5 -34t33 -30t43 -29t49 -27t59 -27.5t65 -28t74.5 -30.5
q115 -48 189.5 -88t136 -91.5t90 -113.5t28.5 -139q0 -164 -120 -262t-339 -98z" />
    <glyph glyph-name="T" unicode="T" horiz-adv-x="1150" 
d="M1026 1434q9 0 15 -6t6 -15v-31q0 -20 -21 -20h-412q-8 0 -8 -8v-1334q0 -20 -20 -20h-39q-21 0 -21 20v1334q0 8 -8 8h-395q-21 0 -21 20v31q0 9 6 15t15 6h903z" />
    <glyph glyph-name="U" unicode="U" horiz-adv-x="1343" 
d="M672 -16q-209 0 -337 122t-128 322v985q0 21 20 21h39q9 0 15 -6t6 -15v-991q0 -164 106 -265.5t279 -101.5q174 0 280.5 101t106.5 266v991q0 21 20 21h39q9 0 15 -6t6 -15v-985q0 -200 -128 -322t-339 -122z" />
    <glyph glyph-name="V" unicode="V" horiz-adv-x="1173" 
d="M563 0q-18 0 -24 16l-457 1395q-7 23 16 23h39q18 0 25 -17l420 -1288q2 -5 6 -5t6 5l420 1288q7 17 24 17h37q11 0 15.5 -6.5t1.5 -16.5l-459 -1395q-6 -16 -25 -16h-45z" />
    <glyph glyph-name="W" unicode="W" horiz-adv-x="1796" 
d="M487 0q-16 0 -22 16l-406 1395q-3 10 2.5 16.5t16.5 6.5h39q15 0 22 -17l365 -1249q2 -4 5 -4t5 4l334 1247q4 19 22 19h43q19 0 23 -19l344 -1247q2 -4 5 -4t5 4l367 1249q7 17 22 17h39q11 0 16.5 -6.5t2.5 -16.5l-410 -1395q-6 -16 -22 -16h-43q-19 0 -23 18
l-340 1266q-1 4 -5 4t-5 -4l-338 -1266q-4 -18 -23 -18h-41z" />
    <glyph glyph-name="X" unicode="X" horiz-adv-x="1165" 
d="M102 0q-12 0 -15 7t3 18l445 686q3 6 0 12l-445 686q-6 11 -3 18t15 7h43q14 0 25 -15l408 -633q2 -3 6 -3t6 3l405 633q11 15 25 15h43q12 0 15 -7t-3 -18l-444 -688q-3 -6 0 -12l444 -684q6 -11 3 -18t-15 -7h-43q-15 0 -25 14l-405 631q-2 3 -6 3t-6 -3l-408 -631
q-10 -14 -25 -14h-43z" />
    <glyph glyph-name="Y" unicode="Y" horiz-adv-x="1114" 
d="M539 0q-21 0 -21 20v648q0 8 -2 10l-428 731q-6 11 -2 18t16 7h39q14 0 25 -15l385 -657q1 -3 6 -3t6 3l385 657q11 15 25 15h39q12 0 16 -7t-2 -18l-428 -731q-2 -2 -2 -10v-648q0 -20 -21 -20h-36z" />
    <glyph glyph-name="Z" unicode="Z" horiz-adv-x="1116" 
d="M125 0q-21 0 -21 20v39q0 9 9 27l788 1266q2 3 0 6.5t-6 3.5h-770q-21 0 -21 20v31q0 9 6 15t15 6h850q20 0 20 -21v-39q0 -10 -8 -26l-788 -1266q-2 -3 0 -6.5t6 -3.5h770q20 0 20 -21v-31q0 -20 -20 -20h-850z" />
    <glyph glyph-name="bracketleft" unicode="[" horiz-adv-x="743" 
d="M86 -223q-20 0 -20 20v1743q0 21 20 21h346q9 0 15 -6t6 -15v-31q0 -20 -21 -20h-278q-9 0 -9 -8v-1624q0 -3 3 -6t6 -3h280q21 0 21 -20v-31q0 -20 -21 -20h-348z" />
    <glyph glyph-name="backslash" unicode="\" horiz-adv-x="649" 
d="M573 23q3 -10 -2 -16.5t-16 -6.5h-37q-18 0 -24 16l-420 1395q-3 10 2 16.5t16 6.5h37q18 0 25 -17z" />
    <glyph glyph-name="bracketright" unicode="]" horiz-adv-x="743" 
d="M678 -203q0 -20 -21 -20h-348q-20 0 -20 20v31q0 20 20 20h281q8 0 8 9v1624q0 8 -8 8h-279q-20 0 -20 20v31q0 21 20 21h346q9 0 15 -6t6 -15v-1743z" />
    <glyph glyph-name="asciicircum" unicode="^" horiz-adv-x="901" 
d="M117 639q-11 0 -16 7.5t-1 17.5l306 753q6 17 22 17h43q17 0 23 -17l307 -753q4 -10 -1 -17.5t-16 -7.5h-30q-18 0 -23 16l-274 686q-1 6 -6 6t-7 -6l-274 -686q-5 -16 -23 -16h-30z" />
    <glyph glyph-name="underscore" unicode="_" horiz-adv-x="954" 
d="M90 0q-20 0 -20 20v29q0 21 20 21h776q9 0 15 -6t6 -15v-29q0 -20 -21 -20h-776z" />
    <glyph glyph-name="grave" unicode="`" horiz-adv-x="368" 
d="M287 1210q6 -10 1.5 -17t-16.5 -7h-28q-14 0 -25 14l-135 227q-6 11 -2 18t16 7h39q19 0 25 -14z" />
    <glyph glyph-name="a" unicode="a" horiz-adv-x="1028" 
d="M518 1044q176 0 265 -91.5t89 -250.5v-682q0 -20 -20 -20h-39q-20 0 -20 20v99q0 5 -3.5 6.5t-7.5 -2.5q-54 -68 -143 -103.5t-193 -35.5q-65 0 -122 15t-105.5 47t-77 89t-28.5 133q0 151 112.5 236.5t309.5 85.5h249q9 0 9 8v107q0 123 -67.5 195.5t-211.5 72.5
q-110 0 -182.5 -46t-87.5 -124q-6 -22 -25 -19l-43 7q-21 4 -18 20q22 106 118 169.5t242 63.5zM457 55q87 0 161 26t124.5 84.5t50.5 139.5v209q0 8 -9 8h-247q-154 0 -249 -66t-95 -184q0 -107 74 -162t190 -55z" />
    <glyph glyph-name="b" unicode="b" horiz-adv-x="1095" 
d="M928 772q16 -68 16 -260q0 -190 -18 -258q-30 -122 -126 -196t-235 -74q-188 0 -284 149q-2 3 -4.5 4t-4.5 -0.5t-2 -5.5v-111q0 -20 -20 -20h-39q-21 0 -21 20v1393q0 9 6 15t15 6h39q20 0 20 -21v-516q0 -4 2 -5.5t4.5 -0.5t4.5 4q44 70 117 109.5t167 39.5
q140 0 236.5 -74t126.5 -198zM846 274q10 40 14 84t4 158q0 115 -4 160t-16 82q-22 94 -100 154.5t-187 60.5q-106 0 -177 -61t-91 -156q-11 -38 -15 -82t-4 -162q0 -114 3.5 -158.5t13.5 -79.5q22 -96 92 -157.5t180 -61.5q111 0 189.5 61t97.5 158z" />
    <glyph glyph-name="c" unicode="c" horiz-adv-x="1048" 
d="M551 -16q-143 0 -241.5 75t-131.5 199q-24 91 -24 258q0 157 24 256q31 124 130 198t243 74q142 0 244 -72t131 -181q5 -16 10 -54q3 -19 -18 -22l-37 -4q-20 -3 -23 18l-6 29q-20 91 -102 153t-201 62t-198.5 -64t-98.5 -168q-19 -85 -19 -227q0 -134 17 -225
q22 -106 101 -170t198 -64t203.5 62.5t99.5 154.5l2 11q3 20 25 16l34 -6q22 -4 19 -23q-1 -3 -2.5 -13.5t-3.5 -18.5q-25 -110 -128.5 -182t-246.5 -72z" />
    <glyph glyph-name="d" unicode="d" horiz-adv-x="1095" 
d="M825 1413q0 9 6 15t15 6h39q20 0 20 -21v-1393q0 -20 -20 -20h-39q-21 0 -21 20v111q0 4 -1.5 5.5t-4 0.5t-4.5 -4q-45 -70 -118.5 -109.5t-166.5 -39.5q-139 0 -234.5 74t-125.5 196q-18 68 -18 258q0 192 16 260q30 124 126 198t236 74q94 0 168 -39.5t117 -109.5
q2 -3 4.5 -4t4 0.5t1.5 5.5v516zM809 274q10 34 13 78t3 160q0 120 -3.5 163.5t-14.5 80.5q-20 95 -91 156t-177 61q-109 0 -187 -60.5t-100 -154.5q-12 -38 -16.5 -83t-4.5 -159q0 -78 2.5 -126t6 -68t10.5 -48q19 -97 97.5 -158t189.5 -61q110 0 180 61.5t92 157.5z" />
    <glyph glyph-name="e" unicode="e" horiz-adv-x="1081" 
d="M549 55q106 0 182.5 49.5t112.5 133.5q6 18 24 12l27 -8q20 -7 14 -27q-41 -104 -137 -167.5t-227 -63.5q-140 0 -236.5 71.5t-132.5 192.5q-22 86 -22 268q0 177 16 252q31 125 130 200.5t243 75.5q153 0 252.5 -80t126.5 -216q8 -39 10 -79.5t2 -152.5q0 -22 -21 -22
h-671q-9 0 -9 -9q0 -155 11 -196q21 -106 102 -170t203 -64zM543 973q-120 0 -199 -63.5t-100 -166.5q-11 -71 -11 -176q0 -8 9 -8h604q8 0 8 8q0 131 -10 172q-22 105 -102 169.5t-199 64.5z" />
    <glyph glyph-name="f" unicode="f" horiz-adv-x="700" 
d="M539 1362q-128 0 -174 -62.5t-46 -199.5v-64q0 -8 9 -8h247q21 0 21 -20v-33q0 -9 -6 -15t-15 -6h-247q-9 0 -9 -8v-926q0 -20 -20 -20h-39q-20 0 -20 20v926q0 8 -9 8h-133q-20 0 -20 21v33q0 20 20 20h133q9 0 9 8v66q0 173 63.5 252.5t231.5 79.5h49q20 0 20 -21v-31
q0 -20 -20 -20h-45z" />
    <glyph glyph-name="g" unicode="g" horiz-adv-x="1077" 
d="M827 1008q0 20 21 20h39q20 0 20 -20v-996q0 -435 -506 -420q-20 0 -20 21l2 35q0 20 20 20q220 -6 322 80t102 266v123q0 4 -1.5 5.5t-4 0.5t-4.5 -4q-90 -151 -289 -151q-135 0 -231.5 72.5t-128.5 197.5q-23 85 -23 254q0 166 23 264q33 120 128 194t230 74
q98 0 172.5 -39.5t118.5 -109.5q3 -6 6.5 -5t3.5 7v111zM819 289q8 52 8 225q0 170 -8 227q-16 100 -91 166t-189 66q-113 0 -190 -65.5t-105 -166.5q-17 -70 -17 -225q0 -163 17 -225q24 -102 103 -168t192 -66q117 0 190.5 66.5t89.5 165.5z" />
    <glyph glyph-name="h" unicode="h" horiz-adv-x="1097" 
d="M578 1042q154 0 250 -95.5t96 -250.5v-676q0 -20 -21 -20h-39q-20 0 -20 20v662q0 127 -79 208t-202 81q-133 0 -214 -79t-81 -206v-666q0 -20 -20 -20h-39q-21 0 -21 20v1393q0 9 6 15t15 6h39q20 0 20 -21v-516q0 -6 2.5 -7.5t5.5 3.5q92 149 302 149z" />
    <glyph glyph-name="i" unicode="i" horiz-adv-x="489" 
d="M246 1253q-35 0 -58.5 22t-23.5 56q0 31 23.5 52.5t58.5 21.5t57.5 -21.5t22.5 -52.5q0 -34 -22.5 -56t-57.5 -22zM225 0q-20 0 -20 20v988q0 20 20 20h39q21 0 21 -20v-988q0 -20 -21 -20h-39z" />
    <glyph glyph-name="j" unicode="j" horiz-adv-x="460" 
d="M231 1251q-35 0 -57 21.5t-22 56.5t22.5 55.5t56.5 20.5q37 0 59.5 -20.5t22.5 -55.5q0 -36 -22 -57t-60 -21zM-29 -430q-20 0 -20 20v31q0 21 20 21q106 4 162.5 63.5t56.5 163.5v1139q0 20 21 20h39q20 0 20 -20v-1137q0 -143 -76 -220t-223 -81z" />
    <glyph glyph-name="k" unicode="k" horiz-adv-x="995" 
d="M209 0q-21 0 -21 20v1393q0 9 6 15t15 6h39q20 0 20 -21v-901q0 -4 4 -5.5t7 1.5l503 510q10 10 25 10h51q12 0 15.5 -7t-5.5 -17l-258 -269q-5 -5 -2 -10l314 -700q4 -10 -1 -17.5t-16 -7.5h-41q-17 0 -22 16l-289 652q-4 8 -10 2l-271 -271q-4 -4 -4 -10v-369
q0 -20 -20 -20h-39z" />
    <glyph glyph-name="l" unicode="l" horiz-adv-x="458" 
d="M211 0q-21 0 -21 20v1393q0 9 6 15t15 6h39q20 0 20 -21v-1393q0 -20 -20 -20h-39z" />
    <glyph glyph-name="m" unicode="m" horiz-adv-x="1695" 
d="M1194 1042q150 0 240 -89t90 -244v-689q0 -20 -21 -20h-39q-20 0 -20 20v674q0 127 -74 202t-194 75q-128 0 -204.5 -73t-76.5 -200v-678q0 -20 -21 -20h-38q-21 0 -21 20v674q0 128 -73 202.5t-193 74.5q-128 0 -204.5 -73t-76.5 -200v-678q0 -20 -20 -20h-39
q-21 0 -21 20v988q0 20 21 20h39q20 0 20 -20v-103q0 -4 2 -5.5t4.5 -0.5t4.5 4q42 68 117 103.5t171 35.5q107 0 185.5 -48t115.5 -136q1 -3 2.5 -4t3.5 0t3 4q38 90 120.5 137t196.5 47z" />
    <glyph glyph-name="n" unicode="n" horiz-adv-x="1097" 
d="M578 1042q154 0 250 -95.5t96 -250.5v-676q0 -20 -21 -20h-39q-20 0 -20 20v662q0 127 -79 208t-202 81q-133 0 -214 -79t-81 -206v-666q0 -20 -20 -20h-39q-21 0 -21 20v988q0 20 21 20h39q20 0 20 -20v-111q0 -6 2.5 -7.5t5.5 3.5q92 149 302 149z" />
    <glyph glyph-name="o" unicode="o" horiz-adv-x="1093" 
d="M547 -16q-144 0 -242 74.5t-131 199.5q-20 76 -20 258t18 256q33 124 133 198t242 74q143 0 244 -74.5t131 -197.5q16 -68 16 -256q0 -192 -16 -258q-31 -125 -131.5 -199.5t-243.5 -74.5zM547 55q118 0 198.5 64.5t102.5 169.5q10 47 10 225q0 182 -10 225
q-21 105 -102.5 169.5t-200.5 64.5q-118 0 -197.5 -64.5t-101.5 -169.5q-13 -59 -13 -225q0 -169 13 -225q22 -106 102 -170t199 -64z" />
    <glyph glyph-name="p" unicode="p" horiz-adv-x="1112" 
d="M942 774q19 -72 19 -258q0 -188 -17 -260q-30 -124 -126 -198t-236 -74q-94 0 -168 39.5t-117 109.5q-2 3 -4.5 4t-4 -0.5t-1.5 -5.5v-516q0 -9 -6 -15t-15 -6h-39q-20 0 -20 21v1393q0 20 20 20h39q21 0 21 -20v-111q0 -4 1.5 -5.5t4 -0.5t4.5 4q45 70 118.5 109.5
t166.5 39.5q139 0 234.5 -74t125.5 -196zM860 270q12 38 16.5 83t4.5 159q0 78 -2.5 126t-6 68t-10.5 48q-19 97 -97.5 158t-189.5 61q-110 0 -180 -61.5t-92 -157.5q-10 -34 -13 -78t-3 -160q0 -120 3.5 -163.5t14.5 -80.5q20 -95 91 -156t177 -61q109 0 187 60.5
t100 154.5z" />
    <glyph glyph-name="q" unicode="q" horiz-adv-x="1112" 
d="M825 1008q0 20 21 20h39q20 0 20 -20v-1393q0 -21 -20 -21h-39q-9 0 -15 6t-6 15v516q0 4 -1.5 5.5t-4 0.5t-4.5 -4q-43 -70 -117 -109.5t-168 -39.5q-140 0 -236 74t-126 198q-16 68 -16 260q0 190 18 258q30 122 125.5 196t234.5 74q93 0 166.5 -39.5t118.5 -109.5
q2 -3 4.5 -4t4 0.5t1.5 5.5v111zM807 272q11 37 14.5 80.5t3.5 163.5q0 116 -3 160t-13 78q-22 96 -92 157.5t-180 61.5q-111 0 -189.5 -61t-97.5 -158q-7 -28 -10.5 -48t-6 -68t-2.5 -126q0 -114 4.5 -159t16.5 -83q22 -94 100 -154.5t187 -60.5q106 0 177 61t91 156z" />
    <glyph glyph-name="r" unicode="r" horiz-adv-x="729" 
d="M557 1036q72 0 121 -22q17 -7 10 -27l-14 -41q-6 -20 -25 -10q-45 17 -102 14q-120 0 -199.5 -92t-79.5 -223v-615q0 -20 -20 -20h-39q-21 0 -21 20v988q0 20 21 20h39q20 0 20 -20v-154q0 -4 1.5 -6t3.5 -1t3 5q43 86 115 135t166 49z" />
    <glyph glyph-name="s" unicode="s" horiz-adv-x="970" 
d="M496 -8q-160 0 -261.5 76t-101.5 186v29q0 20 21 20h36q21 0 21 -20v-27q0 -79 79.5 -138t203.5 -59q123 0 199.5 58.5t76.5 150.5q0 36 -16 66t-34 48t-62 38.5t-66.5 28t-81.5 26.5q-7 2 -10.5 3.5t-9.5 3t-11 3.5q-46 14 -74 23.5t-68 25.5t-64.5 30.5t-53 36
t-44 45.5t-26 55.5t-10.5 68.5q0 121 96.5 193.5t253.5 72.5q159 0 257 -74.5t98 -189.5v-6q0 -9 -6 -15t-15 -6h-35q-20 0 -20 15v12q0 84 -77.5 140.5t-203.5 56.5q-122 0 -196 -54t-74 -141q0 -30 9 -55.5t30.5 -45.5t42 -34.5t58.5 -29.5t64.5 -24t74.5 -24
q155 -46 214 -77q139 -76 140 -212q0 -124 -97 -202t-257 -78z" />
    <glyph glyph-name="t" unicode="t" horiz-adv-x="729" 
d="M594 979q0 -9 -6 -15t-15 -6h-247q-9 0 -9 -8v-680q0 -110 51 -153t160 -43h45q9 0 15 -6t6 -15v-30q0 -20 -21 -23h-51q-67 0 -115 11t-87.5 38.5t-59.5 79t-20 127.5v694q0 8 -9 8h-125q-20 0 -20 21v29q0 20 20 20h125q9 0 9 8v232q0 20 20 20h37q20 0 20 -20v-232
q0 -8 9 -8h247q21 0 21 -20v-29z" />
    <glyph glyph-name="u" unicode="u" horiz-adv-x="1093" 
d="M825 1008q0 20 21 20h39q20 0 20 -20v-988q0 -20 -20 -20h-39q-21 0 -21 20v109q0 4 -1.5 5.5t-4 0.5t-4.5 -4q-91 -145 -297 -145q-152 0 -249 91.5t-97 246.5v684q0 20 21 20h38q21 0 21 -20v-666q0 -130 76 -207.5t204 -77.5q133 0 213 79t80 206v666z" />
    <glyph glyph-name="v" unicode="v" horiz-adv-x="931" 
d="M442 0q-18 0 -24 16l-340 990q-6 22 16 22h45q19 0 25 -16l295 -883q1 -5 6 -5t6 5l297 883q6 16 25 16h45q22 0 16 -22l-340 -990q-6 -16 -25 -16h-47z" />
    <glyph glyph-name="w" unicode="w" horiz-adv-x="1417" 
d="M385 0q-17 0 -23 16l-286 990q-6 22 18 22h37q20 0 23 -16l247 -891q1 -5 6 -5t7 5l250 891q3 16 22 16h41q17 0 23 -16l251 -889q1 -5 6 -5t7 5l250 889q6 16 22 16h39q24 0 18 -22l-290 -990q-6 -16 -23 -16h-43q-16 0 -22 16l-252 861q-1 5 -6 5t-7 -5l-247 -861
q-6 -16 -23 -16h-45z" />
    <glyph glyph-name="x" unicode="x" horiz-adv-x="921" 
d="M82 0q-12 0 -16 8t4 17l344 483q3 6 0 12l-344 484q-8 9 -4 16.5t16 7.5h41q17 0 24 -12l308 -432q1 -3 6 -3t6 3l301 432q7 12 25 12h45q12 0 16 -7.5t-4 -16.5l-342 -484q-3 -6 0 -12l342 -483q8 -9 4 -17t-16 -8h-43q-18 0 -25 12l-301 432q-1 3 -6 3t-6 -3l-305 -432
q-7 -12 -25 -12h-45z" />
    <glyph glyph-name="y" unicode="y" horiz-adv-x="903" 
d="M125 -410q-14 0 -14 21v31q0 20 14 20h14q59 1 94 13t67 53.5t54.5 97.5t59.5 168q4 8 0 12l-355 1000q-6 22 17 22h39q18 0 24 -16l310 -893q1 -5 6 -5t6 5l301 893q6 16 24 16h39q23 0 17 -22l-391 -1121q-34 -98 -62 -154t-65 -88.5t-78 -42.5t-107 -10h-14z" />
    <glyph glyph-name="z" unicode="z" horiz-adv-x="899" 
d="M98 0q-20 0 -20 20v39q0 16 8 27l633 858q3 3 1.5 6.5t-5.5 3.5h-611q-20 0 -20 21v33q0 20 20 20h695q20 0 20 -20v-39q0 -16 -8 -27l-637 -858q-3 -3 -1.5 -6.5t5.5 -3.5h617q20 0 20 -21v-33q0 -20 -20 -20h-697z" />
    <glyph glyph-name="braceleft" unicode="{" horiz-adv-x="550" 
d="M365 -223q-99 0 -142 51.5t-43 171.5v455q0 87 -23 130t-73 54q-18 3 -18 20v33q0 18 18 21q50 12 73 55.5t23 128.5v440q0 120 43.5 172t141.5 52h100q20 0 20 -21v-31q0 -20 -20 -20h-86q-62 0 -90.5 -38t-28.5 -124v-426q0 -91 -22 -143t-68 -76q-10 -3 0 -10
q46 -27 68 -79t22 -142v-441q0 -86 28.5 -124t90.5 -38h86q20 0 20 -20v-31q0 -20 -20 -20h-100z" />
    <glyph glyph-name="bar" unicode="|" horiz-adv-x="305" 
d="M133 -164q-20 0 -20 21v1679q0 20 20 20h39q21 0 21 -20v-1679q0 -9 -6 -15t-15 -6h-39z" />
    <glyph glyph-name="braceright" unicode="}" horiz-adv-x="550" 
d="M186 -223h-100q-20 0 -20 20v31q0 20 20 20h86q62 0 90.5 38t28.5 124v441q0 90 22 142t68 79q10 7 0 10q-46 24 -68 76t-22 143v426q0 86 -28.5 124t-90.5 38h-86q-20 0 -20 20v31q0 21 20 21h100q98 0 141.5 -52t43.5 -172v-440q0 -85 23 -128.5t73 -55.5q18 -3 18 -21
v-33q0 -17 -18 -20q-50 -11 -73 -54t-23 -130v-455q0 -120 -43 -171.5t-142 -51.5z" />
    <glyph glyph-name="asciitilde" unicode="~" horiz-adv-x="993" 
d="M696 504q-14 0 -28.5 1.5t-26 3t-25.5 5.5t-22.5 6t-22.5 8t-20 8.5t-21 10.5t-18.5 9.5t-20 11t-18.5 10.5q-88 49 -158 49q-103 0 -163 -86q-10 -20 -27 -6l-19 12q-17 11 -8 26q31 59 87.5 93t127.5 34q84 0 181 -55q2 -1 23.5 -13t26.5 -14.5t24 -11.5t29.5 -12
l28 -8t34.5 -6.5t36 -1.5q46 0 76 20.5t66 63.5q12 15 28 4l23 -15q15 -12 6 -28q-77 -119 -199 -119z" />
    <glyph glyph-name="uni00A0" unicode="&#xa0;" horiz-adv-x="409" 
 />
    <glyph glyph-name="exclamdown" unicode="&#xa1;" horiz-adv-x="638" 
d="M313 1450q40 0 70.5 -28.5t30.5 -69.5q0 -39 -30.5 -68t-70.5 -29t-69 28.5t-29 68.5q0 41 28.5 69.5t69.5 28.5zM283 981q0 20 20 20h31q20 0 20 -20l4 -936q0 -20 -20 -20h-39q-20 0 -20 20z" />
    <glyph glyph-name="cent" unicode="&#xa2;" horiz-adv-x="1048" 
d="M852 457l2 10q3 20 25 16l34 -6q22 -4 19 -22q-1 -3 -2.5 -14t-3.5 -19q-25 -107 -123.5 -177.5t-235.5 -76.5q-8 0 -8 -8v-140q0 -20 -20 -20h-33q-21 0 -21 20l2 144q0 7 -8 10q-115 18 -193 89t-108 179q-24 91 -24 258q0 157 24 256q28 107 106 178t195 89q8 3 8 10
l-2 143q0 9 6 15t15 6h33q20 0 20 -21v-139q0 -8 8 -8q136 -6 233 -77t126 -177q5 -16 10 -53q3 -20 -18 -23l-37 -4q-20 -3 -23 18l-6 29q-20 91 -102 153t-201 62t-198.5 -64t-98.5 -167q-19 -86 -19 -228q0 -134 17 -225q22 -105 101 -169t198 -64t203.5 62.5t99.5 154.5
z" />
    <glyph glyph-name="sterling" unicode="&#xa3;" horiz-adv-x="1236" 
d="M395 80q-7 -10 4 -10h742q20 0 20 -21v-29q0 -20 -20 -20h-838q-20 0 -20 20v33q0 17 14 25q52 30 84.5 104t32.5 168v293q0 8 -8 8h-162q-9 0 -15 6t-6 15v26q0 9 6 15t15 6h162q8 0 8 8v342q0 173 98 273t272 108q131 6 220.5 -57t132.5 -189q6 -17 -15 -24l-39 -11
q-17 -6 -24 15q-65 202 -273 196q-140 -6 -216 -86.5t-76 -224.5v-342q0 -8 8 -8h399q9 0 15 -6t6 -15v-26q0 -9 -6 -15t-15 -6h-399q-8 0 -8 -8v-289q0 -175 -99 -274z" />
    <glyph glyph-name="currency" unicode="&#xa4;" horiz-adv-x="1017" 
d="M889 616q0 -134 -84 -239q-3 -7 2 -12l131 -132q13 -13 -2 -28l-25 -21q-14 -12 -28 2l-129 127q-6 6 -13 2q-105 -84 -239 -84q-132 0 -232 78q-7 3 -12 -2l-123 -121q-15 -16 -29 -2l-24 21q-15 15 -2 28l125 123q7 6 0 13q-92 110 -92 247q0 133 86 240q3 7 -2 12
l-131 131q-14 13 2 29l24 21q15 12 29 -2l127 -127q5 -5 12 -2q103 83 242 83q137 0 248 -90q6 -6 12 0l135 136q14 14 29 2l24 -21q16 -16 2 -29l-141 -139q-6 -3 -2 -12q80 -99 80 -232zM186 616q0 -130 92.5 -221.5t223.5 -91.5q129 0 221 91.5t92 221.5q0 129 -92 221.5
t-221 92.5q-130 0 -223 -92.5t-93 -221.5z" />
    <glyph glyph-name="yen" unicode="&#xa5;" horiz-adv-x="1411" 
d="M1161 1434q12 0 16.5 -7t-1.5 -18l-408 -698q-2 -3 0 -7t6 -4h264q21 0 21 -20v-18q0 -9 -6 -15t-15 -6h-284q-9 0 -9 -8v-193q0 -8 9 -8h284q21 0 21 -20v-19q0 -20 -21 -20h-284q-9 0 -9 -8v-345q0 -20 -20 -20h-37q-20 0 -20 20v345q0 8 -9 8h-294q-21 0 -21 20v19
q0 20 21 20h294q9 0 9 8v193q0 8 -9 8h-294q-9 0 -15 6t-6 15v18q0 20 21 20h274q4 0 6 4t0 7l-407 698q-6 11 -2 18t16 7h39q13 0 24 -15l385 -657q2 -3 7 -3t6 3l385 657q11 15 24 15h39z" />
    <glyph glyph-name="brokenbar" unicode="&#xa6;" horiz-adv-x="305" 
d="M133 811q-20 0 -20 20v705q0 20 20 20h39q21 0 21 -20v-705q0 -20 -21 -20h-39zM133 -164q-20 0 -20 21v704q0 21 20 21h39q9 0 15 -6t6 -15v-704q0 -9 -6 -15t-15 -6h-39z" />
    <glyph glyph-name="section" unicode="&#xa7;" horiz-adv-x="901" 
d="M455 -424q-134 0 -214.5 89t-80.5 241l-2 31q0 20 20 20h39q21 0 21 -20v-25q1 -121 61.5 -193.5t159.5 -72.5q97 0 159 72.5t62 177.5q0 52 -18.5 94.5t-42.5 68t-65.5 48t-68.5 32.5t-71 23q-84 26 -143 62t-95 100q-43 77 -43 176q0 113 53 198q66 98 179 125q6 1 6 4
t-6 4q-92 35 -151.5 119t-59.5 187q0 127 84.5 219t218.5 92q131 0 213.5 -87.5t85.5 -223.5v-27q0 -20 -21 -20h-39q-20 0 -20 20v23q0 106 -61.5 175.5t-155.5 69.5q-100 0 -163 -75.5t-63 -176.5q0 -102 68.5 -165t194.5 -103q147 -46 215 -131q63 -80 63 -207
q0 -117 -51 -205q-58 -104 -166 -122q-11 -3 0 -7q93 -37 149 -113t56 -184q0 -135 -86 -224t-221 -89zM453 242q142 0 204 106q37 67 37 158q0 113 -51 176q-75 92 -188 92q-64 0 -118.5 -35.5t-86.5 -91.5q-37 -64 -37 -149q0 -93 37 -148q69 -108 203 -108z" />
    <glyph glyph-name="dieresis" unicode="&#xa8;" horiz-adv-x="610" 
d="M147 1255q-34 0 -55.5 21t-21.5 53q0 30 22 51t55 21q30 0 51 -21t21 -51q0 -32 -20.5 -53t-51.5 -21zM469 1255q-32 0 -54 21t-22 53q0 30 22 51t54 21t53 -21t21 -51q0 -32 -21 -53t-53 -21z" />
    <glyph glyph-name="copyright" unicode="&#xa9;" horiz-adv-x="1826" 
d="M913 -16q-211 0 -381 95.5t-265 262t-95 371.5q0 156 55.5 293t153 234.5t235.5 153.5t297 56q127 0 242 -36t206 -102.5t157.5 -156.5t102.5 -203.5t36 -238.5q0 -153 -56 -288t-154 -232t-236.5 -153t-297.5 -56zM913 43q146 0 272.5 51.5t215 140.5t139.5 213t51 265
q0 192 -86.5 347t-241.5 243t-350 88t-350.5 -88t-242.5 -243t-87 -347q0 -188 87 -341.5t243 -241t350 -87.5zM915 346q-98 0 -155.5 55t-57.5 146v340q0 90 57.5 144t155.5 54q96 0 154.5 -53.5t58.5 -142.5v-4q0 -19 -20 -19l-21 2q-20 0 -20 13v12q0 61 -42.5 99
t-109.5 38q-70 0 -111.5 -37.5t-41.5 -99.5v-356q0 -60 42 -98t111 -38q66 0 109 38t43 98v6q0 9 5.5 15.5t14.5 6.5h21q20 0 20 -8v-12q0 -89 -59.5 -144t-153.5 -55z" />
    <glyph glyph-name="ordfeminine" unicode="&#xaa;" horiz-adv-x="659" 
d="M336 1151h158q8 0 8 8v62q0 78 -44.5 126t-135.5 48q-68 0 -114 -28.5t-58 -76.5q-6 -19 -25 -16l-21 4q-21 4 -16 22q14 68 78.5 109t159.5 41q116 0 177.5 -61t61.5 -164v-445q0 -20 -20 -20h-23q-20 0 -20 20v51q0 5 -3 6t-7 -3q-66 -84 -211 -84q-97 0 -160.5 45.5
t-63.5 140.5q0 100 75 157.5t204 57.5zM287 803q89 0 152 43t63 123v118q0 9 -8 9h-156q-100 0 -160.5 -40t-60.5 -116q0 -69 47.5 -103t122.5 -34zM57 573q0 9 6 15t15 6h483q9 0 15 -6t6 -15v-24q0 -9 -6 -15t-15 -6h-483q-9 0 -15 6t-6 15v24z" />
    <glyph glyph-name="guillemotleft" unicode="&#xab;" horiz-adv-x="1134" 
d="M580 244q8 -9 4.5 -17t-15.5 -8h-34q-16 0 -25 12l-283 330q-6 6 -6 14.5t6 14.5l283 330q9 12 25 12h34q12 0 15.5 -8t-4.5 -17l-279 -325q-3 -6 0 -13zM891 244q8 -9 5 -17t-15 -8h-35q-16 0 -25 12l-282 330q-6 6 -6 14.5t6 14.5l282 330q9 12 25 12h35q12 0 15 -8
t-5 -17l-279 -325q-3 -6 0 -13z" />
    <glyph glyph-name="logicalnot" unicode="&#xac;" horiz-adv-x="1038" 
d="M90 668q0 20 21 20h817q20 0 20 -20v-283q0 -20 -20 -20h-33q-21 0 -21 20v225q0 8 -8 8h-755q-9 0 -15 6t-6 15v29z" />
    <glyph glyph-name="uni00AD" unicode="&#xad;" horiz-adv-x="794" 
d="M111 614q-9 0 -15 6t-6 15v31q0 20 21 20h573q21 0 21 -20v-31q0 -9 -6 -15t-15 -6h-573z" />
    <glyph glyph-name="registered" unicode="&#xae;" horiz-adv-x="929" 
d="M465 1464q166 0 281.5 -114t115.5 -277q0 -164 -115.5 -278.5t-281.5 -114.5q-164 0 -279.5 114.5t-115.5 278.5q0 163 115.5 277t279.5 114zM465 733q142 0 242 99.5t100 240.5q0 140 -100 239t-242 99q-141 0 -241.5 -99.5t-100.5 -238.5q0 -141 100.5 -240.5
t241.5 -99.5zM588 1145q0 -68 -58 -90q-7 -2 -4 -11l58 -131q4 -10 -1 -17t-16 -7h-10q-17 0 -22 16l-58 135q-3 7 -8 7h-45q-8 0 -8 -9v-129q0 -20 -21 -20h-8q-20 0 -20 20v322q0 20 20 20h98q45 0 74 -30t29 -76zM424 1208q-8 0 -8 -8v-106q0 -9 8 -9h57q26 0 42 16
t16 44q0 29 -16 46t-42 17h-57z" />
    <glyph glyph-name="macron" unicode="&#xaf;" horiz-adv-x="526" 
d="M20 1231q-20 0 -20 20v25q0 20 20 20h486q20 0 20 -20v-25q0 -20 -20 -20h-486z" />
    <glyph glyph-name="degree" unicode="&#xb0;" horiz-adv-x="784" 
d="M391 1012q-135 0 -228 93t-93 228t93 228.5t228 93.5q136 0 230 -93.5t94 -228.5t-94 -228t-230 -93zM391 1075q108 0 183 75t75 183q0 109 -74.5 183.5t-183.5 74.5q-107 0 -181.5 -74.5t-74.5 -183.5q0 -107 74.5 -182.5t181.5 -75.5z" />
    <glyph glyph-name="plusminus" unicode="&#xb1;" horiz-adv-x="1038" 
d="M553 725q0 -8 8 -8h367q20 0 20 -21v-28q0 -21 -20 -21h-367q-8 0 -8 -8v-356q0 -9 -6 -15t-15 -6h-28q-9 0 -15 6t-6 15v356q0 8 -8 8h-364q-9 0 -15 6t-6 15v28q0 9 6 15t15 6h364q8 0 8 8v375q0 20 21 20h28q21 0 21 -20v-375zM111 0q-21 0 -21 20v29q0 9 6 15t15 6
h817q20 0 20 -21v-29q0 -20 -20 -20h-817z" />
    <glyph glyph-name="uni00B2" unicode="&#xb2;" horiz-adv-x="651" 
d="M98 930q-20 0 -20 20v23q0 13 8 24q245 309 279 353q116 150 116 237q0 69 -47.5 111.5t-124.5 42.5q-75 0 -121 -43t-45 -113v-33q0 -20 -20 -20h-27q-20 0 -20 20v41q1 93 66 150t167 57q106 0 172 -60t66 -153q0 -104 -117 -258q-84 -111 -260 -332q-7 -10 4 -10h381
q20 0 20 -20v-17q0 -20 -20 -20h-457z" />
    <glyph glyph-name="uni00B3" unicode="&#xb3;" horiz-adv-x="657" 
d="M530 1352q35 -68 35 -166q0 -90 -30 -152q-58 -119 -209 -119q-84 0 -141 45t-81 121q-12 32 -12 82q0 21 21 21h26q21 0 21 -21q0 -27 4 -59q11 -57 55 -92t107 -35q102 0 145 82q27 59 27 127q0 84 -31 141q-42 82 -141 82q-21 0 -31 -4q-19 -3 -27 8l-10 12
q-14 15 0 29l213 264q3 3 1.5 7t-5.5 4h-350q-21 0 -21 20v16q0 9 6 15t15 6h422q20 0 20 -21v-22q0 -14 -8 -25l-197 -250q-3 -3 -1.5 -6.5t7.5 -3.5q116 -9 170 -106z" />
    <glyph glyph-name="acute" unicode="&#xb4;" horiz-adv-x="368" 
d="M96 1186q-12 0 -16 7t2 17l125 228q6 14 24 14h39q12 0 16.5 -7t-1.5 -18l-135 -227q-10 -14 -25 -14h-29z" />
    <glyph glyph-name="uni00B5" unicode="&#xb5;" horiz-adv-x="1112" 
d="M842 1008q0 20 20 20h39q21 0 21 -20v-988q0 -20 -21 -20h-39q-20 0 -20 20v109q0 4 -2 5.5t-4.5 0.5t-4.5 -4q-91 -145 -296 -145q-161 0 -256 98q-11 7 -11 -4v-469q0 -21 -20 -21h-39q-9 0 -15 6t-6 15v1397q0 20 21 20h39q20 0 20 -20v-666q0 -130 76.5 -207.5
t204.5 -77.5q133 0 213 79t80 206v666z" />
    <glyph glyph-name="paragraph" unicode="&#xb6;" horiz-adv-x="1136" 
d="M504 1434h391q20 0 20 -21v-1802q0 -21 -20 -21h-25q-20 0 -20 21v1749q0 8 -8 8h-289q-8 0 -8 -8v-1749q0 -9 -6 -15t-15 -6h-28q-9 0 -15 6t-6 15v893q0 8 -8 8q-106 5 -194 67.5t-138.5 167t-50.5 226.5q0 126 55.5 232t152 167.5t212.5 61.5z" />
    <glyph glyph-name="periodcentered" unicode="&#xb7;" horiz-adv-x="198" 
d="M53 10q-41 0 -69.5 29t-28.5 70q0 39 29.5 67.5t68.5 28.5q40 0 71.5 -28.5t31.5 -67.5q0 -41 -30.5 -70t-72.5 -29z" />
    <glyph glyph-name="cedilla" unicode="&#xb8;" horiz-adv-x="260" 
d="M20 -369q-20 3 -16 25l4 16q6 20 27 17q59 -13 102 5t53 73q18 100 -102 208q-11 9 -9.5 17t13.5 8h19q15 0 26 -8q146 -113 119 -248q-13 -55 -53 -85.5t-87 -32.5t-96 5z" />
    <glyph glyph-name="uni00B9" unicode="&#xb9;" horiz-adv-x="368" 
d="M182 1784q12 6 25 6h35q20 0 20 -21v-819q0 -20 -20 -20h-27q-20 0 -20 20v760q0 3 -3 6t-6 2l-77 -22q-10 -3 -16.5 2t-6.5 16v12q0 17 16 23z" />
    <glyph glyph-name="ordmasculine" unicode="&#xba;" horiz-adv-x="690" 
d="M348 752q-92 0 -155.5 48t-88.5 132q-14 55 -14 170q0 116 12 168q22 83 87.5 131.5t158.5 48.5q91 0 156.5 -49t87.5 -131q12 -45 12 -168q0 -125 -12 -170q-22 -81 -87.5 -130.5t-156.5 -49.5zM348 809q70 0 119 40t63 107q9 35 9 146q0 109 -7 143q-18 68 -66.5 108
t-119.5 40t-119 -40.5t-63 -107.5q-8 -41 -8 -143q0 -107 8 -146q15 -68 63 -107.5t121 -39.5zM98 528q-20 0 -20 21v24q0 21 20 21h496q20 0 20 -21v-24q0 -21 -20 -21h-496z" />
    <glyph glyph-name="guillemotright" unicode="&#xbb;" horiz-adv-x="1134" 
d="M256 219q-12 0 -15 8t5 17l278 325q3 7 0 13l-278 325q-8 9 -5 17t15 8h35q15 0 24 -12l283 -330q14 -14 0 -29l-283 -330q-9 -12 -24 -12h-35zM567 219q-12 0 -15 8t5 17l279 325q3 7 0 13l-279 325q-8 9 -5 17t15 8h35q16 0 25 -12l282 -330q6 -6 6 -14.5t-6 -14.5
l-282 -330q-9 -12 -25 -12h-35z" />
    <glyph glyph-name="onequarter" unicode="&#xbc;" horiz-adv-x="1603" 
d="M262 594q0 -21 -20 -21h-27q-20 0 -20 21v760q0 3 -3 6t-6 2l-77 -23q-10 -3 -16.5 2.5t-6.5 16.5v12q0 17 16 23l80 34q14 7 25 7h35q20 0 20 -21v-819zM1116 1419q11 15 25 15h28q12 0 15.5 -7t-2.5 -18l-899 -1395q-11 -14 -25 -14h-27q-12 0 -15 7t3 18zM1503 301
q21 0 21 -20v-21q0 -20 -21 -20h-39q-8 0 -8 -9v-211q0 -20 -20 -20h-27q-20 0 -20 20v211q0 3 -3 6t-6 3h-352q-20 0 -20 20v21q0 9 6 24l254 541q6 14 22 14h25q11 0 14.5 -7t-0.5 -17l-246 -525q-2 -3 0.5 -6.5t6.5 -3.5h290q9 0 9 8v197q0 20 20 20h27q20 0 20 -20v-197
q0 -8 8 -8h39z" />
    <glyph glyph-name="onehalf" unicode="&#xbd;" horiz-adv-x="1593" 
d="M262 594q0 -21 -20 -21h-27q-20 0 -20 21v760q0 3 -3 6t-6 2l-77 -23q-10 -3 -16.5 2.5t-6.5 16.5v12q0 17 16 23l80 34q14 7 25 7h35q20 0 20 -21v-819zM1116 1419q11 15 25 15h28q12 0 15.5 -7t-2.5 -18l-899 -1395q-11 -14 -25 -14h-27q-12 0 -15 7t3 18zM1112 68
q-7 -11 4 -11h381q21 0 21 -20v-17q0 -20 -21 -20h-457q-20 0 -20 20v23q0 14 8 25q270 341 279 352q116 150 116 237q0 69 -47.5 111.5t-124.5 42.5q-75 0 -121 -43t-45 -113v-32q0 -21 -20 -21h-27q-20 0 -20 21v41q1 93 66 149.5t167 56.5q106 0 172 -60t66 -153
q0 -104 -117 -258q-69 -91 -260 -331z" />
    <glyph glyph-name="threequarters" unicode="&#xbe;" horiz-adv-x="1814" 
d="M535 698q-28 -57 -82 -87.5t-127 -30.5q-84 0 -141 44.5t-81 120.5q-12 32 -12 82q0 21 21 21h26q21 0 21 -21q0 -27 4 -59q11 -57 55 -92t107 -35q102 0 145 82q27 59 27 127q0 84 -31 141q-42 82 -141 82q-21 0 -31 -4q-19 -3 -27 8l-10 13q-14 14 0 28l213 264
q3 3 1.5 7t-5.5 4h-350q-21 0 -21 20v17q0 20 21 20h422q20 0 20 -20v-23q0 -14 -8 -25l-197 -249q-3 -3 -1.5 -7t5.5 -4q118 -9 172 -106q35 -68 35 -166q0 -90 -30 -152zM1327 1419q11 15 25 15h28q12 0 15.5 -7t-2.5 -18l-899 -1395q-10 -14 -25 -14h-27q-12 0 -15 7
t3 18zM1714 301q21 0 21 -20v-21q0 -20 -21 -20h-39q-8 0 -8 -9v-211q0 -20 -20 -20h-27q-21 0 -21 20v211q0 9 -8 9h-352q-20 0 -20 20v21q0 9 6 24l254 541q6 14 22 14h25q11 0 14.5 -7t-0.5 -17l-246 -525q-2 -3 0 -6.5t6 -3.5h291q8 0 8 8v197q0 20 21 20h27
q20 0 20 -20v-197q0 -8 8 -8h39z" />
    <glyph glyph-name="questiondown" unicode="&#xbf;" horiz-adv-x="886" 
d="M475 1016q40 0 68 -28t28 -68q0 -38 -28.5 -65.5t-67.5 -27.5t-68.5 27.5t-29.5 65.5q0 39 29.5 67.5t68.5 28.5zM502 635q20 0 20 -21v-143q0 -52 -19 -96t-49.5 -76t-67 -62t-73 -61.5t-67 -66.5t-49.5 -85.5t-19 -111.5q0 -121 73.5 -193.5t192.5 -72.5
q122 0 196.5 73t74.5 191v76q0 20 20 20l39 -2q21 0 21 -20v-74q0 -150 -97.5 -244t-253.5 -94t-251 93.5t-95 248.5q0 81 25 146.5t63 106t82 79t82 68t63 71t25 88.5v141q0 9 6 15t15 6h43z" />
    <glyph glyph-name="Agrave" unicode="&#xc0;" horiz-adv-x="1183" 
d="M606 1616q6 -10 2 -17.5t-16 -7.5h-29q-13 0 -24 15l-136 227q-6 11 -1.5 18t16.5 7h39q18 0 24 -15zM1044 0q-18 0 -24 16l-92 283q-2 6 -8 6h-660q-6 0 -8 -6l-90 -283q-6 -16 -25 -16h-39q-23 0 -16 23l457 1394q7 17 24 17h53q18 0 25 -17l461 -1394
q3 -10 -1.5 -16.5t-15.5 -6.5h-41zM279 383q-2 -3 1 -6.5t7 -3.5h608q4 0 7 3.5t1 6.5l-307 938q-2 5 -6 5t-6 -5z" />
    <glyph glyph-name="Aacute" unicode="&#xc1;" horiz-adv-x="1183" 
d="M719 1858q12 0 16 -7t-2 -18l-135 -227q-11 -15 -25 -15h-28q-12 0 -16.5 7.5t1.5 17.5l125 227q6 15 25 15h39zM1044 0q-18 0 -24 16l-92 283q-2 6 -8 6h-660q-6 0 -8 -6l-90 -283q-6 -16 -25 -16h-39q-23 0 -16 23l457 1394q7 17 24 17h53q18 0 25 -17l461 -1394
q3 -10 -1.5 -16.5t-15.5 -6.5h-41zM279 383q-2 -3 1 -6.5t7 -3.5h608q4 0 7 3.5t1 6.5l-307 938q-2 5 -6 5t-6 -5z" />
    <glyph glyph-name="Acircumflex" unicode="&#xc2;" horiz-adv-x="1183" 
d="M596 1772q-5 10 -12 0l-144 -187q-7 -12 -26 -12h-31q-12 0 -15.5 7.5t3.5 16.5l170 222q7 12 26 12h43q20 0 27 -12l170 -222q7 -9 3.5 -16.5t-15.5 -7.5h-31q-20 0 -27 12zM1044 0q-18 0 -24 16l-92 283q-2 6 -8 6h-660q-6 0 -8 -6l-90 -283q-6 -16 -25 -16h-39
q-23 0 -16 23l457 1394q7 17 24 17h53q18 0 25 -17l461 -1394q3 -10 -1.5 -16.5t-15.5 -6.5h-41zM279 383q-2 -3 1 -6.5t7 -3.5h608q4 0 7 3.5t1 6.5l-307 938q-2 5 -6 5t-6 -5z" />
    <glyph glyph-name="Atilde" unicode="&#xc3;" horiz-adv-x="1183" 
d="M500 1726q-35 0 -59 -11t-50 -46q-13 -17 -29 -6l-14 10q-15 12 -6 29q59 90 156 90q7 0 14.5 -1t13 -2t13 -3t12 -3.5t12 -5.5t11 -5.5t11.5 -6t11 -6.5t11.5 -7.5t10.5 -6.5q65 -45 101 -45q64 0 110 63q10 16 27 6l12 -6q20 -12 9 -28q-28 -52 -72.5 -76.5
t-85.5 -24.5q-55 0 -121 49q-23 17 -33.5 23.5t-28.5 13t-36 6.5zM1044 0q-18 0 -24 16l-92 283q-2 6 -8 6h-660q-6 0 -8 -6l-90 -283q-6 -16 -25 -16h-39q-23 0 -16 23l457 1394q7 17 24 17h53q18 0 25 -17l461 -1394q3 -10 -1.5 -16.5t-15.5 -6.5h-41zM279 383
q-2 -3 1 -6.5t7 -3.5h608q4 0 7 3.5t1 6.5l-307 938q-2 5 -6 5t-6 -5z" />
    <glyph glyph-name="Adieresis" unicode="&#xc4;" horiz-adv-x="1183" 
d="M430 1661q-34 0 -56 21t-22 53q0 30 22.5 50.5t55.5 20.5q30 0 51 -21t21 -50q0 -32 -20.5 -53t-51.5 -21zM752 1661q-32 0 -54 21t-22 53q0 29 22 50t54 21t52.5 -20.5t20.5 -50.5q0 -32 -20.5 -53t-52.5 -21zM1044 0q-18 0 -24 16l-92 283q-2 6 -8 6h-660q-6 0 -8 -6
l-90 -283q-6 -16 -25 -16h-39q-23 0 -16 23l457 1394q7 17 24 17h53q18 0 25 -17l461 -1394q3 -10 -1.5 -16.5t-15.5 -6.5h-41zM279 383q-2 -3 1 -6.5t7 -3.5h608q4 0 7 3.5t1 6.5l-307 938q-2 5 -6 5t-6 -5z" />
    <glyph glyph-name="Aring" unicode="&#xc5;" horiz-adv-x="1183" 
d="M590 1579q-86 0 -146.5 59t-60.5 144t60.5 144t146.5 59t146.5 -59t60.5 -144t-60.5 -144t-146.5 -59zM590 1929q-62 0 -106 -42.5t-44 -104.5t44 -105t106 -43t105.5 42.5t43.5 105.5q0 62 -43.5 104.5t-105.5 42.5zM1044 0q-18 0 -24 16l-92 283q-2 6 -8 6h-660
q-6 0 -8 -6l-90 -283q-6 -16 -25 -16h-39q-23 0 -16 23l457 1394q7 17 24 17h53q18 0 25 -17l461 -1394q3 -10 -1.5 -16.5t-15.5 -6.5h-41zM279 383q-2 -3 1 -6.5t7 -3.5h608q4 0 7 3.5t1 6.5l-307 938q-2 5 -6 5t-6 -5z" />
    <glyph glyph-name="AE" unicode="&#xc6;" horiz-adv-x="1849" 
d="M1712 1382q0 -20 -20 -20h-717q-8 0 -8 -8v-590q0 -8 8 -8h493q9 0 15 -6t6 -15v-33q0 -20 -21 -20h-493q-8 0 -8 -8v-594q0 -8 8 -8h717q20 0 20 -21v-31q0 -20 -20 -20h-785q-20 0 -20 20v277q0 8 -8 8h-547q-7 0 -10 -6l-150 -285q-6 -14 -25 -14h-45q-11 0 -16 7
t0 18l748 1394q6 15 24 15h834q20 0 20 -21v-31zM369 383q-3 -10 4 -10h506q8 0 8 8v956q0 4 -1.5 5.5t-4 0.5t-4.5 -4z" />
    <glyph glyph-name="Ccedilla" unicode="&#xc7;" horiz-adv-x="1241" 
d="M1087 1012q0 -5 -5.5 -9t-14.5 -4l-39 -2q-20 0 -20 13v12q0 160 -104 258t-273 98q-171 0 -275 -98t-104 -258v-610q0 -160 104 -259.5t275 -99.5q169 0 273 99.5t104 259.5v4q0 18 20 18l39 -2q20 0 20 -8v-10q0 -193 -126 -312.5t-330 -119.5h-27q-4 0 -5.5 -1.5
t-0.5 -3.5t4 -4q132 -110 105 -237q-13 -55 -53 -85.5t-87 -32.5t-96 5q-20 3 -16 25l4 16q6 20 26 17q59 -13 102.5 4.5t53.5 72.5q19 101 -102 209q-29 25 -25 25q-21 6 -29 8q-145 37 -229 147.5t-84 268.5v604q0 194 126 312t333 118q205 0 330.5 -117.5t125.5 -310.5
v-10z" />
    <glyph glyph-name="Egrave" unicode="&#xc8;" horiz-adv-x="1259" 
d="M678 1636q6 -10 2 -17t-16 -7h-29q-15 0 -25 14l-135 227q-6 11 -2 18t16 7h39q19 0 25 -14zM1122 1382q0 -20 -20 -20h-791q-8 0 -8 -8v-590q0 -8 8 -8h566q20 0 20 -21v-33q0 -20 -20 -20h-566q-8 0 -8 -8v-594q0 -8 8 -8h791q20 0 20 -21v-31q0 -20 -20 -20h-858
q-21 0 -21 20v1393q0 9 6 15t15 6h858q20 0 20 -21v-31z" />
    <glyph glyph-name="Eacute" unicode="&#xc9;" horiz-adv-x="1259" 
d="M791 1878q12 0 16 -7t-2 -18l-135 -227q-10 -14 -25 -14h-29q-12 0 -16 7t2 17l125 228q6 14 25 14h39zM1122 1382q0 -20 -20 -20h-791q-8 0 -8 -8v-590q0 -8 8 -8h566q20 0 20 -21v-33q0 -20 -20 -20h-566q-8 0 -8 -8v-594q0 -8 8 -8h791q20 0 20 -21v-31q0 -20 -20 -20
h-858q-21 0 -21 20v1393q0 9 6 15t15 6h858q20 0 20 -21v-31z" />
    <glyph glyph-name="Ecircumflex" unicode="&#xca;" horiz-adv-x="1259" 
d="M668 1792q-2 3 -6 3.5t-7 -3.5l-143 -186q-8 -13 -27 -13h-30q-12 0 -16 8t3 17l170 221q7 12 27 12h43q20 0 27 -12l170 -221q7 -9 3 -17t-16 -8h-30q-19 0 -27 13zM1122 1382q0 -20 -20 -20h-791q-8 0 -8 -8v-590q0 -8 8 -8h566q20 0 20 -21v-33q0 -20 -20 -20h-566
q-8 0 -8 -8v-594q0 -8 8 -8h791q20 0 20 -21v-31q0 -20 -20 -20h-858q-21 0 -21 20v1393q0 9 6 15t15 6h858q20 0 20 -21v-31z" />
    <glyph glyph-name="Edieresis" unicode="&#xcb;" horiz-adv-x="1259" 
d="M502 1681q-34 0 -56 21t-22 53q0 30 22.5 51t55.5 21q30 0 50.5 -21t20.5 -51q0 -32 -20 -53t-51 -21zM823 1681q-32 0 -53.5 21t-21.5 53q0 30 21.5 51t53.5 21t53 -21t21 -51q0 -32 -21 -53t-53 -21zM1122 1382q0 -20 -20 -20h-791q-8 0 -8 -8v-590q0 -8 8 -8h566
q20 0 20 -21v-33q0 -20 -20 -20h-566q-8 0 -8 -8v-594q0 -8 8 -8h791q20 0 20 -21v-31q0 -20 -20 -20h-858q-21 0 -21 20v1393q0 9 6 15t15 6h858q20 0 20 -21v-31z" />
    <glyph glyph-name="Igrave" unicode="&#xcc;" horiz-adv-x="526" 
d="M281 1636q6 -10 1.5 -17t-16.5 -7h-28q-14 0 -25 14l-135 227q-6 11 -2 18t16 7h39q19 0 25 -14zM244 0q-21 0 -21 20v1393q0 9 6 15t15 6h39q20 0 20 -21v-1393q0 -20 -20 -20h-39z" />
    <glyph glyph-name="Iacute" unicode="&#xcd;" horiz-adv-x="526" 
d="M219 1612q-12 0 -16 7t2 17l125 228q6 14 24 14h39q12 0 16.5 -7t-1.5 -18l-136 -227q-11 -14 -24 -14h-29zM244 0q-21 0 -21 20v1393q0 9 6 15t15 6h39q20 0 20 -21v-1393q0 -20 -20 -20h-39z" />
    <glyph glyph-name="Icircumflex" unicode="&#xce;" horiz-adv-x="526" 
d="M57 1593q-12 0 -16 8t4 17l170 221q7 12 27 12h43q19 0 26 -12l170 -221q8 -9 4 -17t-16 -8h-31q-18 0 -26 13l-142 186q-5 10 -12 0l-143 -186q-8 -13 -27 -13h-31zM244 0q-21 0 -21 20v1393q0 9 6 15t15 6h39q20 0 20 -21v-1393q0 -20 -20 -20h-39z" />
    <glyph glyph-name="Idieresis" unicode="&#xcf;" horiz-adv-x="526" 
d="M104 1681q-34 0 -55.5 21t-21.5 53q0 30 22 51t55 21q30 0 51 -21t21 -51q0 -32 -20.5 -53t-51.5 -21zM426 1681q-32 0 -54 21t-22 53q0 30 22 51t54 21t53 -21t21 -51q0 -32 -21 -53t-53 -21zM244 0q-21 0 -21 20v1393q0 9 6 15t15 6h39q20 0 20 -21v-1393
q0 -20 -20 -20h-39z" />
    <glyph glyph-name="Eth" unicode="&#xd0;" horiz-adv-x="1413" 
d="M860 1434q190 0 300 -101.5t110 -277.5v-676q0 -176 -110 -277.5t-300 -101.5h-469q-20 0 -20 20v689q0 8 -9 8h-118q-21 0 -21 20v25q0 20 21 20h118q3 0 6 3t3 6v622q0 21 20 21h469zM1190 383v666q0 146 -87.5 229.5t-238.5 83.5h-405q-8 0 -8 -8v-563q0 -9 8 -9h276
q21 0 21 -20v-25q0 -20 -21 -20h-276q-8 0 -8 -8v-629q0 -8 8 -8h405q151 0 238.5 83t87.5 228z" />
    <glyph glyph-name="Ntilde" unicode="&#xd1;" horiz-adv-x="1392" 
d="M827 1655q-54 0 -120 49q-22 16 -33.5 23t-29.5 13.5t-36 6.5q-35 0 -58.5 -11t-49.5 -46q-14 -17 -29 -7l-14 11q-14 11 -6 28q59 90 155 90q23 0 47 -8.5t35 -14.5t39 -24q65 -45 100 -45q65 0 111 64q10 16 27 6l12 -6q20 -12 2 -41q-30 -46 -71.5 -67t-80.5 -21z
M244 0q-21 0 -21 20v1393q0 9 6 15t15 6h41q13 0 24 -15l772 -1249q3 -6 7 -5t4 7v1241q0 21 20 21h39q20 0 20 -21v-1393q0 -20 -20 -20h-43q-14 0 -25 14l-770 1252q-3 6 -6.5 5t-3.5 -7v-1244q0 -20 -20 -20h-39z" />
    <glyph glyph-name="Ograve" unicode="&#xd2;" horiz-adv-x="1273" 
d="M651 1632q6 -10 2 -17t-16 -7h-29q-14 0 -24 14l-135 227q-6 11 -2 18t16 7h39q18 0 24 -14zM635 -16q-209 0 -336 126t-127 330v551q0 206 127 332.5t336 126.5q210 0 338.5 -126.5t128.5 -332.5v-551q0 -204 -128.5 -330t-338.5 -126zM635 55q174 0 280.5 105
t106.5 276v557q0 173 -107 279t-280 106q-172 0 -277.5 -106t-105.5 -279v-557q0 -172 105.5 -276.5t277.5 -104.5z" />
    <glyph glyph-name="Oacute" unicode="&#xd3;" horiz-adv-x="1273" 
d="M590 1608q-12 0 -16.5 7t1.5 17l125 228q6 14 25 14h39q12 0 16 -7t-2 -18l-135 -227q-11 -14 -25 -14h-28zM635 -16q-209 0 -336 126t-127 330v551q0 206 127 332.5t336 126.5q210 0 338.5 -126.5t128.5 -332.5v-551q0 -204 -128.5 -330t-338.5 -126zM635 55
q174 0 280.5 105t106.5 276v557q0 173 -107 279t-280 106q-172 0 -277.5 -106t-105.5 -279v-557q0 -172 105.5 -276.5t277.5 -104.5z" />
    <glyph glyph-name="Ocircumflex" unicode="&#xd4;" horiz-adv-x="1273" 
d="M428 1589q-12 0 -16 8t4 17l170 221q7 12 26 12h43q20 0 27 -12l170 -221q8 -9 4 -17t-16 -8h-31q-19 0 -27 13l-141 186q-5 10 -12 0l-144 -186q-8 -13 -26 -13h-31zM635 -16q-209 0 -336 126t-127 330v551q0 206 127 332.5t336 126.5q210 0 338.5 -126.5t128.5 -332.5
v-551q0 -204 -128.5 -330t-338.5 -126zM635 55q174 0 280.5 105t106.5 276v557q0 173 -107 279t-280 106q-172 0 -277.5 -106t-105.5 -279v-557q0 -172 105.5 -276.5t277.5 -104.5z" />
    <glyph glyph-name="Otilde" unicode="&#xd5;" horiz-adv-x="1273" 
d="M764 1651q-55 0 -121 49q-23 17 -33.5 23.5t-28.5 13t-36 6.5q-35 0 -59 -11t-50 -46q-13 -17 -28 -7l-15 11q-14 11 -6 28q59 90 156 90q23 0 47 -8.5t35 -14.5t39 -24q65 -45 100 -45q64 0 110 64q10 16 27 6l12 -6q20 -12 2 -41q-30 -46 -71 -67t-80 -21zM635 -16
q-209 0 -336 126t-127 330v551q0 206 127 332.5t336 126.5q210 0 338.5 -126.5t128.5 -332.5v-551q0 -204 -128.5 -330t-338.5 -126zM635 55q174 0 280.5 105t106.5 276v557q0 173 -107 279t-280 106q-172 0 -277.5 -106t-105.5 -279v-557q0 -172 105.5 -276.5t277.5 -104.5
z" />
    <glyph glyph-name="Odieresis" unicode="&#xd6;" horiz-adv-x="1273" 
d="M475 1677q-34 0 -56 21t-22 53q0 30 22.5 51t55.5 21q30 0 51 -21t21 -51q0 -32 -20.5 -53t-51.5 -21zM797 1677q-32 0 -54 21t-22 53q0 30 22 51t54 21t52.5 -21t20.5 -51q0 -32 -20.5 -53t-52.5 -21zM635 -16q-209 0 -336 126t-127 330v551q0 206 127 332.5t336 126.5
q210 0 338.5 -126.5t128.5 -332.5v-551q0 -204 -128.5 -330t-338.5 -126zM635 55q174 0 280.5 105t106.5 276v557q0 173 -107 279t-280 106q-172 0 -277.5 -106t-105.5 -279v-557q0 -172 105.5 -276.5t277.5 -104.5z" />
    <glyph glyph-name="multiply" unicode="&#xd7;" horiz-adv-x="841" 
d="M739 950q14 -14 0 -28l-258 -258q-7 -6 0 -13l250 -252q12 -12 0 -28l-20 -23q-15 -14 -29 0l-252 252q-6 6 -12 0l-256 -256q-14 -14 -29 0l-20 21q-14 14 0 28l256 256q7 7 0 13l-265 266q-14 14 0 28l21 21q6 6 14.5 6t14.5 -6l266 -264q6 -6 12 0l258 258q6 6 14.5 6
t14.5 -6z" />
    <glyph glyph-name="Oslash" unicode="&#xd8;" horiz-adv-x="1277" 
d="M928 1374q-3 -8 2 -10q84 -61 130 -157t46 -216v-551q0 -204 -128.5 -330t-338.5 -126q-163 0 -285 82q-8 5 -12 -3l-51 -114q-6 -17 -23 -17h-30q-11 0 -16 7.5t-1 17.5l72 156q3 5 -2 10q-115 124 -115 317v551q0 206 127 332.5t336 126.5q128 0 219 -45q10 -3 12 4
l41 92q6 17 23 17h31q11 0 15.5 -7.5t0.5 -17.5zM256 436q0 -133 68 -229q7 -10 10 0l497 1118q3 9 -2 12q-84 41 -190 41q-172 0 -277.5 -106t-105.5 -279v-557zM1026 436v557q0 188 -125 297q-8 6 -12 -2l-508 -1138q-3 -8 4 -11q100 -84 254 -84q174 0 280.5 105
t106.5 276z" />
    <glyph glyph-name="Ugrave" unicode="&#xd9;" horiz-adv-x="1343" 
d="M688 1640q6 -10 2 -17t-16 -7h-29q-13 0 -24 14l-136 228q-6 10 -1.5 17t16.5 7h39q18 0 24 -14zM672 -16q-209 0 -337 122t-128 322v985q0 21 20 21h39q9 0 15 -6t6 -15v-991q0 -164 106 -265.5t279 -101.5q174 0 280.5 101t106.5 266v991q0 21 20 21h39q9 0 15 -6
t6 -15v-985q0 -200 -128 -322t-339 -122z" />
    <glyph glyph-name="Uacute" unicode="&#xda;" horiz-adv-x="1343" 
d="M627 1616q-12 0 -16.5 7t1.5 17l125 228q6 14 25 14h39q12 0 16 -7t-2 -17l-135 -228q-10 -14 -25 -14h-28zM672 -16q-209 0 -337 122t-128 322v985q0 21 20 21h39q9 0 15 -6t6 -15v-991q0 -164 106 -265.5t279 -101.5q174 0 280.5 101t106.5 266v991q0 21 20 21h39
q9 0 15 -6t6 -15v-985q0 -200 -128 -322t-339 -122z" />
    <glyph glyph-name="Ucircumflex" unicode="&#xdb;" horiz-adv-x="1343" 
d="M465 1597q-12 0 -16 8t4 17l170 221q7 12 26 12h43q20 0 27 -12l170 -221q8 -9 4 -17t-16 -8h-31q-19 0 -27 13l-141 186q-5 10 -12 0l-144 -186q-8 -13 -26 -13h-31zM672 -16q-209 0 -337 122t-128 322v985q0 21 20 21h39q9 0 15 -6t6 -15v-991q0 -164 106 -265.5
t279 -101.5q174 0 280.5 101t106.5 266v991q0 21 20 21h39q9 0 15 -6t6 -15v-985q0 -200 -128 -322t-339 -122z" />
    <glyph glyph-name="Udieresis" unicode="&#xdc;" horiz-adv-x="1343" 
d="M512 1686q-34 0 -56 20.5t-22 52.5q0 30 22.5 51t55.5 21q30 0 51 -21t21 -51q0 -32 -20.5 -52.5t-51.5 -20.5zM834 1686q-33 0 -54.5 20.5t-21.5 52.5q0 30 22 51t54 21t52.5 -21t20.5 -51q0 -32 -20.5 -52.5t-52.5 -20.5zM672 -16q-209 0 -337 122t-128 322v985
q0 21 20 21h39q9 0 15 -6t6 -15v-991q0 -164 106 -265.5t279 -101.5q174 0 280.5 101t106.5 266v991q0 21 20 21h39q9 0 15 -6t6 -15v-985q0 -200 -128 -322t-339 -122z" />
    <glyph glyph-name="Yacute" unicode="&#xdd;" horiz-adv-x="1114" 
d="M512 1589q-12 0 -16 7.5t2 17.5l125 227q6 14 24 14h39q12 0 16 -6.5t-2 -17.5l-135 -227q-11 -15 -24 -15h-29zM539 0q-21 0 -21 20v648q0 8 -2 10l-428 731q-6 11 -2 18t16 7h39q14 0 25 -15l385 -657q1 -3 6 -3t6 3l385 657q11 15 25 15h39q12 0 16 -7t-2 -18
l-428 -731q-2 -2 -2 -10v-648q0 -20 -21 -20h-36z" />
    <glyph glyph-name="Thorn" unicode="&#xde;" horiz-adv-x="1148" 
d="M688 1096q169 0 273 -105.5t104 -275.5q0 -171 -104.5 -274t-274.5 -103h-391q-8 0 -8 -8v-310q0 -20 -21 -20h-39q-20 0 -20 20v1393q0 21 20 21h39q9 0 15 -6t6 -15v-309q0 -8 8 -8h393zM684 408q135 0 218 84t83 221q0 141 -83 226t-218 85h-389q-8 0 -8 -8v-600
q0 -8 8 -8h389z" />
    <glyph glyph-name="germandbls" unicode="&#xdf;" horiz-adv-x="1187" 
d="M211 0q-21 0 -21 20v1049q0 176 113.5 279.5t290.5 103.5q203 0 313 -96.5t115 -272.5q1 -119 -50 -202t-145 -117q-3 -1 -4 -2.5t0 -3t4 -2.5q97 -39 152 -135t55 -232q0 -184 -117 -286.5t-346 -102.5h-170q-20 0 -20 20v29q0 21 20 21h177q188 0 282 84t94 239
q0 326 -325 332h-164q-21 0 -21 20v27q0 9 6 15t15 6h168q159 0 235.5 74.5t73.5 215.5q-5 144 -91 221.5t-255 77.5q-140 0 -233 -83t-93 -226v-1053q0 -20 -20 -20h-39z" />
    <glyph glyph-name="agrave" unicode="&#xe0;" horiz-adv-x="1028" 
d="M539 1227q6 -11 1.5 -18t-16.5 -7h-28q-14 0 -25 15l-135 227q-6 10 -2 17t16 7h39q19 0 25 -14zM518 1044q176 0 265 -91.5t89 -250.5v-682q0 -20 -20 -20h-39q-20 0 -20 20v99q0 5 -3.5 6.5t-7.5 -2.5q-54 -68 -143 -103.5t-193 -35.5q-65 0 -122 15t-105.5 47t-77 89
t-28.5 133q0 151 112.5 236.5t309.5 85.5h249q9 0 9 8v107q0 123 -67.5 195.5t-211.5 72.5q-110 0 -182.5 -46t-87.5 -124q-6 -22 -25 -19l-43 7q-21 4 -18 20q22 106 118 169.5t242 63.5zM457 55q87 0 161 26t124.5 84.5t50.5 139.5v209q0 8 -9 8h-247q-154 0 -249 -66
t-95 -184q0 -107 74 -162t190 -55z" />
    <glyph glyph-name="aacute" unicode="&#xe1;" horiz-adv-x="1028" 
d="M651 1468q12 0 16.5 -7t-1.5 -17l-136 -227q-11 -15 -24 -15h-29q-12 0 -16 7t2 18l125 227q6 14 24 14h39zM518 1044q176 0 265 -91.5t89 -250.5v-682q0 -20 -20 -20h-39q-20 0 -20 20v99q0 5 -3.5 6.5t-7.5 -2.5q-54 -68 -143 -103.5t-193 -35.5q-65 0 -122 15
t-105.5 47t-77 89t-28.5 133q0 151 112.5 236.5t309.5 85.5h249q9 0 9 8v107q0 123 -67.5 195.5t-211.5 72.5q-110 0 -182.5 -46t-87.5 -124q-6 -22 -25 -19l-43 7q-21 4 -18 20q22 106 118 169.5t242 63.5zM457 55q87 0 161 26t124.5 84.5t50.5 139.5v209q0 8 -9 8h-247
q-154 0 -249 -66t-95 -184q0 -107 74 -162t190 -55z" />
    <glyph glyph-name="acircumflex" unicode="&#xe2;" horiz-adv-x="1028" 
d="M528 1382q-5 10 -12 0l-143 -186q-7 -12 -27 -12h-31q-12 0 -15.5 7.5t3.5 16.5l170 222q7 12 27 12h43q19 0 26 -12l170 -222q7 -9 3.5 -16.5t-15.5 -7.5h-31q-19 0 -26 12zM518 1044q176 0 265 -91.5t89 -250.5v-682q0 -20 -20 -20h-39q-20 0 -20 20v99q0 5 -3.5 6.5
t-7.5 -2.5q-54 -68 -143 -103.5t-193 -35.5q-65 0 -122 15t-105.5 47t-77 89t-28.5 133q0 151 112.5 236.5t309.5 85.5h249q9 0 9 8v107q0 123 -67.5 195.5t-211.5 72.5q-110 0 -182.5 -46t-87.5 -124q-6 -22 -25 -19l-43 7q-21 4 -18 20q22 106 118 169.5t242 63.5zM457 55
q87 0 161 26t124.5 84.5t50.5 139.5v209q0 8 -9 8h-247q-154 0 -249 -66t-95 -184q0 -107 74 -162t190 -55z" />
    <glyph glyph-name="atilde" unicode="&#xe3;" horiz-adv-x="1028" 
d="M432 1337q-35 0 -58.5 -11t-49.5 -46q-13 -17 -29 -6l-14 10q-15 12 -7 29q59 90 156 90q23 0 47 -8.5t35 -14.5t39 -24q65 -45 100 -45q65 0 111 63q10 16 26 6l13 -6q19 -11 8 -28q-28 -52 -72.5 -76.5t-85.5 -24.5q-55 0 -121 49q-23 17 -33.5 23.5t-28.5 13t-36 6.5z
M518 1044q176 0 265 -91.5t89 -250.5v-682q0 -20 -20 -20h-39q-20 0 -20 20v99q0 5 -3.5 6.5t-7.5 -2.5q-54 -68 -143 -103.5t-193 -35.5q-65 0 -122 15t-105.5 47t-77 89t-28.5 133q0 151 112.5 236.5t309.5 85.5h249q9 0 9 8v107q0 123 -67.5 195.5t-211.5 72.5
q-110 0 -182.5 -46t-87.5 -124q-6 -22 -25 -19l-43 7q-21 4 -18 20q22 106 118 169.5t242 63.5zM457 55q87 0 161 26t124.5 84.5t50.5 139.5v209q0 8 -9 8h-247q-154 0 -249 -66t-95 -184q0 -107 74 -162t190 -55z" />
    <glyph glyph-name="adieresis" unicode="&#xe4;" horiz-adv-x="1028" 
d="M362 1272q-34 0 -55.5 21t-21.5 53q0 30 22 50.5t55 20.5q30 0 51 -20.5t21 -50.5q0 -32 -20.5 -53t-51.5 -21zM684 1272q-32 0 -54 21t-22 53q0 29 22 50t54 21t53 -20.5t21 -50.5q0 -32 -21 -53t-53 -21zM518 1044q176 0 265 -91.5t89 -250.5v-682q0 -20 -20 -20h-39
q-20 0 -20 20v99q0 5 -3.5 6.5t-7.5 -2.5q-54 -68 -143 -103.5t-193 -35.5q-65 0 -122 15t-105.5 47t-77 89t-28.5 133q0 151 112.5 236.5t309.5 85.5h249q9 0 9 8v107q0 123 -67.5 195.5t-211.5 72.5q-110 0 -182.5 -46t-87.5 -124q-6 -22 -25 -19l-43 7q-21 4 -18 20
q22 106 118 169.5t242 63.5zM457 55q87 0 161 26t124.5 84.5t50.5 139.5v209q0 8 -9 8h-247q-154 0 -249 -66t-95 -184q0 -107 74 -162t190 -55z" />
    <glyph glyph-name="aring" unicode="&#xe5;" horiz-adv-x="1028" 
d="M522 1190q-86 0 -146.5 59t-60.5 144t60.5 143.5t146.5 58.5t146.5 -58.5t60.5 -143.5t-60.5 -144t-146.5 -59zM522 1540q-62 0 -105.5 -42.5t-43.5 -104.5q0 -63 43.5 -105.5t105.5 -42.5t106 43t44 105t-44 104.5t-106 42.5zM518 1044q176 0 265 -91.5t89 -250.5v-682
q0 -20 -20 -20h-39q-20 0 -20 20v99q0 5 -3.5 6.5t-7.5 -2.5q-54 -68 -143 -103.5t-193 -35.5q-65 0 -122 15t-105.5 47t-77 89t-28.5 133q0 151 112.5 236.5t309.5 85.5h249q9 0 9 8v107q0 123 -67.5 195.5t-211.5 72.5q-110 0 -182.5 -46t-87.5 -124q-6 -22 -25 -19l-43 7
q-21 4 -18 20q22 106 118 169.5t242 63.5zM457 55q87 0 161 26t124.5 84.5t50.5 139.5v209q0 8 -9 8h-247q-154 0 -249 -66t-95 -184q0 -107 74 -162t190 -55z" />
    <glyph glyph-name="ae" unicode="&#xe6;" horiz-adv-x="1699" 
d="M455 -16q-67 0 -125.5 15t-108.5 46.5t-79 88t-29 132.5q0 147 111.5 228t310.5 81h249q3 0 6 3t3 6v116q0 124 -68 198.5t-213 74.5q-110 0 -182.5 -46t-89.5 -124q-6 -20 -25 -17l-39 7q-22 4 -16 22q22 104 118.5 166.5t237.5 62.5q128 0 209 -51.5t115 -142.5
q3 -10 10 0q38 87 124.5 140.5t199.5 53.5q137 0 236 -74.5t128 -197.5q10 -39 12 -79t2 -167q0 -22 -20 -22h-649q-9 0 -9 -8v-191q3 -118 90 -182t216 -64q103 0 177 48.5t107 132.5q6 18 25 12l29 -8q20 -7 14 -27q-38 -104 -133 -168.5t-225 -64.5q-122 0 -210.5 48.5
t-123.5 139.5q-2 5 -4.5 5.5t-4.5 -3.5q-37 -90 -141.5 -140t-234.5 -50zM874 584q0 -9 9 -9h583q9 0 9 9q-4 116 -11 155q-19 104 -98 169t-195 65q-114 0 -191.5 -65t-96.5 -169q-9 -49 -9 -155zM459 53q86 0 159 25t124 83.5t51 141.5v193q0 8 -9 8h-247
q-157 0 -250.5 -59.5t-93.5 -174.5q0 -106 74 -161.5t192 -55.5z" />
    <glyph glyph-name="ccedilla" unicode="&#xe7;" horiz-adv-x="1048" 
d="M852 272l2 11q3 20 25 16l34 -6q22 -4 19 -23q-1 -3 -2.5 -13.5t-3.5 -18.5q-25 -106 -122.5 -177t-232.5 -77q-5 0 -5.5 -3t3.5 -8q132 -107 105 -235q-13 -55 -53 -85.5t-87 -32.5t-96 5q-20 3 -16 25l4 16q6 20 27 17q59 -13 102 4.5t53 72.5q21 107 -121 224
q-2 4 -10 4q-113 18 -191 90t-108 180q-24 91 -24 258q0 157 24 256q31 124 130 198t243 74q142 0 244 -72t131 -181q5 -16 10 -54q3 -19 -18 -22l-37 -4q-20 -3 -23 18l-6 29q-20 91 -102 153t-201 62t-198.5 -64t-98.5 -168q-19 -85 -19 -227q0 -134 17 -225
q22 -106 101 -170t198 -64t203.5 62.5t99.5 154.5z" />
    <glyph glyph-name="egrave" unicode="&#xe8;" horiz-adv-x="1081" 
d="M557 1227q6 -11 2 -18t-16 -7h-29q-14 0 -25 15l-135 227q-6 10 -1.5 17t16.5 7h39q18 0 24 -14zM549 55q106 0 182.5 49.5t112.5 133.5q6 18 24 12l27 -8q20 -7 14 -27q-41 -104 -137 -167.5t-227 -63.5q-140 0 -236.5 71.5t-132.5 192.5q-22 86 -22 268q0 177 16 252
q31 125 130 200.5t243 75.5q153 0 252.5 -80t126.5 -216q8 -39 10 -79.5t2 -152.5q0 -22 -21 -22h-671q-9 0 -9 -9q0 -155 11 -196q21 -106 102 -170t203 -64zM543 973q-120 0 -199 -63.5t-100 -166.5q-11 -71 -11 -176q0 -8 9 -8h604q8 0 8 8q0 131 -10 172
q-22 105 -102 169.5t-199 64.5z" />
    <glyph glyph-name="eacute" unicode="&#xe9;" horiz-adv-x="1081" 
d="M670 1468q12 0 16 -7t-2 -17l-135 -227q-11 -15 -25 -15h-28q-12 0 -16.5 7t1.5 18l125 227q6 14 25 14h39zM549 55q106 0 182.5 49.5t112.5 133.5q6 18 24 12l27 -8q20 -7 14 -27q-41 -104 -137 -167.5t-227 -63.5q-140 0 -236.5 71.5t-132.5 192.5q-22 86 -22 268
q0 177 16 252q31 125 130 200.5t243 75.5q153 0 252.5 -80t126.5 -216q8 -39 10 -79.5t2 -152.5q0 -22 -21 -22h-671q-9 0 -9 -9q0 -155 11 -196q21 -106 102 -170t203 -64zM543 973q-120 0 -199 -63.5t-100 -166.5q-11 -71 -11 -176q0 -8 9 -8h604q8 0 8 8q0 131 -10 172
q-22 105 -102 169.5t-199 64.5z" />
    <glyph glyph-name="ecircumflex" unicode="&#xea;" horiz-adv-x="1081" 
d="M547 1382q-5 10 -12 0l-144 -186q-7 -12 -26 -12h-31q-12 0 -16 7.5t4 16.5l170 222q7 12 26 12h43q20 0 27 -12l170 -222q7 -9 3 -16.5t-16 -7.5h-30q-20 0 -27 12zM549 55q106 0 182.5 49.5t112.5 133.5q6 18 24 12l27 -8q20 -7 14 -27q-41 -104 -137 -167.5
t-227 -63.5q-140 0 -236.5 71.5t-132.5 192.5q-22 86 -22 268q0 177 16 252q31 125 130 200.5t243 75.5q153 0 252.5 -80t126.5 -216q8 -39 10 -79.5t2 -152.5q0 -22 -21 -22h-671q-9 0 -9 -9q0 -155 11 -196q21 -106 102 -170t203 -64zM543 973q-120 0 -199 -63.5
t-100 -166.5q-11 -71 -11 -176q0 -8 9 -8h604q8 0 8 8q0 131 -10 172q-22 105 -102 169.5t-199 64.5z" />
    <glyph glyph-name="edieresis" unicode="&#xeb;" horiz-adv-x="1081" 
d="M381 1272q-34 0 -56 21t-22 53q0 30 22.5 50.5t55.5 20.5q31 0 51.5 -20.5t20.5 -50.5q0 -32 -20.5 -53t-51.5 -21zM702 1272q-32 0 -53.5 21t-21.5 53q0 30 21.5 50.5t53.5 20.5t53 -20.5t21 -50.5q0 -32 -21 -53t-53 -21zM549 55q106 0 182.5 49.5t112.5 133.5
q6 18 24 12l27 -8q20 -7 14 -27q-41 -104 -137 -167.5t-227 -63.5q-140 0 -236.5 71.5t-132.5 192.5q-22 86 -22 268q0 177 16 252q31 125 130 200.5t243 75.5q153 0 252.5 -80t126.5 -216q8 -39 10 -79.5t2 -152.5q0 -22 -21 -22h-671q-9 0 -9 -9q0 -155 11 -196
q21 -106 102 -170t203 -64zM543 973q-120 0 -199 -63.5t-100 -166.5q-11 -71 -11 -176q0 -8 9 -8h604q8 0 8 8q0 131 -10 172q-22 105 -102 169.5t-199 64.5z" />
    <glyph glyph-name="igrave" unicode="&#xec;" horiz-adv-x="434" 
d="M229 1229q6 -11 2 -18t-16 -7h-29q-13 0 -24 15l-135 227q-6 10 -2 17t16 7h39q18 0 24 -14zM195 0q-21 0 -21 20v988q0 20 21 20h38q21 0 21 -20v-988q0 -20 -21 -20h-38z" />
    <glyph glyph-name="iacute" unicode="&#xed;" horiz-adv-x="434" 
d="M168 1204q-12 0 -16 7t2 18l125 227q6 14 24 14h39q12 0 16 -7t-2 -17l-135 -227q-11 -15 -24 -15h-29zM195 0q-21 0 -21 20v988q0 20 21 20h38q21 0 21 -20v-988q0 -20 -21 -20h-38z" />
    <glyph glyph-name="icircumflex" unicode="&#xee;" horiz-adv-x="434" 
d="M6 1186q-12 0 -16 7.5t4 16.5l170 222q7 12 26 12h43q20 0 27 -12l170 -222q8 -9 4 -16.5t-16 -7.5h-31q-20 0 -27 12l-141 186q-5 10 -12 0l-144 -186q-7 -12 -26 -12h-31zM195 0q-21 0 -21 20v988q0 20 21 20h38q21 0 21 -20v-988q0 -20 -21 -20h-38z" />
    <glyph glyph-name="idieresis" unicode="&#xef;" horiz-adv-x="604" 
d="M143 1274q-34 0 -55.5 21t-21.5 53q0 30 22 50.5t55 20.5q31 0 51.5 -20.5t20.5 -50.5q0 -32 -20.5 -53t-51.5 -21zM465 1274q-32 0 -54 21t-22 53q0 29 22 50t54 21t53 -20.5t21 -50.5q0 -32 -21 -53t-53 -21zM289 0q-21 0 -21 20v988q0 20 21 20h39q20 0 20 -20v-988
q0 -20 -20 -20h-39z" />
    <glyph glyph-name="eth" unicode="&#xf0;" horiz-adv-x="1064" 
d="M903 719q6 -59 6 -211q0 -191 -14 -254q-30 -122 -129 -196t-238 -74q-138 0 -234.5 74t-127.5 196q-16 66 -16 256q0 186 16 252q27 114 115 184.5t215 73.5q84 6 160.5 -19.5t125.5 -76.5q4 -7 6 -3q1 2 0 5q-43 142 -165 280q-4 8 -11 4l-170 -57q-20 -7 -26 14l-4 17
q-5 18 12 24l141 45q11 4 2 13q-83 83 -157 143q-10 9 -7 17t17 8h47q14 0 25 -11q107 -89 155 -135q5 -5 10 -2l144 47q20 7 26 -14l4 -16q5 -19 -12 -25l-114 -37q-10 -5 -7 -8q185 -217 205 -514zM819 283q8 36 8 223q0 189 -8 223q-21 104 -98.5 168t-192.5 64
q-114 0 -190.5 -64t-97.5 -168q-11 -49 -11 -223q0 -164 11 -223q21 -105 97 -168.5t191 -63.5t192.5 64t98.5 168z" />
    <glyph glyph-name="ntilde" unicode="&#xf1;" horiz-adv-x="1097" 
d="M459 1321q-35 0 -59 -11t-50 -46q-13 -17 -28 -7l-15 11q-14 11 -6 28q59 90 156 90q23 0 47 -8.5t35 -14.5t39 -24q65 -45 100 -45q64 0 110 64q10 16 27 6l12 -6q20 -12 9 -29q-28 -52 -72 -76t-86 -24q-55 0 -121 49q-23 17 -33.5 23.5t-28.5 13t-36 6.5zM578 1042
q154 0 250 -95.5t96 -250.5v-676q0 -20 -21 -20h-39q-20 0 -20 20v662q0 127 -79 208t-202 81q-133 0 -214 -79t-81 -206v-666q0 -20 -20 -20h-39q-21 0 -21 20v988q0 20 21 20h39q20 0 20 -20v-111q0 -6 2.5 -7.5t5.5 3.5q92 149 302 149z" />
    <glyph glyph-name="ograve" unicode="&#xf2;" horiz-adv-x="1093" 
d="M561 1227q6 -11 2 -18t-16 -7h-29q-13 0 -24 15l-136 227q-6 10 -1.5 17t16.5 7h39q18 0 24 -14zM547 -16q-144 0 -242 74.5t-131 199.5q-20 76 -20 258t18 256q33 124 133 198t242 74q143 0 244 -74.5t131 -197.5q16 -68 16 -256q0 -192 -16 -258
q-31 -125 -131.5 -199.5t-243.5 -74.5zM547 55q118 0 198.5 64.5t102.5 169.5q10 47 10 225q0 182 -10 225q-21 105 -102.5 169.5t-200.5 64.5q-118 0 -197.5 -64.5t-101.5 -169.5q-13 -59 -13 -225q0 -169 13 -225q22 -106 102 -170t199 -64z" />
    <glyph glyph-name="oacute" unicode="&#xf3;" horiz-adv-x="1093" 
d="M500 1202q-12 0 -16.5 7t1.5 18l125 227q6 14 25 14h39q12 0 16 -7t-2 -17l-135 -227q-11 -15 -25 -15h-28zM547 -16q-144 0 -242 74.5t-131 199.5q-20 76 -20 258t18 256q33 124 133 198t242 74q143 0 244 -74.5t131 -197.5q16 -68 16 -256q0 -192 -16 -258
q-31 -125 -131.5 -199.5t-243.5 -74.5zM547 55q118 0 198.5 64.5t102.5 169.5q10 47 10 225q0 182 -10 225q-21 105 -102.5 169.5t-200.5 64.5q-118 0 -197.5 -64.5t-101.5 -169.5q-13 -59 -13 -225q0 -169 13 -225q22 -106 102 -170t199 -64z" />
    <glyph glyph-name="ocircumflex" unicode="&#xf4;" horiz-adv-x="1093" 
d="M338 1184q-12 0 -16 7.5t4 16.5l170 222q7 12 26 12h43q20 0 27 -12l170 -222q8 -9 4 -16.5t-16 -7.5h-31q-20 0 -27 12l-141 186q-5 10 -12 0l-144 -186q-7 -12 -26 -12h-31zM547 -16q-144 0 -242 74.5t-131 199.5q-20 76 -20 258t18 256q33 124 133 198t242 74
q143 0 244 -74.5t131 -197.5q16 -68 16 -256q0 -192 -16 -258q-31 -125 -131.5 -199.5t-243.5 -74.5zM547 55q118 0 198.5 64.5t102.5 169.5q10 47 10 225q0 182 -10 225q-21 105 -102.5 169.5t-200.5 64.5q-118 0 -197.5 -64.5t-101.5 -169.5q-13 -59 -13 -225
q0 -169 13 -225q22 -106 102 -170t199 -64z" />
    <glyph glyph-name="otilde" unicode="&#xf5;" horiz-adv-x="1093" 
d="M674 1245q-55 0 -121 49q-23 17 -33.5 23.5t-28.5 13t-36 6.5q-35 0 -59 -11t-50 -46q-13 -17 -29 -6l-14 10q-15 12 -6 29q59 90 156 90q7 0 14.5 -1t13 -2t13 -3t12 -3.5t12 -5.5t11 -5.5t11.5 -6t11 -6.5t11.5 -7.5t10.5 -6.5q65 -45 101 -45q64 0 110 63q10 16 27 6
l12 -6q20 -12 2 -41q-30 -46 -71 -67t-80 -21zM547 -16q-144 0 -242 74.5t-131 199.5q-20 76 -20 258t18 256q33 124 133 198t242 74q143 0 244 -74.5t131 -197.5q16 -68 16 -256q0 -192 -16 -258q-31 -125 -131.5 -199.5t-243.5 -74.5zM547 55q118 0 198.5 64.5
t102.5 169.5q10 47 10 225q0 182 -10 225q-21 105 -102.5 169.5t-200.5 64.5q-118 0 -197.5 -64.5t-101.5 -169.5q-13 -59 -13 -225q0 -169 13 -225q22 -106 102 -170t199 -64z" />
    <glyph glyph-name="odieresis" unicode="&#xf6;" horiz-adv-x="1093" 
d="M385 1272q-34 0 -56 21t-22 53q0 30 22.5 50.5t55.5 20.5q31 0 51.5 -20.5t20.5 -50.5q0 -32 -20.5 -53t-51.5 -21zM707 1272q-32 0 -54 21t-22 53q0 29 22 50t54 21t52.5 -20.5t20.5 -50.5q0 -32 -20.5 -53t-52.5 -21zM547 -16q-144 0 -242 74.5t-131 199.5
q-20 76 -20 258t18 256q33 124 133 198t242 74q143 0 244 -74.5t131 -197.5q16 -68 16 -256q0 -192 -16 -258q-31 -125 -131.5 -199.5t-243.5 -74.5zM547 55q118 0 198.5 64.5t102.5 169.5q10 47 10 225q0 182 -10 225q-21 105 -102.5 169.5t-200.5 64.5
q-118 0 -197.5 -64.5t-101.5 -169.5q-13 -59 -13 -225q0 -169 13 -225q22 -106 102 -170t199 -64z" />
    <glyph glyph-name="divide" unicode="&#xf7;" horiz-adv-x="1038" 
d="M516 922q-38 0 -65 27t-27 65t27.5 64t64.5 26q39 0 66.5 -26t27.5 -64t-28 -65t-66 -27zM111 645q-9 0 -15 6t-6 15v28q0 9 6 15t15 6h817q20 0 20 -21v-28q0 -21 -20 -21h-817zM516 293q-38 0 -65 27t-27 65q0 37 27.5 63.5t64.5 26.5q38 0 66 -26.5t28 -63.5
q0 -38 -28 -65t-66 -27z" />
    <glyph glyph-name="oslash" unicode="&#xf8;" horiz-adv-x="1099" 
d="M930 772q16 -68 16 -256q0 -192 -16 -258q-31 -125 -131.5 -199.5t-243.5 -74.5q-149 0 -254 84q-6 6 -10 -2l-68 -103q-12 -19 -28 -6l-25 16q-16 13 -6 29l78 119q3 6 0 12q-42 54 -60 125q-20 76 -20 258t18 256q33 124 133 198t242 74q130 0 233 -67q8 -4 11 2l57 88
q11 19 27 6l26 -16q16 -13 6 -29l-63 -96q-3 -6 0 -12q57 -63 78 -148zM254 289q8 -40 29 -84q7 -10 12 0l453 698q3 7 -3 10q-78 60 -192 60q-118 0 -197.5 -64.5t-101.5 -169.5q-12 -54 -12 -225q0 -173 12 -225zM856 289q10 47 10 225q0 182 -10 225q-11 54 -45 111
q-8 8 -12 0l-459 -707q-4 -7 2 -10q81 -78 213 -78q118 0 198.5 64.5t102.5 169.5z" />
    <glyph glyph-name="ugrave" unicode="&#xf9;" horiz-adv-x="1093" 
d="M563 1210q6 -10 2 -17t-16 -7h-29q-14 0 -24 14l-136 227q-6 11 -1.5 18t16.5 7h39q18 0 24 -14zM825 1008q0 20 21 20h39q20 0 20 -20v-988q0 -20 -20 -20h-39q-21 0 -21 20v109q0 4 -1.5 5.5t-4 0.5t-4.5 -4q-91 -145 -297 -145q-152 0 -249 91.5t-97 246.5v684
q0 20 21 20h38q21 0 21 -20v-666q0 -130 76 -207.5t204 -77.5q133 0 213 79t80 206v666z" />
    <glyph glyph-name="uacute" unicode="&#xfa;" horiz-adv-x="1093" 
d="M676 1452q12 0 16 -7t-2 -18l-135 -227q-11 -14 -25 -14h-28q-12 0 -16.5 7t1.5 17l125 228q6 14 25 14h39zM825 1008q0 20 21 20h39q20 0 20 -20v-988q0 -20 -20 -20h-39q-21 0 -21 20v109q0 4 -1.5 5.5t-4 0.5t-4.5 -4q-91 -145 -297 -145q-152 0 -249 91.5t-97 246.5
v684q0 20 21 20h38q21 0 21 -20v-666q0 -130 76 -207.5t204 -77.5q133 0 213 79t80 206v666z" />
    <glyph glyph-name="ucircumflex" unicode="&#xfb;" horiz-adv-x="1093" 
d="M553 1366q-5 10 -12 0l-144 -186q-8 -13 -26 -13h-31q-12 0 -16 8t4 17l170 221q7 12 26 12h43q20 0 27 -12l170 -221q8 -9 4 -17t-16 -8h-31q-19 0 -27 13zM825 1008q0 20 21 20h39q20 0 20 -20v-988q0 -20 -20 -20h-39q-21 0 -21 20v109q0 4 -1.5 5.5t-4 0.5t-4.5 -4
q-91 -145 -297 -145q-152 0 -249 91.5t-97 246.5v684q0 20 21 20h38q21 0 21 -20v-666q0 -130 76 -207.5t204 -77.5q133 0 213 79t80 206v666z" />
    <glyph glyph-name="udieresis" unicode="&#xfc;" horiz-adv-x="1093" 
d="M387 1255q-34 0 -56 21t-22 53q0 30 22.5 51t55.5 21q30 0 51 -21t21 -51q0 -32 -20.5 -53t-51.5 -21zM709 1255q-32 0 -54 21t-22 53q0 30 22 51t54 21t52.5 -21t20.5 -51q0 -32 -20.5 -53t-52.5 -21zM825 1008q0 20 21 20h39q20 0 20 -20v-988q0 -20 -20 -20h-39
q-21 0 -21 20v109q0 4 -1.5 5.5t-4 0.5t-4.5 -4q-91 -145 -297 -145q-152 0 -249 91.5t-97 246.5v684q0 20 21 20h38q21 0 21 -20v-666q0 -130 76 -207.5t204 -77.5q133 0 213 79t80 206v666z" />
    <glyph glyph-name="yacute" unicode="&#xfd;" horiz-adv-x="903" 
d="M406 1188q-12 0 -16.5 7t1.5 17l125 228q6 14 25 14h39q12 0 16 -7t-2 -17l-135 -228q-11 -14 -25 -14h-28zM125 -410q-14 0 -14 21v31q0 20 14 20h14q59 1 94 13t67 53.5t54.5 97.5t59.5 168q4 8 0 12l-355 1000q-6 22 17 22h39q18 0 24 -16l310 -893q1 -5 6 -5t6 5
l301 893q6 16 24 16h39q23 0 17 -22l-391 -1121q-34 -98 -62 -154t-65 -88.5t-78 -42.5t-107 -10h-14z" />
    <glyph glyph-name="thorn" unicode="&#xfe;" horiz-adv-x="1091" 
d="M924 772q16 -68 16 -260q0 -190 -18 -258q-30 -122 -126 -196t-235 -74q-92 0 -164 38t-116 105q-3 6 -7 5t-4 -7v-514q0 -21 -20 -21h-39q-9 0 -15 6t-6 15v1802q0 9 6 15t15 6h39q20 0 20 -21v-510q0 -6 4 -7t7 5q43 68 115 105.5t165 37.5q140 0 236.5 -74t126.5 -198
zM842 274q10 40 14 84t4 158q0 115 -4 160t-16 82q-22 94 -100 154.5t-187 60.5q-106 0 -177 -61t-91 -156q-14 -53 -15 -74v-340q2 -32 13 -68q22 -96 92 -157.5t180 -61.5q111 0 189.5 61t97.5 158z" />
    <glyph glyph-name="ydieresis" unicode="&#xff;" horiz-adv-x="903" 
d="M291 1257q-34 0 -56 21t-22 53q0 30 22.5 51t55.5 21q30 0 50.5 -21t20.5 -51q0 -32 -20 -53t-51 -21zM612 1257q-32 0 -53.5 21t-21.5 53q0 30 21.5 51t53.5 21t53 -21t21 -51q0 -32 -21 -53t-53 -21zM125 -410q-14 0 -14 21v31q0 20 14 20h14q59 1 94 13t67 53.5
t54.5 97.5t59.5 168q4 8 0 12l-355 1000q-6 22 17 22h39q18 0 24 -16l310 -893q1 -5 6 -5t6 5l301 893q6 16 24 16h39q23 0 17 -22l-391 -1121q-34 -98 -62 -154t-65 -88.5t-78 -42.5t-107 -10h-14z" />
    <glyph glyph-name="Amacron" unicode="&#x100;" horiz-adv-x="1183" 
d="M834 1702q20 0 20 -21v-24q0 -21 -20 -21h-486q-20 0 -20 21v24q0 21 20 21h486zM1044 0q-18 0 -24 16l-92 283q-2 6 -8 6h-660q-6 0 -8 -6l-90 -283q-6 -16 -25 -16h-39q-23 0 -16 23l457 1394q7 17 24 17h53q18 0 25 -17l461 -1394q3 -10 -1.5 -16.5t-15.5 -6.5h-41z
M279 383q-2 -3 1 -6.5t7 -3.5h608q4 0 7 3.5t1 6.5l-307 938q-2 5 -6 5t-6 -5z" />
    <glyph glyph-name="amacron" unicode="&#x101;" horiz-adv-x="1028" 
d="M766 1313q20 0 20 -21v-24q0 -21 -20 -21h-485q-9 0 -15 6t-6 15v24q0 9 6 15t15 6h485zM518 1044q176 0 265 -91.5t89 -250.5v-682q0 -20 -20 -20h-39q-20 0 -20 20v99q0 5 -3.5 6.5t-7.5 -2.5q-54 -68 -143 -103.5t-193 -35.5q-65 0 -122 15t-105.5 47t-77 89
t-28.5 133q0 151 112.5 236.5t309.5 85.5h249q9 0 9 8v107q0 123 -67.5 195.5t-211.5 72.5q-110 0 -182.5 -46t-87.5 -124q-6 -22 -25 -19l-43 7q-21 4 -18 20q22 106 118 169.5t242 63.5zM457 55q87 0 161 26t124.5 84.5t50.5 139.5v209q0 8 -9 8h-247q-154 0 -249 -66
t-95 -184q0 -107 74 -162t190 -55z" />
    <glyph glyph-name="Abreve" unicode="&#x102;" horiz-adv-x="1183" 
d="M590 1556q-81 0 -140 53.5t-67 131.5q-3 20 18 20h19q19 0 22 -20q6 -55 48.5 -92t99.5 -37t100 37t49 92q3 20 23 20h18q9 0 14.5 -5.5t4.5 -14.5q-8 -79 -67 -132t-142 -53zM1044 0q-18 0 -24 16l-92 283q-2 6 -8 6h-660q-6 0 -8 -6l-90 -283q-6 -16 -25 -16h-39
q-23 0 -16 23l457 1394q7 17 24 17h53q18 0 25 -17l461 -1394q3 -10 -1.5 -16.5t-15.5 -6.5h-41zM279 383q-2 -3 1 -6.5t7 -3.5h608q4 0 7 3.5t1 6.5l-307 938q-2 5 -6 5t-6 -5z" />
    <glyph glyph-name="abreve" unicode="&#x103;" horiz-adv-x="1028" 
d="M522 1167q-81 0 -140 53.5t-67 131.5q-1 9 4.5 14.5t14.5 5.5h18q20 0 23 -20q6 -55 48 -92t99 -37t100.5 37t49.5 92q3 20 22 20h19q21 0 18 -20q-8 -79 -67 -132t-142 -53zM518 1044q176 0 265 -91.5t89 -250.5v-682q0 -20 -20 -20h-39q-20 0 -20 20v99q0 5 -3.5 6.5
t-7.5 -2.5q-54 -68 -143 -103.5t-193 -35.5q-65 0 -122 15t-105.5 47t-77 89t-28.5 133q0 151 112.5 236.5t309.5 85.5h249q9 0 9 8v107q0 123 -67.5 195.5t-211.5 72.5q-110 0 -182.5 -46t-87.5 -124q-6 -22 -25 -19l-43 7q-21 4 -18 20q22 106 118 169.5t242 63.5zM457 55
q87 0 161 26t124.5 84.5t50.5 139.5v209q0 8 -9 8h-247q-154 0 -249 -66t-95 -184q0 -107 74 -162t190 -55z" />
    <glyph glyph-name="Aogonek" unicode="&#x104;" horiz-adv-x="1251" 
d="M1133 -311q21 3 24 -17l4 -16q6 -22 -14 -25q-49 -7 -96 -5t-87 32.5t-53 85.5q-28 138 123 250q6 6 -2 8q-9 4 -12 14l-92 283q-2 6 -8 6h-660q-6 0 -8 -6l-90 -283q-6 -16 -25 -16h-39q-23 0 -16 23l457 1394q7 17 24 17h53q18 0 25 -17l463 -1401l6 -16l-8 -4
q-64 -51 -100 -110.5t-25 -118.5q10 -54 53.5 -72.5t102.5 -5.5zM279 383q-2 -3 1 -6.5t7 -3.5h608q4 0 7 3.5t1 6.5l-307 938q-2 5 -6 5t-6 -5z" />
    <glyph glyph-name="aogonek" unicode="&#x105;" horiz-adv-x="1228" 
d="M899 -311q22 3 25 -17l4 -16q6 -22 -15 -25q-34 -9 -71.5 -6.5t-70 12.5t-58 37.5t-35.5 69.5q-28 138 125 250q5 5 -2 8q-8 5 -8 18v99q0 5 -3.5 6.5t-7.5 -2.5q-54 -68 -143 -103.5t-193 -35.5q-65 0 -122 15t-105.5 47t-77 89t-28.5 133q0 151 112.5 236.5t309.5 85.5
h249q9 0 9 8v107q0 123 -67.5 195.5t-211.5 72.5q-110 0 -182.5 -46t-87.5 -124q-6 -22 -25 -19l-43 7q-22 4 -16 24q22 104 118.5 166.5t239.5 62.5q176 0 265 -91.5t89 -250.5v-702l-10 -10q-140 -115 -119 -223q10 -54 53.5 -72.5t102.5 -5.5zM457 55q87 0 161 26
t124.5 84.5t50.5 139.5v209q0 8 -9 8h-247q-154 0 -249 -66t-95 -184q0 -107 74 -162t190 -55z" />
    <glyph glyph-name="Cacute" unicode="&#x106;" horiz-adv-x="1241" 
d="M586 1608q-12 0 -16.5 7t1.5 17l125 228q6 14 25 14h39q12 0 16 -7t-2 -18l-135 -227q-11 -14 -25 -14h-28zM631 -18q-207 0 -333 119.5t-126 314.5v604q0 194 126 312t333 118q205 0 330.5 -117.5t125.5 -310.5v-2q0 -21 -20 -21l-39 -2q-20 0 -20 13v12q0 160 -104 258
t-273 98q-171 0 -275 -98t-104 -258v-610q0 -160 104 -259.5t275 -99.5q169 0 273 99.5t104 259.5v4q0 18 20 18l39 -2q20 0 20 -8v-10q0 -193 -126 -312.5t-330 -119.5z" />
    <glyph glyph-name="cacute" unicode="&#x107;" horiz-adv-x="1048" 
d="M504 1202q-12 0 -16.5 7t1.5 18l125 227q6 14 25 14h39q12 0 16 -7t-2 -17l-135 -227q-11 -15 -25 -15h-28zM551 -16q-143 0 -241.5 75t-131.5 199q-24 91 -24 258q0 157 24 256q31 124 130 198t243 74q142 0 244 -72t131 -181q5 -16 10 -54q3 -19 -18 -22l-37 -4
q-20 -3 -23 18l-6 29q-20 91 -102 153t-201 62t-198.5 -64t-98.5 -168q-19 -85 -19 -227q0 -134 17 -225q22 -106 101 -170t198 -64t203.5 62.5t99.5 154.5l2 11q3 20 25 16l34 -6q22 -4 19 -23q-1 -3 -2.5 -13.5t-3.5 -18.5q-25 -110 -128.5 -182t-246.5 -72z" />
    <glyph glyph-name="Cdotaccent" unicode="&#x10a;" horiz-adv-x="1241" 
d="M631 1640q-32 0 -54 20.5t-22 51.5q0 29 22 49.5t54 20.5q31 0 51 -20t20 -50q0 -31 -20 -51.5t-51 -20.5zM631 -18q-207 0 -333 119.5t-126 314.5v604q0 194 126 312t333 118q205 0 330.5 -117.5t125.5 -310.5v-2q0 -21 -20 -21l-39 -2q-20 0 -20 13v12q0 160 -104 258
t-273 98q-171 0 -275 -98t-104 -258v-610q0 -160 104 -259.5t275 -99.5q169 0 273 99.5t104 259.5v4q0 18 20 18l39 -2q20 0 20 -8v-10q0 -193 -126 -312.5t-330 -119.5z" />
    <glyph glyph-name="cdotaccent" unicode="&#x10b;" horiz-adv-x="1048" 
d="M549 1235q-32 0 -54 20.5t-22 51.5q0 29 22 49t54 20q31 0 51.5 -20t20.5 -49q0 -31 -20.5 -51.5t-51.5 -20.5zM551 -16q-143 0 -241.5 75t-131.5 199q-24 91 -24 258q0 157 24 256q31 124 130 198t243 74q142 0 244 -72t131 -181q5 -16 10 -54q3 -19 -18 -22l-37 -4
q-20 -3 -23 18l-6 29q-20 91 -102 153t-201 62t-198.5 -64t-98.5 -168q-19 -85 -19 -227q0 -134 17 -225q22 -106 101 -170t198 -64t203.5 62.5t99.5 154.5l2 11q3 20 25 16l34 -6q22 -4 19 -23q-1 -3 -2.5 -13.5t-3.5 -18.5q-25 -110 -128.5 -182t-246.5 -72z" />
    <glyph glyph-name="Ccaron" unicode="&#x10c;" horiz-adv-x="1241" 
d="M606 1581q-19 0 -26 12l-168 222q-8 9 -4 16.5t16 7.5h31q19 0 26 -12l144 -187q7 -10 12 0l139 187q7 12 27 12h31q12 0 16 -7.5t-4 -16.5l-170 -222q-7 -12 -27 -12h-43zM631 -18q-207 0 -333 119.5t-126 314.5v604q0 194 126 312t333 118q205 0 330.5 -117.5
t125.5 -310.5v-2q0 -21 -20 -21l-39 -2q-20 0 -20 13v12q0 160 -104 258t-273 98q-171 0 -275 -98t-104 -258v-610q0 -160 104 -259.5t275 -99.5q169 0 273 99.5t104 259.5v4q0 18 20 18l39 -2q20 0 20 -8v-10q0 -193 -126 -312.5t-330 -119.5z" />
    <glyph glyph-name="ccaron" unicode="&#x10d;" horiz-adv-x="1048" 
d="M524 1176q-19 0 -26 12l-168 221q-8 9 -4 17t16 8h31q18 0 26 -13l144 -186q7 -10 12 0l139 186q8 13 27 13h31q12 0 16 -8t-4 -17l-170 -221q-7 -12 -27 -12h-43zM551 -16q-143 0 -241.5 75t-131.5 199q-24 91 -24 258q0 157 24 256q31 124 130 198t243 74
q142 0 244 -72t131 -181q5 -16 10 -54q3 -19 -18 -22l-37 -4q-20 -3 -23 18l-6 29q-20 91 -102 153t-201 62t-198.5 -64t-98.5 -168q-19 -85 -19 -227q0 -134 17 -225q22 -106 101 -170t198 -64t203.5 62.5t99.5 154.5l2 11q3 20 25 16l34 -6q22 -4 19 -23q-1 -3 -2.5 -13.5
t-3.5 -18.5q-25 -110 -128.5 -182t-246.5 -72z" />
    <glyph glyph-name="Dcaron" unicode="&#x10e;" horiz-adv-x="1265" 
d="M621 1559q-20 0 -27 12l-168 219q-8 9 -4 17t16 8h31q19 0 27 -13l143 -186q7 -10 12 0l140 186q8 13 26 13h31q12 0 16 -8t-4 -17l-170 -219q-9 -12 -26 -12h-43zM244 0q-21 0 -21 20v1393q0 9 6 15t15 6h469q189 0 299 -101t110 -278v-676q0 -177 -110 -278t-299 -101
h-469zM303 80q0 -8 8 -8h406q151 0 238 83t87 228v666q0 146 -87 229.5t-238 83.5h-406q-8 0 -8 -8v-1274z" />
    <glyph glyph-name="dcaron" unicode="&#x10f;" horiz-adv-x="1239" 
d="M1151 1438q7 14 25 14h38q12 0 16.5 -7t-1.5 -18l-135 -227q-10 -14 -25 -14h-29q-12 0 -16 7t2 17zM815 895q2 -3 4.5 -4t4 0.5t1.5 5.5v516q0 9 6 15t15 6h39q20 0 20 -21v-1393q0 -20 -20 -20h-39q-21 0 -21 20v111q0 4 -1.5 5.5t-4 0.5t-4.5 -4
q-45 -70 -118.5 -109.5t-166.5 -39.5q-139 0 -234.5 74t-125.5 196q-18 68 -18 258q0 192 16 260q30 124 126 198t236 74q94 0 168 -39.5t117 -109.5zM809 274q10 34 13 78t3 160q0 120 -3.5 163.5t-14.5 80.5q-20 95 -91 156t-177 61q-109 0 -187 -60.5t-100 -154.5
q-12 -38 -16.5 -83t-4.5 -159q0 -78 2.5 -126t6 -68t10.5 -48q19 -97 97.5 -158t189.5 -61q110 0 180 61.5t92 157.5z" />
    <glyph glyph-name="Dcroat" unicode="&#x110;" horiz-adv-x="1413" 
d="M860 1434q190 0 300 -101.5t110 -277.5v-676q0 -176 -110 -277.5t-300 -101.5h-469q-20 0 -20 20v689q0 8 -9 8h-118q-21 0 -21 20v25q0 20 21 20h118q3 0 6 3t3 6v622q0 21 20 21h469zM1190 383v666q0 146 -87.5 229.5t-238.5 83.5h-405q-8 0 -8 -8v-563q0 -9 8 -9h276
q21 0 21 -20v-25q0 -20 -21 -20h-276q-8 0 -8 -8v-629q0 -8 8 -8h405q151 0 238.5 83t87.5 228z" />
    <glyph glyph-name="dcroat" unicode="&#x111;" horiz-adv-x="1228" 
d="M1061 1249q20 0 20 -20v-23q0 -20 -20 -20h-148q-8 0 -8 -8v-1158q0 -20 -20 -20h-39q-21 0 -21 20v111q0 4 -1.5 5.5t-4 0.5t-4.5 -4q-45 -70 -118.5 -109.5t-166.5 -39.5q-139 0 -234.5 74t-125.5 196q-18 68 -18 258q0 192 16 260q30 124 126 198t236 74
q94 0 168 -39.5t117 -109.5q2 -3 4.5 -4t4 0.5t1.5 5.5v281q0 8 -8 8h-332q-20 0 -20 20v23q0 20 20 20h332q8 0 8 8v156q0 9 6 15t15 6h39q20 0 20 -21v-156q0 -8 8 -8h148zM809 274q10 34 13 78t3 160q0 120 -3.5 163.5t-14.5 80.5q-20 95 -91 156t-177 61
q-109 0 -187 -60.5t-100 -154.5q-12 -38 -16.5 -83t-4.5 -159q0 -78 2.5 -126t6 -68t10.5 -48q19 -97 97.5 -158t189.5 -61q110 0 180 61.5t92 157.5z" />
    <glyph glyph-name="Emacron" unicode="&#x112;" horiz-adv-x="1259" 
d="M905 1722q21 0 21 -20v-25q0 -20 -21 -20h-485q-21 0 -21 20v25q0 20 21 20h485zM1122 1382q0 -20 -20 -20h-791q-8 0 -8 -8v-590q0 -8 8 -8h566q20 0 20 -21v-33q0 -20 -20 -20h-566q-8 0 -8 -8v-594q0 -8 8 -8h791q20 0 20 -21v-31q0 -20 -20 -20h-858q-21 0 -21 20
v1393q0 9 6 15t15 6h858q20 0 20 -21v-31z" />
    <glyph glyph-name="emacron" unicode="&#x113;" horiz-adv-x="1081" 
d="M784 1313q9 0 15 -6t6 -15v-24q0 -9 -6 -15t-15 -6h-485q-20 0 -20 21v24q0 21 20 21h485zM549 55q106 0 182.5 49.5t112.5 133.5q6 18 24 12l27 -8q20 -7 14 -27q-41 -104 -137 -167.5t-227 -63.5q-140 0 -236.5 71.5t-132.5 192.5q-22 86 -22 268q0 177 16 252
q31 125 130 200.5t243 75.5q153 0 252.5 -80t126.5 -216q8 -39 10 -79.5t2 -152.5q0 -22 -21 -22h-671q-9 0 -9 -9q0 -155 11 -196q21 -106 102 -170t203 -64zM543 973q-120 0 -199 -63.5t-100 -166.5q-11 -71 -11 -176q0 -8 9 -8h604q8 0 8 8q0 131 -10 172
q-22 105 -102 169.5t-199 64.5z" />
    <glyph glyph-name="Edotaccent" unicode="&#x116;" horiz-adv-x="1259" 
d="M662 1645q-32 0 -54 20t-22 51q0 29 22 49.5t54 20.5q30 0 50.5 -20t20.5 -50q0 -31 -20 -51t-51 -20zM1122 1382q0 -20 -20 -20h-791q-8 0 -8 -8v-590q0 -8 8 -8h566q20 0 20 -21v-33q0 -20 -20 -20h-566q-8 0 -8 -8v-594q0 -8 8 -8h791q20 0 20 -21v-31q0 -20 -20 -20
h-858q-21 0 -21 20v1393q0 9 6 15t15 6h858q20 0 20 -21v-31z" />
    <glyph glyph-name="edotaccent" unicode="&#x117;" horiz-adv-x="1081" 
d="M541 1235q-32 0 -54 20.5t-22 51.5q0 29 22 49t54 20q31 0 51 -20t20 -49q0 -31 -20 -51.5t-51 -20.5zM549 55q106 0 182.5 49.5t112.5 133.5q6 18 24 12l27 -8q20 -7 14 -27q-41 -104 -137 -167.5t-227 -63.5q-140 0 -236.5 71.5t-132.5 192.5q-22 86 -22 268
q0 177 16 252q31 125 130 200.5t243 75.5q153 0 252.5 -80t126.5 -216q8 -39 10 -79.5t2 -152.5q0 -22 -21 -22h-671q-9 0 -9 -9q0 -155 11 -196q21 -106 102 -170t203 -64zM543 973q-120 0 -199 -63.5t-100 -166.5q-11 -71 -11 -176q0 -8 9 -8h604q8 0 8 8q0 131 -10 172
q-22 105 -102 169.5t-199 64.5z" />
    <glyph glyph-name="Eogonek" unicode="&#x118;" horiz-adv-x="1259" 
d="M1122 1382q0 -20 -20 -20h-791q-8 0 -8 -8v-590q0 -8 8 -8h566q20 0 20 -21v-33q0 -20 -20 -20h-566q-8 0 -8 -8v-594q0 -8 8 -8h791q20 0 20 -21v-31q0 -20 -20 -20h-389q-7 0 -11 -4q-135 -114 -114 -219q10 -54 53.5 -72.5t101.5 -5.5q22 3 25 -16l4 -17
q6 -21 -14 -24q-49 -7 -96 -5t-87 32t-53 85q-28 128 105 236q4 3 2.5 6.5t-6.5 3.5h-379q-21 0 -21 20v1393q0 9 6 15t15 6h858q20 0 20 -21v-31z" />
    <glyph glyph-name="eogonek" unicode="&#x119;" horiz-adv-x="1081" 
d="M549 55q106 0 182.5 49.5t112.5 133.5q6 18 24 12l27 -8q20 -7 14 -27q-39 -97 -124 -159t-203 -72q-7 0 -11 -4q-135 -114 -114 -220q10 -54 53 -72t102 -5q22 3 25 -17l4 -16q6 -22 -14 -25q-49 -7 -96 -5t-87 32.5t-53 85.5q-26 128 109 239q8 8 -4 11
q-121 12 -204 81t-116 179q-22 86 -22 268q0 177 16 252q31 125 130 200.5t243 75.5q153 0 252.5 -80t126.5 -216q8 -39 10 -79.5t2 -152.5q0 -22 -21 -22h-671q-9 0 -9 -9q0 -155 11 -196q21 -106 102 -170t203 -64zM543 973q-120 0 -199 -63.5t-100 -166.5
q-11 -71 -11 -176q0 -8 9 -8h604q8 0 8 8q0 131 -10 172q-22 105 -102 169.5t-199 64.5z" />
    <glyph glyph-name="Ecaron" unicode="&#x11a;" horiz-adv-x="1259" 
d="M707 1597q-7 -12 -27 -12h-43q-20 0 -27 12l-168 222q-7 9 -3 16.5t16 7.5h30q20 0 27 -12l143 -186q3 -4 7 -3.5t6 3.5l139 186q7 12 27 12h30q12 0 16 -7.5t-3 -16.5zM1122 1382q0 -20 -20 -20h-791q-8 0 -8 -8v-590q0 -8 8 -8h566q20 0 20 -21v-33q0 -20 -20 -20h-566
q-8 0 -8 -8v-594q0 -8 8 -8h791q20 0 20 -21v-31q0 -20 -20 -20h-858q-21 0 -21 20v1393q0 9 6 15t15 6h858q20 0 20 -21v-31z" />
    <glyph glyph-name="ecaron" unicode="&#x11b;" horiz-adv-x="1081" 
d="M586 1171q-9 -12 -27 -12h-43q-20 0 -27 12l-167 220q-8 9 -4 16.5t16 7.5h31q19 0 26 -12l144 -186q7 -10 12 0l139 186q7 12 27 12h30q12 0 16 -7.5t-3 -16.5zM549 55q106 0 182.5 49.5t112.5 133.5q6 18 24 12l27 -8q20 -7 14 -27q-41 -104 -137 -167.5t-227 -63.5
q-140 0 -236.5 71.5t-132.5 192.5q-22 86 -22 268q0 177 16 252q31 125 130 200.5t243 75.5q153 0 252.5 -80t126.5 -216q8 -39 10 -79.5t2 -152.5q0 -22 -21 -22h-671q-9 0 -9 -9q0 -155 11 -196q21 -106 102 -170t203 -64zM543 973q-120 0 -199 -63.5t-100 -166.5
q-11 -71 -11 -176q0 -8 9 -8h604q8 0 8 8q0 131 -10 172q-22 105 -102 169.5t-199 64.5z" />
    <glyph glyph-name="Gbreve" unicode="&#x11e;" horiz-adv-x="1239" 
d="M627 1573q-81 0 -140 53t-67 131q-1 9 4 15t14 6h19q19 0 22 -21q6 -55 48.5 -92t99.5 -37t100 37t49 92q3 21 23 21h18q9 0 14.5 -6t4.5 -15q-8 -78 -67 -131t-142 -53zM631 -16q-207 0 -333 117.5t-126 308.5v614q0 192 126 309t333 117q203 0 328.5 -116.5
t125.5 -303.5v-31q0 -20 -20 -20h-39q-20 0 -20 20v31q0 156 -103.5 252t-271.5 96q-170 0 -274.5 -97t-104.5 -255v-618q0 -158 104.5 -255.5t276.5 -97.5q168 0 270.5 95t102.5 251v224q0 8 -9 8h-333q-21 0 -21 20v31q0 9 6 15t15 6h401q20 0 20 -21v-268
q0 -198 -124.5 -315t-329.5 -117z" />
    <glyph glyph-name="gbreve" unicode="&#x11f;" horiz-adv-x="1077" 
d="M551 1169q-81 0 -140 53.5t-67 131.5q-3 20 18 20h19q19 0 22 -20q6 -55 48.5 -92t99.5 -37t100 37t49 92q3 20 23 20h18q9 0 14.5 -5.5t4.5 -14.5q-8 -79 -67 -132t-142 -53zM827 1008q0 20 21 20h39q20 0 20 -20v-996q0 -435 -506 -420q-20 0 -20 21l2 35q0 20 20 20
q220 -6 322 80t102 266v123q0 4 -1.5 5.5t-4 0.5t-4.5 -4q-90 -151 -289 -151q-135 0 -231.5 72.5t-128.5 197.5q-23 85 -23 254q0 166 23 264q33 120 128 194t230 74q98 0 172.5 -39.5t118.5 -109.5q3 -6 6.5 -5t3.5 7v111zM819 289q8 52 8 225q0 170 -8 227
q-16 100 -91 166t-189 66q-113 0 -190 -65.5t-105 -166.5q-17 -70 -17 -225q0 -163 17 -225q24 -102 103 -168t192 -66q117 0 190.5 66.5t89.5 165.5z" />
    <glyph glyph-name="Gdotaccent" unicode="&#x120;" horiz-adv-x="1239" 
d="M627 1640q-32 0 -54 20.5t-22 51.5q0 29 22 49.5t54 20.5q31 0 51 -20t20 -50q0 -31 -20 -51.5t-51 -20.5zM631 -16q-207 0 -333 117.5t-126 308.5v614q0 192 126 309t333 117q203 0 328.5 -116.5t125.5 -303.5v-31q0 -20 -20 -20h-39q-20 0 -20 20v31q0 156 -103.5 252
t-271.5 96q-170 0 -274.5 -97t-104.5 -255v-618q0 -158 104.5 -255.5t276.5 -97.5q168 0 270.5 95t102.5 251v224q0 8 -9 8h-333q-21 0 -21 20v31q0 9 6 15t15 6h401q20 0 20 -21v-268q0 -198 -124.5 -315t-329.5 -117z" />
    <glyph glyph-name="gdotaccent" unicode="&#x121;" horiz-adv-x="1077" 
d="M551 1237q-32 0 -54 20.5t-22 51.5q0 29 22 49t54 20q31 0 51.5 -20t20.5 -49q0 -31 -20.5 -51.5t-51.5 -20.5zM827 1008q0 20 21 20h39q20 0 20 -20v-996q0 -435 -506 -420q-20 0 -20 21l2 35q0 20 20 20q220 -6 322 80t102 266v123q0 4 -1.5 5.5t-4 0.5t-4.5 -4
q-90 -151 -289 -151q-135 0 -231.5 72.5t-128.5 197.5q-23 85 -23 254q0 166 23 264q33 120 128 194t230 74q98 0 172.5 -39.5t118.5 -109.5q3 -6 6.5 -5t3.5 7v111zM819 289q8 52 8 225q0 170 -8 227q-16 100 -91 166t-189 66q-113 0 -190 -65.5t-105 -166.5
q-17 -70 -17 -225q0 -163 17 -225q24 -102 103 -168t192 -66q117 0 190.5 66.5t89.5 165.5z" />
    <glyph glyph-name="uni0122" unicode="&#x122;" horiz-adv-x="1239" 
d="M631 -16q-207 0 -333 117.5t-126 308.5v614q0 192 126 309t333 117q203 0 328.5 -116.5t125.5 -303.5v-31q0 -20 -20 -20h-39q-20 0 -20 20v31q0 156 -103.5 252t-271.5 96q-170 0 -274.5 -97t-104.5 -255v-618q0 -158 104.5 -255.5t276.5 -97.5q168 0 270.5 95
t102.5 251v224q0 8 -9 8h-333q-21 0 -21 20v31q0 9 6 15t15 6h401q20 0 20 -21v-268q0 -198 -124.5 -315t-329.5 -117zM532 -403q-12 0 -16 6.5t2 17.5l125 227q6 15 25 15h39q12 0 16 -7.5t-2 -17.5l-135 -227q-10 -14 -25 -14h-29z" />
    <glyph glyph-name="uni0123" unicode="&#x123;" horiz-adv-x="1077" 
d="M645 1434q12 0 16 -7t-2 -18l-124 -227q-6 -15 -25 -15h-39q-12 0 -16 7.5t2 17.5l135 227q11 15 24 15h29zM827 1008q0 20 21 20h39q20 0 20 -20v-996q0 -435 -506 -420q-20 0 -20 21l2 35q0 20 20 20q220 -6 322 80t102 266v123q0 4 -1.5 5.5t-4 0.5t-4.5 -4
q-90 -151 -289 -151q-135 0 -231.5 72.5t-128.5 197.5q-23 85 -23 254q0 166 23 264q33 120 128 194t230 74q98 0 172.5 -39.5t118.5 -109.5q3 -6 6.5 -5t3.5 7v111zM819 289q8 52 8 225q0 170 -8 227q-16 100 -91 166t-189 66q-113 0 -190 -65.5t-105 -166.5
q-17 -70 -17 -225q0 -163 17 -225q24 -102 103 -168t192 -66q117 0 190.5 66.5t89.5 165.5z" />
    <glyph glyph-name="Hbar" unicode="&#x126;" horiz-adv-x="1363" 
d="M1247 1108q9 0 15 -6t6 -15v-24q0 -9 -6 -15t-15 -6h-96q-8 0 -8 -8v-1014q0 -20 -21 -20h-39q-20 0 -20 20v654q0 8 -8 8h-744q-8 0 -8 -8v-654q0 -20 -20 -20h-39q-21 0 -21 20v1014q0 8 -8 8h-100q-9 0 -15 6t-6 15v24q0 9 6 15t15 6h100q8 0 8 8v297q0 9 6 15t15 6
h39q20 0 20 -21v-297q0 -8 8 -8h744q8 0 8 8v297q0 21 20 21h39q9 0 15 -6t6 -15v-297q0 -8 8 -8h96zM1055 756q8 0 8 8v270q0 8 -8 8h-744q-8 0 -8 -8v-270q0 -8 8 -8h744z" />
    <glyph glyph-name="hbar" unicode="&#x127;" horiz-adv-x="1097" 
d="M578 1042q154 0 250 -95.5t96 -250.5v-676q0 -20 -21 -20h-39q-20 0 -20 20v662q0 127 -79 208t-202 81q-133 0 -214 -79t-81 -206v-666q0 -20 -20 -20h-39q-21 0 -21 20v1121q0 8 -8 8h-127q-20 0 -20 20v23q0 20 20 20h127q8 0 8 9v192q0 9 6 15t15 6h39q20 0 20 -21
v-192q0 -9 8 -9h353q20 0 20 -20v-23q0 -20 -20 -20h-353q-8 0 -8 -8v-244q0 -6 2.5 -7.5t5.5 3.5q92 149 302 149z" />
    <glyph glyph-name="Imacron" unicode="&#x12a;" horiz-adv-x="526" 
d="M23 1657q-21 0 -21 20v25q0 20 21 20h485q20 0 20 -20v-25q0 -20 -20 -20h-485zM244 0q-21 0 -21 20v1393q0 9 6 15t15 6h39q20 0 20 -21v-1393q0 -20 -20 -20h-39z" />
    <glyph glyph-name="imacron" unicode="&#x12b;" horiz-adv-x="434" 
d="M-29 1249q-20 0 -20 21v24q0 21 20 21h486q20 0 20 -21v-24q0 -21 -20 -21h-486zM195 0q-21 0 -21 20v988q0 20 21 20h38q21 0 21 -20v-988q0 -20 -21 -20h-38z" />
    <glyph glyph-name="Iogonek" unicode="&#x12e;" horiz-adv-x="706" 
d="M449 -311q21 3 24 -17l4 -16q6 -22 -14 -25q-49 -7 -96 -5t-87 32.5t-53 85.5q-28 138 125 252q3 2 0 8q-4 4 -4 16v1393q0 9 6 15t15 6h39q20 0 20 -21v-1393l-2 -20h-2q-66 -52 -104 -112.5t-27 -120.5q10 -54 53.5 -72.5t102.5 -5.5z" />
    <glyph glyph-name="iogonek" unicode="&#x12f;" horiz-adv-x="587" 
d="M328 1237q-32 0 -54 20.5t-22 51.5q0 29 22 49t54 20q31 0 51 -20t20 -49q0 -31 -20 -51.5t-51 -20.5zM389 -311q22 3 25 -17l4 -16q6 -22 -15 -25q-34 -9 -71.5 -6.5t-70 12.5t-58 37.5t-35.5 69.5q-27 136 125 252q4 2 0 6q-6 6 -6 18v988q0 20 20 20h39q21 0 21 -20
v-992v-16q-5 -2 -7 -4q-148 -119 -127 -229q10 -54 53.5 -72.5t102.5 -5.5z" />
    <glyph glyph-name="Idotaccent" unicode="&#x130;" horiz-adv-x="526" 
d="M264 1645q-32 0 -54 20t-22 51q0 29 22 49.5t54 20.5q31 0 51.5 -20.5t20.5 -49.5q0 -31 -20.5 -51t-51.5 -20zM244 0q-21 0 -21 20v1393q0 9 6 15t15 6h39q20 0 20 -21v-1393q0 -20 -20 -20h-39z" />
    <glyph glyph-name="dotlessi" unicode="&#x131;" horiz-adv-x="434" 
d="M195 0q-21 0 -21 20v988q0 20 21 20h38q21 0 21 -20v-988q0 -20 -21 -20h-38z" />
    <glyph glyph-name="ij" unicode="&#x133;" horiz-adv-x="946" 
d="M246 1253q-35 0 -58.5 22t-23.5 56q0 31 23.5 52.5t58.5 21.5t57.5 -21.5t22.5 -52.5q0 -34 -22.5 -56t-57.5 -22zM717 1251q-35 0 -57.5 21.5t-22.5 56.5t22.5 55.5t57.5 20.5q37 0 59.5 -20.5t22.5 -55.5q0 -36 -22 -57t-60 -21zM225 0q-20 0 -20 20v988q0 20 20 20h39
q21 0 21 -20v-988q0 -20 -21 -20h-39zM457 -430q-21 0 -21 20v31q0 9 6 15t15 6q106 4 162.5 63.5t56.5 163.5v1139q0 20 20 20h39q21 0 21 -20v-1137q0 -143 -76 -220t-223 -81z" />
    <glyph glyph-name="uni0136" unicode="&#x136;" horiz-adv-x="1236" 
d="M244 0q-21 0 -21 20v1393q0 9 6 15t15 6h39q20 0 20 -21v-745q0 -4 3.5 -5.5t6.5 1.5l725 759q11 11 25 11h43q12 0 16.5 -7t-4.5 -18l-520 -559q-4 -4 0 -12l569 -813q8 -9 4 -17t-16 -8h-49q-18 0 -25 12l-538 766q-2 3 -6 4t-7 -2l-223 -225q-4 -4 -4 -10v-525
q0 -20 -20 -20h-39zM569 -387q-12 0 -16 7.5t2 17.5l125 227q6 14 25 14h38q12 0 16.5 -6.5t-1.5 -17.5l-135 -228q-11 -14 -25 -14h-29z" />
    <glyph glyph-name="uni0137" unicode="&#x137;" horiz-adv-x="995" 
d="M209 0q-21 0 -21 20v1393q0 9 6 15t15 6h39q20 0 20 -21v-901q0 -4 4 -5.5t7 1.5l503 510q10 10 25 10h51q12 0 15.5 -7t-5.5 -17l-258 -269q-5 -5 -2 -10l314 -700q4 -10 -1 -17.5t-16 -7.5h-41q-17 0 -22 16l-289 652q-4 8 -10 2l-271 -271q-4 -4 -4 -10v-369
q0 -20 -20 -20h-39zM446 -387q-12 0 -16 7.5t2 17.5l125 227q6 14 25 14h39q12 0 16 -6.5t-2 -17.5l-135 -228q-11 -14 -25 -14h-29z" />
    <glyph glyph-name="Lacute" unicode="&#x139;" horiz-adv-x="1161" 
d="M217 1591q-12 0 -16 7.5t2 17.5l125 227q6 15 24 15h39q12 0 16.5 -7t-1.5 -18l-136 -227q-11 -15 -24 -15h-29zM244 0q-21 0 -21 20v1393q0 9 6 15t15 6h39q20 0 20 -21v-1333q0 -8 8 -8h744q20 0 20 -21v-31q0 -20 -20 -20h-811z" />
    <glyph glyph-name="lacute" unicode="&#x13a;" horiz-adv-x="458" 
d="M186 1591q-12 0 -16 7.5t2 17.5l125 227q6 15 25 15h38q12 0 16.5 -7t-1.5 -18l-135 -227q-11 -15 -25 -15h-29zM211 0q-21 0 -21 20v1393q0 9 6 15t15 6h39q20 0 20 -21v-1393q0 -20 -20 -20h-39z" />
    <glyph glyph-name="uni013B" unicode="&#x13b;" horiz-adv-x="1161" 
d="M244 0q-21 0 -21 20v1393q0 9 6 15t15 6h39q20 0 20 -21v-1333q0 -8 8 -8h744q20 0 20 -21v-31q0 -20 -20 -20h-811zM500 -387q-12 0 -16.5 7.5t1.5 17.5l125 227q6 14 25 14h39q12 0 16 -6.5t-2 -17.5l-135 -228q-11 -14 -25 -14h-28z" />
    <glyph glyph-name="uni013C" unicode="&#x13c;" horiz-adv-x="458" 
d="M211 0q-21 0 -21 20v1393q0 9 6 15t15 6h39q20 0 20 -21v-1393q0 -20 -20 -20h-39zM68 -387q-12 0 -16.5 7.5t1.5 17.5l125 227q6 14 25 14h39q12 0 16 -6.5t-2 -17.5l-135 -228q-11 -14 -25 -14h-28z" />
    <glyph glyph-name="Lcaron" unicode="&#x13d;" horiz-adv-x="1161" 
d="M238 1548q-19 0 -27 13l-168 219q-7 9 -3.5 16.5t15.5 7.5h31q20 0 27 -12l143 -186q7 -10 12 0l140 186q7 12 26 12h31q12 0 15.5 -7.5t-3.5 -16.5l-170 -219q-10 -13 -26 -13h-43zM244 0q-21 0 -21 20v1393q0 9 6 15t15 6h39q20 0 20 -21v-1333q0 -8 8 -8h744
q20 0 20 -21v-31q0 -20 -20 -20h-811z" />
    <glyph glyph-name="lcaron" unicode="&#x13e;" horiz-adv-x="458" 
d="M207 1548q-19 0 -27 13l-168 219q-7 9 -3 16.5t16 7.5h30q20 0 27 -12l143 -186q3 -4 7 -3.5t6 3.5l139 186q7 12 26 12h31q12 0 16 -7.5t-4 -16.5l-170 -219q-10 -13 -26 -13h-43zM211 0q-21 0 -21 20v1393q0 9 6 15t15 6h39q20 0 20 -21v-1393q0 -20 -20 -20h-39z" />
    <glyph glyph-name="Lslash" unicode="&#x141;" horiz-adv-x="1161" 
d="M303 80q0 -8 8 -8h744q20 0 20 -21v-31q0 -20 -20 -20h-811q-21 0 -21 20v525q0 5 -3.5 7t-6.5 -1l-231 -164q-17 -14 -29 4l-16 23q-11 16 4 28l276 197q6 6 6 10v764q0 9 6 15t15 6h39q20 0 20 -21v-700q0 -5 3.5 -7t6.5 1l496 354q16 13 29 -4l18 -25q11 -16 -4 -28
l-543 -386q-6 -6 -6 -10v-528z" />
    <glyph glyph-name="lslash" unicode="&#x142;" horiz-adv-x="458" 
d="M506 852q9 -17 -6 -27l-224 -139q-6 -3 -6 -10v-656q0 -20 -20 -20h-39q-21 0 -21 20v601q0 5 -3.5 7t-6.5 -1l-123 -78q-18 -12 -28 8l-15 25q-8 16 6 26l164 103q6 3 6 10v692q0 9 6 15t15 6h39q20 0 20 -21v-635q0 -5 4 -7t7 1l180 115q18 12 28 -8z" />
    <glyph glyph-name="Nacute" unicode="&#x143;" horiz-adv-x="1392" 
d="M653 1612q-12 0 -16 7t2 17l125 228q6 14 24 14h39q12 0 16.5 -7t-1.5 -18l-135 -227q-11 -14 -25 -14h-29zM244 0q-21 0 -21 20v1393q0 9 6 15t15 6h41q13 0 24 -15l772 -1249q3 -6 7 -5t4 7v1241q0 21 20 21h39q20 0 20 -21v-1393q0 -20 -20 -20h-43q-14 0 -25 14
l-770 1252q-3 6 -6.5 5t-3.5 -7v-1244q0 -20 -20 -20h-39z" />
    <glyph glyph-name="nacute" unicode="&#x144;" horiz-adv-x="1097" 
d="M678 1452q12 0 16 -7t-2 -18l-135 -227q-11 -14 -25 -14h-28q-12 0 -16.5 7t1.5 17l125 228q6 14 25 14h39zM578 1042q154 0 250 -95.5t96 -250.5v-676q0 -20 -21 -20h-39q-20 0 -20 20v662q0 127 -79 208t-202 81q-133 0 -214 -79t-81 -206v-666q0 -20 -20 -20h-39
q-21 0 -21 20v988q0 20 21 20h39q20 0 20 -20v-111q0 -6 2.5 -7.5t5.5 3.5q92 149 302 149z" />
    <glyph glyph-name="uni0145" unicode="&#x145;" horiz-adv-x="1392" 
d="M244 0q-21 0 -21 20v1393q0 9 6 15t15 6h41q13 0 24 -15l772 -1249q3 -6 7 -5t4 7v1241q0 21 20 21h39q20 0 20 -21v-1393q0 -20 -20 -20h-43q-14 0 -25 14l-770 1252q-3 6 -6.5 5t-3.5 -7v-1244q0 -20 -20 -20h-39zM614 -387q-12 0 -16 7.5t2 17.5l125 227q6 14 25 14
h38q12 0 16.5 -6.5t-1.5 -17.5l-135 -228q-11 -14 -25 -14h-29z" />
    <glyph glyph-name="uni0146" unicode="&#x146;" horiz-adv-x="1097" 
d="M578 1042q154 0 250 -95.5t96 -250.5v-676q0 -20 -21 -20h-39q-20 0 -20 20v662q0 127 -79 208t-202 81q-133 0 -214 -79t-81 -206v-666q0 -20 -20 -20h-39q-21 0 -21 20v988q0 20 21 20h39q20 0 20 -20v-111q0 -6 2.5 -7.5t5.5 3.5q92 149 302 149zM475 -387
q-12 0 -16 7.5t2 17.5l125 227q6 14 24 14h39q12 0 16.5 -6.5t-1.5 -17.5l-136 -228q-10 -14 -24 -14h-29z" />
    <glyph glyph-name="Ncaron" unicode="&#x147;" horiz-adv-x="1392" 
d="M674 1585q-20 0 -27 12l-168 222q-7 9 -3 16.5t16 7.5h30q20 0 27 -12l143 -186q3 -4 7 -3.5t6 3.5l139 186q7 12 26 12h31q12 0 15.5 -7.5t-3.5 -16.5l-170 -222q-7 -12 -26 -12h-43zM244 0q-21 0 -21 20v1393q0 9 6 15t15 6h41q13 0 24 -15l772 -1249q3 -6 7 -5t4 7
v1241q0 21 20 21h39q20 0 20 -21v-1393q0 -20 -20 -20h-43q-14 0 -25 14l-770 1252q-3 6 -6.5 5t-3.5 -7v-1244q0 -20 -20 -20h-39z" />
    <glyph glyph-name="ncaron" unicode="&#x148;" horiz-adv-x="1097" 
d="M594 1171q-7 -12 -27 -12h-43q-19 0 -26 12l-168 222q-8 9 -4 16.5t16 7.5h31q19 0 26 -12l144 -186q7 -10 12 0l139 186q7 12 27 12h31q12 0 16 -7.5t-4 -16.5zM578 1042q154 0 250 -95.5t96 -250.5v-676q0 -20 -21 -20h-39q-20 0 -20 20v662q0 127 -79 208t-202 81
q-133 0 -214 -79t-81 -206v-666q0 -20 -20 -20h-39q-21 0 -21 20v988q0 20 21 20h39q20 0 20 -20v-111q0 -6 2.5 -7.5t5.5 3.5q92 149 302 149z" />
    <glyph glyph-name="Eng" unicode="&#x14a;" horiz-adv-x="1394" 
d="M1092 1413q0 21 20 21h39q20 0 20 -21v-1413q0 -146 -60.5 -219.5t-201.5 -77.5q-20 0 -20 21v30q0 21 20 21q97 4 139 59t44 160q0 8 -2 10l-777 1262q-3 6 -6.5 5t-3.5 -7v-1244q0 -20 -20 -20h-39q-21 0 -21 20v1393q0 9 6 15t15 6h41q13 0 24 -15l772 -1249
q3 -6 7 -5t4 7v1241z" />
    <glyph glyph-name="eng" unicode="&#x14b;" horiz-adv-x="1097" 
d="M924 418l2 -4v-453q0 -137 -63.5 -215t-192.5 -84q-9 0 -15 6t-6 15v28q0 21 21 21q86 7 131 68.5t45 160.5v35v4h-2v682q0 127 -79 208t-202 81q-133 0 -214 -79t-81 -206v-666q0 -20 -20 -20h-39q-21 0 -21 20v988q0 20 21 20h39q20 0 20 -20v-111q0 -4 2 -5.5
t4.5 -0.5t4.5 4q44 71 121 109t178 38q154 0 250 -95.5t96 -250.5v-278z" />
    <glyph glyph-name="Omacron" unicode="&#x14c;" horiz-adv-x="1273" 
d="M393 1653q-20 0 -20 20v25q0 20 20 20h486q20 0 20 -20v-25q0 -20 -20 -20h-486zM635 -16q-209 0 -336 126t-127 330v551q0 206 127 332.5t336 126.5q210 0 338.5 -126.5t128.5 -332.5v-551q0 -204 -128.5 -330t-338.5 -126zM635 55q174 0 280.5 105t106.5 276v557
q0 173 -107 279t-280 106q-172 0 -277.5 -106t-105.5 -279v-557q0 -172 105.5 -276.5t277.5 -104.5z" />
    <glyph glyph-name="omacron" unicode="&#x14d;" horiz-adv-x="1093" 
d="M303 1247q-20 0 -20 21v24q0 21 20 21h485q9 0 15 -6t6 -15v-24q0 -9 -6 -15t-15 -6h-485zM547 -16q-144 0 -242 74.5t-131 199.5q-20 76 -20 258t18 256q33 124 133 198t242 74q143 0 244 -74.5t131 -197.5q16 -68 16 -256q0 -192 -16 -258q-31 -125 -131.5 -199.5
t-243.5 -74.5zM547 55q118 0 198.5 64.5t102.5 169.5q10 47 10 225q0 182 -10 225q-21 105 -102.5 169.5t-200.5 64.5q-118 0 -197.5 -64.5t-101.5 -169.5q-13 -59 -13 -225q0 -169 13 -225q22 -106 102 -170t199 -64z" />
    <glyph glyph-name="Ohungarumlaut" unicode="&#x150;" horiz-adv-x="1273" 
d="M451 1604q-11 0 -17 7t0 17l123 227q6 15 25 15h34q12 0 16.5 -7t-1.5 -18l-127 -227q-10 -14 -25 -14h-28zM768 1604q-12 0 -16 7t2 17l125 227q6 15 24 15h33q12 0 16 -7t-2 -18l-129 -227q-11 -14 -24 -14h-29zM635 -16q-209 0 -336 126t-127 330v551q0 206 127 332.5
t336 126.5q210 0 338.5 -126.5t128.5 -332.5v-551q0 -204 -128.5 -330t-338.5 -126zM635 55q174 0 280.5 105t106.5 276v557q0 173 -107 279t-280 106q-172 0 -277.5 -106t-105.5 -279v-557q0 -172 105.5 -276.5t277.5 -104.5z" />
    <glyph glyph-name="ohungarumlaut" unicode="&#x151;" horiz-adv-x="1093" 
d="M360 1198q-11 0 -16 7t0 18l123 227q6 14 25 14h34q12 0 16.5 -7t-1.5 -17l-127 -228q-10 -14 -25 -14h-29zM678 1198q-12 0 -16 7t2 18l124 227q6 14 25 14h33q12 0 16 -7t-2 -17l-129 -228q-11 -14 -24 -14h-29zM547 -16q-144 0 -242 74.5t-131 199.5q-20 76 -20 258
t18 256q33 124 133 198t242 74q143 0 244 -74.5t131 -197.5q16 -68 16 -256q0 -192 -16 -258q-31 -125 -131.5 -199.5t-243.5 -74.5zM547 55q118 0 198.5 64.5t102.5 169.5q10 47 10 225q0 182 -10 225q-21 105 -102.5 169.5t-200.5 64.5q-118 0 -197.5 -64.5t-101.5 -169.5
q-13 -59 -13 -225q0 -169 13 -225q22 -106 102 -170t199 -64z" />
    <glyph glyph-name="OE" unicode="&#x152;" horiz-adv-x="1873" 
d="M1737 1382q0 -20 -21 -20h-680q-8 0 -8 -8v-590q0 -8 8 -8h457q20 0 20 -21v-33q0 -20 -20 -20h-457q-8 0 -8 -8v-594q0 -8 8 -8h680q9 0 15 -6t6 -15v-31q0 -20 -21 -20h-747q-21 0 -21 20v134q0 5 -3.5 6.5t-6.5 -2.5q-57 -82 -147 -128t-203 -46q-185 0 -300.5 118
t-115.5 301v625q0 184 115.5 303t300.5 119q113 0 203 -46t147 -128q3 -4 6.5 -2.5t3.5 6.5v133q0 9 6 15t15 6h747q9 0 15 -6t6 -15v-31zM598 55q156 0 253 97t97 247v631q0 150 -97 249t-253 99q-154 0 -250 -99t-96 -249v-631q0 -150 95.5 -247t250.5 -97z" />
    <glyph glyph-name="oe" unicode="&#x153;" horiz-adv-x="1742" 
d="M1223 55q99 0 174 49.5t108 131.5q6 18 25 12l26 -8q21 -7 15 -27q-41 -104 -134 -166.5t-220 -62.5q-116 0 -203 53.5t-131 146.5q-7 10 -13 0q-45 -91 -134 -145.5t-204 -54.5q-138 0 -234.5 75t-127.5 199q-16 68 -16 258t16 256q30 123 127 197.5t235 74.5
q113 0 202 -54.5t134 -145.5q6 -10 13 0q45 92 132.5 146t200.5 54q139 0 238 -75t129 -197q10 -41 13 -86.5t3 -165.5q0 -22 -20 -22h-653q-9 0 -9 -9q0 -159 11 -200q21 -106 99.5 -170t197.5 -64zM823 289q8 34 8 225q0 192 -8 225q-19 104 -97.5 169t-193.5 65
q-114 0 -190.5 -65t-97.5 -169q-11 -59 -11 -225t11 -225q21 -105 97.5 -169.5t190.5 -64.5q115 0 193.5 65t97.5 169zM1214 973q-116 0 -192.5 -65t-95.5 -169q-11 -48 -11 -174q0 -8 9 -8h585q9 0 9 8q0 110 -11 174q-22 104 -100.5 169t-192.5 65z" />
    <glyph glyph-name="Racute" unicode="&#x154;" horiz-adv-x="1251" 
d="M752 1858q12 0 16 -7t-2 -18l-135 -227q-11 -15 -25 -15h-28q-12 0 -16.5 7.5t1.5 17.5l125 227q6 15 25 15h39zM1083 0q-18 0 -24 14l-324 668q-3 6 -8 6h-416q-8 0 -8 -8v-660q0 -20 -20 -20h-39q-21 0 -21 20v1397q0 9 6 15t15 6h501q168 0 271.5 -105t103.5 -274
q0 -146 -81 -244.5t-218 -120.5q-9 -3 -6 -10l320 -659q4 -10 0 -17.5t-15 -7.5h-37zM311 1364q-8 0 -8 -8v-590q0 -8 8 -8h432q133 0 215 83.5t82 217.5q0 137 -82 221t-215 84h-432z" />
    <glyph glyph-name="racute" unicode="&#x155;" horiz-adv-x="729" 
d="M575 1470q12 0 16.5 -7t-1.5 -17l-135 -227q-11 -15 -25 -15h-29q-12 0 -16 7t2 18l125 227q6 14 25 14h38zM557 1036q72 0 121 -22q17 -7 10 -27l-14 -41q-6 -20 -25 -10q-45 17 -102 14q-120 0 -199.5 -92t-79.5 -223v-615q0 -20 -20 -20h-39q-21 0 -21 20v988
q0 20 21 20h39q20 0 20 -20v-154q0 -4 1.5 -6t3.5 -1t3 5q43 86 115 135t166 49z" />
    <glyph glyph-name="uni0156" unicode="&#x156;" horiz-adv-x="1251" 
d="M821 694q-9 -3 -6 -10l320 -659q4 -10 0 -17.5t-15 -7.5h-37q-18 0 -24 14l-324 668q-3 6 -8 6h-416q-8 0 -8 -8v-660q0 -20 -20 -20h-39q-21 0 -21 20v1397q0 9 6 15t15 6h501q168 0 271.5 -105t103.5 -274q0 -146 -81 -244.5t-218 -120.5zM311 1364q-8 0 -8 -8v-590
q0 -8 8 -8h432q133 0 215 83.5t82 217.5q0 137 -82 221t-215 84h-432zM557 -387q-12 0 -16 7.5t2 17.5l125 227q6 14 24 14h39q12 0 16 -6.5t-2 -17.5l-135 -228q-10 -14 -24 -14h-29z" />
    <glyph glyph-name="uni0157" unicode="&#x157;" horiz-adv-x="733" 
d="M557 1036q72 0 121 -22q17 -7 10 -27l-14 -41q-6 -20 -25 -10q-45 17 -102 14q-120 0 -199.5 -92t-79.5 -223v-615q0 -20 -20 -20h-39q-21 0 -21 20v988q0 20 21 20h39q20 0 20 -20v-154q0 -4 1.5 -6t3.5 -1t3 5q43 86 115 135t166 49zM68 -387q-12 0 -16.5 7.5t1.5 17.5
l125 227q6 14 25 14h39q12 0 16 -6.5t-2 -17.5l-135 -228q-11 -14 -25 -14h-28z" />
    <glyph glyph-name="Rcaron" unicode="&#x158;" horiz-adv-x="1251" 
d="M668 1577q-7 -12 -27 -12h-43q-20 0 -27 12l-168 221q-7 9 -3 17t16 8h30q19 0 27 -13l143 -186q3 -4 7 -3.5t6 3.5l139 186q8 13 27 13h30q12 0 16 -8t-3 -17zM1083 0q-18 0 -24 14l-324 668q-3 6 -8 6h-416q-8 0 -8 -8v-660q0 -20 -20 -20h-39q-21 0 -21 20v1397
q0 9 6 15t15 6h501q168 0 271.5 -105t103.5 -274q0 -146 -81 -244.5t-218 -120.5q-9 -3 -6 -10l320 -659q4 -10 0 -17.5t-15 -7.5h-37zM311 1364q-8 0 -8 -8v-590q0 -8 8 -8h432q133 0 215 83.5t82 217.5q0 137 -82 221t-215 84h-432z" />
    <glyph glyph-name="rcaron" unicode="&#x159;" horiz-adv-x="729" 
d="M492 1190q-7 -12 -27 -12h-43q-20 0 -27 12l-168 221q-7 9 -3 17t16 8h30q19 0 27 -13l143 -186q3 -4 7 -3.5t6 3.5l139 186q8 13 26 13h31q12 0 16 -8t-3 -17zM557 1036q72 0 121 -22q17 -7 10 -27l-14 -41q-6 -20 -25 -10q-45 17 -102 14q-120 0 -199.5 -92t-79.5 -223
v-615q0 -20 -20 -20h-39q-21 0 -21 20v988q0 20 21 20h39q20 0 20 -20v-154q0 -4 1.5 -6t3.5 -1t3 5q43 86 115 135t166 49z" />
    <glyph glyph-name="Sacute" unicode="&#x15a;" horiz-adv-x="1193" 
d="M541 1608q-12 0 -16.5 7t1.5 17l125 228q6 14 25 14h39q12 0 16 -7t-2 -18l-135 -227q-10 -14 -25 -14h-28zM608 -16q-219 0 -347 98.5t-128 263.5v72q0 20 21 20h34q21 0 21 -20v-66q0 -134 109 -215.5t296 -81.5q180 0 276.5 76t96.5 207q0 49 -15 90t-44 75.5t-81 69
t-115 66.5t-157 72q-50 21 -75.5 32.5t-67 30.5t-62.5 30.5t-53 30.5t-47.5 34t-37.5 36t-32 42t-21 46t-15 53.5t-4 61.5q0 165 111.5 253.5t314.5 88.5q221 0 344 -99.5t123 -267.5v-49q0 -20 -21 -20h-39q-20 0 -20 20v43q0 137 -102.5 219t-288.5 82q-166 0 -255 -68
t-89 -198q0 -26 3.5 -49t12.5 -43.5t18 -37.5t27.5 -34t33 -30t43 -29t49 -27t59 -27.5t65 -28t74.5 -30.5q115 -48 189.5 -88t136 -91.5t90 -113.5t28.5 -139q0 -164 -120 -262t-339 -98z" />
    <glyph glyph-name="sacute" unicode="&#x15b;" horiz-adv-x="970" 
d="M446 1194q-12 0 -16 7t2 18l125 227q6 14 25 14h39q12 0 16 -7t-2 -17l-135 -228q-10 -14 -25 -14h-29zM496 -8q-160 0 -261.5 76t-101.5 186v29q0 20 21 20h36q21 0 21 -20v-27q0 -79 79.5 -138t203.5 -59q123 0 199.5 58.5t76.5 150.5q0 36 -16 66t-34 48t-62 38.5
t-66.5 28t-81.5 26.5q-7 2 -10.5 3.5t-9.5 3t-11 3.5q-46 14 -74 23.5t-68 25.5t-64.5 30.5t-53 36t-44 45.5t-26 55.5t-10.5 68.5q0 121 96.5 193.5t253.5 72.5q159 0 257 -74.5t98 -189.5v-6q0 -9 -6 -15t-15 -6h-35q-20 0 -20 15v12q0 84 -77.5 140.5t-203.5 56.5
q-122 0 -196 -54t-74 -141q0 -30 9 -55.5t30.5 -45.5t42 -34.5t58.5 -29.5t64.5 -24t74.5 -24q155 -46 214 -77q139 -76 140 -212q0 -124 -97 -202t-257 -78z" />
    <glyph glyph-name="Scedilla" unicode="&#x15e;" horiz-adv-x="1193" 
d="M1067 344q0 -157 -110.5 -254t-315.5 -106q-5 0 -5.5 -3t3.5 -8q131 -106 104 -235q-10 -42 -35.5 -69.5t-58 -37.5t-70 -12.5t-71.5 6.5q-20 3 -16 25l4 16q6 20 26 17q59 -13 102.5 4.5t53.5 72.5q21 105 -117 222q-2 4 -10 4q-193 12 -305.5 109t-112.5 251v72
q0 20 21 20h34q21 0 21 -20v-66q0 -134 109 -215.5t296 -81.5q180 0 276.5 76t96.5 207q0 49 -15 90t-44 75.5t-81 69t-115 66.5t-157 72q-50 21 -75.5 32.5t-67 30.5t-62.5 30.5t-53 30.5t-47.5 34t-37.5 36t-32 42t-21 46t-15 53.5t-4 61.5q0 165 111.5 253.5t314.5 88.5
q221 0 344 -99.5t123 -267.5v-49q0 -20 -21 -20h-39q-20 0 -20 20v43q0 137 -102.5 219t-288.5 82q-166 0 -255 -68t-89 -198q0 -26 3.5 -49t12.5 -43.5t18 -37.5t27.5 -34t33 -30t43 -29t49 -27t59 -27.5t65 -28t74.5 -30.5q115 -48 189.5 -88t136 -91.5t90 -113.5
t28.5 -139z" />
    <glyph glyph-name="scedilla" unicode="&#x15f;" horiz-adv-x="970" 
d="M850 272q0 -115 -84.5 -191.5t-226.5 -88.5q-4 0 -5.5 -1t-0.5 -3t4 -4q133 -108 106 -238q-10 -42 -35.5 -69.5t-58 -37.5t-70 -12.5t-71.5 6.5q-21 3 -17 25l4 16q6 20 27 17q59 -13 102.5 5t53.5 73q21 104 -117 221q-2 4 -10 4q-141 10 -229.5 84.5t-88.5 175.5v29
q0 20 21 20h36q21 0 21 -20v-27q0 -79 79.5 -138t203.5 -59q123 0 199.5 58.5t76.5 150.5q0 36 -16 66t-34 48t-62 38.5t-66.5 28t-81.5 26.5q-7 2 -10.5 3.5t-9.5 3t-11 3.5q-46 14 -74 23.5t-68 25.5t-64.5 30.5t-53 36t-44 45.5t-26 55.5t-10.5 68.5q0 121 96.5 193.5
t253.5 72.5q159 0 257 -74.5t98 -189.5v-6q0 -9 -6 -15t-15 -6h-35q-20 0 -20 15v12q0 84 -77.5 140.5t-203.5 56.5q-122 0 -196 -54t-74 -141q0 -30 9 -55.5t30.5 -45.5t42 -34.5t58.5 -29.5t64.5 -24t74.5 -24q155 -46 214 -77q139 -76 140 -212z" />
    <glyph glyph-name="Scaron" unicode="&#x160;" horiz-adv-x="1193" 
d="M561 1581q-19 0 -26 12l-168 222q-7 9 -3.5 16.5t15.5 7.5h31q19 0 26 -12l144 -187q7 -10 12 0l139 187q7 12 27 12h30q12 0 16 -7.5t-3 -16.5l-170 -222q-7 -12 -27 -12h-43zM608 -16q-219 0 -347 98.5t-128 263.5v72q0 20 21 20h34q21 0 21 -20v-66q0 -134 109 -215.5
t296 -81.5q180 0 276.5 76t96.5 207q0 49 -15 90t-44 75.5t-81 69t-115 66.5t-157 72q-50 21 -75.5 32.5t-67 30.5t-62.5 30.5t-53 30.5t-47.5 34t-37.5 36t-32 42t-21 46t-15 53.5t-4 61.5q0 165 111.5 253.5t314.5 88.5q221 0 344 -99.5t123 -267.5v-49q0 -20 -21 -20h-39
q-20 0 -20 20v43q0 137 -102.5 219t-288.5 82q-166 0 -255 -68t-89 -198q0 -26 3.5 -49t12.5 -43.5t18 -37.5t27.5 -34t33 -30t43 -29t49 -27t59 -27.5t65 -28t74.5 -30.5q115 -48 189.5 -88t136 -91.5t90 -113.5t28.5 -139q0 -164 -120 -262t-339 -98z" />
    <glyph glyph-name="scaron" unicode="&#x161;" horiz-adv-x="970" 
d="M467 1167q-19 0 -27 13l-168 221q-7 9 -3 16.5t16 7.5h30q20 0 27 -12l143 -186q3 -4 7 -3.5t6 3.5l139 186q7 12 27 12h30q12 0 16 -7.5t-3 -16.5l-170 -221q-8 -13 -27 -13h-43zM496 -8q-160 0 -261.5 76t-101.5 186v29q0 20 21 20h36q21 0 21 -20v-27q0 -79 79.5 -138
t203.5 -59q123 0 199.5 58.5t76.5 150.5q0 36 -16 66t-34 48t-62 38.5t-66.5 28t-81.5 26.5q-7 2 -10.5 3.5t-9.5 3t-11 3.5q-46 14 -74 23.5t-68 25.5t-64.5 30.5t-53 36t-44 45.5t-26 55.5t-10.5 68.5q0 121 96.5 193.5t253.5 72.5q159 0 257 -74.5t98 -189.5v-6
q0 -9 -6 -15t-15 -6h-35q-20 0 -20 15v12q0 84 -77.5 140.5t-203.5 56.5q-122 0 -196 -54t-74 -141q0 -30 9 -55.5t30.5 -45.5t42 -34.5t58.5 -29.5t64.5 -24t74.5 -24q155 -46 214 -77q139 -76 140 -212q0 -124 -97 -202t-257 -78z" />
    <glyph glyph-name="uni0162" unicode="&#x162;" horiz-adv-x="1150" 
d="M614 1362q-8 0 -8 -8v-1348q0 -6 4 -10q141 -110 113 -242q-13 -55 -53 -85t-87 -32t-96 5q-20 3 -16 24l4 17q5 19 27 16q59 -13 102 5t53 73q21 105 -114 219q0 1 -11 6q-6 3 -6 18v1334q0 8 -8 8h-395q-21 0 -21 20v31q0 9 6 15t15 6h903q9 0 15 -6t6 -15v-31
q0 -20 -21 -20h-412z" />
    <glyph glyph-name="uni0163" unicode="&#x163;" horiz-adv-x="729" 
d="M510 0q-5 0 -5.5 -3.5t3.5 -6.5q129 -107 102 -234q-13 -55 -52.5 -85t-86.5 -32t-96 5q-21 3 -17 24l4 17q5 19 27 16q59 -13 102.5 5t53.5 73q21 106 -123 225q-1 1 -10 6q-83 16 -127.5 74t-44.5 172v694q0 8 -9 8h-125q-20 0 -20 21v29q0 20 20 20h125q9 0 9 8v232
q0 20 20 20h37q20 0 20 -20v-232q0 -8 9 -8h247q21 0 21 -20v-29q0 -9 -6 -15t-15 -6h-247q-9 0 -9 -8v-680q0 -110 51 -153t160 -43h45q9 0 15 -6t6 -15v-30q0 -20 -21 -23h-51h-12z" />
    <glyph glyph-name="Tcaron" unicode="&#x164;" horiz-adv-x="1150" 
d="M610 1561q-10 -13 -26 -13h-43q-19 0 -27 13l-168 219q-8 9 -4 16.5t16 7.5h31q20 0 27 -12l143 -186q7 -10 12 0l140 186q7 12 26 12h31q12 0 16 -7.5t-4 -16.5zM1026 1434q9 0 15 -6t6 -15v-31q0 -20 -21 -20h-412q-8 0 -8 -8v-1334q0 -20 -20 -20h-39q-21 0 -21 20
v1334q0 8 -8 8h-395q-21 0 -21 20v31q0 9 6 15t15 6h903z" />
    <glyph glyph-name="tcaron" unicode="&#x165;" horiz-adv-x="729" 
d="M326 1415q-9 -12 -27 -12h-43q-20 0 -27 12l-168 219q-7 9 -3 17t16 8h30q20 0 27 -12l143 -187q3 -4 7 -3.5t6 3.5l139 187q7 12 27 12h30q12 0 16 -8t-3 -17zM594 979q0 -9 -6 -15t-15 -6h-247q-9 0 -9 -8v-680q0 -110 51 -153t160 -43h45q9 0 15 -6t6 -15v-30
q0 -20 -21 -23h-51q-67 0 -115 11t-87.5 38.5t-59.5 79t-20 127.5v694q0 8 -9 8h-125q-20 0 -20 21v29q0 20 20 20h125q9 0 9 8v232q0 20 20 20h37q20 0 20 -20v-232q0 -8 9 -8h247q21 0 21 -20v-29z" />
    <glyph glyph-name="Tbar" unicode="&#x166;" horiz-adv-x="1228" 
d="M1047 1382q0 -20 -21 -20h-412q-8 0 -8 -8v-480q0 -8 8 -8h238q20 0 20 -20v-23q0 -20 -20 -20h-238q-8 0 -8 -8v-775q0 -20 -20 -20h-39q-21 0 -21 20v775q0 8 -8 8h-242q-20 0 -20 20v23q0 20 20 20h242q8 0 8 8v480q0 8 -8 8h-395q-21 0 -21 20v31q0 9 6 15t15 6h903
q9 0 15 -6t6 -15v-31z" />
    <glyph glyph-name="tbar" unicode="&#x167;" horiz-adv-x="1228" 
d="M594 979q0 -9 -6 -15t-15 -6h-247q-9 0 -9 -8v-227q0 -8 9 -8h241q9 0 15 -6t6 -15v-22q0 -9 -6 -15t-15 -6h-241q-9 0 -9 -8v-373q0 -110 51 -153t160 -43h45q9 0 15 -6t6 -15v-30q0 -20 -21 -23h-51q-67 0 -115 11t-87.5 38.5t-59.5 79t-20 127.5v387q0 8 -9 8h-110
q-9 0 -15 6t-6 15v22q0 9 6 15t15 6h110q9 0 9 8v227q0 8 -9 8h-125q-20 0 -20 21v29q0 20 20 20h125q9 0 9 8v232q0 20 20 20h37q20 0 20 -20v-232q0 -8 9 -8h247q21 0 21 -20v-29z" />
    <glyph glyph-name="Umacron" unicode="&#x16a;" horiz-adv-x="1343" 
d="M430 1661q-20 0 -20 20v25q0 20 20 20h485q21 0 21 -20v-25q0 -20 -21 -20h-485zM672 -16q-209 0 -337 122t-128 322v985q0 21 20 21h39q9 0 15 -6t6 -15v-991q0 -164 106 -265.5t279 -101.5q174 0 280.5 101t106.5 266v991q0 21 20 21h39q9 0 15 -6t6 -15v-985
q0 -200 -128 -322t-339 -122z" />
    <glyph glyph-name="umacron" unicode="&#x16b;" horiz-adv-x="1093" 
d="M791 1296q20 0 20 -20v-25q0 -20 -20 -20h-486q-20 0 -20 20v25q0 20 20 20h486zM825 1008q0 20 21 20h39q20 0 20 -20v-988q0 -20 -20 -20h-39q-21 0 -21 20v109q0 4 -1.5 5.5t-4 0.5t-4.5 -4q-91 -145 -297 -145q-152 0 -249 91.5t-97 246.5v684q0 20 21 20h38
q21 0 21 -20v-666q0 -130 76 -207.5t204 -77.5q133 0 213 79t80 206v666z" />
    <glyph glyph-name="Uring" unicode="&#x16e;" horiz-adv-x="1343" 
d="M672 1604q-86 0 -146.5 58.5t-60.5 143.5t60.5 144t146.5 59t146.5 -59t60.5 -144t-60.5 -143.5t-146.5 -58.5zM672 1659q62 0 105.5 42.5t43.5 104.5q0 63 -43.5 105.5t-105.5 42.5t-106 -43t-44 -105t44 -104.5t106 -42.5zM672 -16q-209 0 -337 122t-128 322v985
q0 21 20 21h39q9 0 15 -6t6 -15v-991q0 -164 106 -265.5t279 -101.5q174 0 280.5 101t106.5 266v991q0 21 20 21h39q9 0 15 -6t6 -15v-985q0 -200 -128 -322t-339 -122z" />
    <glyph glyph-name="uring" unicode="&#x16f;" horiz-adv-x="1093" 
d="M547 1174q-86 0 -146.5 58.5t-60.5 143.5t60.5 144t146.5 59t146.5 -59t60.5 -144t-60.5 -143.5t-146.5 -58.5zM547 1524q-62 0 -106 -43t-44 -105t44 -104.5t106 -42.5t105.5 42.5t43.5 104.5q0 63 -43.5 105.5t-105.5 42.5zM825 1008q0 20 21 20h39q20 0 20 -20v-988
q0 -20 -20 -20h-39q-21 0 -21 20v109q0 4 -1.5 5.5t-4 0.5t-4.5 -4q-91 -145 -297 -145q-152 0 -249 91.5t-97 246.5v684q0 20 21 20h38q21 0 21 -20v-666q0 -130 76 -207.5t204 -77.5q133 0 213 79t80 206v666z" />
    <glyph glyph-name="Uhungarumlaut" unicode="&#x170;" horiz-adv-x="1343" 
d="M487 1612q-11 0 -16 7t0 17l123 228q6 14 24 14h35q12 0 16.5 -7t-1.5 -18l-127 -227q-11 -14 -25 -14h-29zM805 1612q-12 0 -16 7t2 17l124 228q6 14 25 14h33q12 0 16 -7t-2 -18l-129 -227q-10 -14 -24 -14h-29zM672 -16q-209 0 -337 122t-128 322v985q0 21 20 21h39
q9 0 15 -6t6 -15v-991q0 -164 106 -265.5t279 -101.5q174 0 280.5 101t106.5 266v991q0 21 20 21h39q9 0 15 -6t6 -15v-985q0 -200 -128 -322t-339 -122z" />
    <glyph glyph-name="uhungarumlaut" unicode="&#x171;" horiz-adv-x="1093" 
d="M528 1448q12 0 16.5 -7t-1.5 -18l-127 -227q-10 -14 -25 -14h-29q-11 0 -16 7t0 17l123 228q6 14 25 14h34zM848 1448q12 0 16 -7t-2 -18l-129 -227q-11 -14 -24 -14h-29q-12 0 -16 7t2 17l125 228q6 14 24 14h33zM825 1008q0 20 21 20h39q20 0 20 -20v-988
q0 -20 -20 -20h-39q-21 0 -21 20v109q0 4 -1.5 5.5t-4 0.5t-4.5 -4q-91 -145 -297 -145q-152 0 -249 91.5t-97 246.5v684q0 20 21 20h38q21 0 21 -20v-666q0 -130 76 -207.5t204 -77.5q133 0 213 79t80 206v666z" />
    <glyph glyph-name="Uogonek" unicode="&#x172;" horiz-adv-x="1343" 
d="M1059 1413q0 21 20 21h39q9 0 15 -6t6 -15v-985q0 -193 -120 -314t-319 -130q-6 0 -10 -4q-115 -107 -96 -203q10 -54 53.5 -72.5t102.5 -5.5q21 3 24 -16l4 -17q6 -21 -14 -24q-49 -7 -96 -5t-87 32t-53 85q-24 122 88 223q11 7 -4 11q-185 17 -295 136t-110 304v985
q0 21 20 21h39q9 0 15 -6t6 -15v-991q0 -164 106 -265.5t279 -101.5q174 0 280.5 101t106.5 266v991z" />
    <glyph glyph-name="uogonek" unicode="&#x173;" horiz-adv-x="1095" 
d="M930 -311q21 3 24 -17l4 -16q6 -22 -14 -25q-34 -9 -71.5 -6.5t-70 12.5t-58 37.5t-35.5 69.5q-28 138 125 252q4 2 -3 6q-6 6 -6 18v109q0 4 -1.5 5.5t-4 0.5t-4.5 -4q-91 -145 -297 -145q-152 0 -249 91.5t-97 246.5v684q0 20 21 20h38q21 0 21 -20v-666
q0 -130 76 -207.5t204 -77.5q133 0 213 79t80 206v666q0 20 21 20h39q20 0 20 -20v-992q0 -14 -12 -26q-140 -115 -119 -223q10 -54 53.5 -72.5t102.5 -5.5z" />
    <glyph glyph-name="Wcircumflex" unicode="&#x174;" horiz-adv-x="1796" 
d="M688 1573q-12 0 -16 7.5t4 16.5l170 222q7 12 26 12h43q20 0 27 -12l170 -222q8 -9 4 -16.5t-16 -7.5h-31q-20 0 -27 12l-141 187q-5 10 -12 0l-144 -187q-7 -12 -26 -12h-31zM487 0q-16 0 -22 16l-406 1395q-3 10 2.5 16.5t16.5 6.5h39q15 0 22 -17l365 -1249q2 -4 5 -4
t5 4l334 1247q4 19 22 19h43q19 0 23 -19l344 -1247q2 -4 5 -4t5 4l367 1249q7 17 22 17h39q11 0 16.5 -6.5t2.5 -16.5l-410 -1395q-6 -16 -22 -16h-43q-19 0 -23 18l-340 1266q-1 4 -5 4t-5 -4l-338 -1266q-4 -18 -23 -18h-41z" />
    <glyph glyph-name="wcircumflex" unicode="&#x175;" horiz-adv-x="1417" 
d="M498 1167q-12 0 -16 8t3 17l170 221q7 12 27 12h43q20 0 27 -12l170 -221q7 -9 3 -17t-16 -8h-30q-19 0 -27 13l-141 186q-2 3 -6 3.5t-7 -3.5l-143 -186q-8 -13 -27 -13h-30zM385 0q-17 0 -23 16l-286 990q-6 22 18 22h37q20 0 23 -16l247 -891q1 -5 6 -5t7 5l250 891
q3 16 22 16h41q17 0 23 -16l251 -889q1 -5 6 -5t7 5l250 889q6 16 22 16h39q24 0 18 -22l-290 -990q-6 -16 -23 -16h-43q-16 0 -22 16l-252 861q-1 5 -6 5t-7 -5l-247 -861q-6 -16 -23 -16h-45z" />
    <glyph glyph-name="Ycircumflex" unicode="&#x176;" horiz-adv-x="1114" 
d="M350 1571q-12 0 -16 7.5t4 16.5l170 222q7 12 27 12h43q19 0 26 -12l170 -222q8 -9 4 -16.5t-16 -7.5h-31q-19 0 -26 12l-142 186q-5 10 -12 0l-143 -186q-7 -12 -27 -12h-31zM539 0q-21 0 -21 20v648q0 8 -2 10l-428 731q-6 11 -2 18t16 7h39q14 0 25 -15l385 -657
q1 -3 6 -3t6 3l385 657q11 15 25 15h39q12 0 16 -7t-2 -18l-428 -731q-2 -2 -2 -10v-648q0 -20 -21 -20h-36z" />
    <glyph glyph-name="ycircumflex" unicode="&#x177;" horiz-adv-x="903" 
d="M244 1169q-12 0 -16 8t3 17l170 221q7 12 27 12h43q20 0 27 -12l170 -221q7 -9 3 -17t-16 -8h-30q-19 0 -27 13l-141 186q-2 3 -6 3.5t-7 -3.5l-143 -186q-8 -13 -27 -13h-30zM125 -410q-14 0 -14 21v31q0 20 14 20h14q59 1 94 13t67 53.5t54.5 97.5t59.5 168q4 8 0 12
l-355 1000q-6 22 17 22h39q18 0 24 -16l310 -893q1 -5 6 -5t6 5l301 893q6 16 24 16h39q23 0 17 -22l-391 -1121q-34 -98 -62 -154t-65 -88.5t-78 -42.5t-107 -10h-14z" />
    <glyph glyph-name="Ydieresis" unicode="&#x178;" horiz-adv-x="1114" 
d="M397 1659q-34 0 -56 21t-22 53q0 30 22.5 50.5t55.5 20.5q31 0 51.5 -21t20.5 -50q0 -32 -20.5 -53t-51.5 -21zM719 1659q-32 0 -54 21t-22 53q0 29 22 50t54 21t53 -20.5t21 -50.5q0 -32 -21 -53t-53 -21zM539 0q-21 0 -21 20v648q0 8 -2 10l-428 731q-6 11 -2 18t16 7
h39q14 0 25 -15l385 -657q1 -3 6 -3t6 3l385 657q11 15 25 15h39q12 0 16 -7t-2 -18l-428 -731q-2 -2 -2 -10v-648q0 -20 -21 -20h-36z" />
    <glyph glyph-name="Zacute" unicode="&#x179;" horiz-adv-x="1116" 
d="M494 1618q-12 0 -16.5 7t1.5 17l125 228q6 14 25 14h39q12 0 16 -7t-2 -17l-135 -228q-11 -14 -25 -14h-28zM125 0q-21 0 -21 20v39q0 9 9 27l788 1266q2 3 0 6.5t-6 3.5h-770q-21 0 -21 20v31q0 9 6 15t15 6h850q20 0 20 -21v-39q0 -10 -8 -26l-788 -1266q-2 -3 0 -6.5
t6 -3.5h770q20 0 20 -21v-31q0 -20 -20 -20h-850z" />
    <glyph glyph-name="zacute" unicode="&#x17a;" horiz-adv-x="899" 
d="M399 1204q-12 0 -16 7t2 18l125 227q6 14 25 14h38q12 0 16.5 -7t-1.5 -17l-135 -227q-11 -15 -25 -15h-29zM98 0q-20 0 -20 20v39q0 16 8 27l633 858q3 3 1.5 6.5t-5.5 3.5h-611q-20 0 -20 21v33q0 20 20 20h695q20 0 20 -20v-39q0 -16 -8 -27l-637 -858
q-3 -3 -1.5 -6.5t5.5 -3.5h617q20 0 20 -21v-33q0 -20 -20 -20h-697z" />
    <glyph glyph-name="Zdotaccent" unicode="&#x17b;" horiz-adv-x="1116" 
d="M539 1651q-32 0 -54 20t-22 51q0 29 22 49.5t54 20.5q31 0 51 -20t20 -50q0 -31 -20 -51t-51 -20zM125 0q-21 0 -21 20v39q0 9 9 27l788 1266q2 3 0 6.5t-6 3.5h-770q-21 0 -21 20v31q0 9 6 15t15 6h850q20 0 20 -21v-39q0 -10 -8 -26l-788 -1266q-2 -3 0 -6.5t6 -3.5
h770q20 0 20 -21v-31q0 -20 -20 -20h-850z" />
    <glyph glyph-name="zdotaccent" unicode="&#x17c;" horiz-adv-x="899" 
d="M444 1237q-32 0 -53.5 20.5t-21.5 51.5q0 29 21.5 49t53.5 20q31 0 51.5 -20t20.5 -49q0 -31 -20.5 -51.5t-51.5 -20.5zM98 0q-20 0 -20 20v39q0 16 8 27l633 858q3 3 1.5 6.5t-5.5 3.5h-611q-20 0 -20 21v33q0 20 20 20h695q20 0 20 -20v-39q0 -16 -8 -27l-637 -858
q-3 -3 -1.5 -6.5t5.5 -3.5h617q20 0 20 -21v-33q0 -20 -20 -20h-697z" />
    <glyph glyph-name="Zcaron" unicode="&#x17d;" horiz-adv-x="1116" 
d="M514 1591q-19 0 -27 13l-168 221q-7 9 -3 16.5t16 7.5h30q20 0 27 -12l143 -186q3 -4 7 -3.5t6 3.5l139 186q7 12 27 12h30q12 0 16 -7.5t-3 -16.5l-170 -221q-8 -13 -27 -13h-43zM125 0q-21 0 -21 20v39q0 9 9 27l788 1266q2 3 0 6.5t-6 3.5h-770q-21 0 -21 20v31
q0 9 6 15t15 6h850q20 0 20 -21v-39q0 -10 -8 -26l-788 -1266q-2 -3 0 -6.5t6 -3.5h770q20 0 20 -21v-31q0 -20 -20 -20h-850z" />
    <glyph glyph-name="zcaron" unicode="&#x17e;" horiz-adv-x="899" 
d="M420 1178q-20 0 -27 12l-168 221q-7 9 -3 17t16 8h30q19 0 27 -13l143 -186q3 -4 7 -3.5t6 3.5l139 186q8 13 26 13h31q12 0 16 -8t-4 -17l-170 -221q-7 -12 -26 -12h-43zM98 0q-20 0 -20 20v39q0 16 8 27l633 858q3 3 1.5 6.5t-5.5 3.5h-611q-20 0 -20 21v33q0 20 20 20
h695q20 0 20 -20v-39q0 -16 -8 -27l-637 -858q-3 -3 -1.5 -6.5t5.5 -3.5h617q20 0 20 -21v-33q0 -20 -20 -20h-697z" />
    <glyph glyph-name="florin" unicode="&#x192;" horiz-adv-x="1114" 
d="M602 1102q16 102 41.5 164t73 100t112.5 52t168 16q9 0 15 -6t6 -15v-31q0 -20 -21 -20h-55q-67 0 -113.5 -16.5t-76 -51.5t-45.5 -80.5t-27 -113.5l-49 -309q0 -9 6 -9h209q20 0 20 -20v-33q0 -20 -20 -20h-219q-11 0 -11 -9l-122 -778q-16 -102 -42 -164.5t-74.5 -100
t-112.5 -51.5t-167 -16q-20 0 -20 21v31q0 20 20 20h56q67 0 113.5 16t75.5 52t45 81t28 113l123 776q0 9 -7 9h-163q-21 0 -21 20v33q0 20 21 20h174q10 0 10 9z" />
    <glyph glyph-name="uni01CD" unicode="&#x1cd;" horiz-adv-x="1183" 
d="M635 1561q-10 -13 -27 -13h-43q-18 0 -26 13l-168 219q-7 9 -3.5 16.5t15.5 7.5h31q19 0 26 -12l144 -186q7 -10 12 0l139 186q7 12 27 12h31q12 0 15.5 -7.5t-3.5 -16.5zM1044 0q-18 0 -24 16l-92 283q-2 6 -8 6h-660q-6 0 -8 -6l-90 -283q-6 -16 -25 -16h-39
q-23 0 -16 23l457 1394q7 17 24 17h53q18 0 25 -17l461 -1394q3 -10 -1.5 -16.5t-15.5 -6.5h-41zM279 383q-2 -3 1 -6.5t7 -3.5h608q4 0 7 3.5t1 6.5l-307 938q-2 5 -6 5t-6 -5z" />
    <glyph glyph-name="uni01CE" unicode="&#x1ce;" horiz-adv-x="1028" 
d="M567 1171q-9 -12 -26 -12h-43q-20 0 -27 12l-168 220q-7 9 -3.5 16.5t15.5 7.5h31q20 0 27 -12l143 -186q7 -10 12 0l140 186q7 12 26 12h31q12 0 15.5 -7.5t-3.5 -16.5zM518 1044q176 0 265 -91.5t89 -250.5v-682q0 -20 -20 -20h-39q-20 0 -20 20v99q0 5 -3.5 6.5
t-7.5 -2.5q-54 -68 -143 -103.5t-193 -35.5q-65 0 -122 15t-105.5 47t-77 89t-28.5 133q0 151 112.5 236.5t309.5 85.5h249q9 0 9 8v107q0 123 -67.5 195.5t-211.5 72.5q-110 0 -182.5 -46t-87.5 -124q-6 -22 -25 -19l-43 7q-21 4 -18 20q22 106 118 169.5t242 63.5zM457 55
q87 0 161 26t124.5 84.5t50.5 139.5v209q0 8 -9 8h-247q-154 0 -249 -66t-95 -184q0 -107 74 -162t190 -55z" />
    <glyph glyph-name="uni0218" unicode="&#x218;" horiz-adv-x="1193" 
d="M608 -16q-219 0 -347 98.5t-128 263.5v72q0 20 21 20h34q21 0 21 -20v-66q0 -134 109 -215.5t296 -81.5q180 0 276.5 76t96.5 207q0 49 -15 90t-44 75.5t-81 69t-115 66.5t-157 72q-50 21 -75.5 32.5t-67 30.5t-62.5 30.5t-53 30.5t-47.5 34t-37.5 36t-32 42t-21 46
t-15 53.5t-4 61.5q0 165 111.5 253.5t314.5 88.5q221 0 344 -99.5t123 -267.5v-49q0 -20 -21 -20h-39q-20 0 -20 20v43q0 137 -102.5 219t-288.5 82q-166 0 -255 -68t-89 -198q0 -26 3.5 -49t12.5 -43.5t18 -37.5t27.5 -34t33 -30t43 -29t49 -27t59 -27.5t65 -28t74.5 -30.5
q115 -48 189.5 -88t136 -91.5t90 -113.5t28.5 -139q0 -164 -120 -262t-339 -98zM502 -403q-12 0 -16.5 6.5t1.5 17.5l125 227q6 15 25 15h39q12 0 16 -7.5t-2 -17.5l-135 -227q-11 -14 -25 -14h-28z" />
    <glyph glyph-name="uni0219" unicode="&#x219;" horiz-adv-x="970" 
d="M496 -8q-160 0 -261.5 76t-101.5 186v29q0 20 21 20h36q21 0 21 -20v-27q0 -79 79.5 -138t203.5 -59q123 0 199.5 58.5t76.5 150.5q0 36 -16 66t-34 48t-62 38.5t-66.5 28t-81.5 26.5q-7 2 -10.5 3.5t-9.5 3t-11 3.5q-46 14 -74 23.5t-68 25.5t-64.5 30.5t-53 36
t-44 45.5t-26 55.5t-10.5 68.5q0 121 96.5 193.5t253.5 72.5q159 0 257 -74.5t98 -189.5v-6q0 -9 -6 -15t-15 -6h-35q-20 0 -20 15v12q0 84 -77.5 140.5t-203.5 56.5q-122 0 -196 -54t-74 -141q0 -30 9 -55.5t30.5 -45.5t42 -34.5t58.5 -29.5t64.5 -24t74.5 -24
q155 -46 214 -77q139 -76 140 -212q0 -124 -97 -202t-257 -78zM401 -395q-12 0 -16 6.5t2 17.5l125 228q6 14 25 14h38q12 0 16.5 -7.5t-1.5 -17.5l-135 -227q-11 -14 -25 -14h-29z" />
    <glyph glyph-name="uni021A" unicode="&#x21a;" horiz-adv-x="1155" 
d="M102 1413q0 9 6 15t15 6h903q9 0 15 -6t6 -15v-31q0 -20 -21 -20h-412q-8 0 -8 -8v-1334q0 -20 -20 -20h-39q-21 0 -21 20v1334q0 8 -8 8h-395q-21 0 -21 20v31zM406 -387q-12 0 -16.5 7.5t1.5 17.5l125 227q6 14 25 14h39q12 0 16 -6.5t-2 -17.5l-135 -228
q-11 -14 -25 -14h-28z" />
    <glyph glyph-name="uni021B" unicode="&#x21b;" horiz-adv-x="729" 
d="M594 979q0 -9 -6 -15t-15 -6h-247q-9 0 -9 -8v-680q0 -110 51 -153t160 -43h45q9 0 15 -6t6 -15v-30q0 -20 -21 -23h-51q-67 0 -115 11t-87.5 38.5t-59.5 79t-20 127.5v694q0 8 -9 8h-125q-20 0 -20 21v29q0 20 20 20h125q9 0 9 8v232q0 20 20 20h37q20 0 20 -20v-232
q0 -8 9 -8h247q21 0 21 -20v-29zM369 -385q-12 0 -16.5 7.5t1.5 17.5l125 227q6 14 25 14h39q12 0 16 -6.5t-2 -17.5l-135 -228q-10 -14 -25 -14h-28z" />
    <glyph glyph-name="uni0228" unicode="&#x228;" horiz-adv-x="1259" 
d="M1122 1382q0 -20 -20 -20h-791q-8 0 -8 -8v-590q0 -8 8 -8h566q20 0 20 -21v-33q0 -20 -20 -20h-566q-8 0 -8 -8v-594q0 -8 8 -8h791q20 0 20 -21v-31q0 -20 -20 -20h-385q-5 0 -6.5 -3.5t2.5 -6.5q132 -107 104 -236q-13 -55 -52.5 -85t-86.5 -32t-96 5q-21 3 -17 24
l4 17q5 19 27 16q59 -13 102.5 5t53.5 73q21 104 -115 219q-2 4 -10 4h-383q-21 0 -21 20v1393q0 9 6 15t15 6h858q20 0 20 -21v-31z" />
    <glyph glyph-name="uni0229" unicode="&#x229;" horiz-adv-x="1081" 
d="M549 55q106 0 182.5 49.5t112.5 133.5q6 18 24 12l27 -8q20 -7 14 -27q-37 -97 -123 -159t-204 -72q-4 0 -5.5 -1.5t-0.5 -3.5t4 -4q133 -109 106 -237q-10 -42 -35.5 -69.5t-58 -37.5t-70 -12.5t-71.5 6.5q-21 3 -17 25l4 16q6 20 27 17q59 -13 102.5 4.5t53.5 72.5
q21 105 -117 222q-2 4 -10 4q-120 13 -202.5 83t-115.5 179q-22 86 -22 268q0 177 16 252q31 125 130 200.5t243 75.5q153 0 252.5 -80t126.5 -216q8 -39 10 -79.5t2 -152.5q0 -22 -21 -22h-671q-9 0 -9 -9q0 -155 11 -196q21 -106 102 -170t203 -64zM543 973
q-120 0 -199 -63.5t-100 -166.5q-11 -71 -11 -176q0 -8 9 -8h604q8 0 8 8q0 131 -10 172q-22 105 -102 169.5t-199 64.5z" />
    <glyph glyph-name="circumflex" unicode="&#x2c6;" horiz-adv-x="473" 
d="M31 1167q-12 0 -16 8t3 17l170 221q7 12 27 12h43q20 0 27 -12l170 -221q7 -9 3 -17t-16 -8h-30q-19 0 -27 13l-141 186q-2 3 -6 3.5t-7 -3.5l-143 -186q-8 -13 -27 -13h-30z" />
    <glyph glyph-name="caron" unicode="&#x2c7;" horiz-adv-x="608" 
d="M283 1165q-19 0 -27 13l-168 221q-8 9 -4 16.5t16 7.5h31q20 0 27 -12l143 -186q7 -10 12 0l140 186q7 12 26 12h31q12 0 16 -7.5t-4 -16.5l-170 -221q-8 -13 -26 -13h-43z" />
    <glyph glyph-name="uni02C9" unicode="&#x2c9;" horiz-adv-x="526" 
d="M20 1231q-20 0 -20 20v25q0 20 20 20h486q20 0 20 -20v-25q0 -20 -20 -20h-486z" />
    <glyph glyph-name="breve" unicode="&#x2d8;" horiz-adv-x="559" 
d="M279 1151q-81 0 -140 53t-67 131q-1 9 4 15t14 6h19q19 0 22 -21q6 -55 48.5 -92t99.5 -37t100 37t49 92q3 21 23 21h18q9 0 14 -6t4 -15q-8 -79 -66.5 -131.5t-141.5 -52.5z" />
    <glyph glyph-name="dotaccent" unicode="&#x2d9;" horiz-adv-x="284" 
d="M145 1219q-32 0 -53.5 20t-21.5 51q0 29 21.5 49.5t53.5 20.5q31 0 51.5 -20.5t20.5 -49.5q0 -31 -20.5 -51t-51.5 -20z" />
    <glyph glyph-name="ring" unicode="&#x2da;" horiz-adv-x="550" 
d="M274 1174q-86 0 -146 58.5t-60 143.5t60 144t146 59t146.5 -59t60.5 -144t-60.5 -143.5t-146.5 -58.5zM274 1229q62 0 106 42.5t44 104.5t-44 105t-106 43t-105.5 -42.5t-43.5 -105.5q0 -62 43.5 -104.5t105.5 -42.5z" />
    <glyph glyph-name="ogonek" unicode="&#x2db;" horiz-adv-x="260" 
d="M256 -344q4 -22 -16 -25q-49 -7 -96 -5t-87 32.5t-53 85.5q-27 135 119 248q11 8 27 8h12q14 0 17 -8t-7 -17q-120 -108 -102 -208q10 -55 53 -73t102 -5q21 3 27 -17z" />
    <glyph glyph-name="tilde" unicode="&#x2dc;" horiz-adv-x="692" 
d="M457 1229q-55 0 -121 49q-23 17 -33.5 23.5t-28.5 13t-36 6.5q-35 0 -59 -11t-50 -46q-14 -17 -29 -7l-14 11q-14 11 -6 28q59 90 156 90q7 0 14.5 -1t13 -2t13 -3t12 -3.5t12 -5.5t11 -5.5t11.5 -6t11 -6.5t11.5 -7.5t10.5 -6.5q65 -45 101 -45q64 0 110 64q10 16 27 6
l12 -6q20 -12 2 -41q-30 -46 -71 -67t-80 -21z" />
    <glyph glyph-name="hungarumlaut" unicode="&#x2dd;" horiz-adv-x="688" 
d="M96 1202q-12 0 -16 7t2 18l125 227q6 14 24 14h39q12 0 16.5 -7t-1.5 -17l-135 -227q-11 -15 -25 -15h-29zM418 1202q-12 0 -16.5 7t1.5 18l125 227q6 14 25 14h39q12 0 16 -7t-2 -17l-135 -227q-11 -15 -25 -15h-28z" />
    <glyph glyph-name="gravecomb" unicode="&#x300;" 
d="M-14 1210q6 -10 1.5 -17t-16.5 -7h-28q-15 0 -25 14l-135 227q-6 11 -2 18t16 7h39q19 0 25 -14z" />
    <glyph glyph-name="acutecomb" unicode="&#x301;" 
d="M-338 1186q-12 0 -16 7t2 17l125 228q6 14 24 14h39q12 0 16 -7t-2 -18l-135 -227q-11 -14 -24 -14h-29z" />
    <glyph glyph-name="uni0302" unicode="&#x302;" 
d="M-442 1167q-12 0 -16 8t3 17l170 221q7 12 27 12h43q20 0 27 -12l170 -221q7 -9 3 -17t-16 -8h-30q-19 0 -27 13l-141 186q-2 3 -6 3.5t-7 -3.5l-143 -186q-8 -13 -27 -13h-30z" />
    <glyph glyph-name="tildecomb" unicode="&#x303;" 
d="M-172 1229q-55 0 -121 49q-23 17 -33.5 23.5t-28.5 13t-36 6.5q-35 0 -59 -11t-50 -46q-13 -17 -28 -7l-15 11q-14 11 -6 28q59 90 156 90q23 0 47 -8.5t35 -14.5t39 -24q65 -45 100 -45q65 0 111 64q10 16 26 6l12 -6q20 -12 3 -41q-30 -46 -71.5 -67t-80.5 -21z" />
    <glyph glyph-name="uni0304" unicode="&#x304;" 
d="M-506 1231q-20 0 -20 20v25q0 20 20 20h486q20 0 20 -20v-25q0 -20 -20 -20h-486z" />
    <glyph glyph-name="uni0306" unicode="&#x306;" 
d="M-281 1114q-81 0 -139.5 53t-66.5 131q-1 9 4 15t14 6h18q20 0 23 -21q6 -55 48 -92t99 -37t100.5 37t49.5 92q3 21 22 21h19q9 0 14 -6t4 -15q-8 -78 -67 -131t-142 -53z" />
    <glyph glyph-name="uni0307" unicode="&#x307;" 
d="M-72 1219q-32 0 -53.5 20t-21.5 51q0 29 21.5 49.5t53.5 20.5q31 0 51.5 -20.5t20.5 -49.5q0 -31 -20.5 -51t-51.5 -20z" />
    <glyph glyph-name="uni0308" unicode="&#x308;" 
d="M-395 1255q-34 0 -56 21t-22 53q0 30 22.5 51t55.5 21q30 0 50.5 -21t20.5 -51q0 -32 -20 -53t-51 -21zM-74 1255q-32 0 -54 21t-22 53q0 30 22 51t54 21t53 -21t21 -51q0 -32 -21 -53t-53 -21z" />
    <glyph glyph-name="uni030A" unicode="&#x30a;" 
d="M-205 1174q-86 0 -146.5 58.5t-60.5 143.5t60.5 144t146.5 59t146.5 -59t60.5 -144t-60.5 -143.5t-146.5 -58.5zM-205 1229q62 0 106 42.5t44 104.5t-44 105t-106 43t-105.5 -42.5t-43.5 -105.5q0 -62 43.5 -104.5t105.5 -42.5z" />
    <glyph glyph-name="uni030B" unicode="&#x30b;" 
d="M-584 1182q-11 0 -16 7t0 17l123 228q6 14 24 14h35q12 0 16.5 -7t-1.5 -18l-127 -227q-10 -14 -25 -14h-29zM-266 1182q-12 0 -16.5 7t1.5 17l125 228q6 14 25 14h33q12 0 16 -7t-2 -18l-129 -227q-11 -14 -25 -14h-28z" />
    <glyph glyph-name="uni030C" unicode="&#x30c;" 
d="M-326 1149q-19 0 -26 12l-168 219q-8 9 -4 17t16 8h31q19 0 26 -12l144 -187q7 -10 12 0l139 187q7 12 27 12h31q12 0 16 -8t-4 -17l-170 -219q-9 -12 -27 -12h-43z" />
    <glyph glyph-name="uni0312" unicode="&#x312;" 
d="M-96 1417q12 0 16 -6.5t-2 -17.5l-125 -228q-6 -14 -24 -14h-39q-12 0 -16.5 7.5t1.5 17.5l135 227q10 14 25 14h29z" />
    <glyph glyph-name="uni0313" unicode="&#x313;" 
d="M-203 1186q-12 0 -16 7t2 17l125 228q6 14 24 14h39q12 0 16.5 -7t-1.5 -18l-136 -227q-10 -14 -24 -14h-29z" />
    <glyph glyph-name="uni0326" unicode="&#x326;" 
d="M-272 -387q-12 0 -16.5 7.5t1.5 17.5l125 227q6 14 25 14h39q12 0 16 -6.5t-2 -17.5l-135 -228q-11 -14 -25 -14h-28z" />
    <glyph glyph-name="uni0327" unicode="&#x327;" 
d="M-240 -369q-20 3 -16 25l4 16q6 20 27 17q59 -13 102 5t53 73q18 100 -102 208q-11 9 -9.5 17t13.5 8h18q16 0 27 -8q146 -113 119 -248q-13 -55 -53 -85.5t-87 -32.5t-96 5z" />
    <glyph glyph-name="uni0328" unicode="&#x328;" 
d="M-4 -344q4 -22 -16 -25q-49 -7 -96 -5t-87 32.5t-53 85.5q-27 135 119 248q11 8 26 8h13q14 0 17 -8t-7 -17q-120 -108 -102 -208q10 -55 53 -73t102 -5q21 3 27 -17z" />
    <glyph glyph-name="uni0335" unicode="&#x335;" 
d="M-616 1229q0 20 20 20h576q20 0 20 -20v-23q0 -20 -20 -20h-576q-20 0 -20 20v23z" />
    <glyph glyph-name="uni0336" unicode="&#x336;" 
d="M-1153 1061q-21 0 -21 20v25q0 20 21 20h1133q20 0 20 -20v-25q0 -20 -20 -20h-1133z" />
    <glyph glyph-name="uni0337" unicode="&#x337;" 
d="M-764 145q-17 -13 -29 5l-16 22q-11 17 4 29l868 618q16 13 29 -4l19 -24q11 -16 -5 -29z" />
    <glyph glyph-name="uni0338" unicode="&#x338;" 
d="M-754 -68q-11 0 -15.5 7.5t-0.5 17.5l690 1544q6 17 23 17h30q11 0 16 -7.5t1 -17.5l-690 -1544q-6 -17 -23 -17h-31z" />
    <glyph glyph-name="uni0394" unicode="&#x394;" horiz-adv-x="1286" 
d="M94 0q-20 0 -20 20v39q0 15 4 25l522 1333q6 17 23 17h39q16 0 22 -17l524 -1335q4 -10 4 -25v-37q0 -20 -20 -20h-1098zM156 82q-2 -3 0 -6.5t6 -3.5h960q4 0 6 3.5t0 6.5l-479 1237q-1 6 -6 6t-6 -6z" />
    <glyph glyph-name="uni03A9" unicode="&#x3a9;" horiz-adv-x="1318" 
d="M193 0q-21 0 -21 20v31q0 9 6 15t15 6h204q6 0 7 3.5t-5 6.5q-96 55 -150 153t-54 226v530q0 206 127.5 332.5t334.5 126.5q210 0 338.5 -126.5t128.5 -332.5v-530q0 -128 -54 -226t-150 -153q-6 -3 -5 -6.5t7 -3.5h206q9 0 15 -6t6 -15v-31q0 -20 -21 -20h-350
q-20 0 -20 20v35q0 18 18 21q106 23 187 128t81 249v542q0 172 -106.5 277.5t-280.5 105.5q-172 0 -277.5 -105.5t-105.5 -277.5v-542q0 -145 81 -249t184 -126q18 -6 18 -23v-35q0 -20 -20 -20h-344z" />
    <glyph glyph-name="uni03BC" unicode="&#x3bc;" horiz-adv-x="1112" 
d="M842 1008q0 20 20 20h39q21 0 21 -20v-988q0 -20 -21 -20h-39q-20 0 -20 20v109q0 4 -2 5.5t-4.5 0.5t-4.5 -4q-91 -145 -296 -145q-161 0 -256 98q-11 7 -11 -4v-469q0 -21 -20 -21h-39q-9 0 -15 6t-6 15v1397q0 20 21 20h39q20 0 20 -20v-666q0 -130 76.5 -207.5
t204.5 -77.5q133 0 213 79t80 206v666z" />
    <glyph glyph-name="pi" unicode="&#x3c0;" horiz-adv-x="1306" 
d="M1217 979q0 -9 -6 -15t-15 -6h-156q-8 0 -8 -8v-676q0 -114 30.5 -155.5t111.5 -44.5q20 0 20 -21v-30q0 -21 -20 -21q-54 2 -91 12.5t-68.5 37t-47 77t-15.5 125.5v696q0 8 -8 8h-561q-8 0 -8 -8v-930q0 -20 -21 -20h-39q-20 0 -20 20v930q0 8 -8 8h-176q-9 0 -15 6
t-6 15v29q0 20 21 20h1085q21 0 21 -20v-29z" />
    <glyph glyph-name="Wgrave" unicode="&#x1e80;" horiz-adv-x="1796" 
d="M911 1616q6 -10 2 -17.5t-16 -7.5h-29q-13 0 -24 15l-135 227q-6 11 -2 18t16 7h39q18 0 24 -15zM487 0q-16 0 -22 16l-406 1395q-3 10 2.5 16.5t16.5 6.5h39q15 0 22 -17l365 -1249q2 -4 5 -4t5 4l334 1247q4 19 22 19h43q19 0 23 -19l344 -1247q2 -4 5 -4t5 4l367 1249
q7 17 22 17h39q11 0 16.5 -6.5t2.5 -16.5l-410 -1395q-6 -16 -22 -16h-43q-19 0 -23 18l-340 1266q-1 4 -5 4t-5 -4l-338 -1266q-4 -18 -23 -18h-41z" />
    <glyph glyph-name="wgrave" unicode="&#x1e81;" horiz-adv-x="1417" 
d="M721 1210q6 -10 2 -17t-16 -7h-29q-14 0 -25 14l-135 227q-6 11 -2 18t16 7h39q19 0 25 -14zM385 0q-17 0 -23 16l-286 990q-6 22 18 22h37q20 0 23 -16l247 -891q1 -5 6 -5t7 5l250 891q3 16 22 16h41q17 0 23 -16l251 -889q1 -5 6 -5t7 5l250 889q6 16 22 16h39
q24 0 18 -22l-290 -990q-6 -16 -23 -16h-43q-16 0 -22 16l-252 861q-1 5 -6 5t-7 -5l-247 -861q-6 -16 -23 -16h-45z" />
    <glyph glyph-name="Wacute" unicode="&#x1e82;" horiz-adv-x="1796" 
d="M850 1591q-12 0 -16 7.5t2 17.5l125 227q6 15 24 15h39q12 0 16 -7t-2 -18l-135 -227q-11 -15 -24 -15h-29zM487 0q-16 0 -22 16l-406 1395q-3 10 2.5 16.5t16.5 6.5h39q15 0 22 -17l365 -1249q2 -4 5 -4t5 4l334 1247q4 19 22 19h43q19 0 23 -19l344 -1247q2 -4 5 -4
t5 4l367 1249q7 17 22 17h39q11 0 16.5 -6.5t2.5 -16.5l-410 -1395q-6 -16 -22 -16h-43q-19 0 -23 18l-340 1266q-1 4 -5 4t-5 -4l-338 -1266q-4 -18 -23 -18h-41z" />
    <glyph glyph-name="wacute" unicode="&#x1e83;" horiz-adv-x="1417" 
d="M659 1186q-12 0 -16 7t2 17l125 228q6 14 25 14h39q12 0 16 -7t-2 -18l-135 -227q-11 -14 -25 -14h-29zM385 0q-17 0 -23 16l-286 990q-6 22 18 22h37q20 0 23 -16l247 -891q1 -5 6 -5t7 5l250 891q3 16 22 16h41q17 0 23 -16l251 -889q1 -5 6 -5t7 5l250 889q6 16 22 16
h39q24 0 18 -22l-290 -990q-6 -16 -23 -16h-43q-16 0 -22 16l-252 861q-1 5 -6 5t-7 -5l-247 -861q-6 -16 -23 -16h-45z" />
    <glyph glyph-name="Wdieresis" unicode="&#x1e84;" horiz-adv-x="1796" 
d="M735 1661q-34 0 -56 21t-22 53q0 30 22.5 50.5t55.5 20.5q31 0 51.5 -21t20.5 -50q0 -32 -20.5 -53t-51.5 -21zM1057 1661q-32 0 -54 21t-22 53q0 29 22 50t54 21t52.5 -20.5t20.5 -50.5q0 -32 -20.5 -53t-52.5 -21zM487 0q-16 0 -22 16l-406 1395q-3 10 2.5 16.5
t16.5 6.5h39q15 0 22 -17l365 -1249q2 -4 5 -4t5 4l334 1247q4 19 22 19h43q19 0 23 -19l344 -1247q2 -4 5 -4t5 4l367 1249q7 17 22 17h39q11 0 16.5 -6.5t2.5 -16.5l-410 -1395q-6 -16 -22 -16h-43q-19 0 -23 18l-340 1266q-1 4 -5 4t-5 -4l-338 -1266q-4 -18 -23 -18h-41
z" />
    <glyph glyph-name="wdieresis" unicode="&#x1e85;" horiz-adv-x="1417" 
d="M545 1255q-34 0 -56 21t-22 53q0 30 22.5 51t55.5 21q30 0 50.5 -21t20.5 -51q0 -32 -20 -53t-51 -21zM866 1255q-32 0 -53.5 21t-21.5 53q0 30 21.5 51t53.5 21t53 -21t21 -51q0 -32 -21 -53t-53 -21zM385 0q-17 0 -23 16l-286 990q-6 22 18 22h37q20 0 23 -16l247 -891
q1 -5 6 -5t7 5l250 891q3 16 22 16h41q17 0 23 -16l251 -889q1 -5 6 -5t7 5l250 889q6 16 22 16h39q24 0 18 -22l-290 -990q-6 -16 -23 -16h-43q-16 0 -22 16l-252 861q-1 5 -6 5t-7 -5l-247 -861q-6 -16 -23 -16h-45z" />
    <glyph glyph-name="Ygrave" unicode="&#x1ef2;" horiz-adv-x="1114" 
d="M573 1614q6 -10 2 -17.5t-16 -7.5h-29q-13 0 -24 15l-135 227q-6 11 -2 17.5t16 6.5h39q19 0 25 -14zM539 0q-21 0 -21 20v648q0 8 -2 10l-428 731q-6 11 -2 18t16 7h39q14 0 25 -15l385 -657q1 -3 6 -3t6 3l385 657q11 15 25 15h39q12 0 16 -7t-2 -18l-428 -731
q-2 -2 -2 -10v-648q0 -20 -21 -20h-36z" />
    <glyph glyph-name="ygrave" unicode="&#x1ef3;" horiz-adv-x="903" 
d="M467 1212q6 -10 2 -17t-16 -7h-29q-14 0 -25 14l-135 228q-6 10 -1.5 17t16.5 7h38q19 0 25 -14zM125 -410q-14 0 -14 21v31q0 20 14 20h14q59 1 94 13t67 53.5t54.5 97.5t59.5 168q4 8 0 12l-355 1000q-6 22 17 22h39q18 0 24 -16l310 -893q1 -5 6 -5t6 5l301 893
q6 16 24 16h39q23 0 17 -22l-391 -1121q-34 -98 -62 -154t-65 -88.5t-78 -42.5t-107 -10h-14z" />
    <glyph glyph-name="endash" unicode="&#x2013;" horiz-adv-x="897" 
d="M111 541q-21 0 -21 20v31q0 20 21 20h677q21 0 21 -20v-31q0 -20 -21 -20h-677z" />
    <glyph glyph-name="emdash" unicode="&#x2014;" horiz-adv-x="1429" 
d="M111 541q-21 0 -21 20v31q0 20 21 20h1208q20 0 20 -20v-31q0 -20 -20 -20h-1208z" />
    <glyph glyph-name="quoteleft" unicode="&#x2018;" horiz-adv-x="227" 
d="M25 1034q-11 0 -15 7.5t0 17.5l144 358q6 17 22 17h27q23 0 16 -23l-125 -360q-7 -17 -24 -17h-45z" />
    <glyph glyph-name="quoteright" unicode="&#x2019;" horiz-adv-x="227" 
d="M203 1434q10 0 14.5 -7t-0.5 -18l-143 -358q-6 -17 -23 -17h-26q-11 0 -15.5 6.5t-1.5 16.5l125 360q7 17 25 17h45z" />
    <glyph glyph-name="quotesinglbase" unicode="&#x201a;" horiz-adv-x="1228" 
d="M180 -145q-10 0 -14.5 6.5t-1.5 15.5l98 420q4 18 23 18h32q25 0 19 -22l-109 -420q-3 -18 -22 -18h-25z" />
    <glyph glyph-name="quotedblleft" unicode="&#x201c;" horiz-adv-x="454" 
d="M25 1034q-11 0 -15 7.5t0 17.5l142 358q6 17 22 17h25q23 0 16 -23l-123 -360q-7 -17 -24 -17h-43zM258 1034q-10 0 -14.5 7t0.5 18l139 358q6 17 23 17h24q23 0 16 -23l-122 -360q-7 -17 -25 -17h-41z" />
    <glyph glyph-name="quotedblright" unicode="&#x201d;" horiz-adv-x="454" 
d="M197 1434q10 0 14.5 -7t-0.5 -18l-139 -358q-6 -17 -23 -17h-24q-11 0 -15.5 6.5t-1.5 16.5l123 360q7 17 25 17h41zM430 1434q10 0 14.5 -7t-0.5 -18l-141 -358q-6 -17 -22 -17h-25q-23 0 -16 23l122 360q7 17 25 17h43z" />
    <glyph glyph-name="quotedblbase" unicode="&#x201e;" horiz-adv-x="460" 
d="M197 260q11 0 14.5 -7t-0.5 -17l-139 -359q-5 -16 -23 -16h-24q-23 0 -17 22l123 361q6 16 25 16h41zM430 260q11 0 14.5 -7t-0.5 -17l-141 -359q-5 -16 -22 -16h-25q-22 0 -16 22l122 361q6 16 25 16h43z" />
    <glyph glyph-name="dagger" unicode="&#x2020;" horiz-adv-x="854" 
d="M745 936q9 0 15 -6t6 -15v-26q0 -9 -6 -15t-15 -6h-270q-8 0 -8 -8v-1249q0 -9 -6 -15t-15 -6h-38q-9 0 -15 6t-6 15v1249q0 8 -8 8h-268q-9 0 -15 6t-6 15v26q0 9 6 15t15 6h268q8 0 8 8v469q0 9 6 15t15 6h38q9 0 15 -6t6 -15v-469q0 -8 8 -8h270z" />
    <glyph glyph-name="daggerdbl" unicode="&#x2021;" horiz-adv-x="854" 
d="M766 889q0 -9 -6 -15t-15 -6h-270q-8 0 -8 -8v-696q0 -8 8 -8h270q9 0 15 -6t6 -15v-26q0 -9 -6 -15t-15 -6h-270q-8 0 -8 -8v-469q0 -9 -6 -15t-15 -6h-38q-9 0 -15 6t-6 15v469q0 8 -8 8h-268q-9 0 -15 6t-6 15v26q0 9 6 15t15 6h268q8 0 8 8v696q0 8 -8 8h-268
q-9 0 -15 6t-6 15v26q0 9 6 15t15 6h268q8 0 8 8v469q0 9 6 15t15 6h38q9 0 15 -6t6 -15v-469q0 -8 8 -8h270q9 0 15 -6t6 -15v-26z" />
    <glyph glyph-name="bullet" unicode="&#x2022;" horiz-adv-x="624" 
d="M313 315q-92 0 -157.5 66t-65.5 158t65.5 156.5t157.5 64.5q91 0 156.5 -64.5t65.5 -156.5t-65.5 -158t-156.5 -66z" />
    <glyph glyph-name="ellipsis" unicode="&#x2026;" horiz-adv-x="1564" 
d="M276 10q-41 0 -69.5 29t-28.5 70q0 39 29.5 67.5t68.5 28.5q40 0 71.5 -28.5t31.5 -67.5q0 -41 -30.5 -70t-72.5 -29zM782 10q-41 0 -69.5 29t-28.5 70q0 39 29.5 67.5t68.5 28.5q40 0 71.5 -28.5t31.5 -67.5q0 -41 -30.5 -70t-72.5 -29zM1276 10q-41 0 -69.5 29
t-28.5 70q0 39 29.5 67.5t68.5 28.5q40 0 71 -28.5t31 -67.5q0 -41 -30 -70t-72 -29z" />
    <glyph glyph-name="perthousand" unicode="&#x2030;" horiz-adv-x="2301" 
d="M326 567q-114 0 -182 66t-68 176v401q0 109 68 174.5t182 65.5t184 -65.5t70 -174.5v-401q0 -110 -70 -176t-184 -66zM383 0q-12 0 -15 7t3 18l897 1394q11 15 24 15h29q12 0 15 -7t-3 -18l-899 -1395q-10 -14 -24 -14h-27zM326 627q85 0 136.5 48.5t51.5 127.5v414
q0 78 -52 127t-136 49q-83 0 -134 -49t-51 -127v-414q0 -79 51 -127.5t134 -48.5zM1346 -16q-114 0 -182 65.5t-68 175.5v402q0 109 68 174t182 65t183.5 -65.5t69.5 -173.5v-402q0 -110 -69.5 -175.5t-183.5 -65.5zM1987 -16q-114 0 -182 65.5t-68 175.5v402q0 109 68 174
t182 65t184 -65.5t70 -173.5v-402q0 -110 -69.5 -175.5t-184.5 -65.5zM1346 43q85 0 136.5 48.5t51.5 127.5v414q0 78 -52 127t-136 49q-83 0 -134 -49t-51 -127v-414q0 -79 51 -127.5t134 -48.5zM1987 43q85 0 136.5 48.5t51.5 127.5v414q0 78 -52 127t-136 49
q-83 0 -134 -49t-51 -127v-414q0 -79 51 -127.5t134 -48.5z" />
    <glyph glyph-name="guilsinglleft" unicode="&#x2039;" horiz-adv-x="770" 
d="M524 244q8 -9 5 -17t-15 -8h-35q-15 0 -24 12l-283 330q-14 15 0 29l283 330q9 12 24 12h35q12 0 15 -8t-5 -17l-278 -325q-3 -6 0 -13z" />
    <glyph glyph-name="guilsinglright" unicode="&#x203a;" horiz-adv-x="831" 
d="M256 219q-12 0 -15 8t5 17l278 325q3 7 0 13l-278 325q-8 9 -5 17t15 8h35q15 0 24 -12l283 -330q14 -14 0 -29l-283 -330q-9 -12 -24 -12h-35z" />
    <glyph glyph-name="fraction" unicode="&#x2044;" horiz-adv-x="495" 
d="M-215 0q-12 0 -15 7t3 18l897 1394q11 15 24 15h29q12 0 15 -7t-3 -18l-899 -1395q-10 -14 -24 -14h-27z" />
    <glyph glyph-name="uni2074" unicode="&#x2074;" horiz-adv-x="661" 
d="M561 1231q9 0 15 -6t6 -15v-20q0 -9 -6 -15t-15 -6h-39q-8 0 -8 -8v-211q0 -20 -20 -20h-27q-21 0 -21 20v211q0 8 -8 8h-352q-20 0 -20 21v20q0 10 6 25l254 541q6 14 22 14h25q10 0 14.5 -7t-0.5 -18l-246 -524q-2 -3 0 -6.5t6 -3.5h291q8 0 8 8v197q0 20 21 20h27
q20 0 20 -20v-197q0 -8 8 -8h39z" />
    <glyph glyph-name="uni2075" unicode="&#x2075;" horiz-adv-x="606" 
d="M524 1329q25 -64 25 -143q0 -81 -25 -142q-55 -131 -211 -131q-85 0 -143.5 44t-79.5 118q-8 34 -12 68q0 20 20 20h27q19 0 22 -20q0 -17 7 -41q9 -59 52 -94t107 -35q108 0 148 94q22 52 22 119q0 71 -22 123q-43 90 -144 90q-58 0 -102 -24t-61 -66q-10 -17 -25 -17
h-29q-20 0 -20 21v450q0 21 20 21h394q20 0 20 -21v-16q0 -21 -20 -21h-340q-9 0 -9 -8v-311q0 -5 3.5 -6.5t7.5 2.5q61 55 168 55q142 0 200 -129z" />
    <glyph glyph-name="uni2076" unicode="&#x2076;" horiz-adv-x="624" 
d="M549 1296q10 -41 10 -110q0 -72 -10 -111q-21 -72 -82 -117t-145 -45q-83 0 -140.5 44t-81.5 118q-12 35 -12 113v379q0 106 64 166.5t172 60.5q95 0 156 -58t61 -151v-4q0 -20 -21 -20h-26q-21 0 -21 10v10q0 68 -42.5 111t-106.5 43q-78 0 -124 -45t-46 -127v-179
q0 -5 3 -6.5t7 2.5q63 76 166 76q80 0 139 -44t80 -116zM485 1098q9 40 9 88q0 46 -9 84q-11 58 -54.5 92.5t-108.5 34.5q-62 0 -105 -35t-55 -92q-6 -19 -6 -84q0 -63 4 -88q11 -56 55 -90.5t107 -34.5q64 0 106.5 34.5t56.5 90.5z" />
    <glyph glyph-name="uni2077" unicode="&#x2077;" horiz-adv-x="552" 
d="M184 930q-22 0 -16 22l281 770q2 3 -0.5 7t-6.5 4h-348q-8 0 -8 -9v-61q0 -21 -20 -21h-17q-20 0 -20 21v106q0 21 20 21h455q20 0 20 -21v-24q0 -9 -4 -25l-282 -774q-5 -16 -25 -16h-29z" />
    <glyph glyph-name="uni2078" unicode="&#x2078;" horiz-adv-x="630" 
d="M539 1255q10 -34 10 -94q0 -57 -10 -88q-21 -72 -81 -116t-145 -44q-84 0 -142.5 43t-80.5 117q-14 43 -14 90q0 35 14 90q25 85 100 123q10 6 0 13q-74 39 -100 114q-12 37 -12 72q0 41 12 76q53 143 223 143q86 0 144.5 -37.5t81.5 -105.5q12 -43 12 -76q0 -29 -12 -70
q-24 -77 -103 -116q-10 -7 0 -13q82 -40 103 -121zM150 1528q11 -53 53.5 -85t109.5 -32t112.5 32t53.5 85q4 24 4 45q0 31 -4 47q-13 55 -57.5 86t-108.5 31q-66 0 -107.5 -31.5t-55.5 -85.5q-9 -36 -9 -47q0 -21 9 -45zM477 1102q4 15 4 65q0 49 -2 60q-11 58 -56.5 94.5
t-109.5 36.5q-65 0 -107 -35.5t-56 -95.5q-7 -29 -7 -62q0 -19 7 -63q11 -58 54 -93.5t109 -35.5q64 0 109.5 36.5t54.5 92.5z" />
    <glyph glyph-name="uni2079" unicode="&#x2079;" horiz-adv-x="624" 
d="M524 1632q13 -38 13 -112v-379q0 -106 -64 -167t-172 -61q-95 0 -156 58t-61 151v4q0 21 20 21h27q21 0 21 -10v-11q0 -68 42.5 -110.5t106.5 -42.5q78 0 124 45t46 127v178q0 5 -2.5 6.5t-7.5 -2.5q-63 -76 -166 -76q-80 0 -139 44t-80 116q-10 41 -10 111q0 71 10 110
q21 72 82 117t145 45q83 0 140 -44t81 -118zM463 1438q6 19 6 84q0 63 -4 88q-11 56 -55 90.5t-107 34.5q-64 0 -107 -34.5t-57 -90.5q-8 -36 -8 -88q0 -51 8 -84q11 -58 55 -92.5t109 -34.5q62 0 105 35t55 92z" />
    <glyph glyph-name="franc" unicode="&#x20a3;" horiz-adv-x="1349" 
d="M1298 1382q0 -20 -20 -20h-789q-8 0 -8 -8v-590q0 -8 8 -8h564q20 0 20 -21v-33q0 -20 -20 -20h-564q-8 0 -8 -8v-295q0 -8 8 -8h330q9 0 15 -6t6 -15v-22q0 -9 -6 -15t-15 -6h-330q-8 0 -8 -8v-279q0 -20 -20 -20h-39q-21 0 -21 20v279q0 8 -8 8h-149q-9 0 -15 6t-6 15
v22q0 9 6 15t15 6h149q8 0 8 8v1034q0 9 6 15t15 6h856q20 0 20 -21v-31z" />
    <glyph glyph-name="Euro" unicode="&#x20ac;" horiz-adv-x="1304" 
d="M748 53q132 0 219 73t100 196q3 19 23 16l38 -6q22 -4 19 -23q-22 -149 -129 -238t-270 -89q-182 0 -293 108t-111 285v184q0 8 -8 8h-143q-9 0 -15 6t-6 15v16q0 9 6 15t15 6h143q8 0 8 8v162q0 8 -8 8h-143q-21 0 -21 20v17q0 20 21 20h143q8 0 8 8v193
q0 175 111.5 282t292.5 107q166 0 274 -91t125 -243q3 -18 -19 -22l-38 -7q-20 -3 -23 19q-12 125 -98 198.5t-221 73.5q-145 0 -234.5 -87t-89.5 -228v-195q0 -8 8 -8h533q11 0 15.5 -7t0.5 -17l-8 -17q-5 -16 -23 -16h-518q-8 0 -8 -8v-162q0 -8 8 -8h463q11 0 15.5 -7.5
t0.5 -17.5l-8 -16q-6 -17 -22 -17h-449q-8 0 -8 -8v-188q0 -141 90 -229.5t234 -88.5z" />
    <glyph glyph-name="uni20BA" unicode="&#x20ba;" horiz-adv-x="1296" 
d="M1061 516q0 21 20 21h39q9 0 15 -6t6 -15q-5 -123 -65 -228t-173.5 -179t-263.5 -97q-85 -12 -180 -12q-21 0 -21 20v654q0 3 -2.5 6t-5.5 2l-221 -64q-21 -7 -27 15l-4 18q-6 20 15 27l239 65q6 3 6 11v135q0 3 -2.5 6t-5.5 2l-221 -61q-21 -7 -27 14l-4 16q-6 20 15 27
l239 65q6 3 6 11v444q0 9 6 15t15 6h39q20 0 20 -21v-420q0 -3 2.5 -6t5.5 -2l277 78q20 7 26 -14l5 -17q5 -19 -15 -26l-295 -82q-6 -3 -6 -11v-135q0 -3 2.5 -6t5.5 -2l277 78q20 7 26 -14l5 -17q5 -19 -15 -26l-295 -82q-6 -3 -6 -11v-620q0 -8 12 -8q231 12 376.5 138.5
t154.5 307.5z" />
    <glyph glyph-name="uni20BD" unicode="&#x20bd;" horiz-adv-x="1429" 
d="M967 678h-449q-8 0 -8 -8v-201q0 -8 8 -8h537q20 0 20 -21v-18q0 -21 -20 -21h-537q-8 0 -8 -8v-373q0 -20 -21 -20h-38q-21 0 -21 20v373q0 8 -8 8h-178q-9 0 -15 6t-6 15v18q0 9 6 15t15 6h178q8 0 8 8v201q0 8 -8 8h-178q-21 0 -21 20v31q0 9 6 15t15 6h178q8 0 8 8
v659q0 9 6 15t15 6h518q170 0 273.5 -105.5t103.5 -277.5q0 -170 -105 -273.5t-274 -103.5zM518 1364q-8 0 -8 -8v-598q0 -8 8 -8h449q135 0 217 83.5t82 221.5q0 141 -82 225t-217 84h-449z" />
    <glyph glyph-name="uni2113" unicode="&#x2113;" horiz-adv-x="1028" 
d="M610 49q104 0 183 62q19 16 26 -9l8 -20q6 -19 -4 -29q-32 -29 -96.5 -49t-130.5 -20q-121 0 -187.5 79.5t-66.5 221.5l-2 270q0 11 -10 4q-10 -8 -27.5 -22.5t-32 -27t-26.5 -24.5q-16 -13 -29 4l-12 17q-13 17 2 29q49 44 131 108q4 4 4 10l-2 377q-1 104 32 197
t95.5 154.5t140.5 68.5q98 9 165 -64.5t67 -187.5q0 -64 -25 -129.5t-60.5 -118t-97 -113.5t-111.5 -103.5t-126 -102.5q-4 -4 -4 -10l2 -330q0 -124 48 -183t146 -59zM412 1024l2 -305q0 -11 10 -4q62 51 106 90t92 90t77.5 95.5t49 98t19.5 105.5q0 88 -45.5 144.5
t-114.5 47.5q-83 -12 -140 -115t-56 -247z" />
    <glyph glyph-name="trademark" unicode="&#x2122;" horiz-adv-x="1335" 
d="M72 1378q-9 0 -15 6t-6 15v14q0 9 6 15t15 6h450q9 0 15 -6t6 -15v-14q0 -9 -6 -15t-15 -6h-192q-8 0 -8 -8v-635q0 -20 -21 -20h-20q-21 0 -21 20v635q0 8 -8 8h-180zM1153 1419q11 15 25 15h24q9 0 15 -6t6 -15v-678q0 -20 -21 -20h-20q-21 0 -21 20v574q0 6 -3.5 8
t-6.5 -4l-160 -246q-11 -14 -24 -14q-15 0 -25 14l-160 246q-3 6 -6.5 4t-3.5 -8v-574q0 -20 -20 -20h-21q-20 0 -20 20v678q0 21 20 21h23q13 0 24 -15l183 -282q1 -3 6 -3t6 3z" />
    <glyph glyph-name="uni2126" unicode="&#x2126;" horiz-adv-x="1318" 
d="M193 0q-21 0 -21 20v31q0 9 6 15t15 6h204q6 0 7 3.5t-5 6.5q-96 55 -150 153t-54 226v530q0 206 127.5 332.5t334.5 126.5q210 0 338.5 -126.5t128.5 -332.5v-530q0 -128 -54 -226t-150 -153q-6 -3 -5 -6.5t7 -3.5h206q9 0 15 -6t6 -15v-31q0 -20 -21 -20h-350
q-20 0 -20 20v35q0 18 18 21q106 23 187 128t81 249v542q0 172 -106.5 277.5t-280.5 105.5q-172 0 -277.5 -105.5t-105.5 -277.5v-542q0 -145 81 -249t184 -126q18 -6 18 -23v-35q0 -20 -20 -20h-344z" />
    <glyph glyph-name="estimated" unicode="&#x212e;" horiz-adv-x="1832" 
d="M915 1450q213 0 384 -96t266.5 -265t95.5 -378q0 -9 -21 -9h-1298q-8 0 -8 -8l-2 -358q0 -6 4 -10q93 -138 243.5 -216.5t335.5 -78.5q200 0 361.5 93.5t247.5 252.5q8 14 24 14h17q11 0 15.5 -6.5t-1.5 -17.5q-92 -176 -268 -279.5t-396 -103.5q-213 0 -383 95t-265 261
t-95 371q0 210 95 378.5t265 264.5t383 96zM336 1108q-2 -2 -2 -10v-340q0 -8 8 -8h1147q8 0 8 8v340q0 2 -1 5.5t-1 4.5q-94 139 -244.5 217t-335.5 78t-335 -78t-244 -217z" />
    <glyph glyph-name="oneeighth" unicode="&#x215b;" horiz-adv-x="1597" 
d="M262 594q0 -21 -20 -21h-27q-20 0 -20 21v760q0 3 -3 6t-6 2l-77 -23q-10 -3 -16.5 2.5t-6.5 16.5v12q0 17 16 23l80 34q14 7 25 7h35q20 0 20 -21v-819zM1116 1419q11 15 25 15h28q12 0 15.5 -7t-2.5 -18l-899 -1395q-11 -14 -25 -14h-27q-12 0 -15 7t3 18zM1505 326
q11 -38 11 -95q0 -54 -11 -88q-21 -72 -80.5 -115.5t-144.5 -43.5t-143 42.5t-80 116.5q-15 46 -15 90q0 33 15 91q24 83 100 122q10 6 0 13q-74 39 -100 114q-13 40 -13 72q0 38 13 76q53 143 223 143q85 0 143.5 -37.5t81.5 -105.5q13 -47 13 -76q0 -26 -13 -70
q-24 -78 -102 -116q-10 -7 0 -13q81 -40 102 -120zM1116 598q11 -53 54 -85t110 -32t112.5 32t53.5 85q4 24 4 45q0 31 -4 47q-13 55 -57.5 86t-108.5 31q-66 0 -108 -32t-56 -85q-8 -32 -8 -47q0 -24 8 -45zM1444 172q4 15 4 66q0 48 -2 59q-11 58 -56.5 94.5t-109.5 36.5
q-65 0 -107.5 -36t-56.5 -95q-6 -25 -6 -61q0 -27 6 -64q11 -58 54.5 -93.5t109.5 -35.5q64 0 109.5 36.5t54.5 92.5z" />
    <glyph glyph-name="threeeighths" unicode="&#x215c;" horiz-adv-x="1808" 
d="M535 698q-28 -57 -82 -87.5t-127 -30.5q-84 0 -141 44.5t-81 120.5q-12 32 -12 82q0 21 21 21h26q21 0 21 -21q0 -27 4 -59q11 -57 55 -92t107 -35q102 0 145 82q27 59 27 127q0 84 -31 141q-42 82 -141 82q-21 0 -31 -4q-19 -3 -27 8l-10 13q-14 14 0 28l213 264
q3 3 1.5 7t-5.5 4h-350q-21 0 -21 20v17q0 20 21 20h422q20 0 20 -20v-23q0 -14 -8 -25l-197 -249q-3 -3 -1.5 -7t5.5 -4q118 -9 172 -106q35 -68 35 -166q0 -90 -30 -152zM1327 1419q11 15 25 15h28q12 0 15.5 -7t-2.5 -18l-899 -1395q-10 -14 -25 -14h-27q-12 0 -15 7
t3 18zM1716 326q10 -34 10 -95q0 -57 -10 -88q-21 -72 -80.5 -115.5t-144.5 -43.5t-143 42.5t-80 116.5q-15 46 -15 90q0 33 15 91q24 83 100 122q10 6 0 13q-74 39 -100 114q-13 40 -13 72q0 38 13 76q53 143 223 143q85 0 143.5 -37.5t81.5 -105.5q13 -47 13 -76
q0 -26 -13 -70q-24 -78 -102 -116q-10 -7 0 -13q81 -40 102 -120zM1327 598q11 -53 54 -85t110 -32t112.5 32t53.5 85q4 24 4 45q0 31 -4 47q-13 55 -57.5 86t-108.5 31q-66 0 -108 -32t-56 -85q-8 -32 -8 -47q0 -24 8 -45zM1655 172q4 15 4 66q0 48 -2 59
q-11 58 -56.5 94.5t-109.5 36.5q-65 0 -107.5 -36t-56.5 -95q-6 -25 -6 -61q0 -27 6 -64q11 -58 54.5 -93.5t109.5 -35.5q64 0 109.5 36.5t54.5 92.5z" />
    <glyph glyph-name="fiveeighths" unicode="&#x215d;" horiz-adv-x="1738" 
d="M524 694q-55 -131 -211 -131q-85 0 -143.5 44t-79.5 118q-8 34 -12 68q0 20 20 20h27q19 0 22 -20q0 -17 7 -41q9 -59 52 -94t107 -35q108 0 148 94q22 52 22 119q0 70 -22 122q-43 91 -144 91q-58 0 -102 -24.5t-61 -66.5q-10 -16 -25 -16h-29q-20 0 -20 21v450
q0 21 20 21h394q20 0 20 -21v-16q0 -21 -20 -21h-340q-9 0 -9 -8v-311q0 -5 3.5 -6.5t7.5 2.5q61 55 168 55q142 0 200 -129q25 -64 25 -143q0 -81 -25 -142zM1257 1419q11 15 25 15h29q12 0 15 -7t-3 -18l-899 -1395q-11 -14 -25 -14h-26q-12 0 -15.5 7t2.5 18zM1647 326
q10 -34 10 -95q0 -57 -10 -88q-21 -72 -81 -115.5t-145 -43.5t-143 42.5t-80 116.5q-14 43 -14 90q0 36 14 91q24 83 100 122q10 6 0 13q-74 39 -100 114q-12 37 -12 72q0 41 12 76q53 143 223 143q86 0 144.5 -37.5t81.5 -105.5q12 -44 12 -76q0 -29 -12 -70
q-24 -77 -103 -116q-10 -7 0 -13q82 -40 103 -120zM1257 598q11 -53 54 -85t110 -32t112.5 32t53.5 85q4 24 4 45q0 31 -4 47q-13 55 -57.5 86t-108.5 31q-66 0 -108 -32t-56 -85q-8 -32 -8 -47q0 -24 8 -45zM1585 172q4 15 4 66q0 48 -2 59q-11 58 -56.5 94.5t-109.5 36.5
q-65 0 -107.5 -36t-56.5 -95q-6 -25 -6 -61q0 -27 6 -64q11 -58 54.5 -93.5t109.5 -35.5q64 0 109.5 36.5t54.5 92.5z" />
    <glyph glyph-name="seveneighths" unicode="&#x215e;" horiz-adv-x="1601" 
d="M238 590q-6 -17 -25 -17h-29q-23 0 -16 23l281 770q2 3 -0.5 6.5t-6.5 3.5h-348q-8 0 -8 -8v-61q0 -21 -20 -21h-17q-20 0 -20 21v106q0 21 20 21h455q20 0 20 -21v-24q0 -9 -4 -25zM1120 1419q11 15 25 15h29q12 0 15 -7t-3 -18l-899 -1395q-11 -14 -25 -14h-26
q-12 0 -15.5 7t2.5 18zM1509 326q11 -38 11 -95q0 -54 -11 -88q-21 -72 -80.5 -115.5t-144.5 -43.5t-143 42.5t-80 116.5q-14 43 -14 90q0 36 14 91q24 83 100 122q10 6 0 13q-74 39 -100 114q-12 37 -12 72q0 41 12 76q53 143 223 143q85 0 143.5 -37.5t81.5 -105.5
q13 -47 13 -76q0 -26 -13 -70q-24 -78 -102 -116q-10 -7 0 -13q81 -40 102 -120zM1120 598q11 -53 54 -85t110 -32t112.5 32t53.5 85q4 24 4 45q0 31 -4 47q-13 55 -57.5 86t-108.5 31q-66 0 -108 -32t-56 -85q-8 -32 -8 -47q0 -24 8 -45zM1448 172q4 15 4 66q0 48 -2 59
q-11 58 -56.5 94.5t-109.5 36.5q-65 0 -107.5 -36t-56.5 -95q-6 -25 -6 -61q0 -27 6 -64q11 -58 54.5 -93.5t109.5 -35.5q64 0 109.5 36.5t54.5 92.5z" />
    <glyph glyph-name="partialdiff" unicode="&#x2202;" horiz-adv-x="1191" 
d="M1001 682q0 -73 -3.5 -137t-16 -137t-32.5 -132t-54.5 -115t-81 -93.5t-113.5 -60.5t-149 -23q-182 0 -291.5 119t-109.5 317q0 200 122 326t299 126q107 -1 195 -47t147 -120q9 -8 11 -5v7q-8 353 -129 526q-86 124 -230 139q-131 15 -239 -59q-22 -15 -29 8l-10 31
q-7 17 8 26q116 81 272 70q181 -18 287 -166q147 -202 147 -600zM555 55q181 0 268.5 130t100.5 380q0 8 -2 10q-44 96 -135.5 160t-206.5 64q-148 0 -249.5 -105.5t-101.5 -271.5q0 -165 90 -266t236 -101z" />
    <glyph glyph-name="uni2206" unicode="&#x2206;" horiz-adv-x="1286" 
d="M94 0q-20 0 -20 20v39q0 15 4 25l522 1333q6 17 23 17h39q16 0 22 -17l524 -1335q4 -10 4 -25v-37q0 -20 -20 -20h-1098zM156 80q-2 -3 0 -6.5t6 -3.5h960q4 0 6 3.5t0 6.5l-479 1239q-1 6 -6 6t-6 -6z" />
    <glyph glyph-name="product" unicode="&#x220f;" horiz-adv-x="1357" 
d="M1116 1638q21 0 21 -20v-2007q0 -9 -6 -15t-15 -6h-39q-20 0 -20 21v1948q0 8 -8 8h-738q-8 0 -8 -8v-1948q0 -21 -20 -21h-39q-9 0 -15 6t-6 15v2007q0 20 21 20h872z" />
    <glyph glyph-name="summation" unicode="&#x2211;" horiz-adv-x="1269" 
d="M244 -408q-9 0 -15 6t-6 15v35q0 11 6 26l502 922q3 6 0 12l-498 762q-8 16 -8 27v35q0 20 21 20h866q21 0 21 -20v-29q0 -9 -6 -15t-15 -6h-788q-5 0 -7.5 -3.5t0.5 -6.5l500 -756q7 -10 0 -28l-500 -916q-5 -10 5 -10h790q21 0 21 -20v-29q0 -9 -6 -15t-15 -6h-868z
" />
    <glyph glyph-name="minus" unicode="&#x2212;" horiz-adv-x="1038" 
d="M111 618q-9 0 -15 6t-6 15v29q0 20 21 20h817q20 0 20 -20v-29q0 -21 -20 -21h-817z" />
    <glyph glyph-name="uni2215" unicode="&#x2215;" horiz-adv-x="950" 
d="M96 0q-10 0 -14.5 7t0.5 18l717 1394q6 15 24 15h33q10 0 14.5 -7t-0.5 -18l-714 -1395q-6 -14 -25 -14h-35z" />
    <glyph glyph-name="uni2219" unicode="&#x2219;" horiz-adv-x="624" 
d="M313 426q-92 0 -157.5 66.5t-65.5 158.5t65 155.5t158 63.5q91 0 156.5 -63.5t65.5 -155.5t-65.5 -158.5t-156.5 -66.5z" />
    <glyph glyph-name="radical" unicode="&#x221a;" horiz-adv-x="1441" 
d="M352 -410q-18 0 -24 17l-250 690q-6 21 12 27l35 10q19 6 25 -12l212 -590q2 -4 6 -4t5 4l506 1863q4 19 22 19h330q20 0 20 -21v-28q0 -21 -20 -21h-277q-8 0 -10 -6l-524 -1929q-4 -19 -23 -19h-45z" />
    <glyph glyph-name="infinity" unicode="&#x221e;" horiz-adv-x="1478" 
d="M1087 952q131 0 216.5 -86.5t85.5 -214.5t-85.5 -213.5t-222.5 -85.5q-59 0 -109.5 17t-92.5 51t-75.5 72t-70.5 92q-6 6 -12 0q-39 -53 -71 -88.5t-74.5 -71.5t-90 -54t-100.5 -18q-124 0 -209.5 87.5t-85.5 215.5q0 127 85 212t216 85q56 0 103.5 -17t88 -51.5
t71 -70.5t67.5 -90q7 -7 16 4q88 120 171 172.5t179 52.5zM383 418q40 0 77 14.5t64 33.5t59 55t49.5 60.5t47.5 67.5q3 7 0 13q-37 56 -63.5 90t-62.5 68.5t-76.5 50.5t-88.5 16q-101 0 -165 -66t-64 -166t64.5 -168.5t158.5 -68.5zM1083 418q106 0 171 66t65 167
q0 102 -64 169t-165 67q-93 0 -164 -58t-152 -172q-3 -6 0 -12q37 -55 64 -89t65 -69.5t82.5 -52t97.5 -16.5z" />
    <glyph glyph-name="integral" unicode="&#x222b;" horiz-adv-x="833" 
d="M100 -410q-20 0 -20 21l-2 31q0 20 20 20h47q128 0 174 62.5t46 199.5l4 1178q0 102 16.5 165t59 100.5t105 51.5t165.5 15q20 0 20 -21l2 -31q0 -20 -20 -20h-47q-128 0 -174.5 -62.5t-46.5 -199.5l-5 -1178q-1 -102 -17 -165t-58 -100.5t-104 -51.5t-165 -15z" />
    <glyph glyph-name="approxequal" unicode="&#x2248;" horiz-adv-x="993" 
d="M696 788q-14 0 -28.5 1.5t-26 3t-25.5 5.5t-22.5 6t-22.5 8t-20 8.5t-21 10.5t-18.5 9.5t-20 11t-18.5 10.5q-88 49 -158 49q-103 0 -163 -86q-10 -20 -27 -6l-19 12q-17 12 -8 27q31 59 87.5 93t127.5 34q84 0 181 -55q5 -3 24 -13.5t26 -14t24.5 -12t29 -12t28.5 -8
t34 -6.5t36 -2q46 0 76 20.5t66 63.5q12 15 28 4l23 -14q16 -13 6 -29q-77 -119 -199 -119zM696 340q-14 0 -28.5 1.5t-26 3t-25.5 5.5t-22.5 6t-22.5 8t-20 8.5t-21 10.5t-18.5 9.5t-20 11t-18.5 10.5q-88 49 -158 49q-103 0 -163 -86q-10 -20 -27 -6l-19 12q-17 12 -8 27
q31 59 87.5 93t127.5 34q83 0 181 -56q2 -1 23.5 -13t26.5 -14.5t24 -11.5t29.5 -12l28 -8t34.5 -6.5t36 -1.5q46 0 76 20.5t66 63.5q12 15 28 4l23 -15q15 -12 6 -28q-77 -119 -199 -119z" />
    <glyph glyph-name="notequal" unicode="&#x2260;" horiz-adv-x="1038" 
d="M948 877q0 -21 -20 -21h-314q-5 0 -8 -6l-178 -356q-4 -11 6 -11h494q20 0 20 -20v-29q0 -20 -20 -20h-531q-5 0 -8 -6l-82 -166q-6 -15 -24 -15h-21q-10 0 -14.5 7.5t0.5 17.5l76 151q4 11 -7 11h-206q-21 0 -21 20v29q0 20 21 20h243q5 0 8 6l179 357q3 10 -6 10h-424
q-9 0 -15 6t-6 15v28q0 9 6 15t15 6h460q6 0 9 6l102 207q6 14 25 14h20q10 0 14.5 -7.5t-0.5 -17.5l-96 -192q-3 -10 6 -10h277q20 0 20 -21v-28z" />
    <glyph glyph-name="lessequal" unicode="&#x2264;" horiz-adv-x="1038" 
d="M948 219q0 -11 -7 -14.5t-17 0.5l-820 387q-14 8 -14 24v46q0 16 14 24l820 387q10 4 17 0.5t7 -14.5v-39q0 -15 -14 -23l-754 -352q-9 -6 0 -12l754 -352q14 -8 14 -23v-39zM948 20q0 -20 -20 -20h-817q-21 0 -21 20v29q0 9 6 15t15 6h817q20 0 20 -21v-29z" />
    <glyph glyph-name="greaterequal" unicode="&#x2265;" horiz-adv-x="1038" 
d="M115 205q-11 -5 -18 -0.5t-7 14.5v39q0 15 14 23l754 352q9 6 0 12l-754 352q-14 8 -14 23v39q0 10 7 14.5t18 -0.5l819 -387q14 -8 14 -24v-46q0 -16 -14 -24zM111 0q-21 0 -21 20v29q0 9 6 15t15 6h817q20 0 20 -21v-29q0 -20 -20 -20h-817z" />
    <glyph glyph-name="lozenge" unicode="&#x25ca;" horiz-adv-x="952" 
d="M457 -86q-18 0 -23 16l-338 772q-7 14 0 29l340 772q6 17 23 17h37q16 0 22 -17l340 -772q7 -15 0 -29l-338 -772q-5 -16 -22 -16h-41zM471 6q1 -4 6 -4t6 4l299 705q3 6 0 12l-299 704q-1 5 -6 5t-6 -5l-301 -704q-3 -6 0 -12z" />
    <glyph glyph-name="i.loclTRK" horiz-adv-x="434" 
d="M213 1237q-32 0 -54 20.5t-22 51.5q0 29 22 49t54 20q31 0 51.5 -20t20.5 -49q0 -31 -20.5 -51.5t-51.5 -20.5zM195 0q-21 0 -21 20v988q0 20 21 20h38q21 0 21 -20v-988q0 -20 -21 -20h-38z" />
    <glyph glyph-name="a.alt" horiz-adv-x="1093" 
d="M825 1008q0 20 21 20h39q20 0 20 -20v-988q0 -20 -20 -20h-39q-21 0 -21 20v115q0 4 -1.5 5.5t-4 0.5t-4.5 -4q-43 -72 -118 -112.5t-169 -40.5q-139 0 -234.5 74t-125.5 196q-18 68 -18 258q0 192 16 260q30 124 126 198t236 74q94 0 169 -40.5t118 -112.5q2 -3 4.5 -4
t4 0.5t1.5 5.5v115zM807 274q10 34 13 78t3 160q0 120 -3.5 163.5t-14.5 80.5q-20 95 -91 156t-177 61q-109 0 -187 -60.5t-100 -154.5q-12 -38 -16.5 -83t-4.5 -159q0 -78 2.5 -126t6 -68t10.5 -48q19 -97 97.5 -158t189.5 -61q110 0 180 61.5t92 157.5z" />
    <glyph glyph-name="a.sc" horiz-adv-x="1032" 
d="M901 0q-18 0 -24 16l-74 224q-2 6 -8 6h-557q-7 0 -9 -6l-73 -224q-6 -16 -25 -16h-37q-23 0 -16 23l387 1140q7 17 24 17h50q17 0 24 -17l391 -1140q7 -23 -16 -23h-37zM258 324q-2 -3 0 -7t6 -4h504q4 0 6 4t0 7l-252 749q-2 5 -6 5t-6 -5z" />
    <glyph glyph-name="aacute.sc" horiz-adv-x="1032" 
d="M645 1604q12 0 16 -7t-2 -18l-135 -227q-11 -15 -24 -15h-29q-12 0 -16 7.5t2 17.5l125 227q6 15 24 15h39zM901 0q-18 0 -24 16l-74 224q-2 6 -8 6h-557q-7 0 -9 -6l-73 -224q-6 -16 -25 -16h-37q-23 0 -16 23l387 1140q7 17 24 17h50q17 0 24 -17l391 -1140
q7 -23 -16 -23h-37zM258 324q-2 -3 0 -7t6 -4h504q4 0 6 4t0 7l-252 749q-2 5 -6 5t-6 -5z" />
    <glyph glyph-name="abreve.sc" horiz-adv-x="1032" 
d="M516 1266q-81 0 -140 53t-67 131q-1 9 4.5 14.5t14.5 5.5h18q20 0 23 -20q6 -55 48 -92t99 -37t100.5 37t49.5 92q3 20 22 20h19q21 0 18 -20q-8 -78 -67 -131t-142 -53zM901 0q-18 0 -24 16l-74 224q-2 6 -8 6h-557q-7 0 -9 -6l-73 -224q-6 -16 -25 -16h-37
q-23 0 -16 23l387 1140q7 17 24 17h50q17 0 24 -17l391 -1140q7 -23 -16 -23h-37zM258 324q-2 -3 0 -7t6 -4h504q4 0 6 4t0 7l-252 749q-2 5 -6 5t-6 -5z" />
    <glyph glyph-name="uni01CE.sc" horiz-adv-x="1032" 
d="M561 1307q-10 -13 -26 -13h-43q-19 0 -27 13l-168 219q-7 9 -3.5 16.5t15.5 7.5h31q20 0 27 -12l143 -186q7 -10 12 0l140 186q7 12 26 12h31q12 0 15.5 -7.5t-3.5 -16.5zM901 0q-18 0 -24 16l-74 224q-2 6 -8 6h-557q-7 0 -9 -6l-73 -224q-6 -16 -25 -16h-37
q-23 0 -16 23l387 1140q7 17 24 17h50q17 0 24 -17l391 -1140q7 -23 -16 -23h-37zM258 324q-2 -3 0 -7t6 -4h504q4 0 6 4t0 7l-252 749q-2 5 -6 5t-6 -5z" />
    <glyph glyph-name="acircumflex.sc" horiz-adv-x="1032" 
d="M522 1518q-5 10 -12 0l-143 -187q-7 -12 -27 -12h-31q-12 0 -15.5 7.5t3.5 16.5l170 222q7 12 27 12h43q19 0 26 -12l170 -222q7 -9 3.5 -16.5t-15.5 -7.5h-31q-19 0 -26 12zM901 0q-18 0 -24 16l-74 224q-2 6 -8 6h-557q-7 0 -9 -6l-73 -224q-6 -16 -25 -16h-37
q-23 0 -16 23l387 1140q7 17 24 17h50q17 0 24 -17l391 -1140q7 -23 -16 -23h-37zM258 324q-2 -3 0 -7t6 -4h504q4 0 6 4t0 7l-252 749q-2 5 -6 5t-6 -5z" />
    <glyph glyph-name="adieresis.sc" horiz-adv-x="1032" 
d="M356 1407q-34 0 -55.5 21t-21.5 53q0 30 22 50.5t55 20.5q30 0 51 -21t21 -50q0 -32 -20.5 -53t-51.5 -21zM678 1407q-32 0 -54 21t-22 53q0 29 22 50t54 21t53 -20.5t21 -50.5q0 -32 -21 -53t-53 -21zM901 0q-18 0 -24 16l-74 224q-2 6 -8 6h-557q-7 0 -9 -6l-73 -224
q-6 -16 -25 -16h-37q-23 0 -16 23l387 1140q7 17 24 17h50q17 0 24 -17l391 -1140q7 -23 -16 -23h-37zM258 324q-2 -3 0 -7t6 -4h504q4 0 6 4t0 7l-252 749q-2 5 -6 5t-6 -5z" />
    <glyph glyph-name="agrave.sc" horiz-adv-x="1032" 
d="M532 1362q6 -10 2 -17.5t-16 -7.5h-29q-13 0 -24 15l-135 227q-6 11 -2 18t16 7h39q19 0 25 -15zM901 0q-18 0 -24 16l-74 224q-2 6 -8 6h-557q-7 0 -9 -6l-73 -224q-6 -16 -25 -16h-37q-23 0 -16 23l387 1140q7 17 24 17h50q17 0 24 -17l391 -1140q7 -23 -16 -23h-37z
M258 324q-2 -3 0 -7t6 -4h504q4 0 6 4t0 7l-252 749q-2 5 -6 5t-6 -5z" />
    <glyph glyph-name="amacron.sc" horiz-adv-x="1032" 
d="M760 1448q20 0 20 -21v-24q0 -21 -20 -21h-486q-20 0 -20 21v24q0 21 20 21h486zM901 0q-18 0 -24 16l-74 224q-2 6 -8 6h-557q-7 0 -9 -6l-73 -224q-6 -16 -25 -16h-37q-23 0 -16 23l387 1140q7 17 24 17h50q17 0 24 -17l391 -1140q7 -23 -16 -23h-37zM258 324
q-2 -3 0 -7t6 -4h504q4 0 6 4t0 7l-252 749q-2 5 -6 5t-6 -5z" />
    <glyph glyph-name="aogonek.sc" horiz-adv-x="1089" 
d="M985 -311q22 3 25 -17l4 -16q6 -22 -15 -25q-34 -9 -71.5 -6.5t-70 12.5t-58 37.5t-35.5 69.5q-28 138 123 250q7 5 0 8q-8 8 -10 14l-74 224q-2 6 -8 6h-557q-7 0 -9 -6l-73 -224q-6 -16 -25 -16h-37q-23 0 -16 23l387 1140q7 17 24 17h50q17 0 24 -17l393 -1147l7 -16
q-5 -2 -9 -4q-64 -51 -100 -110.5t-25 -118.5q10 -54 53.5 -72.5t102.5 -5.5zM258 324q-2 -3 0 -7t6 -4h504q4 0 6 4t0 7l-252 749q-2 5 -6 5t-6 -5z" />
    <glyph glyph-name="aring.sc" horiz-adv-x="1032" 
d="M516 1325q-86 0 -146.5 59t-60.5 144t60.5 144t146.5 59t146.5 -59t60.5 -144t-60.5 -144t-146.5 -59zM516 1675q-62 0 -105.5 -42.5t-43.5 -104.5q0 -63 43.5 -105.5t105.5 -42.5t106 43t44 105t-44 104.5t-106 42.5zM901 0q-18 0 -24 16l-74 224q-2 6 -8 6h-557
q-7 0 -9 -6l-73 -224q-6 -16 -25 -16h-37q-23 0 -16 23l387 1140q7 17 24 17h50q17 0 24 -17l391 -1140q7 -23 -16 -23h-37zM258 324q-2 -3 0 -7t6 -4h504q4 0 6 4t0 7l-252 749q-2 5 -6 5t-6 -5z" />
    <glyph glyph-name="atilde.sc" horiz-adv-x="1032" 
d="M426 1473q-35 0 -59 -11.5t-50 -46.5q-13 -16 -28 -6l-15 10q-15 12 -6 29q59 90 156 90q23 0 47 -8.5t35 -14.5t39 -24q65 -45 100 -45q65 0 111 63q10 17 26 7l13 -7q19 -11 8 -28q-28 -52 -72.5 -76.5t-85.5 -24.5q-54 0 -121 50q-23 17 -33.5 23.5t-28.5 13t-36 6.5z
M901 0q-18 0 -24 16l-74 224q-2 6 -8 6h-557q-7 0 -9 -6l-73 -224q-6 -16 -25 -16h-37q-23 0 -16 23l387 1140q7 17 24 17h50q17 0 24 -17l391 -1140q7 -23 -16 -23h-37zM258 324q-2 -3 0 -7t6 -4h504q4 0 6 4t0 7l-252 749q-2 5 -6 5t-6 -5z" />
    <glyph glyph-name="ae.sc" horiz-adv-x="1599" 
d="M1485 1128q0 -20 -21 -20h-606q-8 0 -8 -8v-463q0 -8 8 -8h412q20 0 20 -21v-33q0 -20 -20 -20h-412q-8 0 -8 -8v-467q0 -8 8 -8h606q9 0 15 -6t6 -15v-31q0 -20 -21 -20h-676q-20 0 -20 20v218q0 8 -8 8h-459q-7 0 -10 -6l-123 -226q-6 -14 -25 -14h-45q-12 0 -16 7
t2 18l635 1140q11 15 24 15h721q9 0 15 -6t6 -15v-31zM338 324q-2 -3 -1 -7t5 -4h418q8 0 8 9v759q0 4 -1.5 5.5t-4 0.5t-4.5 -4z" />
    <glyph glyph-name="b.sc" horiz-adv-x="1105" 
d="M768 614q-6 -2 -6 -4t6 -4q95 -37 146 -111.5t51 -177.5q0 -147 -96 -232t-253 -85h-409q-21 0 -21 20v1139q0 9 6 15t15 6h399q158 0 252 -82t94 -224q0 -94 -47.5 -160.5t-136.5 -99.5zM274 1108q-8 0 -8 -8v-449q0 -8 8 -8h334q119 0 191.5 62.5t72.5 164.5
q0 107 -72 172.5t-192 65.5h-334zM621 74q119 0 191.5 68t72.5 182q0 112 -76 180.5t-199 68.5h-336q-8 0 -8 -8v-483q0 -8 8 -8h347z" />
    <glyph glyph-name="c.sc" horiz-adv-x="1060" 
d="M541 -16q-182 0 -290 104t-108 279v448q0 173 108 276t290 103q178 0 285.5 -102.5t107.5 -274.5q0 -20 -21 -20l-39 -2q-20 0 -20 10v12q0 138 -85 217.5t-228 87.5q-144 6 -231 -78.5t-87 -226.5v-455q0 -141 86.5 -224t231.5 -83q141 0 227 83.5t86 223.5v3
q0 18 20 18l39 -2q21 0 21 -8v-8q0 -174 -107.5 -277.5t-285.5 -103.5z" />
    <glyph glyph-name="cacute.sc" horiz-adv-x="1060" 
d="M496 1352q-12 0 -16.5 7t1.5 17l125 228q6 14 25 14h39q12 0 16 -7t-2 -18l-135 -227q-11 -14 -25 -14h-28zM541 -16q-182 0 -290 104t-108 279v448q0 173 108 276t290 103q178 0 285.5 -102.5t107.5 -274.5q0 -20 -21 -20l-39 -2q-20 0 -20 10v12q0 138 -85 217.5
t-228 87.5q-144 6 -231 -78.5t-87 -226.5v-455q0 -141 86.5 -224t231.5 -83q141 0 227 83.5t86 223.5v3q0 18 20 18l39 -2q21 0 21 -8v-8q0 -174 -107.5 -277.5t-285.5 -103.5z" />
    <glyph glyph-name="ccaron.sc" horiz-adv-x="1060" 
d="M516 1309q-20 0 -27 12l-167 219q-8 9 -4 17t16 8h31q18 0 26 -13l144 -186q7 -10 12 0l139 186q8 13 27 13h30q12 0 16 -8t-3 -17l-170 -219q-9 -12 -27 -12h-43zM541 -16q-182 0 -290 104t-108 279v448q0 173 108 276t290 103q178 0 285.5 -102.5t107.5 -274.5
q0 -20 -21 -20l-39 -2q-20 0 -20 10v12q0 138 -85 217.5t-228 87.5q-144 6 -231 -78.5t-87 -226.5v-455q0 -141 86.5 -224t231.5 -83q141 0 227 83.5t86 223.5v3q0 18 20 18l39 -2q21 0 21 -8v-8q0 -174 -107.5 -277.5t-285.5 -103.5z" />
    <glyph glyph-name="ccedilla.sc" horiz-adv-x="1060" 
d="M934 807q0 -10 -21 -10l-39 -2q-20 0 -20 10v12q0 138 -85 217.5t-228 87.5q-144 6 -231 -78.5t-87 -226.5v-455q0 -141 86.5 -224t231.5 -83q141 0 227 83.5t86 223.5v3q0 18 20 18l39 -2q21 0 21 -8v-8q0 -174 -107.5 -277.5t-285.5 -103.5h-15q-5 0 -6.5 -4t2.5 -7
q134 -107 107 -235q-13 -55 -53 -85.5t-87 -32.5t-96 5q-20 3 -16 25l4 16q6 20 27 17q59 -13 102 4.5t53 72.5q19 101 -102 209l-27 25h2q-136 28 -214.5 126.5t-78.5 246.5v448q0 173 108 276t290 103q178 0 285.5 -102.5t107.5 -274.5v-10z" />
    <glyph glyph-name="cdotaccent.sc" horiz-adv-x="1060" 
d="M541 1384q-32 0 -54 20.5t-22 51.5q0 29 22 49.5t54 20.5q31 0 51 -20t20 -50q0 -31 -20 -51.5t-51 -20.5zM541 -16q-182 0 -290 104t-108 279v448q0 173 108 276t290 103q178 0 285.5 -102.5t107.5 -274.5q0 -20 -21 -20l-39 -2q-20 0 -20 10v12q0 138 -85 217.5
t-228 87.5q-144 6 -231 -78.5t-87 -226.5v-455q0 -141 86.5 -224t231.5 -83q141 0 227 83.5t86 223.5v3q0 18 20 18l39 -2q21 0 21 -8v-8q0 -174 -107.5 -277.5t-285.5 -103.5z" />
    <glyph glyph-name="d.sc" horiz-adv-x="1083" 
d="M207 0q-21 0 -21 20v1139q0 9 6 15t15 6h401q163 0 260 -85t97 -231v-547q0 -147 -96.5 -232t-260.5 -85h-401zM266 80q0 -8 8 -8h338q125 0 199 67.5t74 182.5v534q0 117 -74 184.5t-199 67.5h-338q-8 0 -8 -8v-1020z" />
    <glyph glyph-name="eth.sc" horiz-adv-x="1208" 
d="M733 1180q163 0 260 -85t97 -231v-547q0 -147 -96.5 -232t-260.5 -85h-401q-21 0 -21 20v553q0 9 -8 9h-96q-21 0 -21 20v21q0 20 21 20h96q8 0 8 8v508q0 9 6 15t15 6h401zM1010 322v534q0 117 -74 184.5t-199 67.5h-338q-8 0 -8 -8v-449q0 -8 8 -8h226q20 0 20 -20v-21
q0 -20 -20 -20h-226q-8 0 -8 -9v-493q0 -8 8 -8h338q125 0 199 67.5t74 182.5z" />
    <glyph glyph-name="dcaron.sc" horiz-adv-x="1083" 
d="M526 1303q-19 0 -26 12l-168 219q-8 9 -4 17t16 8h31q18 0 26 -13l144 -186q7 -10 12 0l139 186q8 13 27 13h31q12 0 16 -8t-4 -17l-170 -219q-9 -12 -27 -12h-43zM207 0q-21 0 -21 20v1139q0 9 6 15t15 6h401q163 0 260 -85t97 -231v-547q0 -147 -96.5 -232t-260.5 -85
h-401zM266 80q0 -8 8 -8h338q125 0 199 67.5t74 182.5v534q0 117 -74 184.5t-199 67.5h-338q-8 0 -8 -8v-1020z" />
    <glyph glyph-name="dcroat.sc" horiz-adv-x="1208" 
d="M733 1180q163 0 260 -85t97 -231v-547q0 -147 -96.5 -232t-260.5 -85h-401q-21 0 -21 20v553q0 9 -8 9h-96q-21 0 -21 20v21q0 20 21 20h96q8 0 8 8v508q0 9 6 15t15 6h401zM1010 322v534q0 117 -74 184.5t-199 67.5h-338q-8 0 -8 -8v-449q0 -8 8 -8h226q20 0 20 -20v-21
q0 -20 -20 -20h-226q-8 0 -8 -9v-493q0 -8 8 -8h338q125 0 199 67.5t74 182.5z" />
    <glyph glyph-name="e.sc" horiz-adv-x="1075" 
d="M961 1126q0 -20 -21 -20h-666q-8 0 -8 -8v-461q0 -8 8 -8h474q20 0 20 -21v-33q0 -20 -20 -20h-474q-8 0 -8 -8v-467q0 -8 8 -8h666q9 0 15 -6t6 -15v-31q0 -20 -21 -20h-733q-21 0 -21 20v1137q0 9 6 15t15 6h733q9 0 15 -6t6 -15v-31z" />
    <glyph glyph-name="eacute.sc" horiz-adv-x="1075" 
d="M657 1622q12 0 16.5 -7t-1.5 -18l-135 -227q-11 -14 -25 -14h-29q-12 0 -16 7t2 17l125 228q6 14 24 14h39zM961 1126q0 -20 -21 -20h-666q-8 0 -8 -8v-461q0 -8 8 -8h474q20 0 20 -21v-33q0 -20 -20 -20h-474q-8 0 -8 -8v-467q0 -8 8 -8h666q9 0 15 -6t6 -15v-31
q0 -20 -21 -20h-733q-21 0 -21 20v1137q0 9 6 15t15 6h733q9 0 15 -6t6 -15v-31z" />
    <glyph glyph-name="ecaron.sc" horiz-adv-x="1075" 
d="M573 1325q-9 -12 -26 -12h-43q-20 0 -27 12l-168 219q-7 9 -3 17t16 8h30q19 0 27 -13l143 -186q3 -4 7 -3.5t6 3.5l139 186q8 13 26 13h31q12 0 16 -8t-4 -17zM961 1126q0 -20 -21 -20h-666q-8 0 -8 -8v-461q0 -8 8 -8h474q20 0 20 -21v-33q0 -20 -20 -20h-474
q-8 0 -8 -8v-467q0 -8 8 -8h666q9 0 15 -6t6 -15v-31q0 -20 -21 -20h-733q-21 0 -21 20v1137q0 9 6 15t15 6h733q9 0 15 -6t6 -15v-31z" />
    <glyph glyph-name="uni0229.sc" horiz-adv-x="1075" 
d="M961 1126q0 -20 -21 -20h-666q-8 0 -8 -8v-461q0 -8 8 -8h474q20 0 20 -21v-33q0 -20 -20 -20h-474q-8 0 -8 -8v-467q0 -8 8 -8h666q9 0 15 -6t6 -15v-31q0 -20 -21 -20h-367q-5 0 -6.5 -3.5t2.5 -6.5q133 -108 105 -236q-13 -55 -53 -85t-87 -32t-96 5q-20 3 -16 24
l4 17q5 19 27 16q59 -13 102 5t53 73q21 105 -114 219q-2 4 -11 4h-276q-21 0 -21 20v1137q0 9 6 15t15 6h733q9 0 15 -6t6 -15v-31z" />
    <glyph glyph-name="ecircumflex.sc" horiz-adv-x="1075" 
d="M535 1536q-2 3 -6 3.5t-7 -3.5l-143 -186q-8 -13 -27 -13h-30q-12 0 -16 8t3 17l170 221q7 12 27 12h43q19 0 26 -12l170 -221q8 -9 4 -17t-16 -8h-31q-18 0 -26 13zM961 1126q0 -20 -21 -20h-666q-8 0 -8 -8v-461q0 -8 8 -8h474q20 0 20 -21v-33q0 -20 -20 -20h-474
q-8 0 -8 -8v-467q0 -8 8 -8h666q9 0 15 -6t6 -15v-31q0 -20 -21 -20h-733q-21 0 -21 20v1137q0 9 6 15t15 6h733q9 0 15 -6t6 -15v-31z" />
    <glyph glyph-name="edieresis.sc" horiz-adv-x="1075" 
d="M369 1425q-34 0 -56 21t-22 53q0 30 22.5 51t55.5 21q30 0 50.5 -21t20.5 -51q0 -32 -20 -53t-51 -21zM690 1425q-32 0 -54 21t-22 53q0 30 22 51t54 21t53 -21t21 -51q0 -32 -21 -53t-53 -21zM961 1126q0 -20 -21 -20h-666q-8 0 -8 -8v-461q0 -8 8 -8h474q20 0 20 -21
v-33q0 -20 -20 -20h-474q-8 0 -8 -8v-467q0 -8 8 -8h666q9 0 15 -6t6 -15v-31q0 -20 -21 -20h-733q-21 0 -21 20v1137q0 9 6 15t15 6h733q9 0 15 -6t6 -15v-31z" />
    <glyph glyph-name="edotaccent.sc" horiz-adv-x="1075" 
d="M528 1389q-32 0 -53.5 20t-21.5 51q0 29 21.5 49.5t53.5 20.5q31 0 51.5 -20.5t20.5 -49.5q0 -31 -20.5 -51t-51.5 -20zM961 1126q0 -20 -21 -20h-666q-8 0 -8 -8v-461q0 -8 8 -8h474q20 0 20 -21v-33q0 -20 -20 -20h-474q-8 0 -8 -8v-467q0 -8 8 -8h666q9 0 15 -6t6 -15
v-31q0 -20 -21 -20h-733q-21 0 -21 20v1137q0 9 6 15t15 6h733q9 0 15 -6t6 -15v-31z" />
    <glyph glyph-name="egrave.sc" horiz-adv-x="1075" 
d="M545 1380q6 -10 1.5 -17t-16.5 -7h-28q-14 0 -25 14l-135 227q-6 11 -2 18t16 7h39q19 0 25 -14zM961 1126q0 -20 -21 -20h-666q-8 0 -8 -8v-461q0 -8 8 -8h474q20 0 20 -21v-33q0 -20 -20 -20h-474q-8 0 -8 -8v-467q0 -8 8 -8h666q9 0 15 -6t6 -15v-31q0 -20 -21 -20
h-733q-21 0 -21 20v1137q0 9 6 15t15 6h733q9 0 15 -6t6 -15v-31z" />
    <glyph glyph-name="emacron.sc" horiz-adv-x="1075" 
d="M772 1466q21 0 21 -20v-25q0 -20 -21 -20h-485q-21 0 -21 20v25q0 20 21 20h485zM961 1126q0 -20 -21 -20h-666q-8 0 -8 -8v-461q0 -8 8 -8h474q20 0 20 -21v-33q0 -20 -20 -20h-474q-8 0 -8 -8v-467q0 -8 8 -8h666q9 0 15 -6t6 -15v-31q0 -20 -21 -20h-733q-21 0 -21 20
v1137q0 9 6 15t15 6h733q9 0 15 -6t6 -15v-31z" />
    <glyph glyph-name="eogonek.sc" horiz-adv-x="1075" 
d="M961 1126q0 -20 -21 -20h-666q-8 0 -8 -8v-461q0 -8 8 -8h474q20 0 20 -21v-33q0 -20 -20 -20h-474q-8 0 -8 -8v-467q0 -8 8 -8h666q9 0 15 -6t6 -15v-31q0 -20 -21 -20h-371q-6 0 -10 -4q-136 -115 -115 -219q10 -54 53.5 -72.5t102.5 -5.5q22 3 25 -16l4 -17
q6 -21 -15 -24q-49 -7 -96 -5t-86.5 32t-52.5 85q-28 129 104 236q4 3 2.5 6.5t-6.5 3.5h-272q-21 0 -21 20v1137q0 9 6 15t15 6h733q9 0 15 -6t6 -15v-31z" />
    <glyph glyph-name="f.sc" horiz-adv-x="999" 
d="M958 1128q0 -20 -20 -20h-664q-8 0 -8 -8v-463q0 -8 8 -8h471q9 0 15 -6t6 -15v-33q0 -20 -21 -20h-471q-8 0 -8 -8v-527q0 -20 -20 -20h-39q-21 0 -21 20v1139q0 9 6 15t15 6h731q20 0 20 -21v-31z" />
    <glyph glyph-name="g.sc" horiz-adv-x="1085" 
d="M553 -14q-187 0 -296.5 106t-109.5 297v402q0 192 109.5 297.5t296.5 105.5q183 0 291 -104t108 -289v-2q0 -21 -20 -21h-37q-9 0 -15 4t-6 9v10q0 153 -87 237t-234 84q-151 0 -238.5 -85.5t-87.5 -245.5v-404q0 -158 87.5 -244t238.5 -86q148 0 234.5 86t86.5 244v115
q0 8 -8 8h-278q-21 0 -21 20v31q0 9 6 15t15 6h344q20 0 20 -21v-172q0 -191 -108 -297t-291 -106z" />
    <glyph glyph-name="gbreve.sc" horiz-adv-x="1085" 
d="M549 1280q-81 0 -140 53t-67 131q-1 9 4 15t14 6h19q19 0 22 -21q6 -55 48.5 -92t99.5 -37t100 37t49 92q3 21 23 21h18q9 0 14.5 -6t4.5 -15q-8 -78 -67 -131t-142 -53zM553 -14q-187 0 -296.5 106t-109.5 297v402q0 192 109.5 297.5t296.5 105.5q183 0 291 -104
t108 -289v-2q0 -21 -20 -21h-37q-9 0 -15 4t-6 9v10q0 153 -87 237t-234 84q-151 0 -238.5 -85.5t-87.5 -245.5v-404q0 -158 87.5 -244t238.5 -86q148 0 234.5 86t86.5 244v115q0 8 -8 8h-278q-21 0 -21 20v31q0 9 6 15t15 6h344q20 0 20 -21v-172q0 -191 -108 -297
t-291 -106z" />
    <glyph glyph-name="uni0123.sc" horiz-adv-x="1085" 
d="M553 -14q-187 0 -296.5 106t-109.5 297v402q0 192 109.5 297.5t296.5 105.5q183 0 291 -104t108 -289v-2q0 -21 -20 -21h-37q-9 0 -15 4t-6 9v10q0 153 -87 237t-234 84q-151 0 -238.5 -85.5t-87.5 -245.5v-404q0 -158 87.5 -244t238.5 -86q148 0 234.5 86t86.5 244v115
q0 8 -8 8h-278q-21 0 -21 20v31q0 9 6 15t15 6h344q20 0 20 -21v-172q0 -191 -108 -297t-291 -106zM455 -401q-12 0 -16.5 6.5t1.5 17.5l125 227q6 15 25 15h39q12 0 16 -7.5t-2 -17.5l-135 -227q-11 -14 -25 -14h-28z" />
    <glyph glyph-name="gdotaccent.sc" horiz-adv-x="1085" 
d="M549 1384q-32 0 -54 20.5t-22 51.5q0 29 22 49.5t54 20.5q31 0 51.5 -20.5t20.5 -49.5q0 -31 -20.5 -51.5t-51.5 -20.5zM553 -14q-187 0 -296.5 106t-109.5 297v402q0 192 109.5 297.5t296.5 105.5q183 0 291 -104t108 -289v-2q0 -21 -20 -21h-37q-9 0 -15 4t-6 9v10
q0 153 -87 237t-234 84q-151 0 -238.5 -85.5t-87.5 -245.5v-404q0 -158 87.5 -244t238.5 -86q148 0 234.5 86t86.5 244v115q0 8 -8 8h-278q-21 0 -21 20v31q0 9 6 15t15 6h344q20 0 20 -21v-172q0 -191 -108 -297t-291 -106z" />
    <glyph glyph-name="h.sc" horiz-adv-x="1163" 
d="M901 1159q0 9 6 15t15 6h39q20 0 20 -21v-1139q0 -20 -20 -20h-39q-21 0 -21 20v527q0 8 -8 8h-619q-8 0 -8 -8v-527q0 -20 -20 -20h-39q-21 0 -21 20v1139q0 9 6 15t15 6h39q20 0 20 -21v-522q0 -8 8 -8h619q8 0 8 8v522z" />
    <glyph glyph-name="hbar.sc" horiz-adv-x="1163" 
d="M1149 926q20 0 20 -21v-24q0 -21 -20 -21h-160q-8 0 -8 -8v-832q0 -20 -20 -20h-39q-21 0 -21 20v527q0 8 -8 8h-619q-8 0 -8 -8v-527q0 -20 -20 -20h-39q-21 0 -21 20v832q0 8 -8 8h-162q-20 0 -20 21v24q0 21 20 21h162q8 0 8 8v225q0 9 6 15t15 6h39q20 0 20 -21v-225
q0 -8 8 -8h619q8 0 8 8v225q0 9 6 15t15 6h39q20 0 20 -21v-225q0 -8 8 -8h160zM893 629q8 0 8 8v215q0 8 -8 8h-619q-8 0 -8 -8v-215q0 -8 8 -8h619z" />
    <glyph glyph-name="i.sc" horiz-adv-x="452" 
d="M207 0q-21 0 -21 20v1137q0 9 6 15t15 6h39q20 0 20 -21v-1137q0 -20 -20 -20h-39z" />
    <glyph glyph-name="iacute.sc" horiz-adv-x="452" 
d="M182 1356q-12 0 -16 7t2 17l125 228q6 14 24 14h39q12 0 16.5 -7t-1.5 -18l-135 -227q-11 -14 -25 -14h-29zM207 0q-21 0 -21 20v1137q0 9 6 15t15 6h39q20 0 20 -21v-1137q0 -20 -20 -20h-39z" />
    <glyph glyph-name="icircumflex.sc" horiz-adv-x="452" 
d="M20 1337q-12 0 -16 8t4 17l170 221q7 12 27 12h43q19 0 26 -12l170 -221q8 -9 4 -17t-16 -8h-31q-18 0 -26 13l-142 186q-5 10 -12 0l-143 -186q-8 -13 -27 -13h-31zM207 0q-21 0 -21 20v1137q0 9 6 15t15 6h39q20 0 20 -21v-1137q0 -20 -20 -20h-39z" />
    <glyph glyph-name="idieresis.sc" horiz-adv-x="452" 
d="M68 1425q-34 0 -56 21t-22 53q0 30 22.5 51t55.5 21q30 0 50.5 -21t20.5 -51q0 -32 -20 -53t-51 -21zM389 1425q-32 0 -54 21t-22 53q0 30 22 51t54 21t53 -21t21 -51q0 -32 -21 -53t-53 -21zM207 0q-21 0 -21 20v1137q0 9 6 15t15 6h39q20 0 20 -21v-1137q0 -20 -20 -20
h-39z" />
    <glyph glyph-name="i.sc.loclTRK" horiz-adv-x="452" 
d="M227 1389q-32 0 -53.5 20t-21.5 51q0 29 21.5 49.5t53.5 20.5q31 0 51.5 -20.5t20.5 -49.5q0 -31 -20.5 -51t-51.5 -20zM207 0q-21 0 -21 20v1137q0 9 6 15t15 6h39q20 0 20 -21v-1137q0 -20 -20 -20h-39z" />
    <glyph glyph-name="igrave.sc" horiz-adv-x="452" 
d="M244 1380q6 -10 1.5 -17t-16.5 -7h-28q-15 0 -25 14l-135 227q-6 11 -2 18t16 7h39q19 0 25 -14zM207 0q-21 0 -21 20v1137q0 9 6 15t15 6h39q20 0 20 -21v-1137q0 -20 -20 -20h-39z" />
    <glyph glyph-name="ij.sc" horiz-adv-x="1462" 
d="M893 -14q-174 0 -278.5 99.5t-104.5 268.5v62q0 20 20 20h39q21 0 21 -20v-64q0 -136 82 -215.5t221 -79.5q138 0 221.5 80t83.5 215v807q0 9 6 15t15 6h36q9 0 15 -6t6 -15v-805q0 -169 -105 -268.5t-278 -99.5zM207 0q-21 0 -21 20v1137q0 9 6 15t15 6h39q20 0 20 -21
v-1137q0 -20 -20 -20h-39z" />
    <glyph glyph-name="imacron.sc" horiz-adv-x="452" 
d="M-14 1401q-21 0 -21 20v25q0 20 21 20h485q21 0 21 -20v-25q0 -20 -21 -20h-485zM207 0q-21 0 -21 20v1137q0 9 6 15t15 6h39q20 0 20 -21v-1137q0 -20 -20 -20h-39z" />
    <glyph glyph-name="iogonek.sc" horiz-adv-x="491" 
d="M293 -311q21 3 24 -17l5 -16q6 -22 -15 -25q-34 -9 -71.5 -6.5t-70 12.5t-58 37.5t-35.5 69.5q-28 138 125 250q5 5 -2 8q-9 6 -9 18v1137q0 9 6 15t15 6h39q20 0 20 -21v-1157l-10 -10q-140 -115 -119 -223q10 -54 53.5 -72.5t102.5 -5.5z" />
    <glyph glyph-name="j.sc" horiz-adv-x="1009" 
d="M440 -14q-174 0 -278.5 99.5t-104.5 268.5v62q0 20 21 20h39q20 0 20 -20v-64q0 -136 82 -215.5t221 -79.5q138 0 221.5 80t83.5 215v807q0 9 6 15t15 6h37q20 0 20 -21v-805q0 -169 -105 -268.5t-278 -99.5z" />
    <glyph glyph-name="k.sc" horiz-adv-x="1060" 
d="M207 0q-21 0 -21 20v1139q0 9 6 15t15 6h39q20 0 20 -21v-598q0 -4 3.5 -5.5t6.5 1.5l605 612q11 11 24 11h41q12 0 15.5 -7t-5.5 -18l-432 -453q-5 -5 -2 -12l479 -665q8 -9 4 -17t-16 -8h-47q-17 0 -24 12l-449 619q-5 9 -12 2l-187 -184q-4 -4 -4 -11v-418
q0 -20 -20 -20h-39z" />
    <glyph glyph-name="uni0137.sc" horiz-adv-x="1058" 
d="M207 0q-21 0 -21 20v1139q0 9 6 15t15 6h39q20 0 20 -21v-598q0 -4 3.5 -5.5t6.5 1.5l605 612q11 11 24 11h41q12 0 15.5 -7t-5.5 -18l-432 -453q-5 -5 -2 -12l479 -665q8 -9 4 -17t-16 -8h-47q-17 0 -24 12l-449 619q-5 9 -12 2l-187 -184q-4 -4 -4 -11v-418
q0 -20 -20 -20h-39zM487 -387q-12 0 -16 7.5t2 17.5l125 227q6 14 25 14h39q12 0 16 -6.5t-2 -17.5l-135 -228q-11 -14 -25 -14h-29z" />
    <glyph glyph-name="l.sc" horiz-adv-x="993" 
d="M207 0q-21 0 -21 20v1139q0 9 6 15t15 6h39q20 0 20 -21v-1079q0 -8 8 -8h627q9 0 15 -6t6 -15v-31q0 -20 -21 -20h-694z" />
    <glyph glyph-name="lacute.sc" horiz-adv-x="993" 
d="M180 1337q-12 0 -16 7.5t2 17.5l125 227q6 15 24 15h39q12 0 16.5 -7t-1.5 -18l-136 -227q-11 -15 -24 -15h-29zM207 0q-21 0 -21 20v1139q0 9 6 15t15 6h39q20 0 20 -21v-1079q0 -8 8 -8h627q9 0 15 -6t6 -15v-31q0 -20 -21 -20h-694z" />
    <glyph glyph-name="lcaron.sc" horiz-adv-x="993" 
d="M201 1294q-19 0 -27 13l-168 219q-8 9 -4 16.5t16 7.5h31q20 0 27 -12l143 -186q7 -10 12 0l140 186q7 12 26 12h31q12 0 16 -7.5t-4 -16.5l-170 -219q-10 -13 -26 -13h-43zM207 0q-21 0 -21 20v1139q0 9 6 15t15 6h39q20 0 20 -21v-1079q0 -8 8 -8h627q9 0 15 -6t6 -15
v-31q0 -20 -21 -20h-694z" />
    <glyph glyph-name="uni013C.sc" horiz-adv-x="993" 
d="M207 0q-21 0 -21 20v1139q0 9 6 15t15 6h39q20 0 20 -21v-1079q0 -8 8 -8h627q9 0 15 -6t6 -15v-31q0 -20 -21 -20h-694zM414 -387q-12 0 -16.5 7.5t1.5 17.5l125 227q6 14 25 14h39q12 0 16 -6.5t-2 -17.5l-135 -228q-11 -14 -25 -14h-28z" />
    <glyph glyph-name="lslash.sc" horiz-adv-x="1083" 
d="M266 80q0 -8 8 -8h627q9 0 15 -6t6 -15v-31q0 -20 -21 -20h-694q-21 0 -21 20v365q0 5 -3.5 7t-6.5 -1l-131 -94q-17 -14 -29 4l-14 21q-11 16 4 28l176 125q4 4 4 10v674q0 9 6 15t15 6h39q20 0 20 -21v-612q0 -5 3.5 -7t6.5 1l580 415q17 14 29 -4l16 -24
q10 -17 -4 -29l-625 -442q-6 -6 -6 -11v-366z" />
    <glyph glyph-name="m.sc" horiz-adv-x="1255" 
d="M207 0q-21 0 -21 20v1139q0 9 6 15t15 6h43q14 0 24 -13l347 -528q1 -3 6 -3t6 3l348 528q10 13 25 13h43q20 0 20 -21v-1139q0 -20 -20 -20h-39q-21 0 -21 20v1016q0 6 -3.5 8t-6.5 -4l-320 -485q-9 -12 -24 -12h-12q-16 0 -25 12l-322 485q-3 6 -6.5 4t-3.5 -8v-1016
q0 -20 -20 -20h-39z" />
    <glyph glyph-name="n.sc" horiz-adv-x="1193" 
d="M207 0q-21 0 -21 20v1137q0 9 6 15t15 6h43q13 0 24 -15l644 -1013q3 -6 6.5 -5t3.5 7v1005q0 21 20 21h39q9 0 15 -6t6 -15v-1137q0 -20 -21 -20h-43q-14 0 -24 14l-644 1016q-3 6 -6.5 5t-3.5 -7v-1008q0 -20 -20 -20h-39z" />
    <glyph glyph-name="nacute.sc" horiz-adv-x="1193" 
d="M551 1356q-12 0 -16 7t2 17l125 228q6 14 24 14h39q12 0 16 -7t-2 -18l-135 -227q-10 -14 -24 -14h-29zM207 0q-21 0 -21 20v1137q0 9 6 15t15 6h43q13 0 24 -15l644 -1013q3 -6 6.5 -5t3.5 7v1005q0 21 20 21h39q9 0 15 -6t6 -15v-1137q0 -20 -21 -20h-43q-14 0 -24 14
l-644 1016q-3 6 -6.5 5t-3.5 -7v-1008q0 -20 -20 -20h-39z" />
    <glyph glyph-name="ncaron.sc" horiz-adv-x="1193" 
d="M571 1313q-19 0 -26 12l-168 219q-8 9 -4 17t16 8h31q18 0 26 -13l144 -186q7 -10 12 0l139 186q8 13 27 13h31q12 0 16 -8t-4 -17l-170 -219q-9 -12 -27 -12h-43zM207 0q-21 0 -21 20v1137q0 9 6 15t15 6h43q13 0 24 -15l644 -1013q3 -6 6.5 -5t3.5 7v1005q0 21 20 21
h39q9 0 15 -6t6 -15v-1137q0 -20 -21 -20h-43q-14 0 -24 14l-644 1016q-3 6 -6.5 5t-3.5 -7v-1008q0 -20 -20 -20h-39z" />
    <glyph glyph-name="uni0146.sc" horiz-adv-x="1193" 
d="M207 0q-21 0 -21 20v1137q0 9 6 15t15 6h43q13 0 24 -15l644 -1013q3 -6 6.5 -5t3.5 7v1005q0 21 20 21h39q9 0 15 -6t6 -15v-1137q0 -20 -21 -20h-43q-14 0 -24 14l-644 1016q-3 6 -6.5 5t-3.5 -7v-1008q0 -20 -20 -20h-39zM508 -387q-12 0 -16 7.5t2 17.5l124 227
q6 14 25 14h39q12 0 16 -6.5t-2 -17.5l-135 -228q-11 -14 -24 -14h-29z" />
    <glyph glyph-name="eng.sc" horiz-adv-x="1193" 
d="M987 1178q9 0 15 -6t6 -15v-1143v-14q-2 -2 -2 -4q-3 -124 -56.5 -184.5t-177.5 -63.5q-20 0 -20 21v30q0 21 20 21q83 4 117.5 48t36.5 130q0 8 -2 10l-648 1022q-3 6 -6.5 5t-3.5 -7v-1008q0 -20 -20 -20h-39q-21 0 -21 20v1137q0 9 6 15t15 6h43q13 0 24 -15
l641 -1009q3 -6 7 -5t4 7v782v8q2 2 2 10v201q0 21 20 21h39z" />
    <glyph glyph-name="ntilde.sc" horiz-adv-x="1193" 
d="M725 1399q-55 0 -121 49q-23 17 -33.5 23.5t-28.5 13t-36 6.5q-35 0 -59 -11t-50 -46q-13 -17 -28 -7l-15 11q-14 11 -6 28q59 90 156 90q23 0 47 -8.5t35 -14.5t39 -24q65 -45 100 -45q65 0 111 64q10 16 26 6l12 -6q20 -12 3 -41q-30 -46 -71.5 -67t-80.5 -21zM207 0
q-21 0 -21 20v1137q0 9 6 15t15 6h43q13 0 24 -15l644 -1013q3 -6 6.5 -5t3.5 7v1005q0 21 20 21h39q9 0 15 -6t6 -15v-1137q0 -20 -21 -20h-43q-14 0 -24 14l-644 1016q-3 6 -6.5 5t-3.5 -7v-1008q0 -20 -20 -20h-39z" />
    <glyph glyph-name="o.sc" horiz-adv-x="1095" 
d="M547 -14q-184 0 -294 109t-110 294v399q0 187 110 296.5t294 109.5q183 0 294 -110t111 -296v-399q0 -185 -111 -294t-294 -109zM547 57q148 0 236.5 88t88.5 242v406q0 152 -88.5 240.5t-236.5 88.5q-149 0 -236.5 -88t-87.5 -241v-406q0 -154 87.5 -242t236.5 -88z" />
    <glyph glyph-name="oacute.sc" horiz-adv-x="1095" 
d="M502 1352q-12 0 -16.5 7t1.5 17l125 228q6 14 25 14h39q12 0 16 -7t-2 -18l-135 -227q-11 -14 -25 -14h-28zM547 -14q-184 0 -294 109t-110 294v399q0 187 110 296.5t294 109.5q183 0 294 -110t111 -296v-399q0 -185 -111 -294t-294 -109zM547 57q148 0 236.5 88
t88.5 242v406q0 152 -88.5 240.5t-236.5 88.5q-149 0 -236.5 -88t-87.5 -241v-406q0 -154 87.5 -242t236.5 -88z" />
    <glyph glyph-name="ocircumflex.sc" horiz-adv-x="1095" 
d="M340 1333q-12 0 -16 8t4 17l170 221q7 12 26 12h43q20 0 27 -12l170 -221q8 -9 4 -17t-16 -8h-31q-19 0 -27 13l-141 186q-5 10 -12 0l-144 -186q-8 -13 -26 -13h-31zM547 -14q-184 0 -294 109t-110 294v399q0 187 110 296.5t294 109.5q183 0 294 -110t111 -296v-399
q0 -185 -111 -294t-294 -109zM547 57q148 0 236.5 88t88.5 242v406q0 152 -88.5 240.5t-236.5 88.5q-149 0 -236.5 -88t-87.5 -241v-406q0 -154 87.5 -242t236.5 -88z" />
    <glyph glyph-name="odieresis.sc" horiz-adv-x="1095" 
d="M387 1421q-34 0 -56 21t-22 53q0 30 22.5 51t55.5 21q30 0 51 -21t21 -51q0 -32 -20.5 -53t-51.5 -21zM709 1421q-32 0 -54 21t-22 53q0 30 22 51t54 21t52.5 -21t20.5 -51q0 -32 -20.5 -53t-52.5 -21zM547 -14q-184 0 -294 109t-110 294v399q0 187 110 296.5t294 109.5
q183 0 294 -110t111 -296v-399q0 -185 -111 -294t-294 -109zM547 57q148 0 236.5 88t88.5 242v406q0 152 -88.5 240.5t-236.5 88.5q-149 0 -236.5 -88t-87.5 -241v-406q0 -154 87.5 -242t236.5 -88z" />
    <glyph glyph-name="ograve.sc" horiz-adv-x="1095" 
d="M563 1376q6 -10 2 -17t-16 -7h-29q-14 0 -24 14l-136 227q-6 11 -1.5 18t16.5 7h39q18 0 24 -14zM547 -14q-184 0 -294 109t-110 294v399q0 187 110 296.5t294 109.5q183 0 294 -110t111 -296v-399q0 -185 -111 -294t-294 -109zM547 57q148 0 236.5 88t88.5 242v406
q0 152 -88.5 240.5t-236.5 88.5q-149 0 -236.5 -88t-87.5 -241v-406q0 -154 87.5 -242t236.5 -88z" />
    <glyph glyph-name="ohungarumlaut.sc" horiz-adv-x="1095" 
d="M362 1348q-11 0 -16 7t0 17l123 227q6 15 25 15h34q12 0 16.5 -7t-1.5 -18l-127 -227q-10 -14 -25 -14h-29zM680 1348q-12 0 -16 7t2 17l125 227q6 15 24 15h33q12 0 16 -7t-2 -18l-129 -227q-11 -14 -24 -14h-29zM547 -14q-184 0 -294 109t-110 294v399q0 187 110 296.5
t294 109.5q183 0 294 -110t111 -296v-399q0 -185 -111 -294t-294 -109zM547 57q148 0 236.5 88t88.5 242v406q0 152 -88.5 240.5t-236.5 88.5q-149 0 -236.5 -88t-87.5 -241v-406q0 -154 87.5 -242t236.5 -88z" />
    <glyph glyph-name="omacron.sc" horiz-adv-x="1095" 
d="M305 1397q-20 0 -20 20v25q0 20 20 20h486q20 0 20 -20v-25q0 -20 -20 -20h-486zM547 -14q-184 0 -294 109t-110 294v399q0 187 110 296.5t294 109.5q183 0 294 -110t111 -296v-399q0 -185 -111 -294t-294 -109zM547 57q148 0 236.5 88t88.5 242v406q0 152 -88.5 240.5
t-236.5 88.5q-149 0 -236.5 -88t-87.5 -241v-406q0 -154 87.5 -242t236.5 -88z" />
    <glyph glyph-name="oslash.sc" horiz-adv-x="1095" 
d="M825 1106q-2 -7 4 -10q123 -110 123 -308v-399q0 -185 -111 -294t-294 -109q-114 0 -193 39q-9 3 -12 -5l-86 -190q-5 -16 -23 -16h-30q-11 0 -16 7t-1 17l101 221q3 8 -4 11q-67 52 -103.5 134t-36.5 185v399q0 187 110 296.5t294 109.5q125 0 213 -49q10 -3 12 4
l105 233q6 17 22 17h31q11 0 15.5 -7.5t0.5 -17.5zM223 387q0 -156 88 -244q9 -6 13 2l409 920q3 8 -2 10q-80 47 -184 47q-149 0 -236.5 -88t-87.5 -241v-406zM872 387v406q0 137 -75 225q-7 7 -11 -2l-405 -912q-3 -9 2 -12q72 -35 164 -35q148 0 236.5 88t88.5 242z" />
    <glyph glyph-name="otilde.sc" horiz-adv-x="1095" 
d="M676 1395q-55 0 -121 49q-23 17 -33.5 23.5t-28.5 13t-36 6.5q-35 0 -59 -11t-50 -46q-14 -17 -29 -7l-14 11q-14 11 -6 28q59 90 156 90q7 0 14.5 -1t13 -2t13 -3t12 -3.5t12 -5.5t11 -5.5t11.5 -6t11 -6.5t11.5 -7.5t10.5 -6.5q65 -45 101 -45q64 0 110 64q10 16 27 6
l12 -6q20 -12 2 -41q-30 -46 -71 -67t-80 -21zM547 -14q-184 0 -294 109t-110 294v399q0 187 110 296.5t294 109.5q183 0 294 -110t111 -296v-399q0 -185 -111 -294t-294 -109zM547 57q148 0 236.5 88t88.5 242v406q0 152 -88.5 240.5t-236.5 88.5q-149 0 -236.5 -88
t-87.5 -241v-406q0 -154 87.5 -242t236.5 -88z" />
    <glyph glyph-name="oe.sc" horiz-adv-x="1605" 
d="M1491 1128q0 -20 -21 -20h-573q-8 0 -8 -8v-463q0 -8 8 -8h383q20 0 20 -21v-33q0 -20 -20 -20h-383q-8 0 -8 -8v-467q0 -8 8 -8h573q9 0 15 -6t6 -15v-31q0 -20 -21 -20h-641q-20 0 -20 20v105q0 5 -3.5 6.5t-6.5 -2.5q-48 -68 -125 -105.5t-174 -37.5q-157 0 -257 102
t-100 266v469q0 165 100 268t257 103q97 0 174 -37.5t125 -105.5q3 -4 6.5 -2.5t3.5 6.5v104q0 21 20 21h641q9 0 15 -6t6 -15v-31zM512 57q134 0 215.5 80.5t81.5 212.5v477q0 132 -82 213.5t-215 81.5q-129 0 -209 -81.5t-80 -213.5v-477q0 -132 80 -212.5t209 -80.5z" />
    <glyph glyph-name="p.sc" horiz-adv-x="1032" 
d="M635 1184q146 0 237 -88.5t91 -231.5q0 -142 -91 -228.5t-239 -86.5h-373q-8 0 -8 -8v-521q0 -20 -21 -20h-38q-21 0 -21 20v1143q0 9 6 15t15 6h442zM633 618q111 0 180.5 68t69.5 178t-70 179t-180 69h-373q-8 0 -8 -8v-477q0 -9 8 -9h373z" />
    </font>
</defs>
</svg>
